{
	"asset":{
		"generator":"Khronos glTF Blender I/O v4.0.44",
		"version":"2.0"
	},
	"scene":0,
	"scenes":[
		{
			"name":"Scene",
			"nodes":[
				0,
				1,
				2,
				3
			]
		}
	],
	"nodes":[
		{
			"mesh":0,
			"name":"Cube",
			"scale":[
				1,
				1.3762656450271606,
				0.4199104905128479
			]
		},
		{
			"mesh":1,
			"name":"Cube.001",
			"rotation":[
				0,
				0,
				-1,
				0
			],
			"scale":[
				-0.11000195145606995,
				-0.09775024652481079,
				-0.06999119371175766
			],
			"translation":[
				-2.1204793453216553,
				-0.727954626083374,
				0.13309019804000854
			]
		},
		{
			"mesh":2,
			"name":"Cube.002",
			"rotation":[
				0,
				0,
				-1,
				0
			],
			"scale":[
				-0.11000195145606995,
				-0.09775024652481079,
				-0.06999119371175766
			],
			"translation":[
				-1.7811884880065918,
				-0.727954626083374,
				0.13309019804000854
			]
		},
		{
			"mesh":3,
			"name":"Cylinder",
			"scale":[
				1,
				0.3543156385421753,
				1
			],
			"translation":[
				-3.5285604000091553,
				-0.987577497959137,
				0.7663674354553223
			]
		}
	],
	"materials":[
		{
			"doubleSided":true,
			"name":"Material.001",
			"pbrMetallicRoughness":{
				"baseColorTexture":{
					"index":0
				},
				"metallicFactor":0,
				"roughnessFactor":0.5
			}
		},
		{
			"doubleSided":true,
			"name":"snack",
			"pbrMetallicRoughness":{
				"baseColorFactor":[
					1,
					0.3196744918823242,
					0.06080031022429466,
					1
				],
				"metallicFactor":0,
				"roughnessFactor":0.5
			}
		},
		{
			"doubleSided":true,
			"name":"hole",
			"pbrMetallicRoughness":{
				"baseColorFactor":[
					0.6130613684654236,
					0.19878420233726501,
					0.040046438574790955,
					1
				],
				"metallicFactor":0,
				"roughnessFactor":0.5
			}
		},
		{
			"doubleSided":true,
			"name":"Material.017",
			"pbrMetallicRoughness":{
				"baseColorFactor":[
					0.4011063873767853,
					0.800614058971405,
					0.13419802486896515,
					1
				],
				"metallicFactor":0,
				"roughnessFactor":0.5
			}
		},
		{
			"doubleSided":true,
			"name":"Material.018",
			"pbrMetallicRoughness":{
				"baseColorFactor":[
					0.009035955183207989,
					0.8002825975418091,
					0.4427643418312073,
					1
				],
				"metallicFactor":0,
				"roughnessFactor":0.5
			}
		},
		{
			"doubleSided":true,
			"name":"Material.019",
			"pbrMetallicRoughness":{
				"baseColorFactor":[
					1,
					0.23454499244689941,
					0.010536055080592632,
					1
				],
				"metallicFactor":0,
				"roughnessFactor":0.5
			}
		}
	],
	"meshes":[
		{
			"name":"Cube.001",
			"primitives":[
				{
					"attributes":{
						"POSITION":0,
						"NORMAL":1,
						"TEXCOORD_0":2
					},
					"indices":3,
					"material":0
				}
			]
		},
		{
			"name":"Cube.003",
			"primitives":[
				{
					"attributes":{
						"POSITION":4,
						"NORMAL":5,
						"TEXCOORD_0":6
					},
					"indices":7,
					"material":1
				},
				{
					"attributes":{
						"POSITION":8,
						"NORMAL":9,
						"TEXCOORD_0":10
					},
					"indices":11,
					"material":2
				}
			]
		},
		{
			"name":"Cube.004",
			"primitives":[
				{
					"attributes":{
						"POSITION":12,
						"NORMAL":13,
						"TEXCOORD_0":14
					},
					"indices":15,
					"material":1
				},
				{
					"attributes":{
						"POSITION":16,
						"NORMAL":17,
						"TEXCOORD_0":18
					},
					"indices":19,
					"material":2
				}
			]
		},
		{
			"name":"Cylinder.004",
			"primitives":[
				{
					"attributes":{
						"POSITION":20,
						"NORMAL":21,
						"TEXCOORD_0":22
					},
					"indices":23,
					"material":3
				},
				{
					"attributes":{
						"POSITION":24,
						"NORMAL":25,
						"TEXCOORD_0":26
					},
					"indices":27,
					"material":4
				},
				{
					"attributes":{
						"POSITION":28,
						"NORMAL":29,
						"TEXCOORD_0":30
					},
					"indices":31,
					"material":5
				}
			]
		}
	],
	"textures":[
		{
			"sampler":0,
			"source":0
		}
	],
	"images":[
		{
			"mimeType":"image/jpeg",
			"name":"2de907148122345.62cfae146c590",
			"uri":"2de907148122345_62cfae146c590.jpg"
		}
	],
	"accessors":[
		{
			"bufferView":0,
			"componentType":5126,
			"count":24,
			"max":[
				1,
				1,
				1
			],
			"min":[
				-1,
				-1,
				-1
			],
			"type":"VEC3"
		},
		{
			"bufferView":1,
			"componentType":5126,
			"count":24,
			"type":"VEC3"
		},
		{
			"bufferView":2,
			"componentType":5126,
			"count":24,
			"type":"VEC2"
		},
		{
			"bufferView":3,
			"componentType":5123,
			"count":36,
			"type":"SCALAR"
		},
		{
			"bufferView":4,
			"componentType":5126,
			"count":1143,
			"max":[
				1.1926589012145996,
				4.1150970458984375,
				0.42178234457969666
			],
			"min":[
				-1.1847991943359375,
				-1.1343694925308228,
				-0.4304993152618408
			],
			"type":"VEC3"
		},
		{
			"bufferView":5,
			"componentType":5126,
			"count":1143,
			"type":"VEC3"
		},
		{
			"bufferView":6,
			"componentType":5126,
			"count":1143,
			"type":"VEC2"
		},
		{
			"bufferView":7,
			"componentType":5123,
			"count":6111,
			"type":"SCALAR"
		},
		{
			"bufferView":8,
			"componentType":5126,
			"count":1025,
			"max":[
				0.4411243796348572,
				2.596250534057617,
				-0.10524529218673706
			],
			"min":[
				-0.4190666079521179,
				0.6056485176086426,
				-0.42634081840515137
			],
			"type":"VEC3"
		},
		{
			"bufferView":9,
			"componentType":5126,
			"count":1025,
			"type":"VEC3"
		},
		{
			"bufferView":10,
			"componentType":5126,
			"count":1025,
			"type":"VEC2"
		},
		{
			"bufferView":11,
			"componentType":5123,
			"count":1887,
			"type":"SCALAR"
		},
		{
			"bufferView":12,
			"componentType":5126,
			"count":1987,
			"max":[
				1.082011103630066,
				4.115219593048096,
				0.4339597821235657
			],
			"min":[
				-1.2011560201644897,
				-1.126112699508667,
				-0.42794761061668396
			],
			"type":"VEC3"
		},
		{
			"bufferView":13,
			"componentType":5126,
			"count":1987,
			"type":"VEC3"
		},
		{
			"bufferView":14,
			"componentType":5126,
			"count":1987,
			"type":"VEC2"
		},
		{
			"bufferView":15,
			"componentType":5123,
			"count":7644,
			"type":"SCALAR"
		},
		{
			"bufferView":16,
			"componentType":5126,
			"count":192,
			"max":[
				0.45313459634780884,
				2.596250534057617,
				-0.10524529218673706
			],
			"min":[
				-0.40705639123916626,
				0.6056485176086426,
				-0.10524532198905945
			],
			"type":"VEC3"
		},
		{
			"bufferView":17,
			"componentType":5126,
			"count":192,
			"type":"VEC3"
		},
		{
			"bufferView":18,
			"componentType":5126,
			"count":192,
			"type":"VEC2"
		},
		{
			"bufferView":19,
			"componentType":5123,
			"count":540,
			"type":"SCALAR"
		},
		{
			"bufferView":20,
			"componentType":5126,
			"count":3378,
			"max":[
				0.9935951828956604,
				0.46466776728630066,
				0.9935951828956604
			],
			"min":[
				-0.9935951828956604,
				-0.3579097390174866,
				-0.9935952425003052
			],
			"type":"VEC3"
		},
		{
			"bufferView":21,
			"componentType":5126,
			"count":3378,
			"type":"VEC3"
		},
		{
			"bufferView":22,
			"componentType":5126,
			"count":3378,
			"type":"VEC2"
		},
		{
			"bufferView":23,
			"componentType":5123,
			"count":12417,
			"type":"SCALAR"
		},
		{
			"bufferView":24,
			"componentType":5126,
			"count":2966,
			"max":[
				0.9935953617095947,
				1.000000238418579,
				0.9935953617095947
			],
			"min":[
				-0.9935953617095947,
				-0.9887791275978088,
				-0.9935952425003052
			],
			"type":"VEC3"
		},
		{
			"bufferView":25,
			"componentType":5126,
			"count":2966,
			"type":"VEC3"
		},
		{
			"bufferView":26,
			"componentType":5126,
			"count":2966,
			"type":"VEC2"
		},
		{
			"bufferView":27,
			"componentType":5123,
			"count":14592,
			"type":"SCALAR"
		},
		{
			"bufferView":28,
			"componentType":5126,
			"count":2100,
			"max":[
				0.2166316956281662,
				0.42115873098373413,
				0.9935951232910156
			],
			"min":[
				-0.2484474629163742,
				-0.28407055139541626,
				0.9618721604347229
			],
			"type":"VEC3"
		},
		{
			"bufferView":29,
			"componentType":5126,
			"count":2100,
			"type":"VEC3"
		},
		{
			"bufferView":30,
			"componentType":5126,
			"count":2100,
			"type":"VEC2"
		},
		{
			"bufferView":31,
			"componentType":5123,
			"count":6297,
			"type":"SCALAR"
		}
	],
	"bufferViews":[
		{
			"buffer":0,
			"byteLength":288,
			"byteOffset":0,
			"target":34962
		},
		{
			"buffer":0,
			"byteLength":288,
			"byteOffset":288,
			"target":34962
		},
		{
			"buffer":0,
			"byteLength":192,
			"byteOffset":576,
			"target":34962
		},
		{
			"buffer":0,
			"byteLength":72,
			"byteOffset":768,
			"target":34963
		},
		{
			"buffer":0,
			"byteLength":13716,
			"byteOffset":840,
			"target":34962
		},
		{
			"buffer":0,
			"byteLength":13716,
			"byteOffset":14556,
			"target":34962
		},
		{
			"buffer":0,
			"byteLength":9144,
			"byteOffset":28272,
			"target":34962
		},
		{
			"buffer":0,
			"byteLength":12222,
			"byteOffset":37416,
			"target":34963
		},
		{
			"buffer":0,
			"byteLength":12300,
			"byteOffset":49640,
			"target":34962
		},
		{
			"buffer":0,
			"byteLength":12300,
			"byteOffset":61940,
			"target":34962
		},
		{
			"buffer":0,
			"byteLength":8200,
			"byteOffset":74240,
			"target":34962
		},
		{
			"buffer":0,
			"byteLength":3774,
			"byteOffset":82440,
			"target":34963
		},
		{
			"buffer":0,
			"byteLength":23844,
			"byteOffset":86216,
			"target":34962
		},
		{
			"buffer":0,
			"byteLength":23844,
			"byteOffset":110060,
			"target":34962
		},
		{
			"buffer":0,
			"byteLength":15896,
			"byteOffset":133904,
			"target":34962
		},
		{
			"buffer":0,
			"byteLength":15288,
			"byteOffset":149800,
			"target":34963
		},
		{
			"buffer":0,
			"byteLength":2304,
			"byteOffset":165088,
			"target":34962
		},
		{
			"buffer":0,
			"byteLength":2304,
			"byteOffset":167392,
			"target":34962
		},
		{
			"buffer":0,
			"byteLength":1536,
			"byteOffset":169696,
			"target":34962
		},
		{
			"buffer":0,
			"byteLength":1080,
			"byteOffset":171232,
			"target":34963
		},
		{
			"buffer":0,
			"byteLength":40536,
			"byteOffset":172312,
			"target":34962
		},
		{
			"buffer":0,
			"byteLength":40536,
			"byteOffset":212848,
			"target":34962
		},
		{
			"buffer":0,
			"byteLength":27024,
			"byteOffset":253384,
			"target":34962
		},
		{
			"buffer":0,
			"byteLength":24834,
			"byteOffset":280408,
			"target":34963
		},
		{
			"buffer":0,
			"byteLength":35592,
			"byteOffset":305244,
			"target":34962
		},
		{
			"buffer":0,
			"byteLength":35592,
			"byteOffset":340836,
			"target":34962
		},
		{
			"buffer":0,
			"byteLength":23728,
			"byteOffset":376428,
			"target":34962
		},
		{
			"buffer":0,
			"byteLength":29184,
			"byteOffset":400156,
			"target":34963
		},
		{
			"buffer":0,
			"byteLength":25200,
			"byteOffset":429340,
			"target":34962
		},
		{
			"buffer":0,
			"byteLength":25200,
			"byteOffset":454540,
			"target":34962
		},
		{
			"buffer":0,
			"byteLength":16800,
			"byteOffset":479740,
			"target":34962
		},
		{
			"buffer":0,
			"byteLength":12594,
			"byteOffset":496540,
			"target":34963
		}
	],
	"samplers":[
		{
			"magFilter":9729,
			"minFilter":9987
		}
	],
	"buffers":[
		{
			"byteLength":509136,
			"uri":"scooby%20doo%21.bin"
		}
	]
}
