# Blender 4.1.0
# www.blender.org
mtllib Candle_Stick_OBJ_quarter.mtl
o Candle_Stick_OBJ
v 0.188851 58.722443 -0.047701
v 0.458265 58.624947 -0.163165
v 1.791440 63.825443 -0.143188
v 0.072599 58.748531 -0.263541
v 4.964653 -0.069751 -6.493762
v -1.960698 -0.069378 -7.895065
v -7.208276 -0.075375 -3.492250
v -7.377048 -0.069147 3.356769
v -1.960699 -0.069377 7.895068
v 4.964651 -0.069750 6.493764
v 8.287721 -0.064142 0.000006
v 2.657361 2.706264 -3.045098
v -0.638356 2.708139 -3.798412
v -3.277030 2.731601 -1.687241
v -3.281877 2.709679 1.691702
v -0.638357 2.708139 3.798418
v 2.657361 2.706264 3.045105
v 4.130479 2.682060 0.000006
v 4.098227 2.068226 -0.046450
v 2.601851 2.069967 -2.874297
v -0.485881 2.069091 -3.694266
v -3.299783 2.067797 -1.601673
v -3.163123 2.069497 1.905011
v -0.588515 2.070609 3.788468
v 2.691381 2.066977 3.155408
v 3.672581 29.656519 0.203167
v 2.438451 29.605732 -2.500976
v -0.401147 29.601208 -3.220597
v -2.696959 29.518957 -1.465891
v -2.843976 29.590309 1.421387
v -0.629411 29.594500 3.357728
v 2.265565 29.598795 2.827842
v 3.323840 9.148626 1.379855
v 0.860093 9.143105 -3.175140
v -2.739605 9.033118 -1.011518
v -1.655469 9.140591 2.797620
v 3.321985 6.837418 -1.102063
v -1.652315 6.872729 -2.631067
v -1.963604 6.848194 2.507686
v 2.106895 6.928318 2.606709
v 2.766544 30.914825 1.274958
v 1.999562 30.938526 -1.936174
v -0.227909 30.940758 -2.513550
v -2.145353 30.882681 -1.068898
v -2.066782 30.941748 1.332263
v -0.216688 30.940708 2.702652
v 5.017192 35.777431 0.073391
v 0.761005 35.037769 -3.666635
v -3.421203 35.001614 0.101193
v 0.777664 35.037861 3.850530
v 3.636314 35.857174 -4.334096
v -1.137257 35.858868 -5.402369
v -4.939422 35.866859 -2.344120
v -4.944981 35.873951 2.538523
v -1.108643 35.825340 5.585361
v 3.657102 35.871220 4.506321
v 0.905683 33.913635 -3.138924
v -2.760180 33.913635 1.238403
v 2.627717 33.913635 1.615448
v 3.067358 57.689804 0.053364
v 0.263956 60.982414 -2.985779
v -2.436055 61.274609 1.006446
v 1.431403 60.323460 2.543248
vn 0.9674 -0.2512 -0.0317
vn -0.6606 0.2834 -0.6952
vn 0.2859 0.9495 -0.1293
vn -0.2482 0.1134 0.9621
vn 0.8384 0.5430 -0.0475
vn 0.6752 0.2101 0.7071
vn 0.4418 -0.4008 -0.8026
vn 0.4967 0.5560 -0.6665
vn -0.5799 -0.0024 -0.8147
vn 0.9064 0.2834 -0.3132
vn 0.4222 0.2336 0.8759
vn 0.5127 0.2585 -0.8187
vn 0.9868 0.1404 -0.0805
vn -0.1577 0.2033 0.9663
vn -0.5882 0.2401 0.7722
vn -0.8689 0.2632 0.4192
vn 0.8650 0.2857 0.4125
vn 0.5995 -0.1016 0.7939
vn -0.3912 0.2273 -0.8918
vn 0.1596 -0.7434 -0.6495
vn 0.6494 0.0020 -0.7604
vn 0.8424 0.3797 -0.3822
vn -0.0218 -0.7678 0.6403
vn -0.5550 -0.8316 0.0207
vn -0.3989 0.2814 0.8728
vn -0.4021 0.1218 -0.9075
vn 0.6209 0.6553 0.4301
vn -0.7961 0.0934 0.5979
vn 0.8015 -0.0288 0.5973
vn 0.9498 0.3059 -0.0654
vn 0.0576 0.9167 0.3954
vn -0.0447 0.2728 -0.9610
vn -0.7382 0.3671 0.5660
vn -0.4880 0.8360 -0.2509
vn -0.1097 0.8306 -0.5459
vn -0.1399 0.8444 -0.5171
vn -0.4828 0.8452 -0.2291
vn -0.4837 0.8473 0.2195
vn -0.4961 0.8387 0.2248
vn -0.1295 0.8448 0.5191
vn -0.1318 0.8323 0.5385
vn 0.3326 0.8411 0.4266
vn 0.3457 0.8232 0.4504
vn 0.5404 0.8413 -0.0121
vn 0.5712 0.8207 0.0126
vn 0.3597 0.8343 -0.4178
vn 0.3140 0.8355 -0.4509
vn 0.9742 -0.1334 -0.1821
vn 0.2024 -0.0965 -0.9745
vn 0.1569 0.2422 -0.9574
vn -0.7722 -0.3589 -0.5243
vn -0.7762 0.5428 -0.3206
vn -0.6539 -0.4365 0.6180
vn -0.7395 0.5540 0.3823
vn -0.5423 0.2573 0.7998
vn -0.1482 0.2593 -0.9544
vn -0.9098 0.2626 -0.3213
vn 0.6163 0.2836 0.7347
vn -0.8353 0.3529 -0.4215
vn -0.8112 0.3474 0.4704
vn -0.1612 0.3813 0.9103
vn 0.0548 -0.0148 -0.9984
vn -0.9374 -0.0203 0.3475
vt 0.963298 0.383237
vt 0.937826 0.376096
vt 0.956637 0.186370
vt 0.918889 0.376404
vt 0.948254 0.186589
vt 0.188364 0.413481
vt 0.163569 0.001327
vt 0.257948 0.001327
vt 0.235186 0.413481
vt 0.520003 0.738073
vt 0.464491 0.778664
vt 0.409992 0.739867
vt 0.352828 0.777087
vt 0.327815 0.737049
vt 0.440044 0.619593
vt 0.383415 0.619613
vt 0.271590 0.619801
vt 0.244285 0.740547
vt 0.212658 0.617572
vt 0.843873 0.769959
vt 0.801040 0.737125
vt 0.802172 0.685022
vt 0.415419 0.784089
vt 0.390788 0.851579
vt 0.348089 0.784089
vt 0.245027 0.784089
vt 0.280232 0.851579
vt 0.170862 0.851579
vt 0.718641 0.918483
vt 0.684305 0.935806
vt 0.707862 0.881537
vt 0.742931 0.970380
vt 0.770314 0.999105
vt 0.712039 0.988131
vt 0.806845 0.956639
vt 0.666624 0.005037
vt 0.713735 0.327291
vt 0.618941 0.365117
vt 0.888903 0.952719
vt 0.828810 0.825587
vt 0.990139 0.863782
vt 0.945408 0.777147
vt 0.988726 0.374558
vt 0.663172 0.535466
vt 0.720851 0.580462
vt 0.697885 0.660704
vt 0.582805 0.571232
vt 0.582805 0.427730
vt 0.663025 0.463431
vt 0.697885 0.338258
vt 0.720851 0.418500
vt 0.841387 0.370190
vt 0.792917 0.434556
vt 0.905251 0.499481
vt 0.825101 0.499481
vt 0.792917 0.564406
vt 0.841387 0.628772
vt 0.993438 0.681986
vt 0.961325 0.746668
vt 0.889457 0.762508
vt 0.831952 0.717577
vt 0.832113 0.645709
vt 0.889818 0.601022
vt 0.961614 0.617167
vt 0.281943 0.413481
vt 0.331113 0.001327
vt 0.328755 0.413481
vt 0.001416 0.413481
vt 0.000499 0.001327
vt 0.068693 0.001327
vt 0.048140 0.413481
vt 0.094786 0.413481
vt 0.141536 0.413481
vt 0.154697 0.777275
vt 0.162877 0.734351
vt 0.241519 0.778468
vt 0.557818 0.777981
vt 0.500078 0.617453
vt 0.146781 0.623704
vt 0.566856 0.623526
vt 0.327205 0.618830
vt 0.785683 0.833218
vt 0.801793 0.854718
vt 0.715317 0.848726
vt 0.707619 0.875474
vt 0.659013 0.804734
vt 0.632265 0.816597
vt 0.632475 0.722423
vt 0.659170 0.734367
vt 0.708091 0.663866
vt 0.715669 0.690614
vt 0.486402 0.784089
vt 0.493615 0.851579
vt 0.037942 0.851579
vt 0.078492 0.784089
vt 0.144970 0.784089
vt 0.008060 0.784089
vt 0.764953 0.865985
vt 0.773093 0.900662
vt 0.812767 0.900943
vt 0.334641 0.382003
vt 0.334951 0.011398
vt 0.477096 0.008672
vt 0.474115 0.378993
vt 0.843228 0.001650
vt 0.866241 0.365484
s 1
usemtl group2SG
f 2/1/1 4/2/2 3/3/3
f 1/4/4 3/5/3 4/2/2
f 26/6/5 33/7/6 34/8/7 27/9/8
f 38/10/9 34/11/7 37/12/10
f 37/12/10 33/13/6 40/14/11
f 20/15/12 37/12/10 19/16/13
f 24/17/14 39/18/15 23/19/16
f 26/20/5 41/21/17 32/22/18
f 43/23/19 48/24/20 42/25/21
f 41/26/17 47/27/22 50/28/23
f 49/29/24 54/30/25 53/31/26
f 50/32/23 56/33/27 55/34/28
f 50/32/23 47/35/22 56/33/27
f 59/36/29 60/37/30 63/38/31
f 61/39/32 62/40/33 60/41/30
f 62/40/33 63/42/31 60/41/30
f 1/43/4 2/1/1 3/3/3
f 14/44/34 13/45/35 6/46/36 7/47/37
f 14/44/34 7/47/37 8/48/38 15/49/39
f 15/49/39 8/48/38 9/50/40 16/51/41
f 16/51/41 9/50/40 10/52/42 17/53/43
f 17/53/43 10/52/42 11/54/44 18/55/45
f 12/56/46 18/55/45 11/54/44 5/57/47
f 47/58/22 51/59/48 52/60/49 53/61/26 54/62/25 55/63/28 56/64/27
f 28/65/50 34/8/7 35/66/51 29/67/52
f 34/8/7 28/65/50 27/9/8
f 29/68/52 35/69/51 36/70/53 30/71/54
f 31/72/55 36/70/53 33/7/6 32/73/18
f 36/70/53 31/72/55 30/71/54
f 35/74/51 38/75/9 39/18/15 36/76/53
f 33/7/6 26/6/5 32/73/18
f 37/12/10 34/11/7 33/13/6
f 38/10/9 35/77/51 34/11/7
f 36/76/53 39/18/15 40/14/11 33/13/6
f 38/10/9 37/12/10 20/15/12 21/78/56
f 38/75/9 22/79/57 23/19/16 39/18/15
f 21/78/56 22/80/57 38/10/9
f 40/14/11 39/18/15 24/17/14 25/81/58
f 40/14/11 25/81/58 19/16/13 37/12/10
f 42/82/21 41/21/17 26/20/5 27/83/8
f 43/84/19 42/82/21 27/83/8 28/85/50
f 44/86/59 43/84/19 28/85/50 29/87/52
f 44/86/59 29/87/52 30/88/54 45/89/60
f 45/89/60 30/88/54 31/90/55 46/91/61
f 46/91/61 31/90/55 32/22/18 41/21/17
f 47/27/22 41/26/17 42/25/21 48/24/20
f 13/45/35 12/56/46 5/57/47 6/46/36
f 48/24/20 43/23/19 44/92/59 49/93/24
f 50/28/23 49/94/24 45/95/60 46/96/61
f 44/97/59 45/95/60 49/94/24
f 52/98/49 48/99/20 49/29/24 53/31/26
f 46/96/61 41/26/17 50/28/23
f 48/99/20 51/100/48 47/35/22
f 48/99/20 52/98/49 51/100/48
f 55/34/28 54/30/25 49/29/24 50/32/23
f 61/101/32 57/102/62 58/103/63 62/104/33
f 63/38/31 62/104/33 58/103/63 59/36/29
f 60/37/30 59/36/29 57/105/62 61/106/32
