ply
format ascii 1.0
comment VCGLIB generated
comment TextureFile SpidermanUV_square.bmp
element vertex 385
property float x
property float y
property float z
property float nx
property float ny
property float nz
property float texture_u
property float texture_v
element face 164
property list uchar int vertex_indices
end_header
0.075628 0.85471 2.2163 -0.7709141 -0.206218 0.6026321 0.697733 0.776293
0.068849 0.759281 2.17625 -0.7632324 -0.2031691 0.6133503 0.69179 0.782545
0.094032 0.753247 2.20513 -0.7640867 -0.2059149 0.6113678 0.68982 0.77973
0.045264 0.780829 2.15356 -0.7724299 -0.195656 0.6042109 0.69466 0.784346
0.027597 0.812953 2.14087 -0.7768862 -0.1905291 0.6001222 0.697784 0.784895
0.016285 0.852481 2.1388 -0.7739973 -0.2064931 0.5985723 0.701225 0.784172
0.013426 0.891078 2.14947 -0.7710763 -0.2222741 0.5966872 0.703921 0.782222
0.019315 0.923891 2.16931 -0.768563 -0.216777 0.6019291 0.705647 0.779567
0.034801 0.946987 2.19692 -0.762237 -0.208535 0.612787 0.706297 0.77624
0.057224 0.956172 2.22747 -0.7640867 -0.2059149 0.6113678 0.70561 0.772829
0.081629 0.948963 2.2561 -0.775203 -0.203232 0.598128 0.70368 0.770091
0.105101 0.927289 2.27976 -0.7769873 -0.2048751 0.5952452 0.700716 0.768238
0.123731 0.895326 2.29258 -0.7696823 -0.2164691 0.6006083 0.697542 0.767696
0.135933 0.857098 2.29394 -0.7696628 -0.20634 0.6041879 0.694306 0.76835
0.137902 0.8172 2.28398 -0.7733656 -0.1962409 0.6028227 0.691464 0.770352
0.131051 0.784227 2.264 -0.7764612 -0.2079251 0.5948741 0.689724 0.773059
0.115676 0.761258 2.23543 -0.7741253 -0.2094241 0.5973873 0.689076 0.776501
0.738901 1.1844 1.68049 0.3894602 -0.7914635 -0.4710693 0.681354 0.759874
0.842552 1.22539 1.69731 0.456842 -0.797863 -0.393332 0.714068 0.759874
0.796945 1.18157 1.73323 0.4380482 -0.7968983 -0.4160132 0.714068 0.792588
0.746441 1.26462 1.67252 0.3158159 -0.12864 -0.9400597 0.681354 0.759874
0.842552 1.22539 1.69731 0.2035001 -0.115728 -0.9722113 0.714068 0.759874
0.738901 1.1844 1.68049 0.3228348 -0.1236039 -0.9383495 0.714068 0.792588
0.655172 1.17966 1.6442 0.2098501 -0.130256 -0.9690183 0.681354 0.759874
0.746441 1.26462 1.67252 0.3158159 -0.12864 -0.9400597 0.714068 0.759874
0.664306 1.25973 1.63502 0.213694 -0.0959213 -0.97218 0.714068 0.759874
0.746441 1.26462 1.67252 0.3158159 -0.12864 -0.9400597 0.714068 0.792588
0.559657 1.17545 1.64152 -0.070011 0.0100103 -0.997496 0.681354 0.759874
0.655172 1.17966 1.6442 0.2098501 -0.130256 -0.9690183 0.714068 0.792588
0.544934 1.25662 1.65046 -0.129952 0.08521051 -0.987852 0.714068 0.759874
0.664306 1.25973 1.63502 0.213694 -0.0959213 -0.97218 0.714068 0.792588
0.791482 0.900511 1.6484 0.102727 0.9677917 -0.2298399 0.681354 0.759874
0.847415 0.907415 1.70247 0.130744 0.9721929 -0.194286 0.714068 0.759874
0.904058 0.891275 1.65983 0.142372 0.9734381 -0.1793 0.714068 0.792588
0.826435 0.831789 1.62373 0.207991 0.4265099 -0.8802438 0.681354 0.759874
0.791482 0.900511 1.6484 0.216623 0.425647 -0.8785779 0.714068 0.759874
0.904058 0.891275 1.65983 0.12461 0.3908601 -0.9119763 0.714068 0.792588
0.709463 0.880341 1.61124 0.104833 0.3934539 -0.9133478 0.681354 0.759874
0.826435 0.831789 1.62373 0.207991 0.4265099 -0.8802438 0.714068 0.792588
0.826435 0.831789 1.62373 0.207991 0.4265099 -0.8802438 0.714068 0.759874
0.745467 0.812277 1.58575 0.114233 0.360034 -0.9259192 0.714068 0.792588
0.61855 0.850773 1.60577 -0.100926 0.1763681 -0.9791365 0.681354 0.759874
0.709463 0.880341 1.61124 0.104833 0.3934539 -0.9133478 0.714068 0.759874
0.745467 0.812277 1.58575 0.114233 0.360034 -0.9259192 0.714068 0.759874
0.633273 0.769603 1.59683 -0.129952 0.08521051 -0.987852 0.714068 0.792588
0.581935 0.883025 1.83029 0.1782931 -0.9781724 -0.106726 0.711601 0.767132
0.068849 0.759281 2.17625 -0.07687732 -0.9067502 -0.4146011 0.69179 0.782545
0.557714 0.889219 1.80155 -0.0752604 -0.907637 -0.412954 0.707103 0.762538
0.094032 0.753247 2.20513 0.1770431 -0.9782385 -0.1081911 0.68982 0.77973
0.045264 0.780829 2.15356 -0.323076 -0.6806391 -0.6575351 0.69466 0.784346
0.534129 0.910767 1.77886 -0.3120591 -0.6962963 -0.6463673 0.701077 0.759945
0.027597 0.812953 2.14087 -0.5016149 -0.3724579 -0.7808058 0.697784 0.784895
0.51465 0.942696 1.76494 -0.4975878 -0.3836288 -0.7779687 0.694535 0.759878
0.016285 0.852481 2.1388 -0.6071093 -0.01980711 -0.7943714 0.701225 0.784172
0.503226 0.982099 1.76383 -0.6070679 -0.02002079 -0.7943978 0.688342 0.762413
0.013426 0.891078 2.14947 -0.629794 0.331653 -0.7024 0.703921 0.782222
0.500479 1.02082 1.77354 -0.6284877 0.3428248 -0.6981937 0.683838 0.766944
0.019315 0.923891 2.16931 -0.5649741 0.6487791 -0.5097941 0.705647 0.779567
0.50818 1.05383 1.79461 -0.5575572 0.6650763 -0.4967932 0.681357 0.772996
0.034801 0.946987 2.19692 -0.40877 0.8840109 -0.226786 0.706297 0.77624
0.523667 1.07692 1.82222 -0.4079199 0.8848158 -0.225172 0.681383 0.779545
0.057224 0.956172 2.22747 -0.177804 0.9782282 0.10703 0.70561 0.772829
0.545127 1.08595 1.85264 -0.176582 0.978251 0.10883 0.683883 0.78553
0.081629 0.948963 2.2561 0.08160732 0.9041863 0.4192701 0.70368 0.770091
0.569532 1.07874 1.88127 0.08566774 0.9019424 0.4232742 0.688469 0.790093
0.105101 0.927289 2.27976 0.3175821 0.6892443 0.6512173 0.700716 0.768238
0.593117 1.05719 1.90396 0.3207259 0.6856119 0.6535069 0.694514 0.792584
0.123731 0.895326 2.29258 0.4985016 0.3805147 0.7789125 0.697542 0.767696
0.611746 1.02523 1.91679 0.495661 0.386066 0.7779931 0.700796 0.792584
0.135933 0.857098 2.29394 0.6052772 0.02499511 0.7956223 0.694306 0.76835
0.623836 0.986876 1.91911 0.6052552 0.02514751 0.7956342 0.706762 0.790153
0.137902 0.8172 2.28398 0.6287012 -0.3370271 0.7008193 0.691464 0.770352
0.625917 0.947104 1.90819 0.6287593 -0.3425191 0.6980993 0.711534 0.785426
0.131051 0.784227 2.264 0.561942 -0.656917 0.502674 0.689724 0.773059
0.619066 0.914131 1.88821 0.5632368 -0.6531168 0.5061648 0.713955 0.779622
0.115676 0.761258 2.23543 0.4002621 -0.8915952 0.2117741 0.689076 0.776501
0.60358 0.891035 1.8606 0.4030339 -0.8891408 0.216777 0.714011 0.773071
0.466703 0.980652 1.71681 -0.610288 -0.0260024 -0.7917529 0.681354 0.759874
0.403745 1.06069 1.76248 -0.606388 -0.0204785 -0.7949051 0.714068 0.759874
0.465333 1.0441 1.71608 -0.6064719 -0.0195013 -0.7948658 0.714068 0.792588
0.403745 1.06069 1.76248 -0.606388 -0.0204785 -0.7949051 0.681354 0.759874
0.466703 0.980652 1.71681 -0.610288 -0.0260024 -0.7917529 0.714068 0.759874
0.406409 0.964518 1.764 -0.6107002 -0.02493501 -0.7914692 0.714068 0.792588
0.465333 1.0441 1.71608 -0.6064719 -0.0195013 -0.7948658 0.681354 0.759874
0.430299 1.14955 1.74067 -0.6108723 -0.01968441 -0.7914844 0.714068 0.759874
0.48263 1.10401 1.70125 -0.6083081 -0.0205084 -0.7934361 0.714068 0.792588
0.430299 1.14955 1.74067 -0.6108723 -0.01968441 -0.7914844 0.681354 0.759874
0.465333 1.0441 1.71608 -0.6064719 -0.0195013 -0.7948658 0.714068 0.759874
0.403745 1.06069 1.76248 -0.606388 -0.0204785 -0.7949051 0.714068 0.792588
0.48263 1.10401 1.70125 -0.6083081 -0.0205084 -0.7934361 0.681354 0.759874
0.478874 1.21788 1.70093 -0.600984 -0.0240185 -0.7989001 0.714068 0.759874
0.515839 1.14997 1.67557 -0.5966541 -0.02291961 -0.8021712 0.714068 0.792588
0.478874 1.21788 1.70093 -0.600984 -0.0240185 -0.7989001 0.681354 0.759874
0.48263 1.10401 1.70125 -0.6083081 -0.0205084 -0.7934361 0.714068 0.759874
0.430299 1.14955 1.74067 -0.6108723 -0.01968441 -0.7914844 0.714068 0.792588
0.515839 1.14997 1.67557 -0.5966541 -0.02291961 -0.8021712 0.681354 0.759874
0.544934 1.25662 1.65046 -0.6006482 -0.02429351 -0.7991443 0.714068 0.759874
0.559657 1.17545 1.64152 -0.6053562 -0.02215681 -0.7956463 0.714068 0.792588
0.544934 1.25662 1.65046 -0.6006482 -0.02429351 -0.7991443 0.681354 0.759874
0.515839 1.14997 1.67557 -0.5966541 -0.02291961 -0.8021712 0.714068 0.759874
0.478874 1.21788 1.70093 -0.600984 -0.0240185 -0.7989001 0.714068 0.792588
0.61855 0.850773 1.60577 -0.6021781 -0.0173045 -0.7981742 0.681354 0.759874
0.560035 0.770427 1.65166 -0.6051017 -0.01538129 -0.7959996 0.714068 0.759874
0.57013 0.850657 1.64261 -0.6052012 -0.01855561 -0.7958563 0.714068 0.792588
0.560035 0.770427 1.65166 -0.6051017 -0.01538129 -0.7959996 0.681354 0.759874
0.61855 0.850773 1.60577 -0.6021781 -0.0173045 -0.7981742 0.714068 0.759874
0.633273 0.769603 1.59683 -0.599331 -0.0205693 -0.800237 0.714068 0.792588
0.57013 0.850657 1.64261 -0.6052012 -0.01855561 -0.7958563 0.681354 0.759874
0.492136 0.80864 1.70312 -0.6051078 -0.02740679 -0.7956717 0.714068 0.759874
0.523855 0.876733 1.67622 -0.6029153 -0.03177122 -0.7971724 0.714068 0.792588
0.492136 0.80864 1.70312 -0.6051078 -0.02740679 -0.7956717 0.681354 0.759874
0.57013 0.850657 1.64261 -0.6052012 -0.01855561 -0.7958563 0.714068 0.759874
0.560035 0.770427 1.65166 -0.6051017 -0.01538129 -0.7959996 0.714068 0.792588
0.523855 0.876733 1.67622 -0.6029153 -0.03177122 -0.7971724 0.681354 0.759874
0.437424 0.875015 1.74203 -0.606986 -0.0222481 -0.794401 0.714068 0.759874
0.487602 0.921332 1.70256 -0.6077949 -0.02121069 -0.7938108 0.714068 0.792588
0.437424 0.875015 1.74203 -0.606986 -0.0222481 -0.794401 0.681354 0.759874
0.523855 0.876733 1.67622 -0.6029153 -0.03177122 -0.7971724 0.714068 0.759874
0.492136 0.80864 1.70312 -0.6051078 -0.02740679 -0.7956717 0.714068 0.792588
0.487602 0.921332 1.70256 -0.6077949 -0.02121069 -0.7938108 0.681354 0.759874
0.406409 0.964518 1.764 -0.6107002 -0.02493501 -0.7914692 0.714068 0.759874
0.466703 0.980652 1.71681 -0.610288 -0.0260024 -0.7917529 0.714068 0.792588
0.406409 0.964518 1.764 -0.6107002 -0.02493501 -0.7914692 0.681354 0.759874
0.487602 0.921332 1.70256 -0.6077949 -0.02121069 -0.7938108 0.714068 0.759874
0.437424 0.875015 1.74203 -0.606986 -0.0222481 -0.794401 0.714068 0.792588
0.754967 1.05557 2.08896 0.6053562 0.02215681 0.7956463 0.681354 0.759874
0.695081 0.97583 2.13675 0.6053562 0.02215681 0.7956463 0.714068 0.759874
0.756337 0.992124 2.08969 0.6053562 0.02215681 0.7956463 0.714068 0.792588
0.695081 0.97583 2.13675 0.6053562 0.02215681 0.7956463 0.681354 0.759874
0.754967 1.05557 2.08896 0.6053562 0.02215681 0.7956463 0.714068 0.759874
0.693379 1.07216 2.13536 0.6053562 0.02215681 0.7956463 0.714068 0.792588
0.772264 1.11548 2.07413 0.6029393 0.01767041 0.7975913 0.681354 0.759874
0.693379 1.07216 2.13536 0.6053562 0.02215681 0.7956463 0.714068 0.759874
0.754967 1.05557 2.08896 0.6053562 0.02215681 0.7956463 0.714068 0.792588
0.693379 1.07216 2.13536 0.6053562 0.02215681 0.7956463 0.681354 0.759874
0.772264 1.11548 2.07413 0.6029393 0.01767041 0.7975913 0.714068 0.759874
0.718971 1.16087 2.11342 0.6027233 0.02191251 0.7976494 0.714068 0.792588
0.805473 1.16144 2.04846 0.601289 0.0254835 0.7986251 0.681354 0.759874
0.718971 1.16087 2.11342 0.6027233 0.02191251 0.7976494 0.714068 0.759874
0.772264 1.11548 2.07413 0.6029393 0.01767041 0.7975913 0.714068 0.792588
0.718971 1.16087 2.11342 0.6027233 0.02191251 0.7976494 0.681354 0.759874
0.805473 1.16144 2.04846 0.601289 0.0254835 0.7986251 0.714068 0.759874
0.768508 1.22935 2.07382 0.6003698 0.02621539 0.7992927 0.714068 0.792588
0.849292 1.18693 2.01441 0.607513 0.0247515 0.793924 0.681354 0.759874
0.768508 1.22935 2.07382 0.6003698 0.02621539 0.7992927 0.714068 0.759874
0.805473 1.16144 2.04846 0.601289 0.0254835 0.7986251 0.714068 0.792588
0.768508 1.22935 2.07382 0.6003698 0.02621539 0.7992927 0.681354 0.759874
0.849292 1.18693 2.01441 0.607513 0.0247515 0.793924 0.714068 0.759874
0.834568 1.2681 2.02334 0.6059572 0.02151641 0.7952062 0.714068 0.792588
0.898008 1.18615 1.97649 0.6093143 0.02240151 0.7926124 0.681354 0.759874
0.834568 1.2681 2.02334 0.6059572 0.02151641 0.7952062 0.714068 0.759874
0.849292 1.18693 2.01441 0.607513 0.0247515 0.793924 0.714068 0.792588
0.834568 1.2681 2.02334 0.6059572 0.02151641 0.7952062 0.681354 0.759874
0.898008 1.18615 1.97649 0.6093143 0.02240151 0.7926124 0.714068 0.759874
0.907141 1.26622 1.96731 0.6080997 0.02160769 0.7935666 0.714068 0.792588
0.921303 1.18446 1.95882 0.6053562 0.02215681 0.7956463 0.681354 0.759874
0.907141 1.26622 1.96731 0.6080997 0.02160769 0.7935666 0.714068 0.759874
0.898008 1.18615 1.97649 0.6093143 0.02240151 0.7926124 0.714068 0.792588
0.907141 1.26622 1.96731 0.6080997 0.02160769 0.7935666 0.681354 0.759874
0.921303 1.18446 1.95882 0.6053562 0.02215681 0.7956463 0.714068 0.759874
0.92972 1.26552 1.95015 0.6053562 0.02215681 0.7956463 0.714068 0.792588
0.953229 1.18776 1.93443 0.6053562 0.02215681 0.7956463 0.681354 0.759874
0.92972 1.26552 1.95015 0.6053562 0.02215681 0.7956463 0.714068 0.759874
0.921303 1.18446 1.95882 0.6053562 0.02215681 0.7956463 0.714068 0.792588
0.92972 1.26552 1.95015 0.6053562 0.02215681 0.7956463 0.681354 0.759874
0.953229 1.18776 1.93443 0.6053562 0.02215681 0.7956463 0.714068 0.759874
0.998835 1.23159 1.89851 0.6053562 0.02215681 0.7956463 0.714068 0.792588
0.973778 0.901146 1.92679 0.6053562 0.02215681 0.7956463 0.681354 0.759874
1.06034 0.897465 1.86103 0.6053562 0.02215681 0.7956463 0.714068 0.759874
1.0037 0.913606 1.90368 0.6053562 0.02215681 0.7956463 0.714068 0.792588
1.06034 0.897465 1.86103 0.6053562 0.02215681 0.7956463 0.681354 0.759874
0.973778 0.901146 1.92679 0.6053562 0.02215681 0.7956463 0.714068 0.759874
1.00982 0.832113 1.90129 0.6053562 0.02215681 0.7956463 0.714068 0.792588
0.952299 0.886839 1.94353 0.6094149 0.0255139 0.7924409 0.681354 0.759874
1.00982 0.832113 1.90129 0.6053562 0.02215681 0.7956463 0.714068 0.759874
0.973778 0.901146 1.92679 0.6053562 0.02215681 0.7956463 0.714068 0.792588
1.00982 0.832113 1.90129 0.6053562 0.02215681 0.7956463 0.681354 0.759874
0.952299 0.886839 1.94353 0.6094149 0.0255139 0.7924409 0.714068 0.759874
0.988302 0.818774 1.91804 0.608394 0.0237743 0.793279 0.714068 0.792588
0.908184 0.862245 1.97865 0.6087017 0.02401839 0.7930356 0.681354 0.759874
0.988302 0.818774 1.91804 0.608394 0.0237743 0.793279 0.714068 0.759874
0.952299 0.886839 1.94353 0.6094149 0.0255139 0.7924409 0.714068 0.792588
0.988302 0.818774 1.91804 0.608394 0.0237743 0.793279 0.681354 0.759874
0.908184 0.862245 1.97865 0.6087017 0.02401839 0.7930356 0.714068 0.759874
0.922907 0.781076 1.96971 0.6066071 0.02081471 0.7947292 0.714068 0.792588
0.859764 0.862129 2.01549 0.5977172 0.01712131 0.8015242 0.681354 0.759874
0.922907 0.781076 1.96971 0.6066071 0.02081471 0.7947292 0.714068 0.759874
0.908184 0.862245 1.97865 0.6087017 0.02401839 0.7930356 0.714068 0.792588
0.922907 0.781076 1.96971 0.6066071 0.02081471 0.7947292 0.681354 0.759874
0.859764 0.862129 2.01549 0.5977172 0.01712131 0.8015242 0.714068 0.759874
0.849669 0.781899 2.02454 0.5998479 0.0171212 0.7999309 0.714068 0.792588
0.813489 0.888205 2.0491 0.6028103 0.02084431 0.7976123 0.681354 0.759874
0.849669 0.781899 2.02454 0.5998479 0.0171212 0.7999309 0.714068 0.759874
0.859764 0.862129 2.01549 0.5977172 0.01712131 0.8015242 0.714068 0.792588
0.849669 0.781899 2.02454 0.5998479 0.0171212 0.7999309 0.681354 0.759874
0.813489 0.888205 2.0491 0.6028103 0.02084431 0.7976123 0.714068 0.759874
0.780808 0.819952 2.07587 0.6053562 0.02215681 0.7956463 0.714068 0.792588
0.777236 0.932805 2.07544 0.6053562 0.02215681 0.7956463 0.681354 0.759874
0.780808 0.819952 2.07587 0.6053562 0.02215681 0.7956463 0.714068 0.759874
0.813489 0.888205 2.0491 0.6028103 0.02084431 0.7976123 0.714068 0.792588
0.780808 0.819952 2.07587 0.6053562 0.02215681 0.7956463 0.681354 0.759874
0.777236 0.932805 2.07544 0.6053562 0.02215681 0.7956463 0.714068 0.759874
0.727058 0.886487 2.11491 0.6053562 0.02215681 0.7956463 0.714068 0.792588
0.756337 0.992124 2.08969 0.6053562 0.02215681 0.7956463 0.681354 0.759874
0.727058 0.886487 2.11491 0.6053562 0.02215681 0.7956463 0.714068 0.759874
0.777236 0.932805 2.07544 0.6053562 0.02215681 0.7956463 0.714068 0.792588
0.727058 0.886487 2.11491 0.6053562 0.02215681 0.7956463 0.681354 0.759874
0.756337 0.992124 2.08969 0.6053562 0.02215681 0.7956463 0.714068 0.759874
0.695081 0.97583 2.13675 0.6053562 0.02215681 0.7956463 0.714068 0.792588
0.796945 1.18157 1.73323 0.4380482 -0.7968983 -0.4160132 0.681354 0.759874
0.998835 1.23159 1.89851 0.4876701 -0.7979302 -0.3542391 0.714068 0.792588
0.998835 1.23159 1.89851 0.4876701 -0.7979302 -0.3542391 0.681354 0.759874
0.953229 1.18776 1.93443 0.4876701 -0.7979302 -0.3542391 0.714068 0.759874
0.847415 0.907415 1.70247 0.130744 0.9721929 -0.194286 0.681354 0.759874
1.06034 0.897465 1.86103 0.1609899 0.9747027 -0.1550389 0.714068 0.759874
1.06034 0.897465 1.86103 0.1609899 0.9747027 -0.1550389 0.681354 0.759874
1.0037 0.913606 1.90368 0.1609899 0.9747027 -0.1550389 0.714068 0.792588
0.756337 0.992124 2.08969 0.7699771 0.204603 -0.6043781 0.681354 0.759874
0.465333 1.0441 1.71608 0.780161 -0.175058 -0.600586 0.714068 0.759874
0.754967 1.05557 2.08896 0.7800491 -0.175945 -0.6004721 0.714068 0.792588
0.465333 1.0441 1.71608 0.780161 -0.175058 -0.600586 0.681354 0.759874
0.756337 0.992124 2.08969 0.7699771 0.204603 -0.6043781 0.714068 0.759874
0.466703 0.980652 1.71681 0.7699897 0.2045979 -0.6043637 0.714068 0.792588
0.754967 1.05557 2.08896 0.7800491 -0.175945 -0.6004721 0.681354 0.759874
0.48263 1.10401 1.70125 0.6810079 -0.522642 -0.512907 0.714068 0.759874
0.772264 1.11548 2.07413 0.6798164 -0.5252053 -0.5118683 0.714068 0.792588
0.48263 1.10401 1.70125 0.6810079 -0.522642 -0.512907 0.681354 0.759874
0.754967 1.05557 2.08896 0.7800491 -0.175945 -0.6004721 0.714068 0.759874
0.465333 1.0441 1.71608 0.780161 -0.175058 -0.600586 0.714068 0.792588
0.772264 1.11548 2.07413 0.6798164 -0.5252053 -0.5118683 0.681354 0.759874
0.515839 1.14997 1.67557 0.4787887 -0.8064155 -0.3470668 0.714068 0.759874
0.805473 1.16144 2.04846 0.4763742 -0.8086684 -0.3451422 0.714068 0.792588
0.515839 1.14997 1.67557 0.4787887 -0.8064155 -0.3470668 0.681354 0.759874
0.772264 1.11548 2.07413 0.6798164 -0.5252053 -0.5118683 0.714068 0.759874
0.48263 1.10401 1.70125 0.6810079 -0.522642 -0.512907 0.714068 0.792588
0.805473 1.16144 2.04846 0.4763742 -0.8086684 -0.3451422 0.681354 0.759874
0.559657 1.17545 1.64152 0.240213 -0.9579219 -0.15711 0.714068 0.759874
0.849292 1.18693 2.01441 0.177558 -0.977607 -0.11295 0.714068 0.792588
0.559657 1.17545 1.64152 0.240213 -0.9579219 -0.15711 0.681354 0.759874
0.805473 1.16144 2.04846 0.4763742 -0.8086684 -0.3451422 0.714068 0.759874
0.515839 1.14997 1.67557 0.4787887 -0.8064155 -0.3470668 0.714068 0.792588
0.849292 1.18693 2.01441 0.177558 -0.977607 -0.11295 0.681354 0.759874
0.655172 1.17966 1.6442 0.04669338 -0.9988797 -0.007691067 0.714068 0.759874
0.898008 1.18615 1.97649 -0.0188603 -0.9995573 0.02301141 0.714068 0.792588
0.655172 1.17966 1.6442 0.04669338 -0.9988797 -0.007691067 0.681354 0.759874
0.849292 1.18693 2.01441 0.177558 -0.977607 -0.11295 0.714068 0.759874
0.559657 1.17545 1.64152 0.240213 -0.9579219 -0.15711 0.714068 0.792588
0.898008 1.18615 1.97649 -0.0188603 -0.9995573 0.02301141 0.681354 0.759874
0.738901 1.1844 1.68049 0.04944072 -0.9985794 -0.01986831 0.714068 0.759874
0.921303 1.18446 1.95882 0.007782156 -0.9999595 0.004517088 0.714068 0.792588
0.738901 1.1844 1.68049 0.04944072 -0.9985794 -0.01986831 0.681354 0.759874
0.898008 1.18615 1.97649 -0.0188603 -0.9995573 0.02301141 0.714068 0.759874
0.655172 1.17966 1.6442 0.04669338 -0.9988797 -0.007691067 0.714068 0.792588
0.921303 1.18446 1.95882 0.007782156 -0.9999595 0.004517088 0.681354 0.759874
0.796945 1.18157 1.73323 -0.109073 -0.9913653 0.07278723 0.714068 0.759874
0.953229 1.18776 1.93443 0.0794712 -0.996353 -0.0310685 0.714068 0.792588
0.796945 1.18157 1.73323 -0.109073 -0.9913653 0.07278723 0.681354 0.759874
0.921303 1.18446 1.95882 0.007782156 -0.9999595 0.004517088 0.714068 0.759874
0.738901 1.1844 1.68049 0.04944072 -0.9985794 -0.01986831 0.714068 0.792588
1.0037 0.913606 1.90368 -0.2655171 0.9486272 0.172067 0.681354 0.759874
0.791482 0.900511 1.6484 -0.3199961 0.9242792 0.208112 0.714068 0.759874
0.973778 0.901146 1.92679 -0.325209 0.920266 0.2176 0.714068 0.792588
0.791482 0.900511 1.6484 -0.3199961 0.9242792 0.208112 0.681354 0.759874
1.0037 0.913606 1.90368 -0.2655171 0.9486272 0.172067 0.714068 0.759874
0.847415 0.907415 1.70247 -0.3419419 0.9091808 0.2376259 0.714068 0.792588
0.973778 0.901146 1.92679 -0.325209 0.920266 0.2176 0.681354 0.759874
0.709463 0.880341 1.61124 -0.3170369 0.9243758 0.212172 0.714068 0.759874
0.952299 0.886839 1.94353 -0.3558261 0.9019713 0.2446131 0.714068 0.792588
0.709463 0.880341 1.61124 -0.3170369 0.9243758 0.212172 0.681354 0.759874
0.973778 0.901146 1.92679 -0.325209 0.920266 0.2176 0.714068 0.759874
0.791482 0.900511 1.6484 -0.3199961 0.9242792 0.208112 0.714068 0.792588
0.952299 0.886839 1.94353 -0.3558261 0.9019713 0.2446131 0.681354 0.759874
0.61855 0.850773 1.60577 -0.1258591 0.9898474 0.06604273 0.714068 0.759874
0.908184 0.862245 1.97865 -0.176979 0.978341 0.107365 0.714068 0.792588
0.61855 0.850773 1.60577 -0.1258591 0.9898474 0.06604273 0.681354 0.759874
0.952299 0.886839 1.94353 -0.3558261 0.9019713 0.2446131 0.714068 0.759874
0.709463 0.880341 1.61124 -0.3170369 0.9243758 0.212172 0.714068 0.792588
0.908184 0.862245 1.97865 -0.176979 0.978341 0.107365 0.681354 0.759874
0.57013 0.850657 1.64261 0.154271 0.976595 -0.149876 0.714068 0.759874
0.859764 0.862129 2.01549 0.151099 0.9774618 -0.147437 0.714068 0.792588
0.57013 0.850657 1.64261 0.154271 0.976595 -0.149876 0.681354 0.759874
0.908184 0.862245 1.97865 -0.176979 0.978341 0.107365 0.714068 0.759874
0.61855 0.850773 1.60577 -0.1258591 0.9898474 0.06604273 0.714068 0.792588
0.859764 0.862129 2.01549 0.151099 0.9774618 -0.147437 0.681354 0.759874
0.523855 0.876733 1.67622 0.4385302 0.8208744 -0.3658642 0.714068 0.759874
0.813489 0.888205 2.0491 0.4366679 0.8224907 -0.3644589 0.714068 0.792588
0.523855 0.876733 1.67622 0.4385302 0.8208744 -0.3658642 0.681354 0.759874
0.859764 0.862129 2.01549 0.151099 0.9774618 -0.147437 0.714068 0.759874
0.57013 0.850657 1.64261 0.154271 0.976595 -0.149876 0.714068 0.792588
0.813489 0.888205 2.0491 0.4366679 0.8224907 -0.3644589 0.681354 0.759874
0.487602 0.921332 1.70256 0.6460078 0.5597289 -0.5190159 0.714068 0.759874
0.777236 0.932805 2.07544 0.6455737 0.5605168 -0.5187058 0.714068 0.792588
0.487602 0.921332 1.70256 0.6460078 0.5597289 -0.5190159 0.681354 0.759874
0.813489 0.888205 2.0491 0.4366679 0.8224907 -0.3644589 0.714068 0.759874
0.523855 0.876733 1.67622 0.4385302 0.8208744 -0.3658642 0.714068 0.792588
0.777236 0.932805 2.07544 0.6455737 0.5605168 -0.5187058 0.681354 0.759874
0.466703 0.980652 1.71681 0.7699897 0.2045979 -0.6043637 0.714068 0.759874
0.756337 0.992124 2.08969 0.7699771 0.204603 -0.6043781 0.714068 0.792588
0.466703 0.980652 1.71681 0.7699897 0.2045979 -0.6043637 0.681354 0.759874
0.777236 0.932805 2.07544 0.6455737 0.5605168 -0.5187058 0.714068 0.759874
0.487602 0.921332 1.70256 0.6460078 0.5597289 -0.5190159 0.714068 0.792588
0.695081 0.97583 2.13675 -0.7703317 -0.2055459 0.6036057 0.681354 0.759874
0.693379 1.07216 2.13536 -0.7800349 0.178628 0.5996979 0.714068 0.759874
0.403745 1.06069 1.76248 -0.7802577 0.1773179 0.5997968 0.714068 0.792588
0.403745 1.06069 1.76248 -0.7802577 0.1773179 0.5997968 0.681354 0.759874
0.406409 0.964518 1.764 -0.7703143 -0.2055801 0.6036163 0.714068 0.759874
0.695081 0.97583 2.13675 -0.7703317 -0.2055459 0.6036057 0.714068 0.792588
0.693379 1.07216 2.13536 -0.7800349 0.178628 0.5996979 0.681354 0.759874
0.718971 1.16087 2.11342 -0.6793329 0.5270709 0.5105909 0.714068 0.759874
0.430299 1.14955 1.74067 -0.6795009 0.5265099 0.5109459 0.714068 0.792588
0.430299 1.14955 1.74067 -0.6795009 0.5265099 0.5109459 0.681354 0.759874
0.403745 1.06069 1.76248 -0.7802577 0.1773179 0.5997968 0.714068 0.759874
0.693379 1.07216 2.13536 -0.7800349 0.178628 0.5996979 0.714068 0.792588
0.718971 1.16087 2.11342 -0.6793329 0.5270709 0.5105909 0.681354 0.759874
0.768508 1.22935 2.07382 -0.4761991 0.8088342 0.3449951 0.714068 0.759874
0.478874 1.21788 1.70093 -0.4793651 0.8060742 0.3470641 0.714068 0.792588
0.478874 1.21788 1.70093 -0.4793651 0.8060742 0.3470641 0.681354 0.759874
0.430299 1.14955 1.74067 -0.6795009 0.5265099 0.5109459 0.714068 0.759874
0.718971 1.16087 2.11342 -0.6793329 0.5270709 0.5105909 0.714068 0.792588
0.768508 1.22935 2.07382 -0.4761991 0.8088342 0.3449951 0.681354 0.759874
0.834568 1.2681 2.02334 -0.176066 0.9780239 0.11167 0.714068 0.759874
0.544934 1.25662 1.65046 -0.225262 0.963398 0.145332 0.714068 0.792588
0.544934 1.25662 1.65046 -0.225262 0.963398 0.145332 0.681354 0.759874
0.478874 1.21788 1.70093 -0.4793651 0.8060742 0.3470641 0.714068 0.759874
0.768508 1.22935 2.07382 -0.4761991 0.8088342 0.3449951 0.714068 0.792588
0.834568 1.2681 2.02334 -0.176066 0.9780239 0.11167 0.681354 0.759874
0.907141 1.26622 1.96731 0.008820114 0.9997984 -0.01803621 0.714068 0.759874
0.664306 1.25973 1.63502 -0.03399801 0.9994202 -0.001831 0.714068 0.792588
0.664306 1.25973 1.63502 -0.03399801 0.9994202 -0.001831 0.681354 0.759874
0.544934 1.25662 1.65046 -0.225262 0.963398 0.145332 0.714068 0.759874
0.834568 1.2681 2.02334 -0.176066 0.9780239 0.11167 0.714068 0.792588
0.907141 1.26622 1.96731 0.008820114 0.9997984 -0.01803621 0.681354 0.759874
0.92972 1.26552 1.95015 0.1591571 0.9785045 -0.1311411 0.714068 0.759874
0.746441 1.26462 1.67252 0.04763958 0.9979386 -0.04300158 0.714068 0.792588
0.746441 1.26462 1.67252 0.04763958 0.9979386 -0.04300158 0.681354 0.759874
0.664306 1.25973 1.63502 -0.03399801 0.9994202 -0.001831 0.714068 0.759874
0.907141 1.26622 1.96731 0.008820114 0.9997984 -0.01803621 0.714068 0.792588
0.92972 1.26552 1.95015 0.1591571 0.9785045 -0.1311411 0.681354 0.759874
0.998835 1.23159 1.89851 0.275495 0.930188 -0.242596 0.714068 0.759874
0.842552 1.22539 1.69731 0.4030352 0.8721443 -0.2773571 0.714068 0.792588
0.842552 1.22539 1.69731 0.4030352 0.8721443 -0.2773571 0.681354 0.759874
0.746441 1.26462 1.67252 0.04763958 0.9979386 -0.04300158 0.714068 0.759874
0.92972 1.26552 1.95015 0.1591571 0.9785045 -0.1311411 0.714068 0.792588
1.06034 0.897465 1.86103 0.6049228 -0.6845177 -0.4068218 0.681354 0.759874
1.00982 0.832113 1.90129 0.4798019 -0.8167718 -0.3204279 0.714068 0.759874
0.826435 0.831789 1.62373 0.4071919 -0.8701129 -0.277666 0.714068 0.792588
0.826435 0.831789 1.62373 0.4071919 -0.8701129 -0.277666 0.681354 0.759874
0.904058 0.891275 1.65983 0.6615728 -0.5618949 -0.4965839 0.714068 0.759874
1.06034 0.897465 1.86103 0.6049228 -0.6845177 -0.4068218 0.714068 0.792588
1.00982 0.832113 1.90129 0.4798019 -0.8167718 -0.3204279 0.681354 0.759874
0.988302 0.818774 1.91804 0.3503589 -0.9051657 -0.2406739 0.714068 0.759874
0.745467 0.812277 1.58575 0.3274689 -0.9188026 -0.2203769 0.714068 0.792588
0.745467 0.812277 1.58575 0.3274689 -0.9188026 -0.2203769 0.681354 0.759874
0.826435 0.831789 1.62373 0.4071919 -0.8701129 -0.277666 0.714068 0.759874
1.00982 0.832113 1.90129 0.4798019 -0.8167718 -0.3204279 0.714068 0.792588
0.988302 0.818774 1.91804 0.3503589 -0.9051657 -0.2406739 0.681354 0.759874
0.922907 0.781076 1.96971 0.1785079 -0.9779316 -0.108557 0.714068 0.759874
0.633273 0.769603 1.59683 0.137762 -0.9876183 -0.07504562 0.714068 0.792588
0.633273 0.769603 1.59683 0.137762 -0.9876183 -0.07504562 0.681354 0.759874
0.745467 0.812277 1.58575 0.3274689 -0.9188026 -0.2203769 0.714068 0.759874
0.988302 0.818774 1.91804 0.3503589 -0.9051657 -0.2406739 0.714068 0.792588
0.922907 0.781076 1.96971 0.1785079 -0.9779316 -0.108557 0.681354 0.759874
0.849669 0.781899 2.02454 -0.151831 -0.9773347 0.147527 0.714068 0.759874
0.560035 0.770427 1.65166 -0.155341 -0.9762982 0.150702 0.714068 0.792588
0.560035 0.770427 1.65166 -0.155341 -0.9762982 0.150702 0.681354 0.759874
0.633273 0.769603 1.59683 0.137762 -0.9876183 -0.07504562 0.714068 0.759874
0.922907 0.781076 1.96971 0.1785079 -0.9779316 -0.108557 0.714068 0.792588
0.849669 0.781899 2.02454 -0.151831 -0.9773347 0.147527 0.681354 0.759874
0.780808 0.819952 2.07587 -0.434565 -0.824571 0.362265 0.714068 0.759874
0.492136 0.80864 1.70312 -0.4350571 -0.8242432 0.3624201 0.714068 0.792588
0.492136 0.80864 1.70312 -0.4350571 -0.8242432 0.3624201 0.681354 0.759874
0.560035 0.770427 1.65166 -0.155341 -0.9762982 0.150702 0.714068 0.759874
0.849669 0.781899 2.02454 -0.151831 -0.9773347 0.147527 0.714068 0.792588
0.780808 0.819952 2.07587 -0.434565 -0.824571 0.362265 0.681354 0.759874
0.727058 0.886487 2.11491 -0.6455441 -0.5613111 0.5178831 0.714068 0.759874
0.437424 0.875015 1.74203 -0.6460703 -0.5602492 0.5183762 0.714068 0.792588
0.437424 0.875015 1.74203 -0.6460703 -0.5602492 0.5183762 0.681354 0.759874
0.492136 0.80864 1.70312 -0.4350571 -0.8242432 0.3624201 0.714068 0.759874
0.780808 0.819952 2.07587 -0.434565 -0.824571 0.362265 0.714068 0.792588
0.727058 0.886487 2.11491 -0.6455441 -0.5613111 0.5178831 0.681354 0.759874
0.695081 0.97583 2.13675 -0.7703317 -0.2055459 0.6036057 0.714068 0.759874
0.406409 0.964518 1.764 -0.7703143 -0.2055801 0.6036163 0.714068 0.792588
0.406409 0.964518 1.764 -0.7703143 -0.2055801 0.6036163 0.681354 0.759874
0.437424 0.875015 1.74203 -0.6460703 -0.5602492 0.5183762 0.714068 0.759874
0.727058 0.886487 2.11491 -0.6455441 -0.5613111 0.5178831 0.714068 0.792588
3 0 1 2 
3 0 3 1 
3 0 4 3 
3 0 5 4 
3 0 6 5 
3 0 7 6 
3 0 8 7 
3 0 9 8 
3 0 10 9 
3 0 11 10 
3 0 12 11 
3 0 13 12 
3 0 14 13 
3 0 15 14 
3 0 16 15 
3 0 2 16 
3 17 18 19 
3 20 21 22 
3 23 24 22 
3 23 25 26 
3 27 25 28 
3 27 29 30 
3 31 32 33 
3 34 35 36 
3 37 35 38 
3 37 39 40 
3 41 42 40 
3 41 43 44 
3 45 46 47 
3 46 45 48 
3 47 49 50 
3 49 47 46 
3 50 51 52 
3 51 50 49 
3 52 53 54 
3 53 52 51 
3 54 55 56 
3 55 54 53 
3 56 57 58 
3 57 56 55 
3 58 59 60 
3 59 58 57 
3 60 61 62 
3 61 60 59 
3 62 63 64 
3 63 62 61 
3 64 65 66 
3 65 64 63 
3 66 67 68 
3 67 66 65 
3 68 69 70 
3 69 68 67 
3 70 71 72 
3 71 70 69 
3 72 73 74 
3 73 72 71 
3 74 75 76 
3 75 74 73 
3 76 48 45 
3 48 76 75 
3 77 78 79 
3 80 81 82 
3 83 84 85 
3 86 87 88 
3 89 90 91 
3 92 93 94 
3 95 96 97 
3 98 99 100 
3 101 102 103 
3 104 105 106 
3 107 108 109 
3 110 111 112 
3 113 114 115 
3 116 117 118 
3 119 120 121 
3 122 123 124 
3 125 126 127 
3 128 129 130 
3 131 132 133 
3 134 135 136 
3 137 138 139 
3 140 141 142 
3 143 144 145 
3 146 147 148 
3 149 150 151 
3 152 153 154 
3 155 156 157 
3 158 159 160 
3 161 162 163 
3 164 165 166 
3 167 168 169 
3 170 171 172 
3 173 174 175 
3 176 177 178 
3 179 180 181 
3 182 183 184 
3 185 186 187 
3 188 189 190 
3 191 192 193 
3 194 195 196 
3 197 198 199 
3 200 201 202 
3 203 204 205 
3 206 207 208 
3 209 18 210 
3 211 212 19 
3 213 214 33 
3 215 32 216 
3 217 218 219 
3 220 221 222 
3 223 224 225 
3 226 227 228 
3 229 230 231 
3 232 233 234 
3 235 236 237 
3 238 239 240 
3 241 242 243 
3 244 245 246 
3 247 248 249 
3 250 251 252 
3 253 254 255 
3 256 257 258 
3 259 260 261 
3 262 263 264 
3 265 266 267 
3 268 269 270 
3 271 272 273 
3 274 275 276 
3 277 278 279 
3 280 281 282 
3 283 284 285 
3 286 287 288 
3 289 290 291 
3 292 293 294 
3 295 296 297 
3 298 299 300 
3 301 302 303 
3 304 305 306 
3 307 308 309 
3 310 311 312 
3 313 314 315 
3 316 317 318 
3 319 320 321 
3 322 323 324 
3 325 326 327 
3 328 329 330 
3 331 332 333 
3 334 335 336 
3 337 338 339 
3 340 341 342 
3 343 344 345 
3 346 347 348 
3 349 350 351 
3 352 353 354 
3 355 356 357 
3 358 359 360 
3 361 362 363 
3 364 365 366 
3 367 368 369 
3 370 371 372 
3 373 374 375 
3 376 377 378 
3 379 380 381 
3 382 383 384 
