ply
format ascii 1.0
comment VCGLIB generated
comment TextureFile SpidermanUV_square.bmp
element vertex 419
property float x
property float y
property float z
property float nx
property float ny
property float nz
property float texture_u
property float texture_v
element face 501
property list uchar int vertex_indices
end_header
0.012851 0.36092 2.45013 0.189217 -0.181645 0.9649881 0.4652 0.586225
0.006117 0.630447 2.50219 0.189217 -0.181645 0.9649881 0.465269 0.586218
-0.024918 0.630355 2.50825 0.242081 -0.172054 0.9548792 0.465268 0.586233
-0.018184 0.360827 2.4562 0.294378 -0.161918 0.9418728 0.465154 0.586445
-0.055953 0.630262 2.51432 0.3456361 -0.151327 0.9260863 0.465269 0.586247
-0.05049 0.350643 2.47209 0.3456361 -0.151327 0.9260863 0.465125 0.586645
-0.05049 0.350643 2.47209 0.8716751 -0.06300001 0.4860181 0.465125 0.586645
-0.055953 0.630262 2.51432 0.8716751 -0.06300001 0.4860181 0.465269 0.586247
-0.069719 0.629986 2.54279 0.8837721 -0.0607986 0.463951 0.465275 0.586252
-0.062973 0.350459 2.49064 0.8953126 -0.05855697 0.4415728 0.465104 0.586763
-0.083474 0.619709 2.57116 0.9062741 -0.05627951 0.4189271 0.465283 0.586262
-0.076728 0.340182 2.51902 0.9062741 -0.05627951 0.4189271 0.465126 0.586839
-0.076728 0.340182 2.51902 0.9814708 0.05871369 -0.182395 0.465126 0.586839
-0.083474 0.619709 2.57116 0.9814708 0.05871369 -0.182395 0.465283 0.586262
-0.077394 0.609433 2.60211 0.9814708 0.05871359 -0.182395 0.465294 0.586265
-0.070659 0.339906 2.55005 0.9814709 0.0587135 -0.182394 0.465202 0.586782
-0.071325 0.609156 2.63314 0.981471 0.0587134 -0.182394 0.465305 0.586254
-0.064579 0.329629 2.581 0.981471 0.0587134 -0.182394 0.465305 0.586696
-0.064579 0.329629 2.581 0.552411 0.150447 -0.8198829 0.465305 0.586696
-0.071325 0.609156 2.63314 0.552411 0.150447 -0.8198829 0.465305 0.586254
-0.042856 0.609064 2.64691 0.4680849 0.157001 -0.8696248 0.465311 0.586239
-0.037393 0.329445 2.60468 0.3783609 0.162086 -0.9113568 0.465409 0.586476
-0.014387 0.608972 2.66067 0.180617 0.167527 -0.9691812 0.465315 0.586225
-0.007641 0.329445 2.60853 0.07197932 0.167527 -0.9832363 0.465461 0.586231
0.016648 0.609064 2.6546 -0.133978 0.162084 -0.9776393 0.465317 0.586209
0.022111 0.329445 2.61238 -0.2313759 0.1569999 -0.9601126 0.465503 0.585987
0.047683 0.609156 2.64854 -0.3255919 0.1504449 -0.9334646 0.465317 0.586194
0.054429 0.329629 2.59639 -0.3255919 0.1504449 -0.9334646 0.465487 0.585756
0.054429 0.329629 2.59639 -0.9027397 0.05871228 -0.4261619 0.465487 0.585756
0.047683 0.609156 2.64854 -0.9027397 0.05871228 -0.4261619 0.465317 0.586194
0.061449 0.609433 2.62007 -0.9027397 0.05871218 -0.4261619 0.46531 0.586181
0.068184 0.339906 2.56802 -0.9027401 0.05871211 -0.4261611 0.465426 0.585654
0.075204 0.619709 2.59169 -0.9027401 0.05871201 -0.4261611 0.465298 0.58618
0.08195 0.340182 2.53955 -0.9027401 0.05871201 -0.4261611 0.465381 0.585591
0.08195 0.340182 2.53955 -0.9830521 -0.05627331 0.174476 0.465381 0.585591
0.075204 0.619709 2.59169 -0.9830521 -0.05627331 0.174476 0.465298 0.58618
0.069124 0.629986 2.56075 -0.9782117 -0.05855328 0.1991819 0.465287 0.586188
0.07587 0.350459 2.50861 -0.9727425 -0.06079743 0.2237761 0.465335 0.58567
0.063055 0.630262 2.52972 -0.9666549 -0.06300119 0.248212 0.46528 0.586191
0.068518 0.350643 2.48749 -0.9666549 -0.06300119 0.248212 0.465306 0.585799
0.068518 0.350643 2.48749 -0.5699291 -0.151322 0.8076401 0.465306 0.585799
0.063055 0.630262 2.52972 -0.5699291 -0.151322 0.8076401 0.46528 0.586191
0.034586 0.630355 2.51595 -0.5243779 -0.1619129 0.8359498 0.465274 0.586204
0.04132 0.360827 2.4639 -0.4771171 -0.17205 0.8618342 0.465251 0.586002
0.006117 0.630447 2.50219 -0.428569 -0.181642 0.885062 0.465269 0.586218
0.012851 0.36092 2.45013 -0.428569 -0.181642 0.885062 0.4652 0.586225
-0.153835 0.329629 2.56945 0.0557722 -0.990895 -0.122542 0.465179 0.587316
-0.156066 0.340182 2.50875 0.108473 -0.9776781 -0.179942 0.464927 0.587261
-0.076728 0.340182 2.51902 0.0822048 -0.985068 -0.151273 0.465126 0.586839
-0.070659 0.339906 2.55005 0.055786 -0.9908581 -0.122834 0.465202 0.586782
-0.120569 0.319169 2.62407 0.05580852 -0.9908454 -0.122926 0.465506 0.587105
-0.064579 0.329629 2.581 0.0558845 -0.990843 -0.122911 0.465305 0.586696
-0.076114 0.3188 2.67016 0.05585862 -0.9908423 -0.122928 0.465836 0.586783
-0.037393 0.329445 2.60468 0.05570859 -0.9908449 -0.122976 0.465409 0.586476
-0.017893 0.318707 2.68777 0.05555708 -0.9908478 -0.123021 0.465997 0.586317
-0.007641 0.329445 2.60853 0.05524181 -0.9908602 -0.123063 0.465461 0.586231
0.042894 0.3188 2.68555 0.05492338 -0.9908736 -0.123097 0.466001 0.58583
0.022111 0.329445 2.61238 0.0545878 -0.9908749 -0.123236 0.465503 0.585987
0.097613 0.319169 2.6523 0.05443628 -0.9908426 -0.123562 0.465801 0.585431
0.054429 0.329629 2.59639 0.05423139 -0.9908007 -0.123988 0.465487 0.585756
0.143685 0.329629 2.60794 0.05402732 -0.9907854 -0.124199 0.465571 0.585146
0.068184 0.339906 2.56802 0.05378351 -0.9907863 -0.124298 0.465426 0.585654
0.161289 0.340183 2.54981 0.05357798 -0.9907777 -0.124455 0.465329 0.585139
0.08195 0.340182 2.53955 0.05325902 -0.9907544 -0.124777 0.465381 0.585591
0.159058 0.350736 2.48912 0.05303341 -0.9907402 -0.124985 0.46516 0.585265
0.07587 0.350459 2.50861 0.052786 -0.990728 -0.125187 0.465335 0.58567
0.125791 0.361196 2.43449 0.05250801 -0.9907122 -0.125429 0.465061 0.585532
0.068518 0.350643 2.48749 0.05219701 -0.9906931 -0.125709 0.465306 0.585799
0.080042 0.371473 2.39842 0.05202562 -0.9906874 -0.125825 0.464979 0.585843
0.04132 0.360827 2.4639 0.05204012 -0.9906864 -0.125827 0.465251 0.586002
0.012851 0.36092 2.45013 0.00142051 -0.9910419 -0.133544 0.4652 0.586225
0.023103 0.371657 2.37089 0.0267498 -0.9911889 -0.129727 0.464883 0.586161
-0.018184 0.360827 2.4562 0.08268123 -0.9791324 -0.1856441 0.465154 0.586445
-0.038967 0.371473 2.38302 0.02942829 -0.9863986 -0.1617149 0.464826 0.58649
-0.09239 0.361196 2.40627 0.135383 -0.9685578 -0.208728 0.464774 0.586813
-0.05049 0.350643 2.47209 0.135054 -0.9686576 -0.2084779 0.465125 0.586645
-0.138463 0.350735 2.45063 0.134799 -0.9687178 -0.208363 0.464783 0.587098
-0.062973 0.350459 2.49064 0.1346251 -0.9687405 -0.2083701 0.465104 0.586763
0.022855 0.581648 2.37281 -0.007671217 0.3130049 -0.9497206 0.464701 0.586055
-0.057755 0.571556 2.37237 -0.335171 0.31171 -0.8890991 0.464211 0.586543
-0.060416 0.651368 2.39293 -0.214493 0.193147 -0.9574378 0.464171 0.58624
0.021489 0.651553 2.38336 -0.06390152 0.2013571 -0.9774313 0.465172 0.586063
-0.123674 0.571095 2.41425 -0.6776713 0.2929581 -0.6744903 0.4635 0.587136
-0.12504 0.641 2.42481 -0.5924632 0.136888 -0.7938823 0.462873 0.586849
-0.171018 0.550542 2.46844 -0.8833365 0.2333151 -0.4065472 0.463159 0.58811
-0.172395 0.630447 2.47909 -0.8288099 0.06285399 -0.555989 0.461571 0.588374
-0.201104 0.539805 2.54512 -0.9885747 0.150537 -0.007653958 0.463278 0.589251
-0.202482 0.619709 2.55577 -0.9787855 0.005027927 -0.2048259 0.460854 0.590732
-0.190239 0.52916 2.61701 -0.9420189 0.09650678 0.321383 0.464651 0.589783
-0.192899 0.608972 2.63758 -0.9737797 -0.06710178 0.2173719 0.464312 0.59216
-0.159538 0.518514 2.69147 -0.7521631 0.04222091 0.6576231 0.466432 0.589471
-0.160916 0.598419 2.70212 -0.846832 -0.105816 0.521228 0.467234 0.591557
-0.105154 0.508146 2.73875 -0.408387 -0.009927 0.912755 0.467642 0.588341
-0.106532 0.58805 2.74939 -0.5546262 -0.139451 0.8203312 0.469326 0.589715
-0.027099 0.508054 2.75893 -0.07820392 -0.02466591 0.9966322 0.468392 0.586684
-0.029759 0.587866 2.77949 -0.186453 -0.1929839 0.9633237 0.47058 0.587027
0.053523 0.508146 2.75927 0.3029121 0.005018251 0.9530053 0.468192 0.584876
0.052146 0.58805 2.76992 0.1923291 -0.1666871 0.9670703 0.470225 0.584071
0.118147 0.518514 2.7274 0.6773089 0.06463639 0.7328539 0.467384 0.583425
0.11677 0.598419 2.73804 0.5747499 -0.109049 0.8110308 0.468783 0.58164
0.166786 0.52916 2.6632 0.8746401 0.107074 0.4728 0.465768 0.582601
0.164125 0.608972 2.68377 0.837699 -0.0842739 0.539591 0.466111 0.580142
0.19559 0.539805 2.59644 0.9796539 0.181412 0.0858376 0.46432 0.582753
0.194212 0.619709 2.60709 0.9758276 -0.02292769 0.2173359 0.462204 0.580507
0.186007 0.550542 2.51463 0.929051 0.25761 -0.265521 0.464101 0.58398
0.184629 0.630447 2.52528 0.9743021 0.0476631 -0.220145 0.462827 0.583677
0.154012 0.571095 2.45018 0.7469853 0.3014841 -0.5925542 0.464355 0.584947
0.152646 0.641 2.46074 0.84399 0.107523 -0.525471 0.464178 0.585133
0.100923 0.571556 2.3929 0.315355 0.324553 -0.8917491 0.464682 0.585554
0.098262 0.651368 2.41346 0.4795258 0.1909449 -0.8565017 0.464868 0.585691
-0.106366 0.448056 2.74811 -0.4555209 -0.0137506 0.8901189 0.46699 0.587641
-0.028299 0.437964 2.7682 -0.124952 -0.0226221 0.9919049 0.467311 0.586518
-0.105012 0.388151 2.73765 -0.460251 -0.363444 0.8099861 0.466475 0.587241
-0.026956 0.388059 2.75783 -0.115149 -0.369164 0.9222031 0.466785 0.586438
-0.101116 0.34843 2.70753 -0.3889632 -0.7114052 0.5853292 0.466115 0.58705
-0.024343 0.348245 2.73763 -0.09750137 -0.7111918 0.6962038 0.466417 0.586382
-0.076114 0.3188 2.67016 -0.365881 -0.8246929 0.4312919 0.465836 0.586783
-0.017893 0.318707 2.68777 -0.105837 -0.8479511 0.5194011 0.465997 0.586317
-0.179302 0.458517 2.68836 -0.7977923 0.05341021 0.6005622 0.466012 0.588557
-0.177948 0.398612 2.67789 -0.7840831 -0.3472411 0.5144291 0.465796 0.587936
-0.1555 0.358798 2.66026 -0.641033 -0.680419 0.355115 0.465701 0.587521
-0.120569 0.319169 2.62407 -0.6033589 -0.7483418 0.2755769 0.465506 0.587105
-0.210002 0.469162 2.6139 -0.9573389 0.1048 0.269294 0.464936 0.588781
-0.208648 0.409257 2.60343 -0.9309893 -0.3076121 0.196555 0.465086 0.588117
-0.1862 0.369443 2.5858 -0.7796028 -0.6136708 0.125011 0.465132 0.587697
-0.153835 0.329629 2.56945 -0.7222129 -0.6898999 0.04946589 0.465179 0.587316
-0.219585 0.4799 2.53209 -0.9819181 0.170723 -0.08179541 0.464077 0.588459
-0.218231 0.419995 2.52162 -0.9593035 -0.2370591 -0.1534271 0.464505 0.58795
-0.197066 0.380089 2.51391 -0.8077127 -0.5505219 -0.2110119 0.464726 0.587619
-0.156066 0.340182 2.50875 -0.7322825 -0.6233794 -0.2741542 0.464927 0.587261
-0.188227 0.500729 2.44558 -0.8689881 0.252526 -0.4255471 0.463792 0.587782
-0.186873 0.440824 2.43512 -0.8411071 -0.174904 -0.511808 0.464242 0.587511
-0.166991 0.400826 2.43732 -0.696309 -0.499794 -0.515131 0.464504 0.5873
-0.138463 0.350735 2.45063 -0.6110533 -0.5598742 -0.5596023 0.464783 0.587098
-0.139589 0.511374 2.38139 -0.6136031 0.2921671 -0.7335732 0.464002 0.587132
-0.138235 0.451469 2.37092 -0.8009118 0.08543548 -0.5926559 0.464308 0.587036
-0.138235 0.451469 2.37092 -0.501535 -0.176547 -0.846932 0.464308 0.587036
-0.119636 0.411379 2.38304 -0.4708419 -0.4551839 -0.7557219 0.464511 0.586924
-0.09239 0.361196 2.40627 -0.3840878 -0.5825078 -0.7163528 0.464774 0.586813
-0.05513 0.521743 2.35208 -0.231473 0.296556 -0.9265391 0.464352 0.586526
-0.053776 0.461838 2.34161 -0.234744 -0.04698899 -0.9709209 0.464513 0.586532
-0.055 0.411748 2.35107 -0.209288 -0.419017 -0.8835289 0.464643 0.58654
-0.038967 0.371473 2.38302 -0.1542379 -0.5794798 -0.8002587 0.464826 0.58649
0.026775 0.521927 2.34251 0.114393 0.301054 -0.946721 0.464643 0.586087
0.028129 0.462022 2.33204 0.130847 -0.017886 -0.9912412 0.464696 0.586114
0.026893 0.421932 2.34159 0.124026 -0.4009281 -0.9076752 0.464736 0.586126
0.023103 0.371657 2.37089 0.167449 -0.574959 -0.800864 0.464883 0.586161
0.103548 0.521743 2.37261 0.4759937 0.3037128 -0.8253415 0.464683 0.585629
0.104902 0.461838 2.36214 0.4702562 -0.03582612 -0.8818025 0.464763 0.585691
0.103678 0.411748 2.3716 0.4309959 -0.4255729 -0.7956948 0.464854 0.585733
0.080042 0.371473 2.39842 0.4155221 -0.5897131 -0.6925171 0.464979 0.585843
0.177766 0.511374 2.42245 0.764061 0.311536 -0.5649391 0.464608 0.58504
0.17912 0.451469 2.41198 0.6500679 -0.21822 -0.727868 0.464777 0.585199
0.15805 0.411379 2.41897 0.650234 -0.49037 -0.580287 0.464885 0.585354
0.125791 0.361196 2.43449 0.6276919 -0.56308 -0.537535 0.465061 0.585532
0.208467 0.500729 2.49691 0.9494632 0.2443761 -0.196977 0.464537 0.584412
0.209821 0.440824 2.48644 0.9428449 -0.190198 -0.273621 0.464832 0.58475
0.17912 0.451469 2.41198 0.9253619 0.08544119 -0.369331 0.464777 0.585199
0.190033 0.400826 2.48351 0.8085532 -0.4875852 -0.3293971 0.464983 0.585007
0.159058 0.350736 2.48912 0.7643258 -0.5755329 -0.2908059 0.46516 0.585265
0.216778 0.4799 2.58854 0.971401 0.167662 0.168136 0.464886 0.58376
0.218132 0.419995 2.57807 0.9677787 -0.2338119 0.09346868 0.465147 0.584367
0.199628 0.380089 2.56523 0.8334474 -0.5522512 0.01959911 0.465254 0.584745
0.161289 0.340183 2.54981 0.7566332 -0.6526542 0.03935621 0.465329 0.585139
0.186692 0.469162 2.66522 0.858678 0.110362 0.500492 0.465765 0.583667
0.188046 0.409257 2.65475 0.8472777 -0.3030649 0.4362018 0.465718 0.584353
0.170824 0.369443 2.63199 0.7225088 -0.6177098 0.3105089 0.46564 0.58477
0.143685 0.329629 2.60794 0.6417131 -0.7028571 0.3069141 0.465571 0.585146
0.138053 0.458517 2.72941 0.6233507 0.04313529 0.7807517 0.466712 0.584187
0.139407 0.398612 2.71895 0.6137469 -0.3602 0.7025459 0.466324 0.584722
0.122186 0.358798 2.69618 0.523503 -0.662865 0.535308 0.466109 0.585095
0.097613 0.319169 2.6523 0.4280469 -0.7795818 0.4571959 0.465801 0.585431
0.052311 0.448056 2.76864 0.214023 -0.00799601 0.976796 0.467356 0.585351
0.053665 0.388151 2.75818 0.231046 -0.37506 0.897746 0.466746 0.585582
0.057562 0.34843 2.72806 0.214416 -0.702005 0.679128 0.466347 0.585659
0.042894 0.3188 2.68555 0.1452319 -0.8381296 0.5257818 0.466001 0.58583
-0.24918 0.640631 2.44908 -0.02807431 -0.9809324 -0.1923111 0.459692 0.587385
-0.172395 0.630447 2.47909 -0.0332537 -0.9788491 -0.201863 0.461571 0.588374
-0.202482 0.619709 2.55577 -0.02289201 -0.9828953 -0.1827371 0.460854 0.590732
-0.261986 0.619709 2.54807 -0.02289201 -0.9828953 -0.1827371 0.455613 0.589516
-0.159589 0.651368 2.3801 -0.0168533 -0.977804 -0.208843 0.462522 0.586125
-0.12504 0.641 2.42481 0.004739931 -0.9784992 -0.206196 0.462873 0.586849
-0.092399 0.661921 2.32839 0.01753469 -0.9801646 -0.1974079 0.464483 0.585535
-0.060416 0.651368 2.39293 0.008745651 -0.9814851 -0.191339 0.464171 0.58624
0.041981 0.683027 2.22497 0.05397059 -0.9896549 -0.13293 0.468611 0.584798
0.021489 0.651553 2.38336 0.0008633722 -0.9826893 -0.1852591 0.465172 0.586063
0.197435 0.651368 2.42629 0.04899049 -0.9804458 -0.190594 0.464691 0.585781
0.152646 0.641 2.46074 0.07729346 -0.9785815 -0.1907979 0.464178 0.585133
0.098262 0.651368 2.41346 0.02571099 -0.9819728 -0.187266 0.464868 0.585691
0.246687 0.640631 2.51324 0.09451648 -0.9777398 -0.187328 0.461333 0.584543
0.184629 0.630447 2.52528 0.08522003 -0.9796284 -0.1818401 0.462827 0.583677
0.253716 0.619709 2.61479 0.07591443 -0.9813994 -0.1763301 0.456417 0.580142
0.194212 0.619709 2.60709 0.07591443 -0.9813994 -0.1763301 0.462204 0.580507
0.105204 0.793299 2.20392 -0.105248 0.9913653 0.07821592 0.49082 0.588353
0.122473 0.793115 2.22632 -0.271557 0.9502041 -0.152869 0.49076 0.588332
0.50193 0.856156 1.94324 -0.1900441 0.9810684 -0.03725632 0.48881 0.588797
0.485944 0.856433 1.91092 -0.103192 0.9913636 0.08092947 0.490088 0.589119
0.148352 0.812837 2.2601 -0.34508 0.90131 -0.26184 0.490709 0.588365
0.52781 0.875879 1.97702 -0.34508 0.90131 -0.26184 0.487867 0.588496
0.148352 0.812837 2.2601 -0.5494518 0.5718747 -0.6091487 0.490709 0.588365
0.155668 0.842652 2.2815 -0.5794789 0.4465969 -0.6817298 0.490697 0.588369
0.535125 0.905693 1.99841 -0.565973 0.5108051 -0.6471111 0.487445 0.588221
0.52781 0.875879 1.97702 -0.5494518 0.5718747 -0.6091487 0.487867 0.588496
0.164255 0.882558 2.29306 -0.5897473 0.3803022 -0.7124383 0.49067 0.588396
0.543724 0.9356 2.00988 -0.5897473 0.3803022 -0.7124383 0.487211 0.587898
0.164255 0.882558 2.29306 -0.5695499 -0.184107 -0.8010728 0.49067 0.588396
0.154302 0.912556 2.29205 -0.5443989 -0.279579 -0.7908638 0.490697 0.588387
0.53376 0.975598 2.00897 -0.5576769 -0.2320699 -0.7969568 0.487535 0.587671
0.543724 0.9356 2.00988 -0.5695499 -0.184107 -0.8010728 0.487211 0.587898
0.145621 0.952647 2.28122 -0.5298132 -0.3262831 -0.7828393 0.490696 0.588415
0.525078 1.01569 1.99813 -0.5298132 -0.3262831 -0.7828393 0.488078 0.587523
0.145621 0.952647 2.28122 -0.2522081 -0.8207672 -0.5125742 0.490696 0.588415
0.117128 0.972738 2.26764 -0.1958889 -0.8763966 -0.4399508 0.490759 0.58844
0.497868 1.03587 1.97463 -0.2244129 -0.8497688 -0.4770029 0.48916 0.587459
0.525078 1.01569 1.99813 -0.2522081 -0.8207672 -0.5125742 0.488078 0.587523
0.101118 0.993014 2.2355 -0.166882 -0.9004213 -0.4017361 0.490792 0.588447
0.480588 1.04606 1.95232 -0.166882 -0.9004213 -0.4017361 0.490352 0.587413
0.101118 0.993014 2.2355 0.161523 -0.9867669 0.014192 0.490792 0.588447
0.075227 0.983291 2.20181 0.2872271 -0.9388964 0.1896691 0.490837 0.588448
0.454684 1.04633 1.91873 0.225371 -0.9689171 0.102018 0.491942 0.587588
0.480588 1.04606 1.95232 0.161523 -0.9867669 0.014192 0.490352 0.587413
0.05797 0.973476 2.17932 0.4551319 -0.7695538 0.4479309 0.490891 0.588464
0.438722 1.02661 1.88622 0.402547 -0.84036 0.362975 0.493697 0.587915
0.040737 0.943662 2.15665 0.5850242 -0.4326991 0.6859432 0.490913 0.588458
0.421489 0.996796 1.86355 0.5489222 -0.5692342 0.6120922 0.495149 0.588509
0.04335 0.903848 2.13645 0.6067222 -0.101663 0.7883862 0.490965 0.58843
0.422808 0.96689 1.85336 0.6091697 -0.1966459 0.7682725 0.495977 0.589094
0.043398 0.86385 2.13608 0.5986549 -0.006617718 0.8009798 0.490939 0.588404
0.422855 0.926891 1.85299 0.5986549 -0.006617718 0.8009798 0.494966 0.589325
0.043398 0.86385 2.13608 0.4673499 0.5002729 0.7289109 0.490939 0.588404
0.061985 0.833759 2.14829 0.3767178 0.6679486 0.6418166 0.490921 0.588399
0.441454 0.886801 1.86511 0.42462 0.5868801 0.6893981 0.493328 0.589446
0.422855 0.926891 1.85299 0.4673499 0.5002729 0.7289109 0.494966 0.589325
0.079289 0.803576 2.17041 0.04275148 0.9630147 0.2660359 0.490874 0.588373
0.458746 0.866617 1.88733 0.1938651 0.8744265 0.4447412 0.491602 0.58939
0.594165 1.00495 2.08764 0.7793839 0.121951 -0.6145639 0.486284 0.587931
0.604177 0.924954 2.08819 0.7798266 0.1223899 -0.6139147 0.486102 0.587779
0.543724 0.9356 2.00988 0.7795662 0.12223 -0.6142771 0.487211 0.587898
0.53376 0.975598 2.00897 0.7794462 0.121793 -0.6145161 0.487535 0.587671
0.566896 1.07513 2.0646 0.7794298 0.121748 -0.6145459 0.486904 0.588176
0.525078 1.01569 1.99813 0.7793929 0.121706 -0.614601 0.488078 0.587523
0.522382 1.1255 2.01897 0.7793811 0.121584 -0.6146401 0.487817 0.588511
0.497868 1.03587 1.97463 0.7793471 0.121327 -0.6147341 0.48916 0.587459
0.479186 1.14596 1.96316 0.7792623 0.121222 -0.6148623 0.489296 0.588918
0.480588 1.04606 1.95232 0.7793328 0.121308 -0.6147559 0.490352 0.587413
0.426097 1.14642 1.90587 0.7796113 0.1215631 -0.6143522 0.490943 0.589621
0.454684 1.04633 1.91873 0.7799308 0.121748 -0.6139099 0.491942 0.587588
0.394173 1.10698 1.84087 0.7800929 0.121637 -0.613726 0.493814 0.590281
0.438722 1.02661 1.88622 0.7802058 0.121175 -0.6136739 0.493697 0.587915
0.369624 1.04735 1.79681 0.7802343 0.1208871 -0.6136943 0.4976 0.590453
0.421489 0.996796 1.86355 0.7801589 0.120894 -0.613789 0.495149 0.588509
0.352438 0.977535 1.77377 0.7801208 0.121038 -0.6138089 0.502268 0.589617
0.422808 0.96689 1.85336 0.7801912 0.121054 -0.6137162 0.495977 0.589094
0.372367 0.897538 1.7756 0.7803179 0.120989 -0.6135679 0.497502 0.587948
0.422855 0.926891 1.85299 0.780362 0.1211 -0.61349 0.494966 0.589325
0.399636 0.827357 1.79865 0.7803995 0.1211911 -0.6134244 0.493841 0.58737
0.441454 0.886801 1.86511 0.7805325 0.1212789 -0.6132376 0.493328 0.589446
0.435516 0.777082 1.83307 0.7805494 0.1212931 -0.6132134 0.49132 0.587029
0.458746 0.866617 1.88733 0.7805238 0.121213 -0.6132618 0.491602 0.58939
0.487346 0.75653 1.90009 0.7805718 0.121167 -0.6132099 0.489137 0.587494
0.485944 0.856433 1.91092 0.7806383 0.1211761 -0.6131233 0.490088 0.589119
0.530518 0.756068 1.95609 0.7806293 0.1213151 -0.6131073 0.487838 0.587396
0.50193 0.856156 1.94324 0.7804266 0.1214399 -0.6133407 0.48881 0.588797
0.573642 0.795605 2.01245 0.780304 0.121705 -0.613444 0.486931 0.587644
0.52781 0.875879 1.97702 0.7801671 0.122188 -0.6135221 0.487867 0.588496
0.598191 0.855234 2.05652 0.7800988 0.12247 -0.6135529 0.486357 0.587723
0.535125 0.905693 1.99841 0.7800518 0.122594 -0.6135879 0.487445 0.588221
-0.037445 0.577313 2.8389 0.0243177 0.145291 0.9890901 0.44193 0.583022
0.064294 0.577497 2.8319 0.344688 0.112737 0.931923 0.447209 0.582298
0.065471 0.667586 2.82281 0.186519 0.133404 0.973352 0.449829 0.582807
-0.034998 0.677493 2.81998 0.0201714 0.149566 0.988546 0.448518 0.583722
0.151319 0.58805 2.78275 0.6464548 0.09977067 0.7564008 0.450611 0.581777
0.152519 0.65814 2.77348 0.5709636 0.09701124 0.8152235 0.452086 0.582185
0.221075 0.598788 2.71121 0.7169959 0.102038 0.6895689 0.453454 0.581202
0.222311 0.638878 2.70166 0.7182421 0.101304 0.6883791 0.454375 0.581127
-0.028713 0.78795 2.7714 0.06162263 0.8287854 0.5561633 0.452738 0.584163
0.071755 0.778042 2.77423 0.280386 0.7843679 0.553309 0.453274 0.58337
0.089611 0.86933 2.63621 0.1796979 0.8138977 0.5525208 0.457621 0.583893
-0.010858 0.879237 2.63339 -0.0302281 0.8385671 0.5439591 0.457155 0.584663
0.15625 0.758412 2.74464 0.5668899 0.6677258 0.4824709 0.454423 0.582843
0.169009 0.819332 2.64602 0.4778762 0.7114362 0.5152602 0.45728 0.582945
0.223487 0.728967 2.69256 0.6557011 0.6074601 0.4483841 0.455664 0.581948
0.23115 0.759519 2.63334 0.7182452 0.5449921 0.4325591 0.457353 0.581988
-0.132876 0.667586 2.79714 -0.4893482 0.120465 0.8637283 0.449545 0.584893
-0.134053 0.577497 2.80624 -0.232889 0.136833 0.9628289 0.446891 0.584871
-0.204505 0.65814 2.72729 -0.8175001 0.100358 0.5671171 0.451566 0.585975
-0.205705 0.58805 2.73656 -0.7592171 0.09639052 0.6436601 0.450079 0.586139
-0.253722 0.638878 2.64007 -0.8714305 0.1004231 0.4801293 0.453573 0.587511
-0.254958 0.598788 2.64962 -0.8684726 0.102121 0.4851048 0.452769 0.587403
-0.108736 0.86933 2.61055 -0.3767099 0.7991019 0.4685359 0.457068 0.585427
-0.126592 0.778042 2.74857 -0.13931 0.832824 0.535721 0.452962 0.585014
-0.188016 0.819332 2.59983 -0.6713952 0.6632962 0.3305551 0.456427 0.586117
-0.200775 0.758412 2.69845 -0.5934491 0.7125221 0.3743401 0.453869 0.585714
-0.244883 0.759519 2.57175 -0.8858009 0.4356389 0.159923 0.456328 0.586815
-0.252545 0.728967 2.63098 -0.744173 0.613211 0.264913 0.454869 0.586694
0.268131 0.952186 2.34748 0.8143108 0.4306439 0.3891579 0.470394 0.585508
0.25235 0.689614 2.62534 0.9337724 0.2306729 0.2736039 0.456791 0.580992
0.289344 0.872281 2.3394 0.9347214 0.2297558 0.2711239 0.470267 0.585712
0.207273 1.01209 2.35025 0.5217159 0.6822949 0.512139 0.470128 0.585464
0.126604 1.052 2.35027 0.238667 0.802054 0.547492 0.469299 0.585773
0.027407 1.072 2.33762 -0.06901669 0.8428618 0.5336859 0.468544 0.586191
-0.071743 1.052 2.32461 -0.3702529 0.8020177 0.4687008 0.467518 0.586463
-0.149751 1.01209 2.30406 -0.6348649 0.6824039 0.362314 0.466811 0.58654
-0.207901 0.952186 2.2859 -0.8865549 0.4305739 0.169194 0.466203 0.586425
-0.226359 0.872281 2.27268 -0.9939133 0.07889313 -0.07689142 0.465617 0.58618
-0.263352 0.689614 2.55863 -0.9917878 0.118006 -0.04931249 0.456059 0.587496
0.270697 0.95237 2.32765 0.9326461 0.23458 0.274123 0.471106 0.585624
0.29191 0.872466 2.31957 0.9328248 0.2340759 0.2739459 0.471108 0.585844
0.209839 1.01227 2.33042 0.521924 0.682546 0.511592 0.471043 0.585509
0.270697 0.95237 2.32765 0.642673 0.598557 0.478227 0.471106 0.585624
0.129158 1.06218 2.33053 0.2388329 0.8024317 0.5468658 0.470055 0.585943
0.029973 1.07218 2.31779 -0.0689579 0.843504 0.532678 0.469247 0.586262
-0.069189 1.06218 2.30487 -0.3702292 0.8028473 0.4672972 0.468143 0.586499
-0.147185 1.01227 2.28423 -0.6349878 0.6828668 0.3612249 0.467241 0.586526
-0.205336 0.95237 2.26606 -0.7432399 0.5988429 0.298298 0.466567 0.58644
-0.223793 0.872466 2.25285 -0.9717077 0.2345869 0.02744499 0.465954 0.586388
-0.205336 0.95237 2.26606 -0.971713 0.234589 0.0272382 0.466567 0.58644
0.130441 1.06227 2.32061 0.389303 0.751008 0.53332 0.470773 0.585974
0.130441 1.06227 2.32061 0.202746 0.837906 0.506762 0.470773 0.585974
0.032527 1.08237 2.29805 0.009154339 0.9186979 0.3948549 0.469965 0.586397
-0.06534 1.06246 2.27512 -0.285784 0.9360869 0.205107 0.468753 0.586675
-0.143348 1.02255 2.25457 -0.567661 0.8230891 -0.0168905 0.467743 0.586633
-0.200215 0.962739 2.22649 -0.743275 0.59907 0.297754 0.467008 0.586607
-0.200215 0.962739 2.22649 -0.9717154 0.2345909 0.02713488 0.467008 0.586607
-0.218672 0.882834 2.21327 -0.9717155 0.2345909 0.02713489 0.466416 0.586572
0.175079 0.704041 2.13146 0.04389761 -0.9889472 -0.141621 0.473316 0.5861
0.487346 0.75653 1.90009 -0.01708981 -0.9755375 -0.2191681 0.489137 0.587494
0.530518 0.756068 1.95609 0.206168 -0.9755382 0.07628921 0.487838 0.587396
0.218239 0.71358 2.18755 0.2419661 -0.9620945 0.1258041 0.472271 0.586137
0.573642 0.795605 2.01245 0.4150589 -0.8293078 0.3741319 0.486931 0.587644
0.260092 0.743025 2.25374 0.4493749 -0.7858989 0.4247649 0.471457 0.586459
0.598191 0.855234 2.05652 0.5657707 -0.5410718 0.6222097 0.486357 0.587723
0.284641 0.802653 2.29781 0.5780262 -0.4914712 0.6514152 0.471041 0.586429
0.604177 0.924954 2.08819 0.6093251 -0.201577 0.7668701 0.486102 0.587779
0.29191 0.872466 2.31957 0.6034129 -0.06183758 0.7950278 0.471108 0.585844
0.594165 1.00495 2.08764 0.5671222 0.1880951 0.8018683 0.486284 0.587931
0.270697 0.95237 2.32765 0.5329949 0.3257579 0.7808958 0.471106 0.585624
0.566896 1.07513 2.0646 0.4498648 0.5402638 0.7111517 0.486904 0.588176
0.253346 1.02255 2.30589 0.379116 0.6658891 0.642544 0.471918 0.585596
0.522382 1.1255 2.01897 0.242535 0.8367941 0.490869 0.487817 0.588511
0.208832 1.07292 2.26027 0.1805539 0.8912516 0.4160178 0.472492 0.585925
0.479186 1.14596 1.96316 0.0369209 0.970146 0.239695 0.489296 0.588918
0.165624 1.10338 2.20454 -0.04590499 0.9895798 0.136472 0.473421 0.586318
0.426097 1.14642 1.90587 -0.223266 0.9702038 -0.09411129 0.490943 0.589621
0.11383 1.09393 2.13725 -0.3176171 0.9216782 -0.2227751 0.474217 0.586984
0.394173 1.10698 1.84087 -0.4433759 0.7962868 -0.4115159 0.493814 0.590281
0.080623 1.05439 2.08217 -0.4815661 0.7350982 -0.4772051 0.47506 0.587193
0.369624 1.04735 1.79681 -0.5534208 0.5713027 -0.6060847 0.4976 0.590453
0.056062 1.00477 2.03819 -0.5833559 0.4652309 -0.6657748 0.475744 0.587012
0.352438 0.977535 1.77377 -0.6143808 0.1986439 -0.7635947 0.502268 0.589617
0.050088 0.925046 2.00642 -0.6076949 0.0337562 -0.7934529 0.476225 0.58727
0.372367 0.897538 1.7756 -0.5616649 -0.2353179 -0.7931948 0.497502 0.587948
0.060088 0.855049 2.00707 -0.5315239 -0.3393649 -0.7760888 0.475961 0.586751
0.399636 0.827357 1.79865 -0.454963 -0.538914 -0.708929 0.493841 0.58737
0.087357 0.784868 2.03011 -0.4064532 -0.6341872 -0.6577252 0.475271 0.586591
0.435516 0.777082 1.83307 -0.2733461 -0.8124781 -0.5149381 0.49132 0.587029
0.121954 0.734501 2.07445 -0.184081 -0.8896308 -0.417937 0.474223 0.586265
0.209839 1.01227 2.33042 0.4157399 0.6047459 0.6792958 0.471043 0.585509
-0.200215 0.962739 2.22649 -0.5531591 0.5714371 -0.6061971 0.467008 0.586607
-0.218672 0.882834 2.21327 -0.6074019 0.02606899 -0.7939668 0.466416 0.586572
-0.207377 0.80293 2.20391 -0.5235449 -0.3614749 -0.7715158 0.466178 0.586703
-0.18012 0.742748 2.22704 -0.402554 -0.616851 -0.676347 0.465591 0.586682
-0.135606 0.692381 2.27267 -0.2216909 -0.8531978 -0.4721299 0.465137 0.586838
-0.092399 0.661921 2.32839 -0.100928 -0.9400861 -0.325656 0.464809 0.586779
-0.22491 0.73238 2.26149 -0.415922 -0.5888621 -0.693001 0.464818 0.586569
-0.218578 0.802838 2.21254 -0.4761199 -0.4816009 -0.7357788 0.46584 0.586636
-0.236386 0.671552 2.35019 -0.2237881 -0.8349293 -0.5028042 0.462711 0.586443
-0.24918 0.640631 2.44908 -0.114783 -0.9308351 -0.346945 0.459692 0.587385
0.216574 0.742748 2.27836 0.449263 -0.7858211 0.425027 0.470351 0.586331
0.138577 0.692842 2.25772 0.2191451 -0.9721432 0.08314482 0.46966 0.585391
-0.218672 0.882834 2.21327 -0.991734 2.12343e-06 -0.128311 0.466416 0.586572
-0.218578 0.802838 2.21254 -0.991734 2.09728e-06 -0.128311 0.46584 0.586636
-0.22491 0.73238 2.26149 -0.9917341 2.05745e-06 -0.12831 0.464818 0.586569
-0.236386 0.671552 2.35019 -0.9917341 2.0088e-06 -0.12831 0.462711 0.586443
-0.24918 0.640631 2.44908 -0.9917341 1.91694e-06 -0.12831 0.459692 0.587385
-0.261986 0.619709 2.54807 -0.991874 -8.236801e-06 -0.127224 0.455613 0.589516
-0.004135 0.619709 2.58143 0.02217941 -0.9849454 -0.1714371 0.447061 0.583709
-0.254958 0.598788 2.64962 0.0343487 -0.983879 -0.175506 0.452769 0.587403
-0.261986 0.619709 2.54807 0.0263213 -0.978731 -0.203452 0.455613 0.589516
-0.205705 0.58805 2.73656 0.0324557 -0.986714 -0.159192 0.450079 0.586139
-0.134053 0.577497 2.80624 0.03675669 -0.9857988 -0.163859 0.446891 0.584871
-0.037445 0.577313 2.8389 0.02067761 -0.9869273 -0.1598341 0.44193 0.583022
0.064294 0.577497 2.8319 0.006153957 -0.9857987 -0.1678189 0.447209 0.582298
0.151319 0.58805 2.78275 0.00912609 -0.986714 -0.162211 0.450611 0.581777
0.221075 0.598788 2.71121 0.011446 -0.9838791 -0.178468 0.453454 0.581202
0.253716 0.619709 2.61479 0.0263213 -0.978731 -0.203452 0.456417 0.580142
-0.004135 0.619709 2.58143 0.02097699 -0.9865448 -0.16214 0.465291 0.586221
-0.083474 0.619709 2.57116 0.04170009 -0.9457188 -0.3222999 0.465283 0.586262
-0.069719 0.629986 2.54279 -0.0360518 -0.9792831 -0.199261 0.465275 0.586252
-0.055953 0.630262 2.51432 -0.07028212 -0.9923214 -0.101778 0.465269 0.586247
-0.024918 0.630355 2.50825 -0.0238905 -0.9902442 -0.13728 0.465268 0.586233
0.006117 0.630447 2.50219 0.0170877 -0.9910909 -0.132087 0.465269 0.586218
0.034586 0.630355 2.51595 0.05803871 -0.9902442 -0.126681 0.465274 0.586204
0.063055 0.630262 2.52972 0.09386894 -0.9923215 -0.08054063 0.46528 0.586191
0.069124 0.629986 2.56075 0.08557545 -0.9792835 -0.1835231 0.465287 0.586188
0.075204 0.619709 2.59169 0.04169542 -0.9457185 -0.3223012 0.465298 0.58618
0.103803 0.893203 2.21475 0.7891152 0.132019 -0.5998902 0.490813 0.588406
0.122473 0.793115 2.22632 0.7785169 0.0731775 -0.623343 0.49076 0.588332
0.105204 0.793299 2.20392 0.7959538 0.07627469 -0.6005329 0.49082 0.588353
0.148352 0.812837 2.2601 0.8025142 0.114423 -0.5855581 0.490709 0.588365
0.155668 0.842652 2.2815 0.8165703 0.08372313 -0.5711422 0.490697 0.588369
0.164255 0.882558 2.29306 0.794032 0.105914 -0.598578 0.49067 0.588396
0.154302 0.912556 2.29205 0.8167049 0.121823 -0.56405 0.490697 0.588387
0.145621 0.952647 2.28122 0.740755 0.196989 -0.642244 0.490696 0.588415
0.117128 0.972738 2.26764 0.5996311 0.371002 -0.709084 0.490759 0.58844
0.101118 0.993014 2.2355 0.8457281 0.130316 -0.5174571 0.490792 0.588447
0.117128 0.972738 2.26764 0.9150429 0.105541 -0.389304 0.490759 0.58844
0.075227 0.983291 2.20181 0.7584071 0.149419 -0.6344231 0.490837 0.588448
0.05797 0.973476 2.17932 0.7333602 0.123632 -0.6685042 0.490891 0.588464
0.040737 0.943662 2.15665 0.7513382 0.2243801 -0.6206001 0.490913 0.588458
0.04335 0.903848 2.13645 0.7905308 0.1773999 -0.5861659 0.490965 0.58843
0.043398 0.86385 2.13608 0.7711578 0.09876948 -0.6289358 0.490939 0.588404
0.061985 0.833759 2.14829 0.7864034 0.1235121 -0.6052393 0.490921 0.588399
0.079289 0.803576 2.17041 0.8106903 0.06606272 -0.5817362 0.490874 0.588373
0.253716 0.619709 2.61479 0.9908972 -0.110721 0.07657482 0.456417 0.580142
-0.028713 0.78795 2.7714 -0.117289 0.4053909 0.9065878 0.452738 0.584163
0.284641 0.802653 2.29781 0.9182589 -0.36915 -0.143279 0.471041 0.586429
0.246687 0.640631 2.51324 0.7163132 -0.6195971 -0.3209281 0.461333 0.584543
0.216574 0.742748 2.27836 0.6090591 -0.6975572 -0.3774401 0.470351 0.586331
3 0 1 2 
3 0 2 3 
3 3 2 4 
3 3 4 5 
3 6 7 8 
3 6 8 9 
3 9 8 10 
3 9 10 11 
3 12 13 14 
3 12 14 15 
3 15 14 16 
3 15 16 17 
3 18 19 20 
3 18 20 21 
3 21 20 22 
3 21 22 23 
3 23 22 24 
3 23 24 25 
3 25 24 26 
3 25 26 27 
3 28 29 30 
3 28 30 31 
3 31 30 32 
3 31 32 33 
3 34 35 36 
3 34 36 37 
3 37 36 38 
3 37 38 39 
3 40 41 42 
3 40 42 43 
3 44 45 43 
3 44 43 42 
3 46 47 48 
3 46 48 49 
3 50 46 49 
3 50 49 51 
3 52 50 51 
3 52 51 53 
3 54 52 53 
3 54 53 55 
3 56 54 55 
3 56 55 57 
3 58 56 57 
3 58 57 59 
3 60 58 59 
3 60 59 61 
3 62 60 61 
3 62 61 63 
3 64 62 63 
3 64 63 65 
3 66 64 65 
3 66 65 67 
3 68 66 67 
3 68 67 69 
3 69 70 71 
3 69 71 68 
3 70 72 73 
3 70 73 71 
3 74 73 72 
3 74 72 75 
3 76 74 75 
3 76 75 77 
3 47 76 77 
3 47 77 48 
3 78 79 80 
3 78 80 81 
3 79 82 83 
3 79 83 80 
3 82 84 85 
3 82 85 83 
3 84 86 87 
3 84 87 85 
3 86 88 89 
3 86 89 87 
3 88 90 91 
3 88 91 89 
3 90 92 93 
3 90 93 91 
3 92 94 95 
3 92 95 93 
3 94 96 97 
3 94 97 95 
3 96 98 99 
3 96 99 97 
3 98 100 101 
3 98 101 99 
3 100 102 103 
3 100 103 101 
3 102 104 105 
3 102 105 103 
3 104 106 107 
3 104 107 105 
3 106 108 109 
3 106 109 107 
3 108 78 81 
3 108 81 109 
3 92 110 111 
3 92 111 94 
3 110 112 113 
3 110 113 111 
3 112 114 115 
3 112 115 113 
3 114 116 117 
3 114 117 115 
3 90 118 110 
3 90 110 92 
3 118 119 112 
3 118 112 110 
3 119 120 114 
3 119 114 112 
3 120 121 116 
3 120 116 114 
3 88 122 118 
3 88 118 90 
3 122 123 119 
3 122 119 118 
3 123 124 120 
3 123 120 119 
3 124 125 121 
3 124 121 120 
3 86 126 122 
3 86 122 88 
3 126 127 123 
3 126 123 122 
3 127 128 124 
3 127 124 123 
3 128 129 125 
3 128 125 124 
3 84 130 126 
3 84 126 86 
3 130 131 127 
3 130 127 126 
3 131 132 128 
3 131 128 127 
3 132 133 129 
3 132 129 128 
3 82 134 130 
3 82 130 84 
3 134 135 131 
3 134 131 130 
3 136 137 132 
3 136 132 131 
3 137 138 133 
3 137 133 132 
3 79 139 134 
3 79 134 82 
3 139 140 136 
3 139 136 134 
3 140 141 137 
3 140 137 136 
3 141 142 138 
3 141 138 137 
3 78 143 139 
3 78 139 79 
3 143 144 140 
3 143 140 139 
3 144 145 141 
3 144 141 140 
3 145 146 142 
3 145 142 141 
3 108 147 143 
3 108 143 78 
3 147 148 144 
3 147 144 143 
3 148 149 145 
3 148 145 144 
3 149 150 146 
3 149 146 145 
3 106 151 147 
3 106 147 108 
3 151 152 148 
3 151 148 147 
3 152 153 149 
3 152 149 148 
3 153 154 150 
3 153 150 149 
3 104 155 151 
3 104 151 106 
3 155 156 157 
3 155 157 151 
3 156 158 153 
3 156 153 152 
3 158 159 154 
3 158 154 153 
3 102 160 155 
3 102 155 104 
3 160 161 156 
3 160 156 155 
3 161 162 158 
3 161 158 156 
3 162 163 159 
3 162 159 158 
3 100 164 160 
3 100 160 102 
3 164 165 161 
3 164 161 160 
3 165 166 162 
3 165 162 161 
3 166 167 163 
3 166 163 162 
3 98 168 164 
3 98 164 100 
3 168 169 165 
3 168 165 164 
3 169 170 166 
3 169 166 165 
3 170 171 167 
3 170 167 166 
3 96 172 168 
3 96 168 98 
3 172 173 169 
3 172 169 168 
3 173 174 170 
3 173 170 169 
3 174 175 171 
3 174 171 170 
3 94 111 172 
3 94 172 96 
3 111 113 173 
3 111 173 172 
3 113 115 174 
3 113 174 173 
3 115 117 175 
3 115 175 174 
3 176 177 178 
3 176 178 179 
3 180 181 177 
3 180 177 176 
3 182 183 181 
3 182 181 180 
3 184 185 183 
3 184 183 182 
3 186 187 188 
3 186 188 184 
3 189 190 187 
3 189 187 186 
3 191 192 190 
3 191 190 189 
3 193 194 195 
3 193 195 196 
3 194 197 198 
3 194 198 195 
3 199 200 201 
3 199 201 202 
3 200 203 204 
3 200 204 201 
3 205 206 207 
3 205 207 208 
3 206 209 210 
3 206 210 207 
3 211 212 213 
3 211 213 214 
3 212 215 216 
3 212 216 213 
3 217 218 219 
3 217 219 220 
3 218 221 222 
3 218 222 219 
3 221 223 224 
3 221 224 222 
3 223 225 226 
3 223 226 224 
3 225 227 228 
3 225 228 226 
3 229 230 231 
3 229 231 232 
3 230 233 234 
3 230 234 231 
3 233 193 196 
3 233 196 234 
3 235 236 237 
3 235 237 238 
3 239 235 238 
3 239 238 240 
3 241 239 240 
3 241 240 242 
3 243 241 242 
3 243 242 244 
3 245 243 244 
3 245 244 246 
3 247 245 246 
3 247 246 248 
3 249 247 248 
3 249 248 250 
3 251 249 250 
3 251 250 252 
3 253 251 252 
3 253 252 254 
3 255 253 254 
3 255 254 256 
3 257 255 256 
3 257 256 258 
3 259 257 258 
3 259 258 260 
3 261 259 260 
3 261 260 262 
3 263 261 262 
3 263 262 264 
3 265 263 264 
3 265 264 266 
3 236 265 266 
3 236 266 237 
3 267 268 269 
3 267 269 270 
3 268 271 272 
3 268 272 269 
3 271 273 274 
3 271 274 272 
3 275 276 277 
3 275 277 278 
3 276 279 280 
3 276 280 277 
3 279 281 282 
3 279 282 280 
3 270 283 284 
3 270 284 267 
3 283 285 286 
3 283 286 284 
3 285 287 288 
3 285 288 286 
3 278 289 290 
3 278 290 275 
3 289 291 292 
3 289 292 290 
3 291 293 294 
3 291 294 292 
3 295 282 296 
3 295 296 297 
3 298 280 282 
3 298 282 295 
3 299 277 280 
3 299 280 298 
3 300 278 277 
3 300 277 299 
3 301 289 278 
3 301 278 300 
3 302 291 289 
3 302 289 301 
3 303 293 291 
3 303 291 302 
3 304 305 293 
3 304 293 303 
3 306 295 297 
3 306 297 307 
3 308 298 295 
3 308 295 309 
3 310 299 298 
3 310 298 308 
3 311 300 299 
3 311 299 310 
3 312 301 300 
3 312 300 311 
3 313 302 301 
3 313 301 312 
3 314 303 302 
3 314 302 313 
3 315 304 303 
3 315 303 316 
3 308 317 310 
3 310 318 319 
3 310 319 311 
3 311 319 320 
3 311 320 312 
3 312 320 321 
3 312 321 313 
3 313 321 322 
3 313 322 314 
3 316 323 324 
3 316 324 315 
3 325 326 327 
3 325 327 328 
3 328 327 329 
3 328 329 330 
3 330 329 331 
3 330 331 332 
3 332 331 333 
3 332 333 334 
3 334 333 335 
3 334 335 336 
3 336 335 337 
3 336 337 338 
3 338 337 339 
3 338 339 340 
3 340 339 341 
3 340 341 342 
3 342 341 343 
3 342 343 344 
3 344 343 345 
3 344 345 346 
3 346 345 347 
3 346 347 348 
3 348 347 349 
3 348 349 350 
3 350 349 351 
3 350 351 352 
3 352 351 353 
3 352 353 354 
3 354 353 355 
3 354 355 356 
3 356 355 326 
3 356 326 325 
3 336 338 357 
3 338 340 318 
3 338 318 357 
3 340 342 319 
3 340 319 318 
3 342 344 320 
3 342 320 319 
3 344 346 321 
3 344 321 320 
3 346 348 358 
3 346 358 321 
3 348 350 359 
3 348 359 358 
3 350 352 360 
3 350 360 359 
3 352 354 361 
3 352 361 360 
3 354 356 362 
3 354 362 361 
3 356 325 363 
3 356 363 362 
3 360 361 364 
3 360 364 365 
3 361 362 366 
3 361 366 364 
3 362 363 367 
3 362 367 366 
3 332 368 330 
3 330 368 369 
3 330 369 328 
3 328 369 184 
3 328 184 325 
3 304 370 371 
3 304 371 372 
3 304 372 373 
3 304 373 374 
3 304 374 375 
3 304 375 305 
3 376 377 378 
3 376 379 377 
3 376 380 379 
3 376 381 380 
3 376 382 381 
3 376 383 382 
3 376 384 383 
3 376 385 384 
3 386 387 388 
3 386 388 389 
3 386 389 390 
3 386 390 391 
3 386 391 392 
3 386 392 393 
3 386 393 394 
3 386 394 395 
3 188 185 184 
3 396 397 398 
3 396 399 397 
3 396 400 399 
3 396 401 400 
3 396 402 401 
3 396 403 402 
3 396 404 403 
3 396 405 406 
3 396 407 405 
3 396 408 407 
3 396 409 408 
3 396 410 409 
3 396 411 410 
3 396 412 411 
3 396 413 412 
3 396 398 413 
3 273 414 274 
3 270 269 276 
3 269 272 279 
3 272 274 281 
3 274 414 296 
3 276 415 270 
3 279 276 269 
3 281 279 272 
3 296 281 274 
3 281 296 282 
3 287 375 288 
3 287 294 305 
3 305 375 287 
3 290 283 270 
3 292 285 283 
3 294 287 285 
3 270 415 290 
3 283 290 292 
3 285 292 294 
3 293 305 294 
3 359 360 365 
3 297 296 414 
3 416 307 297 
3 414 416 297 
3 416 414 417 
3 416 417 418 
3 186 418 417 
3 418 186 369 
3 184 369 186 
