ply
format ascii 1.0
comment VCGLIB generated
comment TextureFile SpidermanUV_square.bmp
element vertex 385
property float x
property float y
property float z
property float nx
property float ny
property float nz
property float texture_u
property float texture_v
element face 164
property list uchar int vertex_indices
end_header
0.037098 -0.910345 2.17479 -0.8239872 0.143074 0.5482471 0.763509 0.68687
0.014757 -1.01153 2.16904 -0.816416 0.148506 0.558042 0.757768 0.69291
0.037083 -1.01071 2.20097 -0.8176406 0.1453939 0.5570678 0.755866 0.69019
-0.003434 -0.996096 2.13778 -0.8236208 0.153664 0.5459269 0.760541 0.694649
-0.014327 -0.968269 2.11295 -0.826827 0.157632 0.539916 0.763558 0.695179
-0.018099 -0.930816 2.09627 -0.8268616 0.1418539 0.5442218 0.766883 0.694481
-0.014315 -0.890988 2.0928 -0.8267953 0.1261051 0.5481852 0.769487 0.692598
-0.003412 -0.854582 2.10088 -0.8235941 0.132636 0.5514531 0.771154 0.690033
0.014786 -0.825856 2.12061 -0.816388 0.143165 0.559477 0.771782 0.686819
0.037114 -0.809981 2.14862 -0.8176406 0.1453939 0.5570678 0.771118 0.683524
0.058471 -0.810208 2.18064 -0.8274369 0.144905 0.542541 0.769254 0.680879
0.076485 -0.825399 2.21283 -0.8293301 0.142616 0.540252 0.766391 0.679088
0.088346 -0.853181 2.23783 -0.8245481 0.132638 0.550025 0.763325 0.678566
0.093264 -0.88983 2.25349 -0.8228497 0.143317 0.5498898 0.760198 0.679197
0.088334 -0.930462 2.25799 -0.8245571 0.152778 0.5447611 0.757454 0.681131
0.076463 -0.966913 2.24974 -0.8293509 0.139594 0.5410089 0.755772 0.683746
0.058442 -0.995883 2.22906 -0.8274741 0.138711 0.5441011 0.755147 0.68707
0.77335 -0.901807 1.62505 0.2577641 -0.9581152 -0.124792 0.747688 0.67101
0.881928 -0.874234 1.63762 0.3192 -0.9466749 -0.043795 0.779288 0.67101
0.827467 -0.894641 1.68181 0.3023511 -0.9508762 -0.06646982 0.779288 0.70261
0.795826 -0.831912 1.5908 0.3287299 -0.5036998 -0.7988887 0.747688 0.67101
0.881928 -0.874234 1.63762 0.2212349 -0.4856548 -0.8456917 0.779288 0.67101
0.77335 -0.901807 1.62505 0.336419 -0.499485 -0.7983339 0.779288 0.70261
0.691872 -0.906046 1.58375 0.2246851 -0.4989962 -0.8369704 0.747688 0.67101
0.795826 -0.831912 1.5908 0.3287299 -0.5036998 -0.7988887 0.779288 0.67101
0.715939 -0.836976 1.54857 0.2348411 -0.4687671 -0.8515322 0.779288 0.67101
0.795826 -0.831912 1.5908 0.3287299 -0.5036998 -0.7988887 0.779288 0.70261
0.597395 -0.895936 1.57273 -0.02563639 -0.3345489 -0.9420297 0.747688 0.67101
0.691872 -0.906046 1.58375 0.2246851 -0.4989962 -0.8369704 0.779288 0.70261
0.597407 -0.815644 1.5518 -0.07159664 -0.2516881 -0.9651565 0.779288 0.67101
0.715939 -0.836976 1.54857 0.2348411 -0.4687671 -0.8515322 0.779288 0.70261
0.774413 -1.18309 1.69762 0.287766 0.7964609 -0.5318279 0.747688 0.67101
0.828179 -1.16615 1.75208 0.3147179 0.8085856 -0.4971338 0.779288 0.67101
0.882793 -1.20512 1.72326 0.3254608 0.8130125 -0.4827897 0.779288 0.70261
0.797268 -1.2607 1.70154 0.3218231 0.05114981 -0.9454172 0.747688 0.67101
0.774413 -1.18309 1.69762 0.330031 0.0495626 -0.9426681 0.779288 0.67101
0.882793 -1.20512 1.72326 0.23399 0.0197765 -0.9720379 0.779288 0.70261
0.691827 -1.20212 1.66096 0.2149171 0.02484271 -0.9763163 0.747688 0.67101
0.797268 -1.2607 1.70154 0.3218231 0.05114981 -0.9454172 0.779288 0.70261
0.797268 -1.2607 1.70154 0.3218231 0.05114981 -0.9454172 0.779288 0.67101
0.715871 -1.27958 1.66399 0.2185169 -0.0122992 -0.9757557 0.779288 0.70261
0.597345 -1.2171 1.65649 -0.02633711 -0.1682801 -0.9853873 0.747688 0.67101
0.691827 -1.20212 1.66096 0.2149171 0.02484271 -0.9763163 0.779288 0.67101
0.715871 -1.27958 1.66399 0.2185169 -0.01229919 -0.9757556 0.779288 0.67101
0.597333 -1.29739 1.67743 -0.07159664 -0.2516881 -0.9651565 0.779288 0.70261
0.557128 -1.10141 1.85347 0 -0.9676408 0.2523319 0.776905 0.67802
0.014757 -1.01153 2.16904 -0.2236431 -0.9712332 -0.08179102 0.757768 0.69291
0.535771 -1.10219 1.82171 -0.2236111 -0.9712304 -0.08191284 0.772561 0.673583
0.037083 -1.01071 2.20097 0.0001830029 -0.9675136 0.2528189 0.755866 0.69019
-0.003434 -0.996096 2.13778 -0.415181 -0.811622 -0.410968 0.760541 0.694649
0.51758 -1.08676 1.79046 -0.408292 -0.822841 -0.39526 0.766739 0.671078
-0.014327 -0.968269 2.11295 -0.53046 -0.543096 -0.650891 0.763558 0.695179
0.504928 -1.05926 1.76435 -0.5288069 -0.5522459 -0.6445059 0.76042 0.671013
-0.018099 -0.930816 2.09627 -0.569591 -0.204635 -0.796047 0.766883 0.694481
0.500978 -1.02156 1.74859 -0.5695931 -0.20485 -0.7959901 0.754438 0.673462
-0.014315 -0.890988 2.0928 -0.5308262 0.1574501 -0.8327263 0.769487 0.692598
0.50494 -0.981981 1.74419 -0.5278341 0.168131 -0.8325402 0.750087 0.677839
-0.003412 -0.854582 2.10088 -0.41577 0.5086101 -0.753957 0.771154 0.690033
0.517601 -0.945241 1.75355 -0.406641 0.5256661 -0.747207 0.747691 0.683685
0.014786 -0.825856 2.12061 -0.229964 0.800218 -0.5538661 0.771782 0.686819
0.535799 -0.916515 1.77329 -0.2302681 0.8000044 -0.5540483 0.747716 0.690012
0.037114 -0.809981 2.14862 0.0005800062 0.9677523 -0.2519031 0.771118 0.683524
0.557159 -0.900684 1.80112 0.000122003 0.9676408 -0.2523319 0.750131 0.695793
0.058471 -0.810208 2.18064 0.22886 0.9693381 0.08948081 0.769254 0.680879
0.578517 -0.900912 1.83314 0.231064 0.9685369 0.092444 0.75456 0.7002
0.076485 -0.825399 2.21283 0.4123181 0.8171291 0.4028571 0.766391 0.679088
0.596708 -0.916346 1.86439 0.413957 0.8150949 0.40529 0.7604 0.702607
0.088346 -0.853181 2.23783 0.529084 0.5496529 0.6464919 0.763325 0.678566
0.608569 -0.944129 1.8894 0.5271336 0.5556076 0.6429855 0.766468 0.702607
0.093264 -0.88983 2.25349 0.5686994 0.2101561 0.7952455 0.760198 0.679197
0.613309 -0.980534 1.90599 0.5686912 0.2103381 0.7952033 0.772231 0.700258
0.088334 -0.930462 2.25799 0.5289921 -0.161967 0.8330271 0.757454 0.681131
0.608557 -1.02141 1.90955 0.5279511 -0.168862 0.8323181 0.776841 0.695693
0.076463 -0.966913 2.24974 0.4122858 -0.5166308 0.7504086 0.755772 0.683746
0.596686 -1.05786 1.9013 0.413411 -0.513604 0.751866 0.779179 0.690086
0.058442 -0.995883 2.22906 0.2220869 -0.8097326 0.5431488 0.755147 0.68707
0.578488 -1.08659 1.88156 0.223766 -0.8075649 0.545681 0.779233 0.683758
0.466963 -1.03399 1.70093 -0.5739451 -0.208935 -0.7917911 0.747688 0.67101
0.417722 -0.934066 1.71003 -0.5690052 -0.2055801 -0.7962223 0.779288 0.67101
0.477282 -0.975568 1.67834 -0.568881 -0.204633 -0.796555 0.779288 0.70261
0.417722 -0.934066 1.71003 -0.5690052 -0.2055801 -0.7962223 0.747688 0.67101
0.466963 -1.03399 1.70093 -0.5739451 -0.208935 -0.7917911 0.779288 0.67101
0.402639 -1.02256 1.74473 -0.574158 -0.207775 -0.791942 0.779288 0.70261
0.477282 -0.975568 1.67834 -0.568881 -0.204633 -0.796555 0.747688 0.67101
0.461084 -0.864132 1.66173 -0.5733669 -0.202893 -0.7937789 0.779288 0.67101
0.505926 -0.928373 1.64559 -0.5709219 -0.2047829 -0.7950548 0.779288 0.70261
0.461084 -0.864132 1.66173 -0.5733669 -0.202893 -0.7937789 0.747688 0.67101
0.477282 -0.975568 1.67834 -0.568881 -0.204633 -0.796555 0.779288 0.67101
0.417722 -0.934066 1.71003 -0.5690052 -0.2055801 -0.7962223 0.779288 0.70261
0.505926 -0.928373 1.64559 -0.5709219 -0.2047829 -0.7950548 0.747688 0.67101
0.523125 -0.822975 1.60584 -0.564183 -0.211104 -0.798206 0.779288 0.67101
0.548137 -0.900393 1.60905 -0.5595948 -0.2119239 -0.8012127 0.779288 0.70261
0.523125 -0.822975 1.60584 -0.564183 -0.211104 -0.798206 0.747688 0.67101
0.505926 -0.928373 1.64559 -0.5709219 -0.2047829 -0.7950548 0.779288 0.67101
0.461084 -0.864132 1.66173 -0.5733669 -0.202893 -0.7937789 0.779288 0.70261
0.548137 -0.900393 1.60905 -0.5595948 -0.2119239 -0.8012127 0.747688 0.67101
0.597407 -0.815644 1.5518 -0.5638729 -0.211498 -0.7983208 0.779288 0.67101
0.597395 -0.895936 1.57273 -0.568263 -0.207559 -0.796239 0.779288 0.70261
0.597407 -0.815644 1.5518 -0.5638729 -0.211498 -0.7983208 0.747688 0.67101
0.548137 -0.900393 1.60905 -0.5595948 -0.2119239 -0.8012127 0.779288 0.67101
0.523125 -0.822975 1.60584 -0.564183 -0.211104 -0.798206 0.779288 0.70261
0.597345 -1.2171 1.65649 -0.564141 -0.204476 -0.7999591 0.747688 0.67101
0.523057 -1.26558 1.72127 -0.5667759 -0.201398 -0.7988768 0.779288 0.67101
0.548091 -1.19647 1.68626 -0.567441 -0.204264 -0.797676 0.779288 0.70261
0.523057 -1.26558 1.72127 -0.5667759 -0.201398 -0.7988768 0.747688 0.67101
0.597345 -1.2171 1.65649 -0.564141 -0.204476 -0.7999591 0.779288 0.67101
0.597333 -1.29739 1.67743 -0.561857 -0.208659 -0.8004861 0.779288 0.70261
0.548091 -1.19647 1.68626 -0.567441 -0.204264 -0.797676 0.747688 0.67101
0.461032 -1.20136 1.74967 -0.5689659 -0.212473 -0.7944388 0.779288 0.67101
0.505892 -1.15319 1.70422 -0.567532 -0.217387 -0.794135 0.779288 0.70261
0.461032 -1.20136 1.74967 -0.5689659 -0.212473 -0.7944388 0.747688 0.67101
0.548091 -1.19647 1.68626 -0.567441 -0.204264 -0.797676 0.779288 0.67101
0.523057 -1.26558 1.72127 -0.5667759 -0.201398 -0.7988768 0.779288 0.70261
0.505892 -1.15319 1.70422 -0.567532 -0.217387 -0.794135 0.747688 0.67101
0.417693 -1.11773 1.75793 -0.5699229 -0.2069219 -0.7952178 0.779288 0.67101
0.477263 -1.09701 1.71001 -0.5705613 -0.2056401 -0.7950924 0.779288 0.70261
0.417693 -1.11773 1.75793 -0.5699229 -0.2069219 -0.7952178 0.747688 0.67101
0.505892 -1.15319 1.70422 -0.567532 -0.217387 -0.794135 0.779288 0.67101
0.461032 -1.20136 1.74967 -0.5689659 -0.212473 -0.7944388 0.779288 0.70261
0.477263 -1.09701 1.71001 -0.5705613 -0.2056401 -0.7950924 0.747688 0.67101
0.402639 -1.02256 1.74473 -0.574158 -0.207775 -0.791942 0.779288 0.67101
0.466963 -1.03399 1.70093 -0.5739451 -0.208935 -0.7917911 0.779288 0.70261
0.402639 -1.02256 1.74473 -0.574158 -0.207775 -0.791942 0.747688 0.67101
0.477263 -1.09701 1.71001 -0.5705613 -0.2056401 -0.7950924 0.779288 0.67101
0.417693 -1.11773 1.75793 -0.5699229 -0.2069219 -0.7952178 0.779288 0.70261
0.747033 -0.877038 2.05632 0.568263 0.207559 0.796239 0.747688 0.67101
0.671422 -0.924071 2.12254 0.568263 0.207559 0.796239 0.779288 0.67101
0.736715 -0.935459 2.07891 0.568263 0.207559 0.796239 0.779288 0.70261
0.671422 -0.924071 2.12254 0.568263 0.207559 0.796239 0.747688 0.67101
0.747033 -0.877038 2.05632 0.568263 0.207559 0.796239 0.779288 0.67101
0.687473 -0.835536 2.088 0.568263 0.207559 0.796239 0.779288 0.70261
0.775678 -0.829843 2.02357 0.5650017 0.2044479 0.7993587 0.747688 0.67101
0.687473 -0.835536 2.088 0.568263 0.207559 0.796239 0.779288 0.67101
0.747033 -0.877038 2.05632 0.568263 0.207559 0.796239 0.779288 0.70261
0.687473 -0.835536 2.088 0.568263 0.207559 0.796239 0.747688 0.67101
0.775678 -0.829843 2.02357 0.5650017 0.2044479 0.7993587 0.779288 0.67101
0.729868 -0.765647 2.03953 0.5655611 0.208419 0.7979362 0.779288 0.70261
0.817888 -0.801863 1.98703 0.5647619 0.212323 0.7974729 0.747688 0.67101
0.729868 -0.765647 2.03953 0.5655611 0.208419 0.7979362 0.779288 0.67101
0.775678 -0.829843 2.02357 0.5650017 0.2044479 0.7993587 0.779288 0.70261
0.729868 -0.765647 2.03953 0.5655611 0.208419 0.7979362 0.747688 0.67101
0.817888 -0.801863 1.98703 0.5647619 0.212323 0.7974729 0.779288 0.67101
0.792877 -0.724446 1.98382 0.56397 0.213392 0.7977479 0.779288 0.70261
0.867146 -0.797406 1.95071 0.5708917 0.2089649 0.7939876 0.747688 0.67101
0.792877 -0.724446 1.98382 0.56397 0.213392 0.7977479 0.779288 0.67101
0.817888 -0.801863 1.98703 0.5647619 0.212323 0.7974729 0.779288 0.70261
0.792877 -0.724446 1.98382 0.56397 0.213392 0.7977479 0.747688 0.67101
0.867146 -0.797406 1.95071 0.5708917 0.2089649 0.7939876 0.779288 0.67101
0.867158 -0.717115 1.92977 0.5687531 0.206675 0.796119 0.779288 0.70261
0.916576 -0.819289 1.92026 0.5722919 0.206064 0.7937378 0.747688 0.67101
0.867158 -0.717115 1.92977 0.5687531 0.206675 0.796119 0.779288 0.67101
0.867146 -0.797406 1.95071 0.5708917 0.2089649 0.7939876 0.779288 0.70261
0.867158 -0.717115 1.92977 0.5687531 0.206675 0.796119 0.747688 0.67101
0.916576 -0.819289 1.92026 0.5722919 0.206064 0.7937378 0.779288 0.67101
0.940643 -0.750218 1.88508 0.570918 0.205881 0.794774 0.779288 0.70261
0.939949 -0.830816 1.90659 0.568242 0.207563 0.7962529 0.747688 0.67101
0.940643 -0.750218 1.88508 0.570918 0.205881 0.794774 0.779288 0.67101
0.916576 -0.819289 1.92026 0.5722919 0.206064 0.7937378 0.779288 0.70261
0.940643 -0.750218 1.88508 0.570918 0.205881 0.794774 0.747688 0.67101
0.939949 -0.830816 1.90659 0.568242 0.207563 0.7962529 0.779288 0.67101
0.963472 -0.760528 1.87148 0.568263 0.207559 0.796239 0.779288 0.70261
0.973022 -0.841475 1.88576 0.568263 0.207559 0.796239 0.747688 0.67101
0.963472 -0.760528 1.87148 0.568263 0.207559 0.796239 0.779288 0.67101
0.939949 -0.830816 1.90659 0.568242 0.207563 0.7962529 0.779288 0.70261
0.963472 -0.760528 1.87148 0.568263 0.207559 0.796239 0.747688 0.67101
0.973022 -0.841475 1.88576 0.568263 0.207559 0.796239 0.779288 0.67101
1.02748 -0.821068 1.84158 0.568263 0.207559 0.796239 0.779288 0.70261
0.941011 -1.11153 1.979 0.568263 0.207559 0.796239 0.747688 0.67101
1.02835 -1.15196 1.92721 0.568263 0.207559 0.796239 0.779288 0.67101
0.973734 -1.11299 1.95603 0.5682662 0.2075301 0.7962443 0.779288 0.70261
1.02835 -1.15196 1.92721 0.568263 0.207559 0.796239 0.747688 0.67101
0.941011 -1.11153 1.979 0.568263 0.207559 0.796239 0.779288 0.67101
0.964916 -1.18989 1.98237 0.568263 0.207559 0.796239 0.779288 0.70261
0.916531 -1.11537 1.99748 0.5729777 0.2088779 0.7925065 0.747688 0.67101
0.964916 -1.18989 1.98237 0.568263 0.207559 0.796239 0.779288 0.67101
0.941011 -1.11153 1.979 0.568263 0.207559 0.796239 0.779288 0.70261
0.964916 -1.18989 1.98237 0.568263 0.207559 0.796239 0.747688 0.67101
0.916531 -1.11537 1.99748 0.5729777 0.2088779 0.7925065 0.779288 0.67101
0.940575 -1.19283 2.00051 0.5716181 0.207711 0.793794 0.779288 0.70261
0.867097 -1.11857 2.03447 0.5719919 0.207806 0.7934999 0.747688 0.67101
0.940575 -1.19283 2.00051 0.5716181 0.207711 0.793794 0.779288 0.67101
0.916531 -1.11537 1.99748 0.5729777 0.2088779 0.7925065 0.779288 0.70261
0.940575 -1.19283 2.00051 0.5716181 0.207711 0.793794 0.747688 0.67101
0.867097 -1.11857 2.03447 0.5719919 0.207806 0.7934999 0.779288 0.67101
0.867084 -1.19887 2.0554 0.5692803 0.2057631 0.7959784 0.779288 0.70261
0.817843 -1.09794 2.06424 0.5595979 0.206157 0.8027138 0.747688 0.67101
0.867084 -1.19887 2.0554 0.5692803 0.2057631 0.7959784 0.779288 0.67101
0.867097 -1.11857 2.03447 0.5719919 0.207806 0.7934999 0.779288 0.70261
0.867084 -1.19887 2.0554 0.5692803 0.2057631 0.7959784 0.747688 0.67101
0.817843 -1.09794 2.06424 0.5595979 0.206157 0.8027138 0.779288 0.67101
0.792808 -1.16706 2.09925 0.5617629 0.20527 0.8014279 0.779288 0.70261
0.775643 -1.05466 2.0822 0.5654262 0.2074381 0.7982873 0.747688 0.67101
0.792808 -1.16706 2.09925 0.5617629 0.20527 0.8014279 0.779288 0.67101
0.817843 -1.09794 2.06424 0.5595979 0.206157 0.8027138 0.779288 0.70261
0.792808 -1.16706 2.09925 0.5617629 0.20527 0.8014279 0.747688 0.67101
0.775643 -1.05466 2.0822 0.5654262 0.2074381 0.7982873 0.779288 0.67101
0.729816 -1.10287 2.12747 0.568242 0.207563 0.7962529 0.779288 0.70261
0.747014 -0.998479 2.08799 0.568263 0.207559 0.796239 0.747688 0.67101
0.729816 -1.10287 2.12747 0.568242 0.207563 0.7962529 0.779288 0.67101
0.775643 -1.05466 2.0822 0.5654262 0.2074381 0.7982873 0.779288 0.70261
0.729816 -1.10287 2.12747 0.568242 0.207563 0.7962529 0.747688 0.67101
0.747014 -0.998479 2.08799 0.568263 0.207559 0.796239 0.779288 0.67101
0.687445 -1.0192 2.1359 0.568263 0.207559 0.796239 0.779288 0.70261
0.736715 -0.935459 2.07891 0.568263 0.207559 0.796239 0.747688 0.67101
0.687445 -1.0192 2.1359 0.568263 0.207559 0.796239 0.779288 0.67101
0.747014 -0.998479 2.08799 0.568263 0.207559 0.796239 0.779288 0.70261
0.687445 -1.0192 2.1359 0.568263 0.207559 0.796239 0.747688 0.67101
0.736715 -0.935459 2.07891 0.568263 0.207559 0.796239 0.779288 0.67101
0.671422 -0.924071 2.12254 0.568263 0.207559 0.796239 0.779288 0.70261
0.827467 -0.894641 1.68181 0.3023511 -0.9508762 -0.06646982 0.747688 0.67101
1.02748 -0.821068 1.84158 0.348035 -0.937473 -0.00399802 0.779288 0.70261
1.02748 -0.821068 1.84158 0.348035 -0.937473 -0.00399802 0.747688 0.67101
0.973022 -0.841475 1.88576 0.348035 -0.937473 -0.00399802 0.779288 0.67101
0.828179 -1.16615 1.75208 0.3147179 0.8085856 -0.4971338 0.747688 0.67101
1.02835 -1.15196 1.92721 0.3430671 0.8197774 -0.4585522 0.779288 0.67101
1.02835 -1.15196 1.92721 0.3430671 0.8197774 -0.4585522 0.747688 0.67101
0.973734 -1.11299 1.95603 0.3430671 0.8197774 -0.4585522 0.779288 0.70261
0.736715 -0.935459 2.07891 0.8228543 -0.1450271 -0.5494342 0.747688 0.67101
0.477282 -0.975568 1.67834 0.7623008 -0.4971229 -0.4144469 0.779288 0.67101
0.747033 -0.877038 2.05632 0.7623008 -0.4971229 -0.4144469 0.779288 0.70261
0.477282 -0.975568 1.67834 0.7623008 -0.4971229 -0.4144469 0.747688 0.67101
0.736715 -0.935459 2.07891 0.8228543 -0.1450271 -0.5494342 0.779288 0.67101
0.466963 -1.03399 1.70093 0.8228543 -0.1450271 -0.5494342 0.779288 0.70261
0.747033 -0.877038 2.05632 0.7623008 -0.4971229 -0.4144469 0.747688 0.67101
0.505926 -0.928373 1.64559 0.5957359 -0.7712828 -0.2241019 0.779288 0.67101
0.775678 -0.829843 2.02357 0.5949662 -0.7720983 -0.2233371 0.779288 0.70261
0.505926 -0.928373 1.64559 0.5957359 -0.7712828 -0.2241019 0.747688 0.67101
0.747033 -0.877038 2.05632 0.7623008 -0.4971229 -0.4144469 0.779288 0.67101
0.477282 -0.975568 1.67834 0.7623008 -0.4971229 -0.4144469 0.779288 0.70261
0.775678 -0.829843 2.02357 0.5949662 -0.7720983 -0.2233371 0.747688 0.67101
0.548137 -0.900393 1.60905 0.3366591 -0.9416123 0.005188131 0.779288 0.67101
0.817888 -0.801863 1.98703 0.3355569 -0.9420006 0.006043108 0.779288 0.70261
0.548137 -0.900393 1.60905 0.3366591 -0.9416123 0.005188131 0.747688 0.67101
0.775678 -0.829843 2.02357 0.5949662 -0.7720983 -0.2233371 0.779288 0.67101
0.505926 -0.928373 1.64559 0.5957359 -0.7712828 -0.2241019 0.779288 0.70261
0.817888 -0.801863 1.98703 0.3355569 -0.9420006 0.006043108 0.747688 0.67101
0.597395 -0.895936 1.57273 0.06628793 -0.9760704 0.2071051 0.779288 0.67101
0.867146 -0.797406 1.95071 0.00149503 -0.969133 0.246534 0.779288 0.70261
0.597395 -0.895936 1.57273 0.06628793 -0.9760704 0.2071051 0.747688 0.67101
0.817888 -0.801863 1.98703 0.3355569 -0.9420006 0.006043108 0.779288 0.67101
0.548137 -0.900393 1.60905 0.3366591 -0.9416123 0.005188131 0.779288 0.70261
0.867146 -0.797406 1.95071 0.00149503 -0.969133 0.246534 0.747688 0.67101
0.691872 -0.906046 1.58375 -0.136422 -0.9312059 0.338001 0.779288 0.67101
0.916576 -0.819289 1.92026 -0.202157 -0.910895 0.359726 0.779288 0.70261
0.691872 -0.906046 1.58375 -0.136422 -0.9312059 0.338001 0.747688 0.67101
0.867146 -0.797406 1.95071 0.00149503 -0.969133 0.246534 0.779288 0.67101
0.597395 -0.895936 1.57273 0.06628793 -0.9760704 0.2071051 0.779288 0.70261
0.916576 -0.819289 1.92026 -0.202157 -0.910895 0.359726 0.747688 0.67101
0.77335 -0.901807 1.62505 -0.133215 -0.9356167 0.3269179 0.779288 0.67101
0.939949 -0.830816 1.90659 -0.1757931 -0.9217213 0.3457262 0.779288 0.70261
0.77335 -0.901807 1.62505 -0.133215 -0.9356167 0.3269179 0.747688 0.67101
0.916576 -0.819289 1.92026 -0.202157 -0.910895 0.359726 0.779288 0.67101
0.691872 -0.906046 1.58375 -0.136422 -0.9312059 0.338001 0.779288 0.70261
0.939949 -0.830816 1.90659 -0.1757931 -0.9217213 0.3457262 0.747688 0.67101
0.827467 -0.894641 1.68181 -0.291554 -0.8718861 0.3934601 0.779288 0.67101
0.973022 -0.841475 1.88576 -0.10282 -0.9421649 0.318988 0.779288 0.70261
0.827467 -0.894641 1.68181 -0.291554 -0.8718861 0.3934601 0.747688 0.67101
0.939949 -0.830816 1.90659 -0.1757931 -0.9217213 0.3457262 0.779288 0.67101
0.77335 -0.901807 1.62505 -0.133215 -0.9356167 0.3269179 0.779288 0.70261
0.973734 -1.11299 1.95603 -0.09442519 0.9768189 -0.192117 0.747688 0.67101
0.774413 -1.18309 1.69762 -0.1539091 0.9756414 -0.1563201 0.779288 0.67101
0.941011 -1.11153 1.979 -0.160592 0.9760983 -0.146432 0.779288 0.70261
0.774413 -1.18309 1.69762 -0.1539091 0.9756414 -0.1563201 0.747688 0.67101
0.973734 -1.11299 1.95603 -0.09442519 0.9768189 -0.192117 0.779288 0.67101
0.828179 -1.16615 1.75208 -0.179452 0.9756351 -0.126227 0.779288 0.70261
0.941011 -1.11153 1.979 -0.160592 0.9760983 -0.146432 0.747688 0.67101
0.691827 -1.20212 1.66096 -0.1511619 0.9767075 -0.1522909 0.779288 0.67101
0.916531 -1.11537 1.99748 -0.1944961 0.9736703 -0.118901 0.779288 0.70261
0.691827 -1.20212 1.66096 -0.1511619 0.9767075 -0.1522909 0.747688 0.67101
0.941011 -1.11153 1.979 -0.160592 0.9760983 -0.146432 0.779288 0.67101
0.774413 -1.18309 1.69762 -0.1539091 0.9756414 -0.1563201 0.779288 0.70261
0.916531 -1.11537 1.99748 -0.1944961 0.9736703 -0.118901 0.747688 0.67101
0.597345 -1.2171 1.65649 0.0536522 0.955904 -0.288737 0.779288 0.67101
0.867097 -1.11857 2.03447 0.00167904 0.9673678 -0.2533709 0.779288 0.70261
0.597345 -1.2171 1.65649 0.0536522 0.955904 -0.288737 0.747688 0.67101
0.916531 -1.11537 1.99748 -0.1944961 0.9736703 -0.118901 0.779288 0.67101
0.691827 -1.20212 1.66096 -0.1511619 0.9767075 -0.1522909 0.779288 0.70261
0.867097 -1.11857 2.03447 0.00167904 0.9673678 -0.2533709 0.747688 0.67101
0.548091 -1.19647 1.68626 0.335775 0.8249381 -0.4546781 0.779288 0.67101
0.817843 -1.09794 2.06424 0.33461 0.825751 -0.454061 0.779288 0.70261
0.548091 -1.19647 1.68626 0.335775 0.8249381 -0.4546781 0.747688 0.67101
0.867097 -1.11857 2.03447 0.00167904 0.9673678 -0.2533709 0.779288 0.67101
0.597345 -1.2171 1.65649 0.0536522 0.955904 -0.288737 0.779288 0.70261
0.817843 -1.09794 2.06424 0.33461 0.825751 -0.454061 0.747688 0.67101
0.505892 -1.15319 1.70422 0.5972001 0.5616761 -0.5726011 0.779288 0.67101
0.775643 -1.05466 2.0822 0.5964741 0.5626891 -0.5723631 0.779288 0.70261
0.505892 -1.15319 1.70422 0.5972001 0.5616761 -0.5726011 0.747688 0.67101
0.817843 -1.09794 2.06424 0.33461 0.825751 -0.454061 0.779288 0.67101
0.548091 -1.19647 1.68626 0.335775 0.8249381 -0.4546781 0.779288 0.70261
0.775643 -1.05466 2.0822 0.5964741 0.5626891 -0.5723631 0.747688 0.67101
0.477263 -1.09701 1.71001 0.7615191 0.2339 -0.6044661 0.779288 0.67101
0.747014 -0.998479 2.08799 0.7615191 0.2339 -0.6044661 0.779288 0.70261
0.477263 -1.09701 1.71001 0.7615191 0.2339 -0.6044661 0.747688 0.67101
0.775643 -1.05466 2.0822 0.5964741 0.5626891 -0.5723631 0.779288 0.67101
0.505892 -1.15319 1.70422 0.5972001 0.5616761 -0.5726011 0.779288 0.70261
0.747014 -0.998479 2.08799 0.7615191 0.2339 -0.6044661 0.747688 0.67101
0.466963 -1.03399 1.70093 0.8228543 -0.1450271 -0.5494342 0.779288 0.67101
0.736715 -0.935459 2.07891 0.8228543 -0.1450271 -0.5494342 0.779288 0.70261
0.466963 -1.03399 1.70093 0.8228543 -0.1450271 -0.5494342 0.747688 0.67101
0.747014 -0.998479 2.08799 0.7615191 0.2339 -0.6044661 0.779288 0.67101
0.477263 -1.09701 1.71001 0.7615191 0.2339 -0.6044661 0.779288 0.70261
0.671422 -0.924071 2.12254 -0.823326 0.14393 0.549016 0.747688 0.67101
0.687473 -0.835536 2.088 -0.7617657 0.4993288 0.4127758 0.779288 0.67101
0.417722 -0.934066 1.71003 -0.7619432 0.4989592 0.4128951 0.779288 0.70261
0.417722 -0.934066 1.71003 -0.7619432 0.4989592 0.4128951 0.747688 0.67101
0.402639 -1.02256 1.74473 -0.8233298 0.143901 0.5490179 0.779288 0.67101
0.671422 -0.924071 2.12254 -0.823326 0.14393 0.549016 0.779288 0.70261
0.687473 -0.835536 2.088 -0.7617657 0.4993288 0.4127758 0.747688 0.67101
0.729868 -0.765647 2.03953 -0.5941292 0.7732502 0.2215731 0.779288 0.67101
0.461084 -0.864132 1.66173 -0.5934463 0.7739063 0.2211121 0.779288 0.70261
0.461084 -0.864132 1.66173 -0.5934463 0.7739063 0.2211121 0.747688 0.67101
0.417722 -0.934066 1.71003 -0.7619432 0.4989592 0.4128951 0.779288 0.67101
0.687473 -0.835536 2.088 -0.7617657 0.4993288 0.4127758 0.779288 0.70261
0.729868 -0.765647 2.03953 -0.5941292 0.7732502 0.2215731 0.747688 0.67101
0.792877 -0.724446 1.98382 -0.3353109 0.9420868 -0.006256069 0.779288 0.67101
0.523125 -0.822975 1.60584 -0.337295 0.941385 -0.005127061 0.779288 0.70261
0.523125 -0.822975 1.60584 -0.337295 0.941385 -0.005127061 0.747688 0.67101
0.461084 -0.864132 1.66173 -0.5934463 0.7739063 0.2211121 0.779288 0.67101
0.729868 -0.765647 2.03953 -0.5941292 0.7732502 0.2215731 0.779288 0.70261
0.792877 -0.724446 1.98382 -0.3353109 0.9420868 -0.006256069 0.747688 0.67101
0.867158 -0.717115 1.92977 6.100221e-05 0.9688452 -0.247667 0.779288 0.67101
0.597407 -0.815644 1.5518 -0.04995951 0.9745882 -0.218362 0.779288 0.70261
0.597407 -0.815644 1.5518 -0.04995951 0.9745882 -0.218362 0.747688 0.67101
0.523125 -0.822975 1.60584 -0.337295 0.941385 -0.005127061 0.779288 0.67101
0.792877 -0.724446 1.98382 -0.3353109 0.9420868 -0.006256069 0.779288 0.70261
0.867158 -0.717115 1.92977 6.100221e-05 0.9688452 -0.247667 0.747688 0.67101
0.940643 -0.750218 1.88508 0.1922391 0.9143784 -0.3563092 0.779288 0.67101
0.715939 -0.836976 1.54857 0.14939 0.9264038 -0.3456279 0.779288 0.70261
0.715939 -0.836976 1.54857 0.14939 0.9264038 -0.3456279 0.747688 0.67101
0.597407 -0.815644 1.5518 -0.04995951 0.9745882 -0.218362 0.779288 0.67101
0.867158 -0.717115 1.92977 6.100221e-05 0.9688452 -0.247667 0.779288 0.70261
0.940643 -0.750218 1.88508 0.1922391 0.9143784 -0.3563092 0.747688 0.67101
0.963472 -0.760528 1.87148 0.3402001 0.8324153 -0.4374341 0.779288 0.67101
0.795826 -0.831912 1.5908 0.231636 0.8976771 -0.374861 0.779288 0.70261
0.795826 -0.831912 1.5908 0.231636 0.8976771 -0.374861 0.747688 0.67101
0.715939 -0.836976 1.54857 0.14939 0.9264038 -0.3456279 0.779288 0.67101
0.940643 -0.750218 1.88508 0.1922391 0.9143784 -0.3563092 0.779288 0.70261
0.963472 -0.760528 1.87148 0.3402001 0.8324153 -0.4374341 0.747688 0.67101
1.02748 -0.821068 1.84158 0.4514151 0.7304251 -0.5125461 0.779288 0.67101
0.881928 -0.874234 1.63762 0.567926 0.644802 -0.511557 0.779288 0.70261
0.881928 -0.874234 1.63762 0.567926 0.644802 -0.511557 0.747688 0.67101
0.795826 -0.831912 1.5908 0.231636 0.8976771 -0.374861 0.779288 0.67101
0.963472 -0.760528 1.87148 0.3402001 0.8324153 -0.4374341 0.779288 0.70261
1.02835 -1.15196 1.92721 0.4864181 -0.8701681 -0.07877022 0.747688 0.67101
0.964916 -1.18989 1.98237 0.3346411 -0.9417573 0.03329661 0.779288 0.67101
0.797268 -1.2607 1.70154 0.2528519 -0.9639816 0.08249397 0.779288 0.70261
0.797268 -1.2607 1.70154 0.2528519 -0.9639816 0.08249397 0.747688 0.67101
0.882793 -1.20512 1.72326 0.5689397 -0.7982007 -0.1979479 0.779288 0.67101
1.02835 -1.15196 1.92721 0.4864181 -0.8701681 -0.07877022 0.779288 0.70261
0.964916 -1.18989 1.98237 0.3346411 -0.9417573 0.03329661 0.747688 0.67101
0.940575 -1.19283 2.00051 0.1885151 -0.9743423 0.12296 0.779288 0.67101
0.715871 -1.27958 1.66399 0.1627559 -0.9761127 0.1439259 0.779288 0.70261
0.715871 -1.27958 1.66399 0.1627559 -0.9761127 0.1439259 0.747688 0.67101
0.797268 -1.2607 1.70154 0.2528519 -0.9639816 0.08249397 0.779288 0.67101
0.964916 -1.18989 1.98237 0.3346411 -0.9417573 0.03329661 0.779288 0.70261
0.940575 -1.19283 2.00051 0.1885151 -0.9743423 0.12296 0.747688 0.67101
0.867084 -1.19887 2.0554 -0.000122003 -0.9676408 0.2523319 0.779288 0.67101
0.597333 -1.29739 1.67743 -0.04104809 -0.9588858 0.2808079 0.779288 0.70261
0.597333 -1.29739 1.67743 -0.04104809 -0.9588858 0.2808079 0.747688 0.67101
0.715871 -1.27958 1.66399 0.1627559 -0.9761127 0.1439259 0.779288 0.67101
0.940575 -1.19283 2.00051 0.1885151 -0.9743423 0.12296 0.779288 0.70261
0.867084 -1.19887 2.0554 -0.000122003 -0.9676408 0.2523319 0.747688 0.67101
0.792808 -1.16706 2.09925 -0.3352239 -0.8255488 0.4539759 0.779288 0.67101
0.523057 -1.26558 1.72127 -0.336813 -0.8242109 0.455229 0.779288 0.70261
0.523057 -1.26558 1.72127 -0.336813 -0.8242109 0.455229 0.747688 0.67101
0.597333 -1.29739 1.67743 -0.04104809 -0.9588858 0.2808079 0.779288 0.67101
0.867084 -1.19887 2.0554 -0.000122003 -0.9676408 0.2523319 0.779288 0.70261
0.792808 -1.16706 2.09925 -0.3352239 -0.8255488 0.4539759 0.747688 0.67101
0.729816 -1.10287 2.12747 -0.5947211 -0.565667 0.571251 0.779288 0.67101
0.461032 -1.20136 1.74967 -0.5942109 -0.5665309 0.5709259 0.779288 0.70261
0.461032 -1.20136 1.74967 -0.5942109 -0.5665309 0.5709259 0.747688 0.67101
0.523057 -1.26558 1.72127 -0.336813 -0.8242109 0.455229 0.779288 0.67101
0.792808 -1.16706 2.09925 -0.3352239 -0.8255488 0.4539759 0.779288 0.70261
0.729816 -1.10287 2.12747 -0.5947211 -0.565667 0.571251 0.747688 0.67101
0.687445 -1.0192 2.1359 -0.7615842 -0.2349391 0.6039811 0.779288 0.67101
0.417693 -1.11773 1.75793 -0.7616471 -0.234573 0.6040441 0.779288 0.70261
0.417693 -1.11773 1.75793 -0.7616471 -0.234573 0.6040441 0.747688 0.67101
0.461032 -1.20136 1.74967 -0.5942109 -0.5665309 0.5709259 0.779288 0.67101
0.729816 -1.10287 2.12747 -0.5947211 -0.565667 0.571251 0.779288 0.70261
0.687445 -1.0192 2.1359 -0.7615842 -0.2349391 0.6039811 0.747688 0.67101
0.671422 -0.924071 2.12254 -0.823326 0.14393 0.549016 0.779288 0.67101
0.402639 -1.02256 1.74473 -0.8233298 0.143901 0.5490179 0.779288 0.70261
0.402639 -1.02256 1.74473 -0.8233298 0.143901 0.5490179 0.747688 0.67101
0.417693 -1.11773 1.75793 -0.7616471 -0.234573 0.6040441 0.779288 0.67101
0.687445 -1.0192 2.1359 -0.7615842 -0.2349391 0.6039811 0.779288 0.70261
3 0 1 2 
3 0 3 1 
3 0 4 3 
3 0 5 4 
3 0 6 5 
3 0 7 6 
3 0 8 7 
3 0 9 8 
3 0 10 9 
3 0 11 10 
3 0 12 11 
3 0 13 12 
3 0 14 13 
3 0 15 14 
3 0 16 15 
3 0 2 16 
3 17 18 19 
3 20 21 22 
3 23 24 22 
3 23 25 26 
3 27 25 28 
3 27 29 30 
3 31 32 33 
3 34 35 36 
3 37 35 38 
3 37 39 40 
3 41 42 40 
3 41 43 44 
3 45 46 47 
3 46 45 48 
3 47 49 50 
3 49 47 46 
3 50 51 52 
3 51 50 49 
3 52 53 54 
3 53 52 51 
3 54 55 56 
3 55 54 53 
3 56 57 58 
3 57 56 55 
3 58 59 60 
3 59 58 57 
3 60 61 62 
3 61 60 59 
3 62 63 64 
3 63 62 61 
3 64 65 66 
3 65 64 63 
3 66 67 68 
3 67 66 65 
3 68 69 70 
3 69 68 67 
3 70 71 72 
3 71 70 69 
3 72 73 74 
3 73 72 71 
3 74 75 76 
3 75 74 73 
3 76 48 45 
3 48 76 75 
3 77 78 79 
3 80 81 82 
3 83 84 85 
3 86 87 88 
3 89 90 91 
3 92 93 94 
3 95 96 97 
3 98 99 100 
3 101 102 103 
3 104 105 106 
3 107 108 109 
3 110 111 112 
3 113 114 115 
3 116 117 118 
3 119 120 121 
3 122 123 124 
3 125 126 127 
3 128 129 130 
3 131 132 133 
3 134 135 136 
3 137 138 139 
3 140 141 142 
3 143 144 145 
3 146 147 148 
3 149 150 151 
3 152 153 154 
3 155 156 157 
3 158 159 160 
3 161 162 163 
3 164 165 166 
3 167 168 169 
3 170 171 172 
3 173 174 175 
3 176 177 178 
3 179 180 181 
3 182 183 184 
3 185 186 187 
3 188 189 190 
3 191 192 193 
3 194 195 196 
3 197 198 199 
3 200 201 202 
3 203 204 205 
3 206 207 208 
3 209 18 210 
3 211 212 19 
3 213 214 33 
3 215 32 216 
3 217 218 219 
3 220 221 222 
3 223 224 225 
3 226 227 228 
3 229 230 231 
3 232 233 234 
3 235 236 237 
3 238 239 240 
3 241 242 243 
3 244 245 246 
3 247 248 249 
3 250 251 252 
3 253 254 255 
3 256 257 258 
3 259 260 261 
3 262 263 264 
3 265 266 267 
3 268 269 270 
3 271 272 273 
3 274 275 276 
3 277 278 279 
3 280 281 282 
3 283 284 285 
3 286 287 288 
3 289 290 291 
3 292 293 294 
3 295 296 297 
3 298 299 300 
3 301 302 303 
3 304 305 306 
3 307 308 309 
3 310 311 312 
3 313 314 315 
3 316 317 318 
3 319 320 321 
3 322 323 324 
3 325 326 327 
3 328 329 330 
3 331 332 333 
3 334 335 336 
3 337 338 339 
3 340 341 342 
3 343 344 345 
3 346 347 348 
3 349 350 351 
3 352 353 354 
3 355 356 357 
3 358 359 360 
3 361 362 363 
3 364 365 366 
3 367 368 369 
3 370 371 372 
3 373 374 375 
3 376 377 378 
3 379 380 381 
3 382 383 384 
