ply
format ascii 1.0
comment VCGLIB generated
comment TextureFile SpidermanUV_square.bmp
element vertex 492
property float x
property float y
property float z
property float nx
property float ny
property float nz
property float texture_u
property float texture_v
element face 356
property list uchar int vertex_indices
end_header
-0.199998 0.173452 -0.001701 1 0 0 0.403401 0.529793
-0.199998 0.653452 -0.001701 1 0 0 0.404924 0.530317
-0.199998 0.653452 0.158299 1 0 0 0.404586 0.529798
-0.199998 0.173452 0.158299 1 0 0 0.4038 0.529449
-0.199999 0.653452 0.638299 1 0 0 0.404385 0.529437
-0.199999 0.653452 0.798299 1 0 0 0.404338 0.529444
-0.199999 0.173452 0.798299 1 0 0 0.404135 0.529429
-0.199999 0.173452 0.638299 1 0 0 0.404064 0.529413
0.280002 0.653452 0.1583 0 -1 0 0.404787 0.528652
-0.199998 0.653452 0.158299 0 -1 0 0.404586 0.529798
-0.199998 0.653452 -0.001701 0 -1 0 0.404924 0.530317
0.280002 0.653452 -0.0017 0 -1 0 0.405277 0.528236
-0.199998 0.653452 0.158299 0 -1 0 0.404631 0.5296
0.120002 0.653452 0.1583 0 -1 0 0.404603 0.529012
0.120001 0.653452 0.7983 0 -1 0 0.404334 0.529345
-0.199999 0.653452 0.798299 0 -1 0 0.404338 0.529444
0.280002 0.173452 -0.0017 0 1 0 0.40299 0.527978
-0.199998 0.173452 -0.001701 0 1 0 0.403401 0.529793
-0.199998 0.173452 0.158299 0 1 0 0.4038 0.529449
0.280002 0.173452 0.1583 0 1 0 0.40342 0.528426
-0.199999 0.173452 0.798299 0 1 0 0.404135 0.529429
0.120001 0.173452 0.7983 0 1 0 0.404135 0.529359
0.120002 0.173452 0.1583 0 1 0 0.403833 0.529146
-0.199998 0.173452 0.158299 0 1 0 0.403915 0.5295
0.120001 0.173452 0.7983 -3.1665e-06 0 1 0.404135 0.529359
0.120001 0.653452 0.7983 -3.1665e-06 0 1 0.404334 0.529345
-0.199999 0.653452 0.798299 -3.1665e-06 0 1 0.404338 0.529444
-0.199999 0.173452 0.798299 -3.1665e-06 0 1 0.404135 0.529429
0.120002 0.653452 0.1583 -1 0 -1.55997e-06 0.404603 0.529012
0.120002 0.173452 0.1583 -1 0 -1.55997e-06 0.403833 0.529146
0.120001 0.173452 0.7983 -1 0 -1.55997e-06 0.404135 0.529359
0.120001 0.653452 0.7983 -1 0 -1.55997e-06 0.404334 0.529345
0.120002 0.173452 0.1583 0 0 -1 0.403833 0.529146
0.120002 0.653452 0.1583 0 0 -1 0.404603 0.529012
0.280002 0.653452 0.1583 0 0 -1 0.404787 0.528652
0.280002 0.173452 0.1583 0 0 -1 0.40342 0.528426
0.280002 0.173452 0.1583 -1 0 0 0.40342 0.528426
0.280002 0.653452 0.1583 -1 0 0 0.404787 0.528652
0.280002 0.653452 -0.0017 -1 0 0 0.405277 0.528236
0.280002 0.173452 -0.0017 -1 0 0 0.40299 0.527978
-0.359998 0.173452 0.398299 0 0.9972678 0.07387169 0.393847 0.533658
-0.199998 0.173452 0.398299 0 0.9972678 -0.07387169 0.393862 0.532638
-0.199998 0.193452 0.308299 0 0.9455586 0.3254519 0.394522 0.532767
-0.359998 0.193452 0.308299 0 0.902275 0.431161 0.394247 0.533624
-0.199998 0.243452 0.228299 0 0.759257 0.650791 0.39511 0.533107
-0.359998 0.243452 0.228299 0 0.650791 0.759257 0.394536 0.533658
-0.199998 0.323452 0.178299 0 0.431161 0.902275 0.395435 0.533688
-0.359998 0.323452 0.178299 0 0.3254519 0.9455586 0.394572 0.533957
-0.199998 0.413452 0.158299 0 0.07387169 0.9972678 0.395558 0.534335
-0.359998 0.413452 0.158299 0 -0.07387169 0.9972678 0.394533 0.534359
-0.199998 0.503452 0.178299 0 -0.3254519 0.9455586 0.395437 0.534994
-0.359998 0.503452 0.178299 0 -0.431161 0.902275 0.394612 0.534752
-0.199998 0.583452 0.228299 0 -0.650791 0.759257 0.395112 0.53557
-0.359998 0.583452 0.228299 0 -0.759257 0.650791 0.394599 0.535027
-0.199998 0.633452 0.308299 0 -0.902275 0.431161 0.394537 0.53587
-0.359998 0.633452 0.308299 0 -0.9455586 0.3254519 0.394311 0.535042
-0.199998 0.653452 0.398299 0 -0.9972678 0.07387158 0.393893 0.535974
-0.359998 0.653452 0.398299 0 -0.9972678 -0.07387158 0.393908 0.534954
-0.199998 0.633452 0.488299 0 -0.9455586 -0.3254519 0.393234 0.535844
-0.359998 0.633452 0.488299 0 -0.902275 -0.431161 0.393508 0.534988
-0.199998 0.583452 0.568299 0 -0.759257 -0.650791 0.392645 0.535505
-0.359998 0.583452 0.568299 0 -0.650791 -0.759257 0.393219 0.534954
-0.199999 0.503452 0.618299 -2.31833e-07 -0.431161 -0.902275 0.392321 0.534924
-0.359999 0.503452 0.618299 -4.636663e-07 -0.3254522 -0.9455585 0.393184 0.534655
-0.199999 0.413452 0.638299 -2.337029e-07 -0.07387277 -0.9972677 0.392197 0.534277
-0.359999 0.413453 0.638299 2.34018e-07 0.07387039 -0.9972679 0.393223 0.534253
-0.199999 0.323452 0.618299 4.638739e-07 0.325451 -0.9455589 0.392318 0.533618
-0.359999 0.323452 0.618299 2.319371e-07 0.4311602 -0.9022754 0.393143 0.53386
-0.199998 0.243452 0.568299 0 0.650791 -0.759257 0.392644 0.533042
-0.359998 0.243452 0.568299 0 0.759257 -0.650791 0.393156 0.533585
-0.199998 0.193452 0.488299 0 0.902275 -0.431161 0.393218 0.532742
-0.359998 0.193452 0.488299 0 0.9455586 -0.3254519 0.393445 0.53357
0.280002 0.653452 -0.0017 1.43825e-06 -7.29951e-14 -1 0.405277 0.528236
-0.199998 0.653452 -0.001701 5.51702e-07 -4.93831e-08 -1 0.404924 0.530317
-0.359998 0.793452 -0.001701 1.00453e-06 -5.09824e-14 -1 0.405339 0.531083
0.440002 0.793452 -0.0017 1.35114e-06 -6.85739e-14 -1 0.406328 0.527358
-0.359998 0.073452 -0.001701 9.21221e-08 -4.56134e-08 -1 0.402985 0.53042
-0.199998 0.173452 -0.001701 1.5338e-07 -4.18437e-08 -1 0.403401 0.529793
0.280002 0.173452 -0.0017 9.28707e-07 3.76967e-09 -1 0.40299 0.527978
0.440002 0.073452 -0.0017 5.5624e-07 7.5394e-09 -1 0.402157 0.526992
0.440002 0.793452 -0.0017 0 0.9995121 0.0312349 0.406328 0.527358
0.240002 0.793452 -0.0017 0 0.9995121 0.0312349 0.40778 0.526942
0.240002 0.783452 0.3183 0 0.9995121 0.0312349 0.407114 0.524617
0.440002 0.783452 0.3183 0 0.9995121 0.0312349 0.406338 0.525467
0.240002 0.793452 -0.0017 -7.31624e-08 0.999005 0.0445975 0.392138 0.532539
-0.359998 0.793452 -0.001701 -7.31624e-08 0.999005 0.0445975 0.392138 0.535223
-0.359999 0.743453 1.1183 -7.31624e-08 0.999005 0.0445975 0.387123 0.535223
0.240001 0.743453 1.1183 -7.31624e-08 0.999005 0.0445975 0.387123 0.532539
0.240001 0.743453 1.1183 0.00242662 0.9973438 0.07279868 0.39312 0.524486
0.360001 0.743453 1.1183 0.00242662 0.9973438 0.07279868 0.392263 0.524604
0.330001 0.753453 0.9783 0.00242662 0.9973438 0.07279868 0.393067 0.524055
0.240001 0.763453 0.8483 0.00242662 0.9973438 0.07279868 0.393756 0.523717
-0.359999 0.743453 1.1183 0 1 0 0.39315 0.524686
-0.329999 0.743453 1.2583 -9.938275e-08 0.9981735 0.06041263 0.39204 0.525229
0.330001 0.743453 1.2583 -4.969129e-08 0.9995438 0.03020629 0.391351 0.525083
0.360001 0.743453 1.1183 0 1 0 0.392263 0.524604
-0.249999 0.733453 1.3683 -4.969129e-08 0.9995438 0.03020629 0.390858 0.526053
0.250001 0.733453 1.3683 -9.938275e-08 0.9981735 0.06041263 0.390298 0.5256
-0.14 0.733453 1.4483 0 1 0 0.388165 0.526212
0.14 0.733453 1.4483 0 1 0 0.388953 0.52623
0.440002 0.073452 0.3183 0 -1 0 0.402329 0.524983
0.240002 0.073452 0.3183 0 -1 0 0.401606 0.523907
0.240002 0.073452 -0.0017 0 -1 0 0.400616 0.526373
0.440002 0.073452 -0.0017 0 -1 0 0.402157 0.526992
0.240001 0.073452 0.7183 0 -1 0 0.395618 0.532539
-0.359999 0.073452 0.718299 0 -1 0 0.395618 0.535223
-0.359998 0.073452 -0.001701 0 -1 0 0.398838 0.535223
0.240002 0.073452 -0.0017 0 -1 0 0.398838 0.532539
0.150001 0.073452 0.7483 0 -1 0 0.397862 0.521195
1e-06 0.073452 0.7183 0 -1 0 0.39701 0.521685
0.240001 0.073452 0.7183 0 -1 0 0.400608 0.520177
0.240001 0.073452 0.7483 0 -1 0 0.399208 0.521403
1e-06 0.073452 0.7183 0 -1 0 0.39701 0.521685
-0.149999 0.073452 0.748299 0 -1 0 0.395633 0.522324
-0.359999 0.073452 0.748299 0 -1 0 0.394915 0.523472
-0.359999 0.073452 0.718299 0 -1 0 0.394366 0.523385
-0.279999 0.073452 0.838299 0 -1 7.91108e-08 0.395359 0.523113
-0.359999 0.073452 0.838299 0 -1 3.97444e-08 0.395413 0.523421
0.240001 0.093452 0.8083 -0.5547002 0 0.8320503 0.396189 0.522721
0.150001 0.093452 0.7483 -0.3210641 0 0.9470575 0.397125 0.521796
0.150001 0.073452 0.7483 -0.4426442 0 0.8966973 0.397862 0.521195
0.240001 0.073452 0.8083 -0.5547002 0 0.8320503 0.397476 0.52228
1e-06 0.093452 0.7183 0.06651473 0 0.9977854 0.396556 0.521802
1e-06 0.073452 0.7183 -0.06652121 0 0.997785 0.39701 0.521685
-0.149999 0.093452 0.748299 0.4531932 0 0.8914124 0.395617 0.522285
-0.149999 0.073452 0.748299 0.326492 0 0.9452 0.395633 0.522324
-0.279999 0.093452 0.838299 0.7563496 0 0.6541677 0.395227 0.522988
-0.279999 0.073452 0.838299 0.6673343 0 0.7447583 0.395359 0.523113
-0.359999 0.093453 0.958299 0.8320503 0 0.5547002 0.395057 0.523532
-0.359999 0.073453 0.958299 0.8320503 0 0.5547002 0.395699 0.523511
-0.359999 0.093453 1.1183 3.87603e-06 1 2.471e-07 0.394925 0.523072
-0.109999 0.093452 1.0683 4.01797e-06 1 -9.53926e-08 0.394791 0.523132
-0.079999 0.093452 1.0383 3.73409e-06 1 5.89593e-07 0.395108 0.523058
-0.359999 0.093453 0.958299 3.73409e-06 1 5.89593e-07 0.395057 0.523532
-0.329999 0.093453 1.2583 4.00299e-06 1 -9.8364e-07 0.394593 0.522577
-0.119999 0.093452 1.1183 3.84607e-06 1 -1.5294e-06 0.394526 0.523149
-0.249999 0.093453 1.3683 3.32079e-06 1 -2.47969e-06 0.393961 0.522061
-0.109999 0.093452 1.1683 2.95242e-06 1 -2.88423e-06 0.39427 0.523135
-0.14 0.093453 1.4483 2.58405e-06 1 -3.28876e-06 0.392687 0.522209
-0.079999 0.093452 1.1983 2.58405e-06 1 -3.28876e-06 0.394089 0.523129
0 0.093453 1.4783 -1.50331e-06 -1 3.98237e-06 0.392662 0.522917
-0.14 0.093453 1.4483 -1.39959e-06 -1 3.96551e-06 0.392687 0.522209
-0.079999 0.093452 1.1983 -1.4809e-06 -1 3.9872e-06 0.394089 0.523129
-0.049999 0.093452 1.2283 -1.53571e-06 -1 3.94086e-06 0.393906 0.523007
0.14 0.093452 1.4483 -1.50945e-06 -1 3.87348e-06 0.392911 0.523326
1e-06 0.093452 1.2383 -1.472e-06 -1 3.77737e-06 0.393784 0.523019
0.250001 0.093452 1.3683 -1.44725e-06 -1 3.71386e-06 0.393277 0.523498
0.050001 0.093452 1.2283 -1.41012e-06 -1 3.61858e-06 0.393779 0.523044
0.330001 0.093452 1.2583 -1.38615e-06 -1 3.55707e-06 0.393706 0.523537
0.080001 0.093452 1.1983 -1.35058e-06 -1 3.4658e-06 0.393891 0.52303
0.360001 0.093452 1.1183 -1.32789e-06 -1 3.40757e-06 0.394224 0.523483
0.110001 0.093452 1.1683 -1.29125e-06 -1 3.31354e-06 0.394068 0.523
0.330001 0.093452 0.9783 -1.26701e-06 -1 3.25134e-06 0.394808 0.523326
0.120001 0.093452 1.1183 -1.24458e-06 -1 3.19379e-06 0.39432 0.522941
0.240001 0.093452 0.8483 -1.23407e-06 -1 3.16681e-06 0.39553 0.523043
0.110001 0.093452 1.0683 -1.21517e-06 -1 3.11832e-06 0.394612 0.52287
0.240001 0.093452 0.8083 -1.1942e-06 -1 3.06449e-06 0.396189 0.522721
0.080001 0.093452 1.0383 -1.16222e-06 -1 2.98243e-06 0.394883 0.52286
0.150001 0.093452 0.7483 -1.13704e-06 -1 2.91782e-06 0.397125 0.521796
0.050001 0.093452 1.0083 -1.10116e-06 -1 2.82574e-06 0.395171 0.5228
1e-06 0.093452 0.7183 -1.07614e-06 -1 2.76154e-06 0.396556 0.521802
1e-06 0.093452 0.9983 -1.04193e-06 -1 2.67374e-06 0.39541 0.52288
-0.149999 0.093452 0.748299 -1.01865e-06 -1 2.61401e-06 0.395617 0.522285
-0.049999 0.093452 1.0083 -1.05151e-06 -1 2.59809e-06 0.395324 0.52296
-0.279999 0.093452 0.838299 -1.09875e-06 -1 2.61909e-06 0.395227 0.522988
-0.079999 0.093452 1.0383 -1.14997e-06 -1 2.65031e-06 0.395108 0.523058
1e-06 0.093452 0.9983 0.06650621 0 0.997786 0.39541 0.52288
1e-06 0.323452 0.9983 -0.06652449 0 0.9977849 0.394581 0.522856
-0.049999 0.323452 1.0083 0.1960969 0 0.9805846 0.394777 0.523009
-0.049999 0.093452 1.0083 0.1960969 0 0.9805845 0.395324 0.52296
-0.049999 0.093452 1.0083 0.7071063 0 0.7071073 0.395324 0.52296
-0.049999 0.323452 1.0083 0.7071063 0 0.7071073 0.394777 0.523009
-0.079999 0.323452 1.0383 0.7071063 0 0.7071073 0.394843 0.523172
-0.079999 0.093452 1.0383 0.7071063 0 0.7071073 0.395108 0.523058
-0.079999 0.093452 1.0383 -0.7071078 0 -0.7071058 0.395108 0.523058
-0.109999 0.093452 1.0683 -0.7071078 0 -0.7071058 0.394791 0.523132
-0.109999 0.323453 1.0683 -0.7071078 0 -0.7071058 0.394877 0.523296
-0.079999 0.323452 1.0383 -0.7071078 0 -0.7071058 0.394843 0.523172
-0.109999 0.093452 1.0683 -0.9805807 0 -0.196116 0.394791 0.523132
-0.119999 0.093452 1.1183 -0.9977852 0 0.06651911 0.394526 0.523149
-0.119999 0.323453 1.1183 -0.9977852 0 -0.06651911 0.394875 0.523412
-0.109999 0.323453 1.0683 -0.9805807 0 -0.196116 0.394877 0.523296
-0.109999 0.093452 1.1683 -0.9805807 0 0.196116 0.39427 0.523135
-0.109999 0.323453 1.1683 -0.9805807 0 0.196116 0.394701 0.523673
-0.109999 0.093452 1.1683 -0.7071078 0 0.7071058 0.39427 0.523135
-0.079999 0.093452 1.1983 -0.7071078 0 0.7071058 0.394089 0.523129
-0.079999 0.323452 1.1983 -0.7071078 0 0.7071058 0.394483 0.523793
-0.109999 0.323453 1.1683 -0.7071078 0 0.7071058 0.394701 0.523673
-0.079999 0.093452 1.1983 0.7071063 0 -0.7071073 0.394089 0.523129
-0.079999 0.323452 1.1983 0.7071063 0 -0.7071073 0.394483 0.523793
-0.049999 0.323452 1.2283 0.7071063 0 -0.7071073 0.394288 0.52384
-0.049999 0.093452 1.2283 0.7071063 0 -0.7071073 0.393906 0.523007
-0.049999 0.093452 1.2283 0.196116 0 -0.9805807 0.393906 0.523007
-0.049999 0.323452 1.2283 0.196116 0 -0.9805807 0.394288 0.52384
1e-06 0.323453 1.2383 0.06652499 0 -0.9977849 0.39412 0.523805
1e-06 0.093452 1.2383 -0.0665066 0 -0.997786 0.393784 0.523019
0.050001 0.323452 1.2283 -0.1960981 0 -0.9805843 0.39398 0.523687
0.050001 0.093452 1.2283 -0.1960981 0 -0.9805843 0.393779 0.523044
0.050001 0.093452 1.2283 -0.7071063 0 -0.7071073 0.393779 0.523044
0.050001 0.323452 1.2283 -0.7071063 0 -0.7071073 0.39398 0.523687
0.080001 0.323452 1.1983 -0.7071063 0 -0.7071073 0.393933 0.523538
0.080001 0.093452 1.1983 -0.7071063 0 -0.7071073 0.393891 0.52303
0.110001 0.323452 1.1683 -0.7071063 0 -0.7071073 0.39391 0.523387
0.110001 0.093452 1.1683 -0.7071063 0 -0.7071073 0.394068 0.523
0.110001 0.093452 1.1683 -0.9805807 0 -0.196116 0.394068 0.523
0.110001 0.323452 1.1683 -0.9805807 0 -0.196116 0.39391 0.523387
0.120001 0.323452 1.1183 -0.9977852 0 -0.06651881 0.393975 0.523202
0.120001 0.093452 1.1183 -0.9977852 0 0.06651931 0.39432 0.522941
0.110001 0.323452 1.0683 -0.9805807 0 0.196116 0.394165 0.523006
0.110001 0.093452 1.0683 -0.9805807 0 0.196116 0.394612 0.52287
0.110001 0.093452 1.0683 -0.7071063 0 0.7071073 0.394612 0.52287
0.110001 0.323452 1.0683 -0.7071063 0 0.7071073 0.394165 0.523006
0.080001 0.323452 1.0383 -0.7071068 0 0.7071068 0.394346 0.522928
0.080001 0.093452 1.0383 -0.7071073 0 0.7071063 0.394883 0.52286
0.050001 0.323452 1.0083 -0.7071078 0 0.7071058 0.394481 0.522873
0.050001 0.093452 1.0083 -0.7071078 0 0.7071058 0.395171 0.5228
0.050001 0.093452 1.0083 -0.196115 0 0.9805809 0.395171 0.5228
0.050001 0.323452 1.0083 -0.196115 0 0.9805809 0.394481 0.522873
1e-06 0.583453 1.3583 -0.204057 0 -0.978959 0.393031 0.524895
0.090001 0.583452 1.3383 -0.431157 0 -0.902277 0.392964 0.524601
0.090001 0.323453 1.3383 -0.3220379 0 -0.9467268 0.393686 0.524007
1e-06 0.323453 1.3583 -0.201429 0 -0.9795032 0.393868 0.524248
0.170001 0.583452 1.2883 -0.759257 0 -0.650791 0.392846 0.524353
0.170001 0.323452 1.2883 -0.650791 0 -0.759257 0.393544 0.523761
0.220001 0.583452 1.2083 -0.9455586 0 -0.3254519 0.392663 0.524151
0.220001 0.323452 1.2083 -0.902275 0 -0.431161 0.393431 0.523458
0.240001 0.583452 1.1183 -0.9966097 0.003003509 0.08221908 0.39241 0.523983
0.240001 0.323452 1.1183 -0.9975574 0.001501751 -0.06983543 0.393329 0.523054
-0.199999 0.323453 1.3583 -0.196424 0 -0.9805191 0.39444 0.524945
-0.199999 0.583453 1.3583 -0.196424 0 -0.9805191 0.393153 0.525769
0.220001 0.583452 1.0283 -0.9734077 0.004404559 0.2290369 0.392043 0.523884
0.220001 0.323452 1.0383 -0.9734078 0.00440456 0.229037 0.392959 0.522773
1e-06 0.583452 1.1183 -2.83276e-06 -1 1.55314e-06 0.392302 0.524915
1e-06 0.583453 1.3583 -3.05208e-06 -1 1.86044e-06 0.393031 0.524895
-0.199999 0.583453 1.3583 -2.88935e-06 -1 1.6707e-06 0.393153 0.525769
-0.199999 0.583453 1.0383 -2.85314e-06 -1 1.51577e-06 0.392085 0.525688
0.220001 0.583452 1.0283 -2.79281e-06 -1 1.48372e-06 0.392043 0.523884
0.240001 0.583452 1.1183 -2.76297e-06 -1 1.46787e-06 0.39241 0.523983
1e-06 0.323453 1.2383 4.04507e-06 1 -3.64053e-06 0.39412 0.523805
1e-06 0.323453 1.3583 2.02254e-06 1 -1.82027e-06 0.393868 0.524248
0.090001 0.323453 1.3383 5.29604e-06 1 -6.14246e-06 0.393686 0.524007
0.050001 0.323452 1.2283 4.52446e-06 1 -6.82411e-06 0.39398 0.523687
0.170001 0.323452 1.2883 2.50193e-06 1 -5.00385e-06 0.393544 0.523761
0.080001 0.323452 1.1983 1.25096e-06 1 -2.50192e-06 0.393933 0.523538
0.220001 0.323452 1.2083 0 1 0 0.393431 0.523458
0.110001 0.323452 1.1683 0 1 0 0.39391 0.523387
0.240001 0.323452 1.1183 0 1 0 0.393329 0.523054
0.120001 0.323452 1.1183 0 1 0 0.393975 0.523202
-0.119999 0.323453 1.2383 -6.80967e-07 1 -1.08955e-06 0.394539 0.52419
-0.199999 0.323453 1.3583 -1.36193e-06 1 -2.17909e-06 0.39444 0.524945
-0.119999 0.323452 0.998299 -1.36193e-06 1 -2.17909e-06 0.394997 0.523293
-0.199999 0.323452 0.978299 -6.80967e-07 1 -1.08955e-06 0.395357 0.523401
0.120001 0.323452 0.9983 0 1 0 0.394343 0.522748
0.190001 0.323452 0.9783 0 1 0 0.394098 0.522464
0.220001 0.323452 1.0283 0 1 0 0.393738 0.522579
-0.199999 0.633453 1.1083 -1 0 0 0.392684 0.525893
-0.199999 0.583453 1.0383 -1 0 0 0.392085 0.525688
-0.199999 0.583453 1.3583 -1 0 0 0.393153 0.525769
-0.199999 0.653453 1.1983 -1 0 0 0.392691 0.525782
-0.199999 0.633453 1.2883 -1 0 0 0.392767 0.525793
-0.2 0.413453 1.4383 -1 1.08519e-06 -1.19371e-05 0.396162 0.520939
-0.199999 0.583453 1.3583 -1 1.08519e-06 -1.19371e-05 0.397265 0.521158
-0.199999 0.453453 1.3583 -1 4.59341e-07 -1.35046e-05 0.39651 0.521346
-0.2 0.323453 1.4183 -1 -1.66511e-07 -1.50721e-05 0.395669 0.521185
-0.199999 0.323453 1.3583 -1 -3.16945e-07 -6.65586e-06 0.395755 0.521533
-0.199999 0.243453 1.3683 -1 -3.96182e-07 -8.31982e-06 0.395277 0.521591
-0.199999 0.193453 1.2883 -1 0 0 0.395303 0.522064
-0.199999 0.173452 1.1983 -1 0 0 0.395396 0.522445
-0.199999 0.323453 1.1683 -1 0 0 0.396056 0.522441
-0.199999 0.193453 1.1083 -1 0 0 0.395528 0.522748
-0.199999 0.243452 1.0283 -1 0 0 0.39567 0.523058
-0.199999 0.323452 0.978299 -1 0 0 0.395869 0.523386
-0.359999 0.503453 0.978299 -1.98908e-06 -0.234086 0.972216 0.394398 0.524397
-0.359999 0.413453 0.958299 -1.63874e-06 0 1 0.394649 0.523922
0.240001 0.413452 0.9583 -1.64563e-06 -0.00447415 0.99999 0.397481 0.526504
0.240001 0.503452 0.9783 -2.02167e-06 -0.257445 0.966293 0.397102 0.526935
-0.359999 0.583453 1.0283 -2.07077e-06 -0.2950829 0.9554717 0.394064 0.524865
0.240001 0.583452 1.0283 -2.082259e-06 -0.3039979 0.9526727 0.396709 0.527377
0.240001 0.633452 1.1083 -2.10106e-06 -0.321018 0.9470731 0.396308 0.52782
-0.359999 0.633453 1.1083 -2.10106e-06 -0.321018 0.9470731 0.393496 0.525267
-0.339999 0.653453 1.1983 0.00744075 -0.974466 0.224412 0.392775 0.525451
-0.359999 0.633453 1.1183 0.007594313 -0.9736713 0.2278301 0.393308 0.525376
-0.199999 0.633453 1.1083 0.007570566 -0.9739995 0.2264239 0.392684 0.525893
-0.199999 0.653453 1.1983 0.007287983 -0.9752215 0.2211111 0.392691 0.525782
-0.329999 0.643453 1.2583 0.007154988 -0.9757288 0.2188659 0.392482 0.525655
-0.199999 0.633453 1.2883 -0.01460041 -0.9840624 -0.1772231 0.392767 0.525793
-0.249999 0.583453 1.3683 -0.03405688 -0.8378016 -0.5449117 0.392579 0.52641
-0.309999 0.633453 1.2883 -0.01460041 -0.9840624 -0.1772231 0.39231 0.525803
-0.199999 0.583453 1.3583 -0.03405688 -0.8378016 -0.5449117 0.393153 0.525769
-0.249999 0.243453 1.3683 0 0.8472139 -0.531252 0.394898 0.521627
-0.2 0.303452 1.4083 0 0.5547062 -0.8320463 0.395224 0.521044
-0.199999 0.243453 1.3683 0 0.8478212 -0.5302822 0.395277 0.521591
-0.309999 0.193453 1.2883 -9.887196e-05 0.8489807 -0.5284238 0.394824 0.522226
-0.199999 0.193453 1.2883 -0.0001969509 0.8503796 -0.5261698 0.395303 0.522064
-0.329999 0.183453 1.2583 -0.0002950291 0.8516302 -0.5241431 0.39487 0.522408
-0.199999 0.173452 1.1983 0.002507349 0.9563476 -0.2922209 0.395396 0.522445
-0.339999 0.173453 1.1983 0.005329929 0.9997008 -0.02387489 0.394973 0.522669
-0.199999 0.193453 1.1083 0.007603627 0.9736286 0.2280119 0.395528 0.522748
-0.359999 0.193453 1.1183 0.007597721 0.9736701 0.227835 0.395099 0.522951
-0.359999 0.193453 1.1083 2.653109e-06 0.8480008 0.5299949 0.395093 0.523022
-0.199999 0.193453 1.1083 2.653109e-06 0.8480008 0.5299949 0.395528 0.522748
-0.199999 0.243452 1.0283 2.947359e-06 0.7592588 0.6507888 0.39567 0.523058
-0.359999 0.243453 1.0283 3.17991e-06 0.6507921 0.7592561 0.395184 0.523305
-0.199999 0.323452 0.978299 3.334878e-06 0.5299987 0.8479985 0.395869 0.523386
-0.359999 0.323453 0.978299 3.334878e-06 0.5299987 0.8479985 0.395094 0.523599
-0.359999 0.323453 0.978299 -1.23345e-06 0.216931 0.976187 0.395094 0.523599
0.240001 0.323452 0.9783 -1.23345e-06 0.216931 0.976187 0.397862 0.526079
-0.2 0.503453 1.4183 0 0.2170011 0.9761714 0.396656 0.520693
-0.2 0.413453 1.4383 0 -0.07387158 0.9972678 0.396162 0.520939
-0.15 0.413453 1.4383 0 0.07390811 0.9972651 0.396029 0.520671
-0.18 0.503453 1.4183 0 0.2170359 0.9761636 0.396604 0.520585
-0.2 0.323453 1.4183 0 -0.2170359 0.9761636 0.395669 0.521185
-0.18 0.323453 1.4183 0 -0.2169831 0.9761754 0.395614 0.521078
-0.2 0.093453 1.4083 -0.5316671 0.009410121 0.8469012 0.39439 0.52173
-0.14 0.093453 1.4483 -0.5321683 0.009390167 0.8465865 0.394224 0.521331
-0.18 0.323453 1.4183 -0.5319191 0.009400081 0.846743 0.395614 0.521078
-0.2 0.303452 1.4083 -0.5316671 0.009410121 0.8469012 0.395553 0.521248
-0.14 0.733453 1.4483 -0.53201 -0.00939558 0.846686 0.397643 0.519629
-0.199999 0.733453 1.4083 -0.5316758 -0.009408866 0.8468957 0.397862 0.520002
-0.199999 0.523453 1.4083 -0.531927 -0.009398901 0.846738 0.396776 0.520639
-0.18 0.503453 1.4183 -0.5321777 -0.009388926 0.8465806 0.396604 0.520585
-0.14 0.093453 1.4483 -0.2095291 0 0.9778025 0.392687 0.522209
0 0.093453 1.4783 0.07124261 0 0.9974591 0.392662 0.522917
0 0.733453 1.4783 -0.07124908 0 0.9974586 0.387123 0.526928
-0.14 0.733453 1.4483 -0.2095291 0 0.9778025 0.388165 0.526212
0.14 0.093452 1.4483 0.4710407 0 0.8821115 0.392911 0.523326
0.14 0.733453 1.4483 0.3423421 0 0.9395754 0.388953 0.52623
0.250001 0.093452 1.3683 0.588168 0 0.8087389 0.393277 0.523498
0.250001 0.733453 1.3683 0.588168 0 0.8087389 0.390298 0.5256
-0.359999 0.753453 0.958299 -1 0 0 0.394053 0.524164
-0.359999 0.503453 0.978299 -1 0 0 0.394398 0.524397
-0.359999 0.583453 1.0283 -1 0 0 0.394064 0.524865
-0.359999 0.743453 1.1183 -0.988739 -0.0121759 0.149154 0.39315 0.524686
-0.359999 0.633453 1.1183 -0.9746669 -0.0181975 0.22292 0.393308 0.525376
-0.339999 0.653453 1.1983 -0.9746534 -0.01816191 0.2229821 0.392775 0.525451
-0.329999 0.743453 1.2583 -0.8776569 -0.00159314 0.4792869 0.39204 0.525229
-0.309999 0.633453 1.2883 -0.8041216 0.006732067 0.5944267 0.39231 0.525803
-0.249999 0.583453 1.3683 -0.802839 0.0067151 0.596158 0.392579 0.52641
-0.249999 0.733453 1.3683 -0.801672 0.00667435 0.597727 0.390858 0.526053
-0.359999 0.093453 1.1183 -0.9971862 0.006786922 0.07465622 0.394925 0.523072
-0.359999 0.243453 1.0283 -1 0 0 0.395184 0.523305
-0.359999 0.323453 0.978299 -1 0 0 0.395094 0.523599
-0.359999 0.093453 0.958299 -1 0 0 0.395057 0.523532
-0.329999 0.093453 1.2583 -0.9353474 0.0113858 0.3535472 0.394593 0.522577
-0.339999 0.173453 1.1983 -0.9746066 0.02019239 0.2230119 0.394973 0.522669
-0.359999 0.193453 1.1183 -0.9745566 0.02029281 0.2232211 0.395099 0.522951
-0.249999 0.093453 1.3683 -0.8029781 -0.006949881 0.5959681 0.393961 0.522061
-0.249999 0.243453 1.3683 -0.8018106 -0.006907715 0.5975384 0.394898 0.521627
-0.309999 0.193453 1.2883 -0.8042033 -0.006981223 0.5943133 0.394824 0.522226
-0.359998 0.073452 0.158299 -1 0 0 0.402838 0.530943
-0.359998 0.783452 0.158299 -1 0 0 0.405159 0.531597
-0.359998 0.793452 -0.001701 -1 0 0 0.405339 0.531083
-0.359998 0.073452 -0.001701 -1 0 0 0.402985 0.53042
-0.359999 0.073452 0.638299 -1 0 -2.111e-06 0.400616 0.532052
-0.359999 0.173452 0.638299 -1 0 -2.111e-06 0.400616 0.531605
-0.359998 0.173452 0.158299 -1 0 -2.111e-06 0.402763 0.531605
-0.359998 0.073452 0.158299 -1 0 -2.111e-06 0.402763 0.532052
-0.359998 0.653452 0.158299 -1 0 -2.111e-06 0.400993 0.53456
-0.359999 0.653452 0.638299 -1 0 -2.111e-06 0.398846 0.53456
-0.359999 0.763452 0.638299 -1 0 -2.111e-06 0.398846 0.534068
-0.359998 0.783452 0.158299 -1 0 -2.111e-06 0.400993 0.533978
-0.359999 0.073452 0.638299 -1 0 0 0.398846 0.533971
-0.359999 0.073453 0.958299 -1 0 0 0.398846 0.532539
-0.359999 0.753453 0.958299 -1 0 0 0.401887 0.532539
-0.359999 0.763452 0.638299 -1 0 0 0.401932 0.533971
0.240002 0.073452 0.3183 0 0 1 0.401606 0.523907
0.440002 0.073452 0.3183 0 0 1 0.402329 0.524983
0.440002 0.783452 0.3183 0 0 1 0.406338 0.525467
0.240002 0.783452 0.3183 0 0 1 0.407114 0.524617
0.440002 0.073452 0.3183 1 0 0 0.402329 0.524983
0.440002 0.073452 -0.0017 1 0 0 0.402157 0.526992
0.440002 0.793452 -0.0017 1 0 0 0.406328 0.527358
0.440002 0.783452 0.3183 1 0 0 0.406338 0.525467
0.240001 0.763453 0.8083 1 0 1.37861e-06 0.492955 0.485507
0.240001 0.073452 0.8083 1 0 2.06792e-06 0.400766 0.485507
0.240002 0.073452 0.3183 1 0 2.06792e-06 0.400766 0.44459
0.240002 0.783452 0.3183 1 0 2.06792e-06 0.495627 0.44459
0.240001 0.763453 0.8483 1 0 0 0.492955 0.488847
0.240001 0.093452 0.8483 1 0 0 0.403438 0.488847
0.240001 0.093452 0.8083 1 0 0 0.403438 0.485507
0.330001 0.093452 0.9783 0.8401662 0 -0.5423291 0.403438 0.499703
0.240001 0.093452 0.8483 0.8221921 0 -0.5692101 0.403438 0.488847
0.240001 0.763453 0.8483 0.83158 0 -0.555405 0.492955 0.488847
0.330001 0.753453 0.9783 0.861713 0 -0.507396 0.491619 0.499703
0.360001 0.093452 1.1183 0.8917777 0 -0.4524738 0.403438 0.511394
0.360001 0.743453 1.1183 0.8984079 0 -0.439162 0.490283 0.511394
0.330001 0.743453 1.2583 0.9949109 0 0.100759 0.490283 0.523084
0.330001 0.093452 1.2583 0.9949109 0 0.100759 0.403438 0.523084
0.250001 0.093452 1.3683 0.8087359 0 0.588172 0.403438 0.53227
0.250001 0.733453 1.3683 0.8087359 0 0.588172 0.488947 0.53227
-0.199998 0.173452 0.158299 1 0 0 0.39561 0.532603
-0.199998 0.193452 0.308299 1 0 0 0.394522 0.532767
-0.199998 0.173452 0.398299 1 0 0 0.393862 0.532638
-0.199998 0.243452 0.228299 1 0 0 0.39511 0.533107
-0.199998 0.323452 0.178299 1 0 0 0.395435 0.533688
-0.199998 0.413452 0.158299 1 0 0 0.395558 0.534335
-0.199998 0.653452 0.158299 1 0 0 0.39561 0.536072
-0.199998 0.503452 0.178299 1 0 0 0.395437 0.534994
-0.199998 0.413452 0.158299 1 0 0 0.395558 0.534335
-0.199998 0.583452 0.228299 1 0 0 0.395112 0.53557
-0.199998 0.633452 0.308299 1 0 0 0.394537 0.53587
-0.199998 0.653452 0.398299 1 0 0 0.393893 0.535974
-0.199999 0.653452 0.638299 1 5.38693e-06 7.90083e-06 0.392145 0.536009
-0.199998 0.633452 0.488299 1 1.22104e-05 5.0278e-06 0.393234 0.535844
-0.199998 0.653452 0.398299 1 1.87196e-05 4.15991e-06 0.393893 0.535974
-0.199998 0.583452 0.568299 1 3.29136e-06 1.09712e-05 0.392645 0.535505
-0.199999 0.503452 0.618299 1 -1.43651e-06 1.07739e-05 0.392321 0.534924
-0.199999 0.413452 0.638299 1 0 0 0.392197 0.534277
-0.199999 0.173452 0.638299 1 -5.38693e-06 7.90083e-06 0.392145 0.532539
-0.199999 0.323452 0.618299 1 1.43651e-06 1.07739e-05 0.392318 0.533618
-0.199999 0.413452 0.638299 1 0 0 0.392197 0.534277
-0.199998 0.243452 0.568299 1 -3.29136e-06 1.09712e-05 0.392644 0.533042
-0.199998 0.193452 0.488299 1 -1.22104e-05 5.0278e-06 0.393218 0.532742
-0.199998 0.173452 0.398299 1 -1.87196e-05 4.15991e-06 0.393862 0.532638
0 0.733453 1.4783 0 1 0 0.387123 0.526928
0.240001 0.073452 0.8083 0 -1 0 0.397476 0.52228
-0.359999 0.073453 0.958299 0 -1 8.31981e-06 0.395699 0.523511
-0.359999 0.093453 0.958299 -1.14997e-06 -1 2.65031e-06 0.395057 0.523532
0.220001 0.323452 1.0283 -0.8574933 0 0.5144952 0.393738 0.522579
0.220001 0.583452 1.0283 -0.8574933 0 0.5144952 0.393226 0.520972
0.190001 0.503452 0.9783 -0.8360482 0 0.5486561 0.393744 0.521352
0.190001 0.323452 0.9783 -0.8137338 0 0.5812379 0.394098 0.522464
0.170001 0.413452 0.9583 -0.7071068 0 0.7071068 0.394096 0.521852
0.090001 0.583452 1.3383 -5.10119e-06 -1 2.08684e-06 0.392964 0.524601
0.170001 0.583452 1.2883 0 -1 0 0.392846 0.524353
0.220001 0.583452 1.2083 -2.70323e-06 -1 1.43613e-06 0.392663 0.524151
0.110001 0.323452 1.0683 0 1 0 0.394165 0.523006
0.080001 0.323452 1.0383 0 1 0 0.394346 0.522928
0.050001 0.323452 1.0083 0 1 0 0.394481 0.522873
1e-06 0.323452 0.9983 0 1 0 0.394581 0.522856
-0.119999 0.323452 0.998299 -1.40734e-06 1 -7.03673e-06 0.395008 0.523231
-0.049999 0.323452 1.0083 0 1 0 0.394777 0.523009
1e-06 0.323452 0.9983 0 1 0 0.394581 0.522856
-0.079999 0.323452 1.0383 8.44398e-06 1 -8.44399e-06 0.394843 0.523172
-0.109999 0.323453 1.0683 -2.81466e-06 1 -1.40733e-05 0.394877 0.523296
-0.119999 0.323453 1.1183 -4.22199e-05 1 -8.44399e-06 0.394875 0.523412
-0.119999 0.323453 1.2383 -1.40733e-05 -1 1.97027e-05 0.394539 0.52419
-0.119999 0.323453 1.1183 0 -1 0 0.394875 0.523412
-0.109999 0.323453 1.1683 -1.97026e-05 -1 -2.81466e-06 0.394701 0.523673
-0.079999 0.323452 1.1983 -2.111e-05 -1 4.222e-06 0.394483 0.523793
-0.049999 0.323452 1.2283 -8.44399e-06 -1 4.222e-05 0.394288 0.52384
1e-06 0.323453 1.2383 0 -1 0.000101328 0.39412 0.523805
-0.359999 0.633453 1.1083 0 -1 0 0.393496 0.525267
-0.199999 0.523453 1.4083 0 0.2170359 0.9761636 0.396776 0.520639
-0.2 0.303452 1.4083 0 -0.4471948 0.8944366 0.395553 0.521248
-0.359999 0.193453 1.1083 0 1 0 0.395093 0.523022
-0.14 0.093453 1.4483 -0.7071108 0 0.7071028 0.392687 0.522209
-0.14 0.733453 1.4483 -0.7071108 0 0.7071028 0.388165 0.526212
-0.15 0.413453 1.4383 -0.7071108 0 0.7071028 0.390338 0.524111
-0.15 0.413453 1.4383 -0.5321777 -0.009388926 0.8465806 0.396029 0.520671
-0.15 0.413453 1.4383 -0.5708182 0.007819693 0.8210393 0.396029 0.520671
-0.359999 0.413453 0.958299 -1 0 0 0.394649 0.523922
-0.359999 0.633453 1.1083 -1 0 0 0.393496 0.525267
-0.329999 0.643453 1.2583 -0.9486832 0 0.3162281 0.392482 0.525655
-0.18 0.503453 1.4183 -0.581243 0 0.8137301 0.393291 0.527587
-0.249999 0.733453 1.3683 0.5881612 0.006892553 -0.8087143 0.390858 0.526053
-0.14 0.733453 1.4483 0.5881612 0.006892553 -0.8087143 0.388165 0.526212
-0.15 0.413453 1.4383 0.5881612 0.006892553 -0.8087143 0.388818 0.532532
-0.359999 0.413453 0.958299 -1 0 0 0.394649 0.523922
-0.359999 0.193453 1.1083 -1 0 0 0.395093 0.523022
-0.329999 0.183453 1.2583 -0.9486832 0 0.3162281 0.39487 0.522408
-0.18 0.323453 1.4183 -0.581243 0 0.8137301 0.395148 0.520858
-0.14 0.093453 1.4483 0.5881612 -0.006892543 -0.8087143 0.392687 0.522209
-0.249999 0.093453 1.3683 0.5881612 -0.006892543 -0.8087143 0.393961 0.522061
-0.15 0.413453 1.4383 0.5881612 -0.006892543 -0.8087143 0.39247 0.519196
-0.359999 0.413453 0.958299 0 0 0 0.394649 0.523922
-0.359999 0.753453 0.958299 0 0 0 0.394053 0.524164
-0.359999 0.093453 0.958299 0 0 0 0.395057 0.523532
-0.359998 0.173452 0.158299 -1 0 0 0.394473 0.533721
-0.359998 0.173452 0.398299 -1 0 0 0.393847 0.533658
-0.359998 0.193452 0.308299 -1 0 0 0.394247 0.533624
-0.359998 0.243452 0.228299 -1 0 0 0.394536 0.533658
-0.359998 0.323452 0.178299 -1 0 0 0.394572 0.533957
-0.359998 0.413452 0.158299 -1 0 0 0.394533 0.534359
-0.359998 0.653452 0.158299 -1 0 0 0.394546 0.534974
-0.359998 0.413452 0.158299 -1 0 0 0.394533 0.534359
-0.359998 0.503452 0.178299 -1 0 0 0.394612 0.534752
-0.359998 0.583452 0.228299 -1 0 0 0.394599 0.535027
-0.359998 0.633452 0.308299 -1 0 0 0.394311 0.535042
-0.359998 0.653452 0.398299 -1 0 0 0.393908 0.534954
-0.359999 0.653452 0.638299 -1 -5.46734e-06 -8.01876e-06 0.393282 0.534891
-0.359998 0.653452 0.398299 -1 -1.8999e-05 -4.222e-06 0.393908 0.534954
-0.359998 0.633452 0.488299 -1 -1.23926e-05 -5.10285e-06 0.393508 0.534988
-0.359998 0.583452 0.568299 -1 -3.34048e-06 -1.11349e-05 0.393219 0.534954
-0.359999 0.503452 0.618299 -1 1.45796e-06 -1.09347e-05 0.393184 0.534655
-0.359999 0.413453 0.638299 -1 0 0 0.393223 0.534253
-0.359999 0.173452 0.638299 -1 5.46733e-06 -8.01875e-06 0.393209 0.533638
-0.359999 0.413453 0.638299 -1 0 0 0.393223 0.534253
-0.359999 0.323452 0.618299 -1 -1.45795e-06 -1.09347e-05 0.393143 0.53386
-0.359998 0.243452 0.568299 -1 3.34048e-06 -1.11349e-05 0.393156 0.533585
-0.359998 0.193452 0.488299 -1 1.23926e-05 -5.10284e-06 0.393445 0.53357
-0.359998 0.173452 0.398299 -1 1.8999e-05 -4.222e-06 0.393847 0.533658
3 0 1 2 
3 0 2 3 
3 4 5 6 
3 4 6 7 
3 8 9 10 
3 8 10 11 
3 12 13 14 
3 12 14 15 
3 16 17 18 
3 16 18 19 
3 20 21 22 
3 20 22 23 
3 24 25 26 
3 24 26 27 
3 28 29 30 
3 28 30 31 
3 32 33 34 
3 32 34 35 
3 36 37 38 
3 36 38 39 
3 40 41 42 
3 40 42 43 
3 43 42 44 
3 43 44 45 
3 45 44 46 
3 45 46 47 
3 47 46 48 
3 47 48 49 
3 49 48 50 
3 49 50 51 
3 51 50 52 
3 51 52 53 
3 53 52 54 
3 53 54 55 
3 55 54 56 
3 55 56 57 
3 57 56 58 
3 57 58 59 
3 59 58 60 
3 59 60 61 
3 61 60 62 
3 61 62 63 
3 63 62 64 
3 63 64 65 
3 65 64 66 
3 65 66 67 
3 67 66 68 
3 67 68 69 
3 69 68 70 
3 69 70 71 
3 71 70 41 
3 71 41 40 
3 72 73 74 
3 72 74 75 
3 76 74 73 
3 76 73 77 
3 77 78 79 
3 77 79 76 
3 78 72 75 
3 78 75 79 
3 80 81 82 
3 80 82 83 
3 84 85 86 
3 84 86 87 
3 88 89 90 
3 88 90 91 
3 92 93 94 
3 92 94 95 
3 93 96 97 
3 93 97 94 
3 96 98 99 
3 96 99 97 
3 100 101 102 
3 100 102 103 
3 104 105 106 
3 104 106 107 
3 108 109 110 
3 108 110 111 
3 112 113 114 
3 112 114 115 
3 113 116 117 
3 113 117 114 
3 118 119 120 
3 118 120 121 
3 119 122 123 
3 119 123 120 
3 122 124 125 
3 122 125 123 
3 124 126 127 
3 124 127 125 
3 126 128 129 
3 126 129 127 
3 130 131 132 
3 130 132 133 
3 134 135 131 
3 134 131 130 
3 136 137 135 
3 136 135 134 
3 138 139 137 
3 138 137 136 
3 140 141 142 
3 140 142 143 
3 144 140 143 
3 144 143 145 
3 146 144 145 
3 146 145 147 
3 148 146 147 
3 148 147 149 
3 150 148 149 
3 150 149 151 
3 152 150 151 
3 152 151 153 
3 154 152 153 
3 154 153 155 
3 156 154 155 
3 156 155 157 
3 158 156 157 
3 158 157 159 
3 160 158 159 
3 160 159 161 
3 162 160 161 
3 162 161 163 
3 164 162 163 
3 164 163 165 
3 166 167 168 
3 166 168 169 
3 170 171 172 
3 170 172 173 
3 174 175 176 
3 174 176 177 
3 178 179 180 
3 178 180 181 
3 179 182 183 
3 179 183 180 
3 184 185 186 
3 184 186 187 
3 188 189 190 
3 188 190 191 
3 192 193 194 
3 192 194 195 
3 195 194 196 
3 195 196 197 
3 198 199 200 
3 198 200 201 
3 201 200 202 
3 201 202 203 
3 204 205 206 
3 204 206 207 
3 207 206 208 
3 207 208 209 
3 210 211 212 
3 210 212 213 
3 213 212 214 
3 213 214 215 
3 216 217 167 
3 216 167 166 
3 218 219 220 
3 218 220 221 
3 219 222 223 
3 219 223 220 
3 222 224 225 
3 222 225 223 
3 224 226 227 
3 224 227 225 
3 218 221 228 
3 218 228 229 
3 226 230 231 
3 226 231 227 
3 232 233 234 
3 232 234 235 
3 232 235 236 
3 232 236 237 
3 238 239 240 
3 238 240 241 
3 241 240 242 
3 241 242 243 
3 243 242 244 
3 243 244 245 
3 245 244 246 
3 245 246 247 
3 239 238 248 
3 239 248 249 
3 250 251 249 
3 250 249 248 
3 252 253 251 
3 252 251 250 
3 246 254 252 
3 246 252 247 
3 255 256 257 
3 255 257 258 
3 259 258 257 
3 260 261 262 
3 260 262 263 
3 263 262 264 
3 263 264 265 
3 266 265 264 
3 266 264 267 
3 267 264 268 
3 267 268 269 
3 270 269 268 
3 270 268 271 
3 272 273 274 
3 272 274 275 
3 276 272 275 
3 276 275 277 
3 276 277 278 
3 276 278 279 
3 280 281 282 
3 280 282 283 
3 284 280 283 
3 284 283 285 
3 286 287 285 
3 286 285 288 
3 289 290 291 
3 292 289 291 
3 292 291 293 
3 294 292 293 
3 294 293 295 
3 296 295 297 
3 296 297 298 
3 299 300 301 
3 299 301 302 
3 302 301 303 
3 302 303 304 
3 305 306 274 
3 305 274 273 
3 307 308 309 
3 307 309 310 
3 308 311 312 
3 308 312 309 
3 313 314 315 
3 313 315 316 
3 317 318 319 
3 317 319 320 
3 321 322 323 
3 321 323 324 
3 322 325 326 
3 322 326 323 
3 325 327 328 
3 325 328 326 
3 329 330 331 
3 329 331 332 
3 332 333 334 
3 332 334 335 
3 335 336 337 
3 335 337 338 
3 339 340 341 
3 339 341 342 
3 343 344 345 
3 343 345 339 
3 346 347 348 
3 346 348 343 
3 349 350 351 
3 349 351 352 
3 353 354 355 
3 353 355 356 
3 357 358 359 
3 357 359 360 
3 361 362 363 
3 361 363 364 
3 365 366 367 
3 365 367 368 
3 369 370 371 
3 369 371 372 
3 373 374 375 
3 373 375 376 
3 377 378 379 
3 377 379 373 
3 380 381 382 
3 380 382 383 
3 384 380 383 
3 384 383 385 
3 386 387 384 
3 386 384 385 
3 388 387 386 
3 388 386 389 
3 390 391 392 
3 390 393 391 
3 390 394 393 
3 390 395 394 
3 396 397 398 
3 396 399 397 
3 396 400 399 
3 396 401 400 
3 402 403 404 
3 402 405 403 
3 402 406 405 
3 402 407 406 
3 408 409 410 
3 408 411 409 
3 408 412 411 
3 408 413 412 
3 98 414 99 
3 415 108 111 
3 116 416 117 
3 164 165 417 
3 418 419 420 
3 418 420 421 
3 421 420 422 
3 232 423 233 
3 232 424 423 
3 232 425 424 
3 232 237 425 
3 252 426 247 
3 252 427 426 
3 252 428 427 
3 252 429 428 
3 430 431 432 
3 430 433 431 
3 430 434 433 
3 430 435 434 
3 436 437 438 
3 436 438 439 
3 436 439 440 
3 436 440 441 
3 254 253 252 
3 442 282 281 
3 284 285 287 
3 443 307 310 
3 312 311 444 
3 294 295 296 
3 298 297 445 
3 446 447 448 
3 320 449 317 
3 450 315 314 
3 329 451 330 
3 332 331 452 
3 332 452 333 
3 335 334 453 
3 335 453 336 
3 338 337 454 
3 455 456 457 
3 341 458 342 
3 459 340 339 
3 345 459 339 
3 460 344 343 
3 348 460 343 
3 461 347 346 
3 462 463 464 
3 465 466 467 
3 468 469 470 
3 468 470 471 
3 468 471 472 
3 468 472 473 
3 474 475 476 
3 474 476 477 
3 474 477 478 
3 474 478 479 
3 480 481 482 
3 480 482 483 
3 480 483 484 
3 480 484 485 
3 486 487 488 
3 486 488 489 
3 486 489 490 
3 486 490 491 
