ply
format ascii 1.0
comment VCGLIB generated
comment TextureFile SpidermanUV_square.bmp
element vertex 396
property float x
property float y
property float z
property float nx
property float ny
property float nz
property float texture_u
property float texture_v
element face 318
property list uchar int vertex_indices
end_header
0.4 0.72 1.60088 1 0 4.09782e-06 0.576942 0.634394
0.4 -0.72 1.60088 1 0 4.09782e-06 0.429789 0.634394
0.400001 -0.72 1.36088 1 0 4.09782e-06 0.429789 0.620991
0.400001 0.72 1.36088 1 0 4.09782e-06 0.576942 0.620991
-0.4 -0.72 1.60088 -1 0 -4.222e-06 0.503748 0.612545
-0.4 0.72 1.60088 -1 0 -4.222e-06 0.51305 0.612545
-0.399999 0.72 1.36088 -1 0 -4.222e-06 0.51305 0.61098
-0.399999 -0.72 1.36088 -1 0 -4.222e-06 0.503748 0.61098
0.4 0.72 1.60088 0 0 1 0.51305 0.612545
-0.4 0.72 1.60088 0 0 1 0.51305 0.612545
-0.4 -0.72 1.60088 0 0 1 0.503748 0.612545
0.4 -0.72 1.60088 0 0 1 0.503748 0.612545
-0.24 0.26 1.60088 -1 0 0 0.510078 0.612545
-0.24 0.26 2.04088 -1 0 0 0.510078 0.615414
-0.24 0.54 2.04088 -1 0 0 0.511887 0.615414
-0.24 0.54 1.60088 -1 0 0 0.511887 0.612545
0.14 0.16 1.60088 0 -1 0 0.509432 0.612545
0.14 0.16 2.04088 0 -1 0 0.509432 0.615414
-0.14 0.16 2.04088 0 -1 0 0.509432 0.615414
-0.14 0.16 1.60088 0 -1 0 0.509432 0.612545
0.24 0.26 2.04088 1 0 0 0.510078 0.615414
0.24 0.26 1.60088 1 0 0 0.510078 0.612545
0.24 0.54 1.60088 1 0 0 0.511887 0.612545
0.24 0.54 2.04088 1 0 0 0.511887 0.615414
-0.14 0.64 1.60088 0 1 0 0.512533 0.612545
-0.14 0.64 1.76088 -1.56985e-07 0.9944351 0.105351 0.512533 0.613588
0.14 0.64 1.76088 -1.56985e-07 0.9944351 0.105351 0.512533 0.613588
0.14 0.64 1.60088 0 1 0 0.512533 0.612545
0.11 0.51 1.60088 0 -1 0 0.511693 0.612545
0.11 0.51 2.04088 0 -1 0 0.511693 0.615414
-0.11 0.51 2.04088 0 -1 0 0.511693 0.615414
-0.11 0.51 1.60088 0 -1 0 0.511693 0.612545
0.18 0.58 1.60088 0.6585041 0.7525771 0 0.512145 0.612545
0.18 0.58 2.04088 0.7525766 0.6585047 0 0.512145 0.615414
0.24 0.54 2.04088 0.5546998 0.8320506 0 0.511887 0.615414
0.24 0.54 1.60088 0.5546998 0.8320506 0 0.511887 0.612545
0.24 0.26 1.60088 0.5547002 -0.8320503 0 0.510078 0.612545
0.24 0.26 2.04088 0.5547002 -0.8320503 0 0.510078 0.615414
0.18 0.22 2.04088 0.6585047 -0.7525766 0 0.50982 0.615414
0.18 0.22 1.60088 0.7525766 -0.6585047 0 0.50982 0.612545
0.14 0.16 2.04088 0.8320503 -0.5547002 0 0.509432 0.615414
0.14 0.16 1.60088 0.8320503 -0.5547002 0 0.509432 0.612545
-0.14 0.16 1.60088 -0.8320503 -0.5547002 0 0.509432 0.612545
-0.14 0.16 2.04088 -0.8320503 -0.5547002 0 0.509432 0.615414
-0.18 0.22 2.04088 -0.7525766 -0.6585047 0 0.50982 0.615414
-0.18 0.22 1.60088 -0.6585047 -0.7525766 0 0.50982 0.612545
-0.24 0.26 2.04088 -0.5547002 -0.8320503 0 0.510078 0.615414
-0.24 0.26 1.60088 -0.5547002 -0.8320503 0 0.510078 0.612545
-0.24 0.54 1.60088 -0.5546998 0.8320506 0 0.511887 0.612545
-0.24 0.54 2.04088 -0.5546998 0.8320506 0 0.511887 0.615414
-0.18 0.58 2.04088 -0.6585041 0.7525771 0 0.512145 0.615414
-0.18 0.58 1.60088 -0.7525766 0.6585047 0 0.512145 0.612545
-0.14 0.64 1.76088 -0.8320503 0.5547002 0 0.512533 0.613588
-0.14 0.64 1.60088 -0.8320503 0.5547002 0 0.512533 0.612545
-0.18 0.58 2.04088 -3.122231e-07 0.9778025 0.2095291 0.512145 0.615414
0.18 0.58 2.04088 -3.122231e-07 0.9778025 0.2095291 0.512145 0.615414
0.14 0.64 1.60088 0.8320503 0.5547002 0 0.512533 0.612545
0.14 0.64 1.76088 0.8320503 0.5547002 0 0.512533 0.613588
0.18 0.58 2.04088 -1.62974e-06 6.75178e-06 1 0.512145 0.615414
-0.18 0.58 2.04088 -3.74154e-06 6.64977e-06 1 0.512145 0.615414
-0.11 0.51 2.04088 -3.73897e-06 6.63911e-06 1 0.511693 0.615414
0.11 0.51 2.04088 -1.62717e-06 6.74112e-06 1 0.511693 0.615414
-0.24 0.54 2.04088 -7.54647e-06 4.50775e-06 1 0.511887 0.615414
-0.15 0.46 2.04088 -9.25412e-06 2.52792e-06 1 0.51137 0.615414
-0.24 0.4 2.04088 -1.09618e-05 1.82696e-07 1 0.510983 0.615414
-0.16 0.4 2.04088 -1.09618e-05 -1.82696e-07 1 0.510983 0.615414
-0.24 0.26 2.04088 -9.25412e-06 -2.52792e-06 1 0.510078 0.615414
-0.15 0.34 2.04088 -7.54647e-06 -4.50775e-06 1 0.510595 0.615414
-0.18 0.22 2.04088 -6.70383e-06 -3.6763e-06 1 0.50982 0.615414
-0.11 0.29 2.04088 -7.56884e-06 -8.6501e-07 1 0.510272 0.615414
-0.14 0.16 2.04088 -5.62257e-06 1.29752e-06 1 0.509432 0.615414
-0.06 0.25 2.04088 -2.81128e-06 6.48758e-07 1 0.510014 0.615414
0 0.16 2.04088 0 0 1 0.509432 0.615414
0 0.24 2.04088 0 0 1 0.509949 0.615414
0.14 0.16 2.04088 0 0 1 0.509432 0.615414
0.06 0.25 2.04088 0 0 1 0.510014 0.615414
0.18 0.22 2.04088 0 0 1 0.50982 0.615414
0.11 0.29 2.04088 0 0 1 0.510272 0.615414
0.24 0.26 2.04088 0 0 1 0.510078 0.615414
0.15 0.34 2.04088 0 0 1 0.510595 0.615414
0.24 0.4 2.04088 0 0 1 0.510983 0.615414
0.16 0.4 2.04088 0 0 1 0.510983 0.615414
0.24 0.54 2.04088 -5.4012e-07 2.23764e-06 1 0.511887 0.615414
0.15 0.46 2.04088 -1.08024e-06 4.47528e-06 1 0.51137 0.615414
0.15 0.46 1.60088 -0.8744249 -0.4851609 0 0.51137 0.612545
0.15 0.46 2.04088 -0.9449538 -0.3272039 0 0.51137 0.615414
0.11 0.51 2.04088 -0.7808689 -0.6246949 0 0.511693 0.615414
0.11 0.51 1.60088 -0.7808689 -0.6246949 0 0.511693 0.612545
0.16 0.4 1.60088 -0.9984604 -0.05547002 0 0.510983 0.612545
0.16 0.4 2.04088 -0.9984604 0.05547002 0 0.510983 0.615414
0.15 0.34 1.60088 -0.9449538 0.3272039 0 0.510595 0.612545
0.15 0.34 2.04088 -0.8744253 0.4851602 0 0.510595 0.615414
0.11 0.29 1.60088 -0.7327933 0.6804513 0 0.510272 0.612545
0.11 0.29 2.04088 -0.6804508 0.7327938 0 0.510272 0.615414
0.06 0.25 1.60088 -0.4851602 0.8744253 0 0.510014 0.612545
0.06 0.25 2.04088 -0.3272039 0.9449538 0 0.510014 0.615414
0 0.24 1.60088 -0.05547002 0.9984604 0 0.509949 0.612545
0 0.24 2.04088 0.05547002 0.9984604 0 0.509949 0.615414
-0.06 0.25 1.60088 0.3272039 0.9449538 0 0.510014 0.612545
-0.06 0.25 2.04088 0.4851602 0.8744253 0 0.510014 0.615414
-0.11 0.29 1.60088 0.6804508 0.7327938 0 0.510272 0.612545
-0.11 0.29 2.04088 0.7327933 0.6804513 0 0.510272 0.615414
-0.15 0.34 1.60088 0.8744253 0.4851602 0 0.510595 0.612545
-0.15 0.34 2.04088 0.9449538 0.3272039 0 0.510595 0.615414
-0.16 0.4 1.60088 0.9984604 0.05547002 0 0.510983 0.612545
-0.16 0.4 2.04088 0.9984604 -0.05547002 0 0.510983 0.615414
-0.15 0.46 1.60088 0.9449538 -0.3272039 0 0.51137 0.612545
-0.15 0.46 2.04088 0.8744249 -0.4851609 0 0.51137 0.615414
-0.11 0.51 1.60088 0.7808689 -0.6246949 0 0.511693 0.612545
-0.11 0.51 2.04088 0.7808689 -0.6246949 0 0.511693 0.615414
-0.24 -0.54 1.60088 -1 0 0 0.50491 0.612545
-0.24 -0.54 2.04088 -1 0 0 0.50491 0.615414
-0.24 -0.26 2.04088 -1 0 0 0.506719 0.615414
-0.24 -0.26 1.60088 -1 0 0 0.506719 0.612545
-0.14 -0.16 1.60088 0 1 0 0.507365 0.612545
-0.14 -0.16 2.04088 0 1 0 0.507365 0.615414
0.14 -0.16 2.04088 0 1 0 0.507365 0.615414
0.14 -0.16 1.60088 0 1 0 0.507365 0.612545
0.24 -0.54 2.04088 1 0 0 0.50491 0.615414
0.24 -0.54 1.60088 1 0 0 0.50491 0.612545
0.24 -0.26 1.60088 1 0 0 0.506719 0.612545
0.24 -0.26 2.04088 1 0 0 0.506719 0.615414
0.14 -0.64 1.60088 0 -1 0 0.504264 0.612545
0.14 -0.64 1.76088 -2.110899e-07 -0.9900976 0.1403809 0.504264 0.613588
-0.14 -0.64 1.76088 -1.05545e-07 -0.9975336 0.07019028 0.504264 0.613588
-0.14 -0.64 1.60088 0 -1 0 0.504264 0.612545
-0.11 -0.51 1.60088 0 1 0 0.505104 0.612545
-0.11 -0.51 2.04088 0 1 0 0.505104 0.615414
0.11 -0.51 2.04088 0 1 0 0.505104 0.615414
0.11 -0.51 1.60088 0 1 0 0.505104 0.612545
0.24 -0.54 2.04088 0.5546998 -0.8320506 0 0.50491 0.615414
0.18 -0.58 2.04088 0.7525766 -0.6585047 0 0.504652 0.615414
0.18 -0.58 1.60088 0.6585041 -0.7525771 0 0.504652 0.612545
0.24 -0.54 1.60088 0.5546998 -0.8320506 0 0.50491 0.612545
0.18 -0.22 2.04088 0.5644318 0.8254797 0 0.506977 0.615414
0.24 -0.26 2.04088 0.5547002 0.8320503 0 0.506719 0.615414
0.24 -0.26 1.60088 0.5596227 0.8287476 0 0.506719 0.612545
0.18 -0.22 1.60088 0.5708461 0.8210571 0 0.506977 0.612545
0.14 -0.16 2.04088 0.5739931 0.8188601 0 0.507365 0.615414
0.14 -0.16 1.60088 0.5739931 0.8188601 0 0.507365 0.612545
-0.18 -0.22 2.04088 -0.8254797 0.5644318 0 0.506977 0.615414
-0.14 -0.16 2.04088 -0.8320503 0.5547002 0 0.507365 0.615414
-0.14 -0.16 1.60088 -0.8287476 0.5596227 0 0.507365 0.612545
-0.18 -0.22 1.60088 -0.8210571 0.5708461 0 0.506977 0.612545
-0.24 -0.26 2.04088 -0.8188601 0.5739931 0 0.506719 0.615414
-0.24 -0.26 1.60088 -0.8188601 0.5739931 0 0.506719 0.612545
-0.18 -0.58 2.04088 -0.5624352 -0.8268414 0 0.504652 0.615414
-0.24 -0.54 2.04088 -0.5546998 -0.8320506 0 0.50491 0.615414
-0.24 -0.54 1.60088 -0.559622 -0.828748 0 0.50491 0.612545
-0.18 -0.58 1.60088 -0.5668702 -0.8238072 0 0.504652 0.612545
-0.14 -0.64 1.76088 -0.5680411 -0.8230001 0 0.504264 0.613588
-0.14 -0.64 1.60088 -0.5680411 -0.8230001 0 0.504264 0.612545
0.18 -0.58 2.04088 -3.150691e-07 -0.9778025 0.2095291 0.504652 0.615414
-0.18 -0.58 2.04088 -3.150691e-07 -0.9778025 0.2095291 0.504652 0.615414
0.14 -0.64 1.76088 0.8320503 -0.5547002 0 0.504264 0.613588
0.14 -0.64 1.60088 0.8320503 -0.5547002 0 0.504264 0.612545
-0.11 -0.51 2.04088 -3.75634e-06 -6.62959e-06 1 0.505104 0.615414
-0.18 -0.58 2.04088 -3.74154e-06 -6.64977e-06 1 0.504652 0.615414
0.18 -0.58 2.04088 -3.52137e-06 -6.09429e-06 1 0.504652 0.615414
0.11 -0.51 2.04088 -3.52137e-06 -6.09429e-06 1 0.505104 0.615414
-0.24 -0.54 2.04088 -5.88788e-06 -6.42673e-06 1 0.50491 0.615414
-0.15 -0.46 2.04088 -5.93933e-06 -6.3692e-06 1 0.505427 0.615414
-0.24 -0.4 2.04088 -5.9777e-06 -6.32246e-06 1 0.505815 0.615414
-0.16 -0.4 2.04088 -6.00239e-06 -6.24644e-06 1 0.505815 0.615414
-0.24 -0.26 2.04088 -6.00822e-06 -6.16851e-06 1 0.506719 0.615414
-0.15 -0.34 2.04088 -6.03452e-06 -6.10209e-06 1 0.506202 0.615414
-0.18 -0.22 2.04088 -6.04938e-06 -6.05653e-06 1 0.506977 0.615414
-0.11 -0.29 2.04088 -6.0359e-06 -6.01148e-06 1 0.506525 0.615414
-0.14 -0.16 2.04088 -5.98581e-06 -5.96158e-06 1 0.507365 0.615414
-0.06 -0.25 2.04088 -5.92929e-06 -5.90529e-06 1 0.506784 0.615414
0 -0.16 2.04088 -5.88578e-06 -5.86196e-06 1 0.507365 0.615414
0 -0.24 2.04088 -5.83556e-06 -5.81194e-06 1 0.506848 0.615414
0.14 -0.16 2.04088 -5.79519e-06 -5.77174e-06 1 0.507365 0.615414
0.06 -0.25 2.04088 -5.75355e-06 -5.73027e-06 1 0.506784 0.615414
0.18 -0.22 2.04088 -5.71358e-06 -5.69046e-06 1 0.506977 0.615414
0.11 -0.29 2.04088 -5.66216e-06 -5.63925e-06 1 0.506525 0.615414
0.24 -0.26 2.04088 -5.61517e-06 -5.59245e-06 1 0.506719 0.615414
0.15 -0.34 2.04088 -5.56215e-06 -5.53964e-06 1 0.506202 0.615414
0.24 -0.4 2.04088 -5.52133e-06 -5.49899e-06 1 0.505815 0.615414
0.16 -0.4 2.04088 -5.47422e-06 -5.45207e-06 1 0.505815 0.615414
0.24 -0.54 2.04088 -5.43635e-06 -5.41436e-06 1 0.50491 0.615414
0.15 -0.46 2.04088 -5.40981e-06 -5.38792e-06 1 0.505427 0.615414
-0.15 -0.46 1.60088 0.8744249 0.4851609 0 0.505427 0.612545
-0.15 -0.46 2.04088 0.9449538 0.3272039 0 0.505427 0.615414
-0.11 -0.51 2.04088 0.7808689 0.6246949 0 0.505104 0.615414
-0.11 -0.51 1.60088 0.7808689 0.6246949 0 0.505104 0.612545
-0.16 -0.4 1.60088 0.9984604 0.05547002 0 0.505815 0.612545
-0.16 -0.4 2.04088 0.9984604 -0.05547002 0 0.505815 0.615414
-0.15 -0.34 1.60088 0.9449538 -0.3272039 0 0.506202 0.612545
-0.15 -0.34 2.04088 0.8744253 -0.4851602 0 0.506202 0.615414
-0.11 -0.29 1.60088 0.7327933 -0.6804513 0 0.506525 0.612545
-0.11 -0.29 2.04088 0.6804508 -0.7327938 0 0.506525 0.615414
-0.06 -0.25 1.60088 0.4851602 -0.8744253 0 0.506784 0.612545
-0.06 -0.25 2.04088 0.3272039 -0.9449538 0 0.506784 0.615414
0 -0.24 1.60088 0.05547002 -0.9984604 0 0.506848 0.612545
0 -0.24 2.04088 -0.05547002 -0.9984604 0 0.506848 0.615414
0.06 -0.25 1.60088 -0.3272039 -0.9449538 0 0.506784 0.612545
0.06 -0.25 2.04088 -0.4851602 -0.8744253 0 0.506784 0.615414
0.11 -0.29 1.60088 -0.6804508 -0.7327938 0 0.506525 0.612545
0.11 -0.29 2.04088 -0.7327933 -0.6804513 0 0.506525 0.615414
0.15 -0.34 1.60088 -0.8744253 -0.4851602 0 0.506202 0.612545
0.15 -0.34 2.04088 -0.9449538 -0.3272039 0 0.506202 0.615414
0.16 -0.4 1.60088 -0.9984604 -0.05547002 0 0.505815 0.612545
0.16 -0.4 2.04088 -0.9984604 0.05547002 0 0.505815 0.615414
0.15 -0.46 1.60088 -0.9449538 0.3272039 0 0.505427 0.612545
0.15 -0.46 2.04088 -0.8744249 0.4851609 0 0.505427 0.615414
0.11 -0.51 1.60088 -0.7808689 0.6246949 0 0.505104 0.612545
0.11 -0.51 2.04088 -0.7808689 0.6246949 0 0.505104 0.615414
1e-06 -0.08 0.760884 0.07124709 0 -0.9974588 0.507882 0.607068
1e-06 0.08 0.760884 -0.07124709 0 -0.9974588 0.508915 0.607068
0.140001 0.08 0.790884 0.3423481 0 -0.9395732 0.508915 0.607263
0.140001 -0.08 0.790884 0.4710451 0 -0.8821092 0.507882 0.607263
-0.139999 -0.08 0.790884 -0.3423481 0 -0.9395732 0.507882 0.607263
-0.139999 0.08 0.790884 -0.4710451 0 -0.8821092 0.508915 0.607263
-0.249999 -0.08 0.870884 -0.668965 0 -0.743294 0.507882 0.607785
-0.249999 0.08 0.870884 -0.743294 0 -0.668965 0.508915 0.607785
-0.329999 -0.08 0.980884 -0.8821092 0 -0.4710451 0.507882 0.608502
-0.329999 0.08 0.980884 -0.9395732 0 -0.3423481 0.508915 0.608502
-0.359999 -0.08 1.12088 -0.9974588 0 -0.07124718 0.507882 0.609415
-0.359999 0.08 1.12088 -0.9974588 0 0.07124688 0.508915 0.609415
-0.329999 -0.08 1.26088 -0.9395732 0 0.3423481 0.507882 0.610328
-0.329999 0.08 1.26088 -0.8821092 0 0.4710451 0.508915 0.610328
-0.249999 -0.08 1.37088 -0.8087359 0 0.588172 0.507882 0.611045
-0.249999 0.08 1.37088 -0.8087359 0 0.588172 0.508915 0.611045
-0.249999 -0.72 1.37088 0.6496303 -1.02547e-07 -0.7602503 0.503748 0.611045
-0.249999 0.72 1.37088 0.6496303 -1.02547e-07 -0.7602503 0.51305 0.611045
-0.139999 0.72 1.45088 0.4710463 -1.882451e-07 -0.8821085 0.51305 0.611567
-0.14 -0.72 1.45088 0.3423481 -1.68002e-07 -0.9395732 0.503748 0.611567
1e-06 0.72 1.48088 0.07124698 -4.923379e-08 -0.9974588 0.51305 0.611762
0 -0.72 1.48088 -0.07124698 4.935419e-08 -0.9974588 0.503748 0.611762
0.140001 0.72 1.45088 -0.3423472 1.678881e-07 -0.9395735 0.51305 0.611567
0.14 -0.72 1.45088 -0.4710439 1.87897e-07 -0.8821098 0.503748 0.611567
0.250001 0.72 1.37088 -0.6496292 1.02261e-07 -0.7602512 0.51305 0.611045
0.250001 -0.72 1.37088 -0.6496292 1.02261e-07 -0.7602512 0.503748 0.611045
1e-06 0.4 1.00088 -0.06651892 0 -0.9977852 0.510983 0.608633
1e-06 -0.4 1.00088 0.06651892 0 -0.9977852 0.505815 0.608633
-0.049999 -0.4 1.01088 -0.196116 0 -0.9805807 0.505815 0.608698
-0.049999 0.4 1.01088 -0.196116 0 -0.9805807 0.510983 0.608698
-0.049999 0.4 1.01088 -0.7071063 0 -0.7071073 0.510983 0.608698
-0.049999 -0.4 1.01088 -0.7071063 0 -0.7071073 0.505815 0.608698
-0.079999 -0.4 1.04088 -0.7071063 0 -0.7071073 0.505815 0.608893
-0.079999 0.4 1.04088 -0.7071063 0 -0.7071073 0.510983 0.608893
-0.109999 -0.4 1.07088 -0.7071063 0 -0.7071073 0.505815 0.609089
-0.109999 0.4 1.07088 -0.7071063 0 -0.7071073 0.510983 0.609089
-0.109999 0.4 1.07088 -0.9805807 0 -0.196116 0.510983 0.609089
-0.109999 -0.4 1.07088 -0.9805807 0 -0.196116 0.505815 0.609089
-0.119999 -0.4 1.12088 -0.9977852 0 -0.06651922 0.505815 0.609415
-0.119999 0.4 1.12088 -0.9977852 0 0.06651872 0.510983 0.609415
-0.109999 -0.4 1.17088 -0.9805807 0 0.196116 0.505815 0.609741
-0.109999 0.4 1.17088 -0.9805807 0 0.196116 0.510983 0.609741
-0.109999 0.4 1.17088 -0.7071063 0 0.7071073 0.510983 0.609741
-0.109999 -0.4 1.17088 -0.7071063 0 0.7071073 0.505815 0.609741
-0.079999 -0.4 1.20088 -0.7071063 0 0.7071073 0.505815 0.609937
-0.079999 0.4 1.20088 -0.7071063 0 0.7071073 0.510983 0.609937
-0.049999 -0.4 1.23088 -0.7071063 0 0.7071073 0.505815 0.610132
-0.049999 0.4 1.23088 -0.7071063 0 0.7071073 0.510983 0.610132
-0.049999 0.4 1.23088 -0.196116 0 0.9805807 0.510983 0.610132
-0.049999 -0.4 1.23088 -0.196116 0 0.9805807 0.505815 0.610132
1e-06 -0.4 1.24088 -0.06651892 0 0.9977852 0.505815 0.610197
1e-06 0.4 1.24088 0.06651892 0 0.9977852 0.510983 0.610197
0.050001 -0.4 1.23088 0.196116 0 0.9805807 0.505815 0.610132
0.050001 0.4 1.23088 0.196116 0 0.9805807 0.510983 0.610132
0.050001 0.4 1.23088 0.7071063 0 0.7071073 0.510983 0.610132
0.050001 -0.4 1.23088 0.7071063 0 0.7071073 0.505815 0.610132
0.080001 -0.4 1.20088 0.7071063 0 0.7071073 0.505815 0.609937
0.080001 0.4 1.20088 0.7071063 0 0.7071073 0.510983 0.609937
0.110001 -0.4 1.17088 0.7071063 0 0.7071073 0.505815 0.609741
0.110001 0.4 1.17088 0.7071063 0 0.7071073 0.510983 0.609741
0.110001 0.4 1.17088 0.9805807 0 0.196116 0.510983 0.609741
0.110001 -0.4 1.17088 0.9805807 0 0.196116 0.505815 0.609741
0.120001 -0.4 1.12088 0.9977852 0 0.06651881 0.505815 0.609415
0.120001 0.4 1.12088 0.9977852 0 -0.06651931 0.510983 0.609415
0.110001 -0.4 1.07088 0.9805807 0 -0.196116 0.505815 0.609089
0.110001 0.4 1.07088 0.9805807 0 -0.196116 0.510983 0.609089
0.110001 0.4 1.07088 0.7071063 0 -0.7071073 0.510983 0.609089
0.110001 -0.4 1.07088 0.7071063 0 -0.7071073 0.505815 0.609089
0.080001 -0.4 1.04088 0.7071063 0 -0.7071073 0.505815 0.608893
0.080001 0.4 1.04088 0.7071063 0 -0.7071073 0.510983 0.608893
0.050001 -0.4 1.01088 0.7071063 0 -0.7071073 0.505815 0.608698
0.050001 0.4 1.01088 0.7071063 0 -0.7071073 0.510983 0.608698
0.050001 0.4 1.01088 0.196116 0 -0.9805807 0.510983 0.608698
0.050001 -0.4 1.01088 0.196116 0 -0.9805807 0.505815 0.608698
0.260001 0.72 1.36088 0 0 -1 0.51305 0.61098
0.400001 0.72 1.36088 0 0 -1 0.51305 0.61098
0.400001 -0.72 1.36088 0 0 -1 0.503748 0.61098
0.260001 -0.72 1.36088 0 0 -1 0.503748 0.61098
0.260001 0.72 1.36088 -0.7071068 0 -0.7071068 0.51305 0.61098
0.260001 -0.72 1.36088 -0.7071068 0 -0.7071068 0.503748 0.61098
-0.259999 -0.72 1.36088 0 0 -1 0.503748 0.61098
-0.399999 -0.72 1.36088 0 0 -1 0.503748 0.61098
-0.399999 0.72 1.36088 0 0 -1 0.51305 0.61098
-0.259999 0.72 1.36088 0 0 -1 0.51305 0.61098
-0.259999 -0.72 1.36088 0.7071063 0 -0.7071073 0.503748 0.61098
-0.259999 0.72 1.36088 0.7071063 0 -0.7071073 0.51305 0.61098
0.140001 0.72 1.45088 0 1 0 0.51305 0.611567
0.4 0.72 1.60088 0 1 0 0.51305 0.612545
0.400001 0.72 1.36088 0 1 0 0.51305 0.61098
0.250001 0.72 1.37088 0 1 0 0.51305 0.611045
1e-06 0.72 1.48088 0 1 0 0.51305 0.611762
-0.139999 0.72 1.45088 0 1 0 0.51305 0.611567
-0.4 0.72 1.60088 0 1 0 0.51305 0.612545
-0.249999 0.72 1.37088 0 1 0 0.51305 0.611045
-0.399999 0.72 1.36088 0 1 0 0.51305 0.61098
-0.14 -0.72 1.45088 0 -1 0 0.503748 0.611567
-0.4 -0.72 1.60088 0 -1 0 0.503748 0.612545
-0.399999 -0.72 1.36088 0 -1 0 0.503748 0.61098
-0.249999 -0.72 1.37088 0 -1 0 0.503748 0.611045
0.14 -0.72 1.45088 0 -1 0 0.503748 0.611567
0.4 -0.72 1.60088 0 -1 0 0.503748 0.612545
0 -0.72 1.48088 0 -1 0 0.503748 0.611762
0.250001 -0.72 1.37088 0 -1 0 0.503748 0.611045
0.400001 -0.72 1.36088 0 -1 0 0.503748 0.61098
1e-06 -0.08 1.12088 0 -1 0 0.507882 0.609415
1e-06 -0.08 0.760884 0 -1 0 0.507882 0.607068
0.140001 -0.08 0.790884 0 -1 0 0.507882 0.607263
0.250001 -0.08 0.870884 0 -1 0 0.507882 0.607785
0.330001 -0.08 0.980884 0 -1 0 0.507882 0.608502
0.360001 -0.08 1.12088 0 -1 0 0.507882 0.609415
0.330001 -0.08 1.26088 0 -1 0 0.507882 0.610328
0.250001 -0.08 1.37088 0 -1 0 0.507882 0.611045
0.140001 -0.08 1.45088 0 -1 0 0.507882 0.611567
1e-06 -0.08 1.48088 0 -1 0 0.507882 0.611762
-0.139999 -0.08 1.45088 0 -1 0 0.507882 0.611567
-0.249999 -0.08 1.37088 0 -1 0 0.507882 0.611045
-0.329999 -0.08 1.26088 0 -1 0 0.507882 0.610328
-0.359999 -0.08 1.12088 0 -1 0 0.507882 0.609415
-0.329999 -0.08 0.980884 0 -1 0 0.507882 0.608502
-0.249999 -0.08 0.870884 0 -1 0 0.507882 0.607785
-0.139999 -0.08 0.790884 0 -1 0 0.507882 0.607263
1e-06 0.08 1.12088 0 1 0 0.508915 0.609415
1e-06 0.08 0.760884 0 1 0 0.508915 0.607068
-0.139999 0.08 0.790884 0 1 0 0.508915 0.607263
-0.249999 0.08 0.870884 0 1 0 0.508915 0.607785
-0.329999 0.08 0.980884 0 1 0 0.508915 0.608502
-0.359999 0.08 1.12088 0 1 0 0.508915 0.609415
-0.329999 0.08 1.26088 0 1 0 0.508915 0.610328
-0.249999 0.08 1.37088 0 1 0 0.508915 0.611045
-0.139999 0.08 1.45088 0 1 0 0.508915 0.611567
1e-06 0.08 1.48088 0 1 0 0.508915 0.611762
0.140001 0.08 1.45088 0 1 0 0.508915 0.611567
0.250001 0.08 1.37088 0 1 0 0.508915 0.611045
0.330001 0.08 1.26088 0 1 0 0.508915 0.610328
0.360001 0.08 1.12088 0 1 0 0.508915 0.609415
0.330001 0.08 0.980884 0 1 0 0.508915 0.608502
0.250001 0.08 0.870884 0 1 0 0.508915 0.607785
0.140001 0.08 0.790884 0 1 0 0.508915 0.607263
1e-06 -0.4 1.12088 0 -1 0 0.505815 0.609415
-0.049999 -0.4 1.01088 0 -1 0 0.505815 0.608698
1e-06 -0.4 1.00088 0 -1 0 0.505815 0.608633
-0.079999 -0.4 1.04088 0 -1 0 0.505815 0.608893
-0.109999 -0.4 1.07088 0 -1 0 0.505815 0.609089
-0.119999 -0.4 1.12088 0 -1 0 0.505815 0.609415
-0.109999 -0.4 1.17088 0 -1 0 0.505815 0.609741
-0.079999 -0.4 1.20088 0 -1 0 0.505815 0.609937
-0.049999 -0.4 1.23088 0 -1 0 0.505815 0.610132
1e-06 -0.4 1.24088 0 -1 0 0.505815 0.610197
0.050001 -0.4 1.23088 0 -1 0 0.505815 0.610132
0.080001 -0.4 1.20088 0 -1 0 0.505815 0.609937
0.110001 -0.4 1.17088 0 -1 0 0.505815 0.609741
0.120001 -0.4 1.12088 0 -1 0 0.505815 0.609415
0.110001 -0.4 1.07088 0 -1 0 0.505815 0.609089
0.080001 -0.4 1.04088 0 -1 0 0.505815 0.608893
0.050001 -0.4 1.01088 0 -1 0 0.505815 0.608698
1e-06 0.4 1.12088 0 1 0 0.510983 0.609415
1e-06 0.4 1.00088 0 1 0 0.510983 0.608633
-0.049999 0.4 1.01088 0 1 0 0.510983 0.608698
-0.079999 0.4 1.04088 0 1 0 0.510983 0.608893
-0.109999 0.4 1.07088 0 1 0 0.510983 0.609089
-0.119999 0.4 1.12088 0 1 0 0.510983 0.609415
-0.109999 0.4 1.17088 0 1 0 0.510983 0.609741
-0.079999 0.4 1.20088 0 1 0 0.510983 0.609937
-0.049999 0.4 1.23088 0 1 0 0.510983 0.610132
1e-06 0.4 1.24088 0 1 0 0.510983 0.610197
0.050001 0.4 1.23088 0 1 0 0.510983 0.610132
0.080001 0.4 1.20088 0 1 0 0.510983 0.609937
0.110001 0.4 1.17088 0 1 0 0.510983 0.609741
0.120001 0.4 1.12088 0 1 0 0.510983 0.609415
0.110001 0.4 1.07088 0 1 0 0.510983 0.609089
0.080001 0.4 1.04088 0 1 0 0.510983 0.608893
0.050001 0.4 1.01088 0 1 0 0.510983 0.608698
0.260001 0.72 1.36088 0 1 0 0.51305 0.61098
-0.259999 0.72 1.36088 0 1 0 0.51305 0.61098
-0.259999 -0.72 1.36088 0 -1 0 0.503748 0.61098
0.260001 -0.72 1.36088 0 -1 0 0.503748 0.61098
0.250001 0.08 0.870884 0.668965 0 -0.743294 0.508915 0.607785
0.250001 -0.08 0.870884 0.743294 0 -0.668965 0.507882 0.607785
0.330001 0.08 0.980884 0.8821092 0 -0.4710451 0.508915 0.608502
0.330001 -0.08 0.980884 0.9395732 0 -0.3423481 0.507882 0.608502
0.360001 0.08 1.12088 0.9974588 0 -0.07124718 0.508915 0.609415
0.360001 -0.08 1.12088 0.9974588 0 0.07124688 0.507882 0.609415
0.330001 0.08 1.26088 0.9395732 0 0.3423481 0.508915 0.610328
0.330001 -0.08 1.26088 0.8821092 0 0.4710451 0.507882 0.610328
0.250001 0.08 1.37088 0.743294 0 0.668965 0.508915 0.611045
0.250001 -0.08 1.37088 0.668965 0 0.743294 0.507882 0.611045
0.140001 0.08 1.45088 0.588172 0 0.8087359 0.508915 0.611567
0.140001 -0.08 1.45088 0.588172 0 0.8087359 0.507882 0.611567
3 0 1 2 
3 0 2 3 
3 4 5 6 
3 4 6 7 
3 8 9 10 
3 8 10 11 
3 12 13 14 
3 12 14 15 
3 16 17 18 
3 16 18 19 
3 20 21 22 
3 20 22 23 
3 24 25 26 
3 24 26 27 
3 28 29 30 
3 28 30 31 
3 32 33 34 
3 32 34 35 
3 36 37 38 
3 36 38 39 
3 39 38 40 
3 39 40 41 
3 42 43 44 
3 42 44 45 
3 45 44 46 
3 45 46 47 
3 48 49 50 
3 48 50 51 
3 51 50 52 
3 51 52 53 
3 54 55 26 
3 54 26 25 
3 56 57 33 
3 56 33 32 
3 58 59 60 
3 58 60 61 
3 60 59 62 
3 60 62 63 
3 63 62 64 
3 63 64 65 
3 65 64 66 
3 65 66 67 
3 67 66 68 
3 67 68 69 
3 69 68 70 
3 69 70 71 
3 71 70 72 
3 71 72 73 
3 73 72 74 
3 73 74 75 
3 75 74 76 
3 75 76 77 
3 77 76 78 
3 77 78 79 
3 79 78 80 
3 79 80 81 
3 81 80 82 
3 81 82 83 
3 83 82 58 
3 83 58 61 
3 84 85 86 
3 84 86 87 
3 88 89 85 
3 88 85 84 
3 90 91 89 
3 90 89 88 
3 92 93 91 
3 92 91 90 
3 94 95 93 
3 94 93 92 
3 96 97 95 
3 96 95 94 
3 98 99 97 
3 98 97 96 
3 100 101 99 
3 100 99 98 
3 102 103 101 
3 102 101 100 
3 104 105 103 
3 104 103 102 
3 106 107 105 
3 106 105 104 
3 108 109 107 
3 108 107 106 
3 110 111 112 
3 110 112 113 
3 114 115 116 
3 114 116 117 
3 118 119 120 
3 118 120 121 
3 122 123 124 
3 122 124 125 
3 126 127 128 
3 126 128 129 
3 130 131 132 
3 130 132 133 
3 134 135 136 
3 134 136 137 
3 138 134 137 
3 138 137 139 
3 140 141 142 
3 140 142 143 
3 144 140 143 
3 144 143 145 
3 146 147 148 
3 146 148 149 
3 150 146 149 
3 150 149 151 
3 123 152 153 
3 123 153 124 
3 131 154 155 
3 131 155 132 
3 156 157 158 
3 156 158 159 
3 160 157 156 
3 160 156 161 
3 162 160 161 
3 162 161 163 
3 164 162 163 
3 164 163 165 
3 166 164 165 
3 166 165 167 
3 168 166 167 
3 168 167 169 
3 170 168 169 
3 170 169 171 
3 172 170 171 
3 172 171 173 
3 174 172 173 
3 174 173 175 
3 176 174 175 
3 176 175 177 
3 178 176 177 
3 178 177 179 
3 180 178 179 
3 180 179 181 
3 158 180 181 
3 158 181 159 
3 182 183 184 
3 182 184 185 
3 186 187 183 
3 186 183 182 
3 188 189 187 
3 188 187 186 
3 190 191 189 
3 190 189 188 
3 192 193 191 
3 192 191 190 
3 194 195 193 
3 194 193 192 
3 196 197 195 
3 196 195 194 
3 198 199 197 
3 198 197 196 
3 200 201 199 
3 200 199 198 
3 202 203 201 
3 202 201 200 
3 204 205 203 
3 204 203 202 
3 206 207 205 
3 206 205 204 
3 208 209 210 
3 208 210 211 
3 212 213 209 
3 212 209 208 
3 214 215 213 
3 214 213 212 
3 216 217 215 
3 216 215 214 
3 218 219 217 
3 218 217 216 
3 220 221 219 
3 220 219 218 
3 222 223 221 
3 222 221 220 
3 224 225 226 
3 224 226 227 
3 227 226 228 
3 227 228 229 
3 229 228 230 
3 229 230 231 
3 231 230 232 
3 231 232 233 
3 234 235 236 
3 234 236 237 
3 238 239 240 
3 238 240 241 
3 241 240 242 
3 241 242 243 
3 244 245 246 
3 244 246 247 
3 247 246 248 
3 247 248 249 
3 250 251 252 
3 250 252 253 
3 253 252 254 
3 253 254 255 
3 256 257 258 
3 256 258 259 
3 259 258 260 
3 259 260 261 
3 262 263 264 
3 262 264 265 
3 265 264 266 
3 265 266 267 
3 268 269 270 
3 268 270 271 
3 271 270 272 
3 271 272 273 
3 274 275 276 
3 274 276 277 
3 277 276 278 
3 277 278 279 
3 280 281 235 
3 280 235 234 
3 282 283 284 
3 282 284 285 
3 232 286 287 
3 232 287 233 
3 288 289 290 
3 288 290 291 
3 224 292 293 
3 224 293 225 
3 294 295 296 
3 294 296 297 
3 295 298 299 
3 295 299 300 
3 301 302 300 
3 301 300 299 
3 303 304 305 
3 303 305 306 
3 307 308 304 
3 307 304 309 
3 310 311 308 
3 310 308 307 
3 312 313 314 
3 312 314 315 
3 312 315 316 
3 312 316 317 
3 312 317 318 
3 312 318 319 
3 312 319 320 
3 312 320 321 
3 312 321 322 
3 312 322 323 
3 312 323 324 
3 312 324 325 
3 312 325 326 
3 312 326 327 
3 312 327 328 
3 312 328 313 
3 329 330 331 
3 329 331 332 
3 329 332 333 
3 329 333 334 
3 329 334 335 
3 329 335 336 
3 329 336 337 
3 329 337 338 
3 329 338 339 
3 329 339 340 
3 329 340 341 
3 329 341 342 
3 329 342 343 
3 329 343 344 
3 329 344 345 
3 329 345 330 
3 346 347 348 
3 346 349 347 
3 346 350 349 
3 346 351 350 
3 346 352 351 
3 346 353 352 
3 346 354 353 
3 346 355 354 
3 346 356 355 
3 346 357 356 
3 346 358 357 
3 346 359 358 
3 346 360 359 
3 346 361 360 
3 346 362 361 
3 346 348 362 
3 363 364 365 
3 363 365 366 
3 363 366 367 
3 363 367 368 
3 363 368 369 
3 363 369 370 
3 363 370 371 
3 363 371 372 
3 363 372 373 
3 363 373 374 
3 363 374 375 
3 363 375 376 
3 363 376 377 
3 363 377 378 
3 363 378 379 
3 363 379 364 
3 380 297 296 
3 298 295 294 
3 301 381 302 
3 382 306 305 
3 303 309 304 
3 310 383 311 
3 211 210 384 
3 211 384 385 
3 385 384 386 
3 385 386 387 
3 387 386 388 
3 387 388 389 
3 389 388 390 
3 389 390 391 
3 391 390 392 
3 391 392 393 
3 393 392 394 
3 393 394 395 
