ply
format ascii 1.0
comment VCGLIB generated
comment TextureFile SpidermanUV_square.bmp
element vertex 476
property float x
property float y
property float z
property float nx
property float ny
property float nz
property float texture_u
property float texture_v
element face 356
property list uchar int vertex_indices
end_header
-0.205219 -0.166014 -0.002248 1 0 0 0.482404 0.518715
-0.205219 -0.166014 0.157752 1 0 0 0.484195 0.518869
-0.205219 -0.646014 0.157752 1 0 0 0.483737 0.524293
-0.205219 -0.646014 -0.002248 1 0 0 0.481946 0.524139
-0.20522 -0.646014 0.637752 -1 -1.01245e-08 4.55592e-08 0.48911 0.524756
-0.20522 -0.646015 0.797752 -1 0 0 0.490901 0.52491
-0.20522 -0.166015 0.797752 -1 0 0 0.49136 0.519486
-0.20522 -0.166015 0.637752 -1 1.54039e-07 2.25925e-07 0.489569 0.519332
0.274781 -0.646015 0.157752 2.111e-06 1 0 0.483737 0.524293
0.274781 -0.646015 -0.002247 2.111e-06 1 0 0.481946 0.524139
-0.205219 -0.646014 -0.002248 2.111e-06 1 0 0.481946 0.524139
-0.205219 -0.646014 0.157752 2.111e-06 1 0 0.483737 0.524293
-0.205219 -0.646014 0.157752 1.58325e-06 1 7.91627e-07 0.483737 0.524293
-0.20522 -0.646015 0.797752 1.58325e-06 1 7.91627e-07 0.490901 0.52491
0.11478 -0.646015 0.797752 1.58325e-06 1 7.91627e-07 0.490901 0.52491
0.114781 -0.646015 0.157752 1.58325e-06 1 7.91627e-07 0.483737 0.524293
-0.205219 -0.166014 0.157752 -2.07995e-06 -1 0 0.484195 0.518869
-0.205219 -0.166014 -0.002248 -2.07995e-06 -1 0 0.482404 0.518715
0.274781 -0.166015 -0.002247 -2.07995e-06 -1 0 0.482404 0.518715
0.274781 -0.166015 0.157752 -2.07995e-06 -1 0 0.484195 0.518869
-0.20522 -0.166015 0.797752 -1.55997e-06 -1 -7.79985e-07 0.49136 0.519486
-0.205219 -0.166014 0.157752 -1.55997e-06 -1 -7.79985e-07 0.484195 0.518869
0.114781 -0.166015 0.157752 -1.55997e-06 -1 -7.79985e-07 0.484195 0.518869
0.11478 -0.166015 0.797752 -1.55997e-06 -1 -7.79985e-07 0.49136 0.519486
0.11478 -0.166015 0.797752 0 0 1 0.49136 0.519486
-0.20522 -0.166015 0.797752 0 0 1 0.49136 0.519486
-0.20522 -0.646015 0.797752 0 0 1 0.490901 0.52491
0.11478 -0.646015 0.797752 0 0 1 0.490901 0.52491
0.114781 -0.646015 0.157752 -1 0 -1.55997e-06 0.483737 0.524293
0.11478 -0.646015 0.797752 -1 0 -1.55997e-06 0.490901 0.52491
0.11478 -0.166015 0.797752 -1 0 -1.55997e-06 0.49136 0.519486
0.114781 -0.166015 0.157752 -1 0 -1.55997e-06 0.484195 0.518869
0.114781 -0.166015 0.157752 0 0 -1 0.484195 0.518869
0.274781 -0.166015 0.157752 0 0 -1 0.484195 0.518869
0.274781 -0.646015 0.157752 0 0 -1 0.483737 0.524293
0.114781 -0.646015 0.157752 0 0 -1 0.483737 0.524293
0.274781 -0.166015 0.157752 -1 0 0 0.484195 0.518869
0.274781 -0.166015 -0.002247 -1 0 0 0.482404 0.518715
0.274781 -0.646015 -0.002247 -1 0 0 0.481946 0.524139
0.274781 -0.646015 0.157752 -1 0 0 0.483737 0.524293
-0.365219 -0.166014 0.397752 -3.03188e-06 -0.977499 0.21094 0.486882 0.519101
-0.365219 -0.186014 0.307752 -4.636832e-06 -0.9022744 0.4311622 0.485856 0.51924
-0.205219 -0.186015 0.307752 -3.846639e-06 -0.9462286 0.3234989 0.485856 0.51924
-0.205219 -0.166014 0.397752 -3.034761e-06 -0.9783522 0.206947 0.486882 0.519101
-0.365219 -0.236014 0.227752 -2.96798e-06 -0.6507931 0.7592551 0.484912 0.519728
-0.205219 -0.236015 0.227752 -4.21869e-06 -0.759257 0.650791 0.484912 0.519728
-0.365219 -0.316014 0.177752 -5.666679e-07 -0.325451 0.9455589 0.484276 0.520583
-0.205219 -0.316014 0.177752 -1.133339e-06 -0.4311618 0.9022746 0.484276 0.520583
-0.365219 -0.406015 0.157752 0 0.07387239 0.9972678 0.483966 0.521581
-0.205219 -0.406015 0.157752 0 -0.07387009 0.9972679 0.483966 0.521581
-0.365219 -0.496015 0.177752 0 0.431161 0.902275 0.484104 0.522617
-0.205219 -0.496015 0.177752 0 0.3254519 0.9455586 0.484104 0.522617
-0.365219 -0.576015 0.227752 1.83092e-06 0.7592588 0.6507888 0.484587 0.523569
-0.205219 -0.576015 0.227752 9.15461e-07 0.6507921 0.7592561 0.484587 0.523569
-0.365219 -0.626014 0.307752 2.993701e-06 0.9455603 0.3254471 0.485435 0.524212
-0.205219 -0.626015 0.307752 2.856221e-06 0.9022774 0.4311562 0.485435 0.524212
-0.365219 -0.646014 0.397752 3.15688e-06 0.9972679 -0.07386969 0.486423 0.524525
-0.205219 -0.646014 0.397752 3.15736e-06 0.9972679 0.07386979 0.486423 0.524525
-0.365219 -0.626014 0.487752 2.856581e-06 0.9022774 -0.4311562 0.48745 0.524385
-0.205219 -0.626015 0.487752 2.993151e-06 0.9455603 -0.3254471 0.48745 0.524385
-0.36522 -0.576015 0.567752 9.158815e-07 0.6507927 -0.7592556 0.488394 0.523898
-0.20522 -0.576015 0.567752 1.83176e-06 0.7592588 -0.6507888 0.488394 0.523898
-0.36522 -0.496015 0.617752 0 0.3254519 -0.9455586 0.48903 0.523042
-0.20522 -0.496015 0.617752 0 0.431161 -0.902275 0.48903 0.523042
-0.36522 -0.406015 0.637752 -4.676109e-07 -0.07387079 -0.9972679 0.48934 0.522044
-0.20522 -0.406015 0.637752 -2.338059e-07 0.07387199 -0.9972678 0.48934 0.522044
-0.36522 -0.316014 0.617752 -1.365171e-06 -0.4311622 -0.9022744 0.489202 0.521008
-0.20522 -0.316015 0.617752 -1.03033e-06 -0.3254519 -0.9455586 0.489202 0.521008
-0.365219 -0.236015 0.567752 -2.38229e-06 -0.7592551 -0.6507931 0.488719 0.520056
-0.205219 -0.236015 0.567752 -2.04979e-06 -0.6507921 -0.7592561 0.488719 0.520056
-0.365219 -0.186014 0.487752 -3.117831e-06 -0.9990854 -0.04276121 0.487871 0.519413
-0.205219 -0.186015 0.487752 -2.97611e-06 -0.9525152 -0.3044911 0.487871 0.519413
0.274781 -0.646015 -0.002247 1.04143e-06 -5.28678e-14 -1 0.481946 0.524139
0.434781 -0.786015 -0.002247 5.20716e-07 -2.64339e-14 -1 0.481812 0.525721
-0.365219 -0.786014 -0.002248 1.04143e-06 -5.28678e-14 -1 0.481812 0.525721
-0.205219 -0.646014 -0.002248 5.20716e-07 -2.64339e-14 -1 0.481946 0.524139
-0.365219 -0.066014 -0.002248 5.20716e-07 -3.70074e-14 -1 0.4825 0.517585
-0.205219 -0.166014 -0.002248 1.04143e-06 -7.40149e-14 -1 0.482404 0.518715
0.434781 -0.066015 -0.002247 1.04143e-06 -7.40149e-14 -1 0.4825 0.517585
0.274781 -0.166015 -0.002247 5.20716e-07 -3.70074e-14 -1 0.482404 0.518715
0.434781 -0.786015 -0.002247 -7.636041e-08 -0.9995121 0.0312348 0.481812 0.525721
0.434781 -0.776015 0.317753 -7.636041e-08 -0.9995121 0.0312348 0.485404 0.525916
0.234781 -0.776015 0.317752 -7.636041e-08 -0.9995121 0.0312348 0.485404 0.525916
0.234781 -0.786015 -0.002247 -5.795279e-07 -0.9991939 0.0401444 0.481812 0.525721
0.23478 -0.736015 1.11775 0.001617119 -0.9979866 0.06340418 0.494398 0.526236
-0.36522 -0.736015 1.11775 -8.31094e-07 -0.999005 0.044598 0.494398 0.526236
-0.365219 -0.786014 -0.002248 -8.31094e-07 -0.999005 0.044598 0.481812 0.525721
0.23478 -0.756015 0.847752 0.002425869 -0.9973438 0.07279879 0.491356 0.526202
0.32478 -0.746015 0.977753 0.002425869 -0.9973438 0.07279879 0.492821 0.526214
0.35478 -0.736015 1.11775 0.002425869 -0.9973438 0.07279879 0.494398 0.526236
-0.36522 -0.736015 1.11775 0 -1 0 0.494398 0.526236
0.35478 -0.736015 1.11775 0 -1 0 0.494398 0.526236
0.32478 -0.736015 1.25775 0 -0.9995438 0.03020629 0.495965 0.526371
-0.33522 -0.736015 1.25775 0 -0.9981735 0.06041263 0.495965 0.526371
0.244779 -0.726015 1.36775 0 -0.9981735 0.06041263 0.497206 0.526364
-0.25522 -0.726015 1.36775 0 -0.9995438 0.03020629 0.497206 0.526364
0.134779 -0.726015 1.44775 0 -1 0 0.498102 0.526442
-0.145221 -0.726015 1.44775 0 -1 0 0.498102 0.526442
0.434781 -0.066015 0.317753 0 1 0 0.486082 0.517893
0.434781 -0.066015 -0.002247 0 1 0 0.4825 0.517585
0.234781 -0.066015 -0.002247 2.77327e-07 1 2.31107e-07 0.4825 0.517585
0.234781 -0.066015 0.317752 0 1 0 0.486082 0.517893
0.23478 -0.066015 0.717752 4.1599e-07 1 3.4666e-07 0.49056 0.518279
-0.365219 -0.066014 -0.002248 8.31981e-07 1 6.9332e-07 0.4825 0.517585
-0.36522 -0.066015 0.717752 4.1599e-07 1 3.4666e-07 0.49056 0.518279
0.14478 -0.066015 0.747752 0 1 0 0.490896 0.518308
0.23478 -0.066015 0.747752 0 1 0 0.490896 0.518308
-0.00522 -0.066015 0.717752 0 1 0 0.49056 0.518279
-0.00522 -0.066015 0.717752 0 1 0 0.49056 0.518279
-0.36522 -0.066015 0.747752 0 1 0 0.490896 0.518308
-0.15522 -0.066015 0.747752 0 1 0 0.490896 0.518308
-0.36522 -0.066015 0.837752 0 1 0 0.491904 0.518395
-0.28522 -0.066015 0.837752 0 1 0 0.491904 0.518395
0.23478 -0.086015 0.807752 -0.5547002 0 0.8320503 0.491549 0.518592
0.23478 -0.066015 0.807752 -0.5547002 0 0.8320503 0.491568 0.518366
0.14478 -0.066015 0.747752 -0.4426442 0 0.8966973 0.490896 0.518308
0.14478 -0.086015 0.747752 -0.3210641 0 0.9470575 0.490877 0.518534
-0.00522 -0.066015 0.717752 -0.06651911 0 0.9977852 0.49056 0.518279
-0.00522 -0.086015 0.717752 0.06651911 0 0.9977852 0.490541 0.518505
-0.15522 -0.066015 0.747752 0.3264959 0 0.9451987 0.490896 0.518308
-0.15522 -0.086015 0.747752 0.4531952 0 0.8914113 0.490877 0.518534
-0.28522 -0.066015 0.837752 0.6673343 0 0.7447583 0.491904 0.518395
-0.28522 -0.086015 0.837752 0.7563496 0 0.6541677 0.491885 0.518621
-0.36522 -0.066015 0.957752 0.8320503 0 0.5547002 0.493247 0.518511
-0.36522 -0.086015 0.957752 0.8320503 0 0.5547002 0.493228 0.518737
-0.36522 -0.086015 1.11775 0 -1 0 0.495019 0.518891
-0.36522 -0.086015 0.957752 0 -1 0 0.493228 0.518737
-0.08522 -0.086015 1.03775 0 -1 0 0.494123 0.518814
-0.11522 -0.086015 1.06775 0 -1 0 0.494459 0.518843
-0.33522 -0.086015 1.25775 0 -1 0 0.496586 0.519026
-0.12522 -0.086015 1.11775 0 -1 0 0.495019 0.518891
-0.25522 -0.086015 1.36775 0 -1 0 0.497818 0.519132
-0.11522 -0.086015 1.16775 0 -1 0 0.495579 0.518939
-0.145221 -0.086015 1.44775 0 -1 0 0.498713 0.51921
-0.08522 -0.086015 1.19775 0 -1 0 0.495915 0.518968
-0.005221 -0.086015 1.47775 0 1 0 0.499049 0.519239
-0.05522 -0.086015 1.22775 0 1 0 0.49625 0.518997
-0.08522 -0.086015 1.19775 0 1 0 0.495915 0.518968
-0.145221 -0.086015 1.44775 0 1 0 0.498713 0.51921
0.134779 -0.086015 1.44775 0 1 0 0.498713 0.51921
-0.00522 -0.086015 1.23775 0 1 0 0.496362 0.519007
0.24478 -0.086015 1.36775 0 1 0 0.497818 0.519132
0.04478 -0.086015 1.22775 0 1 0 0.49625 0.518997
0.32478 -0.086015 1.25775 0 1 0 0.496586 0.519026
0.07478 -0.086015 1.19775 0 1 0 0.495915 0.518968
0.35478 -0.086015 1.11775 0 1 0 0.495019 0.518891
0.10478 -0.086015 1.16775 0 1 0 0.495579 0.518939
0.32478 -0.086015 0.977753 0 1 0 0.493452 0.518756
0.11478 -0.086015 1.11775 0 1 0 0.495019 0.518891
0.23478 -0.086015 0.847752 0 1 0 0.491996 0.518631
0.10478 -0.086015 1.06775 0 1 0 0.494459 0.518843
0.23478 -0.086015 0.807752 0 1 0 0.491549 0.518592
0.07478 -0.086015 1.03775 0 1 0 0.494123 0.518814
0.14478 -0.086015 0.747752 0 1 0 0.490877 0.518534
0.04478 -0.086015 1.00775 0 1 0 0.493788 0.518785
-0.00522 -0.086015 0.717752 0 1 0 0.490541 0.518505
-0.00522 -0.086015 0.997752 0 1 0 0.493676 0.518775
-0.15522 -0.086015 0.747752 0 1 0 0.490877 0.518534
-0.05522 -0.086015 1.00775 0 1 0 0.493788 0.518785
-0.28522 -0.086015 0.837752 0 1 0 0.491885 0.518621
-0.08522 -0.086015 1.03775 0 1 0 0.494123 0.518814
-0.00522 -0.086015 0.997752 0.191753 0 0.9814432 0.493676 0.518775
-0.05522 -0.086015 1.00775 0.196115 0 0.9805809 0.493788 0.518785
-0.05522 -0.316015 1.00775 0.193927 0 0.981016 0.493568 0.521384
-0.00522 -0.316015 0.997752 0.1888481 0 0.9820064 0.493456 0.521374
-0.05522 -0.086015 1.00775 0.7071078 0 0.7071058 0.493788 0.518785
-0.08522 -0.086015 1.03775 0.7071078 0 0.7071058 0.494123 0.518814
-0.08522 -0.316015 1.03775 0.7071078 0 0.7071058 0.493904 0.521413
-0.05522 -0.316015 1.00775 0.7071078 0 0.7071058 0.493568 0.521384
-0.08522 -0.086015 1.03775 -0.7071063 0 -0.7071073 0.494123 0.518814
-0.08522 -0.316015 1.03775 -0.7071063 0 -0.7071073 0.493904 0.521413
-0.11522 -0.316015 1.06775 -0.7071063 0 -0.7071073 0.494239 0.521442
-0.11522 -0.086015 1.06775 -0.7071063 0 -0.7071073 0.494459 0.518843
-0.11522 -0.086015 1.06775 -0.9805807 0 -0.196116 0.494459 0.518843
-0.11522 -0.316015 1.06775 -0.9805807 0 -0.196116 0.494239 0.521442
-0.12522 -0.316015 1.11775 -0.9977852 0 -0.06651922 0.494799 0.52149
-0.12522 -0.086015 1.11775 -0.9977852 0 0.06651872 0.495019 0.518891
-0.11522 -0.316015 1.16775 -0.9805807 0 0.196116 0.495359 0.521538
-0.11522 -0.086015 1.16775 -0.9805807 0 0.196116 0.495579 0.518939
-0.11522 -0.086015 1.16775 -0.7071063 0 0.7071073 0.495579 0.518939
-0.11522 -0.316015 1.16775 -0.7071063 0 0.7071073 0.495359 0.521538
-0.08522 -0.316015 1.19775 -0.7071063 0 0.7071073 0.495695 0.521567
-0.08522 -0.086015 1.19775 -0.7071063 0 0.7071073 0.495915 0.518968
-0.08522 -0.086015 1.19775 0.7071063 0 -0.7071073 0.495915 0.518968
-0.05522 -0.086015 1.22775 0.7071063 0 -0.7071073 0.49625 0.518997
-0.05522 -0.316015 1.22775 0.7071063 0 -0.7071073 0.496031 0.521596
-0.08522 -0.316015 1.19775 0.7071063 0 -0.7071073 0.495695 0.521567
-0.05522 -0.086015 1.22775 0.196116 0 -0.9805807 0.49625 0.518997
-0.00522 -0.086015 1.23775 -0.06651901 0 -0.9977852 0.496362 0.519007
-0.00522 -0.316015 1.23775 0.06651901 0 -0.9977852 0.496143 0.521606
-0.05522 -0.316015 1.22775 0.196116 0 -0.9805807 0.496031 0.521596
0.04478 -0.086015 1.22775 -0.196116 0 -0.9805807 0.49625 0.518997
0.04478 -0.316015 1.22775 -0.196116 0 -0.9805807 0.496031 0.521596
0.04478 -0.086015 1.22775 -0.7071063 0 -0.7071073 0.49625 0.518997
0.07478 -0.086015 1.19775 -0.7071063 0 -0.7071073 0.495915 0.518968
0.07478 -0.316015 1.19775 -0.7071063 0 -0.7071073 0.495695 0.521567
0.04478 -0.316015 1.22775 -0.7071063 0 -0.7071073 0.496031 0.521596
0.10478 -0.086015 1.16775 -0.7071063 0 -0.7071073 0.495579 0.518939
0.10478 -0.316015 1.16775 -0.7071063 0 -0.7071073 0.495359 0.521538
0.10478 -0.086015 1.16775 -0.9805807 0 -0.196116 0.495579 0.518939
0.11478 -0.086015 1.11775 -0.9977852 0 0.06651922 0.495019 0.518891
0.11478 -0.316015 1.11775 -0.9977852 0 -0.06651872 0.494799 0.52149
0.10478 -0.316015 1.16775 -0.9805807 0 -0.196116 0.495359 0.521538
0.10478 -0.086015 1.06775 -0.9805807 0 0.196116 0.494459 0.518843
0.10478 -0.316015 1.06775 -0.9805807 0 0.196116 0.494239 0.521442
0.10478 -0.086015 1.06775 -0.7071063 0 0.7071073 0.494459 0.518843
0.07478 -0.086015 1.03775 -0.7071073 0 0.7071063 0.494123 0.518814
0.07478 -0.316015 1.03775 -0.7071068 0 0.7071068 0.493904 0.521413
0.10478 -0.316015 1.06775 -0.7071063 0 0.7071073 0.494239 0.521442
0.04478 -0.086015 1.00775 -0.7071078 0 0.7071058 0.493788 0.518785
0.04478 -0.316015 1.00775 -0.7071078 0 0.7071058 0.493568 0.521384
0.04478 -0.086015 1.00775 0.187403 0 0.9822831 0.493788 0.518785
0.04478 -0.316015 1.00775 0.187403 0 0.9822831 0.493568 0.521384
-0.00522 -0.576015 1.35775 -0.109117 0 -0.994029 0.497238 0.52466
-0.00522 -0.316015 1.35775 -0.109117 0 -0.994029 0.497486 0.521722
0.08478 -0.316015 1.33775 -0.325451 0 -0.9455589 0.497262 0.521702
0.08478 -0.576015 1.33775 -0.4311602 0 -0.9022754 0.497014 0.524641
0.16478 -0.316015 1.28775 -0.650791 0 -0.759257 0.496702 0.521654
0.16478 -0.576015 1.28775 -0.759257 0 -0.650791 0.496454 0.524592
0.21478 -0.316015 1.20775 -0.902275 0 -0.431161 0.495807 0.521577
0.21478 -0.576015 1.20775 -0.9455586 0 -0.3254519 0.495558 0.524515
0.23478 -0.316015 1.11775 -0.9975574 -0.001501751 -0.06983543 0.494799 0.52149
0.23478 -0.576015 1.11775 -0.9966097 -0.003003509 0.08221908 0.494551 0.524428
-0.20522 -0.576015 1.35775 0 0 -1 0.497238 0.52466
-0.20522 -0.316015 1.35775 0 0 -1 0.497486 0.521722
0.21478 -0.316015 1.03775 -0.9734078 -0.00440456 0.229037 0.493904 0.521413
0.21478 -0.576015 1.02775 -0.9734077 -0.004404559 0.2290369 0.493543 0.524341
-0.00522 -0.576015 1.11775 0 1 0 0.494551 0.524428
-0.20522 -0.576015 1.03775 0 1 0 0.493655 0.524351
-0.20522 -0.576015 1.35775 0 1 0 0.497238 0.52466
-0.00522 -0.576015 1.35775 0 1 0 0.497238 0.52466
0.23478 -0.576015 1.11775 0 1 0 0.494551 0.524428
0.21478 -0.576015 1.02775 0 1 0 0.493543 0.524341
-0.00522 -0.316015 1.23775 0 -1 0 0.496143 0.521606
0.04478 -0.316015 1.22775 0 -1 0 0.496031 0.521596
0.08478 -0.316015 1.33775 0 -1 0 0.497262 0.521702
-0.00522 -0.316015 1.35775 0 -1 0 0.497486 0.521722
0.07478 -0.316015 1.19775 0 -1 0 0.495695 0.521567
0.16478 -0.316015 1.28775 0 -1 0 0.496702 0.521654
0.10478 -0.316015 1.16775 0 -1 0 0.495359 0.521538
0.21478 -0.316015 1.20775 0 -1 0 0.495807 0.521577
0.11478 -0.316015 1.11775 0 -1 0 0.494799 0.52149
0.23478 -0.316015 1.11775 0 -1 0 0.494799 0.52149
-0.20522 -0.316015 1.35775 0 -1 0 0.497486 0.521722
-0.12522 -0.316015 1.23775 0 -1 0 0.496143 0.521606
-0.12522 -0.316015 0.997752 0 -1 0 0.493456 0.521374
-0.20522 -0.316015 0.977752 0 -1 0 0.493232 0.521355
0.11478 -0.316015 0.997752 0 -1 0 0.493456 0.521374
0.18478 -0.316015 0.977752 0 -1 0 0.493232 0.521355
0.21478 -0.316015 1.02775 0 -1 0 0.493792 0.521403
-0.20522 -0.626015 1.10775 -1 0 0 0.494391 0.524984
-0.20522 -0.646015 1.19775 -1 0 0 0.495379 0.525296
-0.20522 -0.576015 1.35775 -1 0 0 0.497238 0.52466
-0.20522 -0.576015 1.03775 -1 0 0 0.493655 0.524351
-0.20522 -0.626015 1.28775 -1 0 0 0.496406 0.525157
-0.205221 -0.406015 1.43775 -1 -1.08519e-06 -1.19371e-05 0.498296 0.522816
-0.205221 -0.316015 1.41775 -1 1.66511e-07 -1.50721e-05 0.498158 0.52178
-0.20522 -0.446015 1.35775 -1 -4.5934e-07 -1.35046e-05 0.497362 0.523191
-0.20522 -0.576015 1.35775 -1 -1.08519e-06 -1.19371e-05 0.497238 0.52466
-0.20522 -0.236015 1.36775 -1 3.96181e-07 -8.31981e-06 0.497674 0.520827
-0.20522 -0.316015 1.35775 -1 3.16945e-07 -6.65585e-06 0.497486 0.521722
-0.20522 -0.186015 1.28775 -1 0 0 0.496827 0.520185
-0.20522 -0.166015 1.19775 -1 0 0 0.495838 0.519872
-0.20522 -0.186015 1.10775 -1 0 0 0.494812 0.520012
-0.20522 -0.316015 1.16775 -1 0 0 0.495359 0.521538
-0.20522 -0.236015 1.02775 -1 0 0 0.493868 0.520499
-0.20522 -0.316015 0.977752 -1 0 0 0.493232 0.521355
-0.36522 -0.496015 0.977752 0 0.3254519 0.9455586 0.49306 0.523389
0.23478 -0.496015 0.977752 0 0.431161 0.902275 0.49306 0.523389
0.23478 -0.406015 0.957752 -9.38215e-08 6.10586e-07 1 0.492922 0.522353
-0.36522 -0.406015 0.957752 -9.38215e-08 6.10586e-07 1 0.492922 0.522353
-0.36522 -0.576015 1.02775 0 0.7071068 0.7071068 0.493543 0.524341
0.23478 -0.576015 1.02775 0 0.7071068 0.7071068 0.493543 0.524341
-0.36522 -0.626015 1.10775 0 0.8479982 0.5299991 0.494391 0.524984
0.23478 -0.626015 1.10775 0 0.8479982 0.5299991 0.494391 0.524984
-0.34522 -0.646015 1.19775 0.000195817 0.9960437 0.08886378 0.495379 0.525296
-0.20522 -0.646015 1.19775 -0.007371127 0.9984506 -0.05515578 0.495379 0.525296
-0.20522 -0.626015 1.10775 0.007600219 0.9736299 0.228007 0.494391 0.524984
-0.36522 -0.626015 1.11775 0.007594313 0.9736713 0.2278301 0.494503 0.524993
-0.33522 -0.636015 1.25775 -0.0146115 0.9806207 -0.19537 0.496061 0.525241
-0.20522 -0.626015 1.28775 -0.02800021 0.8999133 -0.4351691 0.496406 0.525157
-0.25522 -0.576015 1.36775 -0.03405701 0.8378012 -0.5449122 0.49735 0.524669
-0.20522 -0.576015 1.35775 -0.03405701 0.8378012 -0.5449122 0.497238 0.52466
-0.31522 -0.626015 1.28775 -0.0339428 0.838281 -0.544181 0.496406 0.525157
-0.25522 -0.236015 1.36775 0 -0.8472131 -0.5312531 0.497674 0.520827
-0.20522 -0.236015 1.36775 0 -0.8476053 -0.5306272 0.497674 0.520827
-0.205221 -0.296015 1.40775 0 -0.5547009 -0.8320499 0.498065 0.521544
-0.31522 -0.186015 1.28775 -0.00654441 -0.8989341 -0.438035 0.496827 0.520185
-0.20522 -0.186015 1.28775 -0.0130888 -0.9403019 -0.34009 0.496827 0.520185
-0.33522 -0.176015 1.25775 -0.0106874 -0.996174 -0.08673551 0.4965 0.520043
-0.20522 -0.166015 1.19775 -0.00147613 -0.9974073 0.07194752 0.495838 0.519872
-0.34522 -0.166015 1.19775 0.007566592 -0.9740812 0.2260721 0.495838 0.519872
-0.36522 -0.186015 1.11775 0.007594313 -0.9736713 0.2278301 0.494923 0.520021
-0.20522 -0.186015 1.10775 0.007570583 -0.9739994 0.2264241 0.494812 0.520012
-0.36522 -0.186015 1.10775 0 -0.8479982 0.5299991 0.494812 0.520012
-0.36522 -0.236015 1.02775 -1.14696e-06 -0.6507931 0.7592551 0.493868 0.520499
-0.20522 -0.236015 1.02775 -5.73479e-07 -0.759257 0.650791 0.493868 0.520499
-0.20522 -0.186015 1.10775 0 -0.8479982 0.5299991 0.494812 0.520012
-0.36522 -0.316014 0.977752 -1.681331e-06 -0.5300022 0.8479963 0.493232 0.521355
-0.20522 -0.316015 0.977752 -1.681331e-06 -0.5300022 0.8479963 0.493232 0.521355
-0.36522 -0.316014 0.977752 -1.831751e-07 -0.2169291 0.9761874 0.493232 0.521355
0.23478 -0.316015 0.977752 -1.831751e-07 -0.2169291 0.9761874 0.493232 0.521355
-0.205221 -0.496015 1.41775 0 -0.2169831 0.9761754 0.497986 0.523814
-0.185221 -0.496015 1.41775 0 -0.2170359 0.9761636 0.497986 0.523814
-0.155221 -0.406015 1.43775 0 -0.07387158 0.9972678 0.498296 0.522816
-0.205221 -0.406015 1.43775 0 0.07387158 0.9972678 0.498296 0.522816
-0.185221 -0.316015 1.41775 0 0.2169831 0.9761754 0.498158 0.52178
-0.205221 -0.316015 1.41775 0 0.2170359 0.9761636 0.498158 0.52178
-0.20522 -0.086015 1.40775 -0.5316702 -0.009408204 0.8468993 0.498266 0.519171
-0.205221 -0.296015 1.40775 -0.5316702 -0.009408203 0.8468992 0.498065 0.521544
-0.185221 -0.316015 1.41775 -0.5319228 -0.009398166 0.8467407 0.498158 0.52178
-0.145221 -0.086015 1.44775 -0.5321721 -0.009388272 0.8465842 0.498713 0.51921
-0.145221 -0.726015 1.44775 -0.5319183 0.009399977 0.8467435 0.498102 0.526442
-0.185221 -0.496015 1.41775 -0.5321672 0.009390052 0.8465872 0.497986 0.523814
-0.205221 -0.516015 1.40775 -0.5316659 0.009410009 0.8469019 0.497855 0.52403
-0.205221 -0.726015 1.40775 -0.5316659 0.009410009 0.8469019 0.497654 0.526403
-0.145221 -0.086015 1.44775 -0.2095291 0 0.9778025 0.498713 0.51921
-0.145221 -0.726015 1.44775 -0.2095291 0 0.9778025 0.498102 0.526442
-0.005221 -0.726015 1.47775 -0.07124698 0 0.9974588 0.498437 0.52647
-0.005221 -0.086015 1.47775 0.07124698 0 0.9974588 0.499049 0.519239
0.134779 -0.726015 1.44775 0.3423472 -1.563651e-07 0.9395735 0.498102 0.526442
0.134779 -0.086015 1.44775 0.4710439 -3.127309e-07 0.8821098 0.498713 0.51921
0.244779 -0.726015 1.36775 0.5881702 -4.600462e-07 0.8087372 0.497206 0.526364
0.24478 -0.086015 1.36775 0.5881702 -4.600462e-07 0.8087372 0.497818 0.519132
-0.36522 -0.746015 0.957752 -1 0 0 0.492597 0.526195
-0.36522 -0.736015 1.11775 -0.985742 0.0136903 0.167706 0.494398 0.526236
-0.36522 -0.576015 1.02775 -1 0 0 0.493543 0.524341
-0.36522 -0.496015 0.977752 -1 0 0 0.49306 0.523389
-0.33522 -0.736015 1.25775 -0.8606262 -0.0005084441 0.5092371 0.495965 0.526371
-0.34522 -0.646015 1.19775 -0.9746808 0.0181522 0.2228629 0.495379 0.525296
-0.36522 -0.626015 1.11775 -0.9746669 0.0181975 0.22292 0.494503 0.524993
-0.25522 -0.726015 1.36775 -0.801672 -0.00667469 0.597727 0.497206 0.526364
-0.25522 -0.576015 1.36775 -0.8028911 -0.00670339 0.5960881 0.49735 0.524669
-0.31522 -0.626015 1.28775 -0.8041213 -0.006732412 0.5944272 0.496406 0.525157
-0.36522 -0.086015 1.11775 -0.9984129 -0.00509882 0.05608699 0.495019 0.518891
-0.36522 -0.086015 0.957752 -1 0 0 0.493228 0.518737
-0.36522 -0.316014 0.977752 -1 0 0 0.493232 0.521355
-0.36522 -0.236015 1.02775 -1 0 0 0.493868 0.520499
-0.33522 -0.086015 1.25775 -0.9469069 -0.0136289 0.321219 0.496586 0.519026
-0.36522 -0.186015 1.11775 -0.9745942 -0.0202377 0.223062 0.494923 0.520021
-0.34522 -0.166015 1.19775 -0.9746066 -0.02019239 0.2230119 0.495838 0.519872
-0.25522 -0.086015 1.36775 -0.8025937 0.006936338 0.5964857 0.497818 0.519132
-0.31522 -0.186015 1.28775 -0.8030339 0.006939239 0.595893 0.496827 0.520185
-0.25522 -0.236015 1.36775 -0.8018101 0.00690805 0.5975391 0.497674 0.520827
-0.365219 -0.066014 0.157752 -1 0 -7.03666e-07 0.484291 0.517739
-0.365219 -0.066014 -0.002248 -1 0 0 0.4825 0.517585
-0.365219 -0.786014 -0.002248 -1 0 0 0.481812 0.525721
-0.365219 -0.776014 0.157752 -1 0 -1.0555e-06 0.483612 0.525762
-0.36522 -0.066014 0.637752 -1 0 -1.0555e-06 0.489665 0.518202
-0.365219 -0.166014 0.157752 -1 0 -2.08206e-06 0.484195 0.518869
-0.36522 -0.166014 0.637752 -1 -1.47881e-07 -2.27079e-06 0.489569 0.519332
-0.365219 -0.646014 0.157752 -1 0 -2.08206e-06 0.483737 0.524293
-0.36522 -0.756014 0.637752 -1 0 -1.40733e-06 0.489005 0.525999
-0.36522 -0.646014 0.637752 -1 1.97174e-08 -2.14263e-06 0.48911 0.524756
-0.36522 -0.746015 0.957752 -1 0 0 0.492597 0.526195
-0.36522 -0.066015 0.957752 -1 0 0 0.493247 0.518511
0.234781 -0.776015 0.317752 -4.91738e-06 0 1 0.485404 0.525916
0.434781 -0.776015 0.317753 -4.91738e-06 0 1 0.485404 0.525916
0.434781 -0.066015 0.317753 -4.91738e-06 0 1 0.486082 0.517893
0.234781 -0.066015 0.317752 -4.91738e-06 0 1 0.486082 0.517893
0.434781 -0.776015 0.317753 1 0 0 0.485404 0.525916
0.434781 -0.786015 -0.002247 1 0 0 0.481812 0.525721
0.434781 -0.066015 -0.002247 1 0 0 0.4825 0.517585
0.434781 -0.066015 0.317753 1 0 0 0.486082 0.517893
0.234781 -0.776015 0.317752 1 0 2.03751e-06 0.405449 0.457015
0.234781 -0.066015 0.317752 1 0 2.03751e-06 0.480191 0.457015
0.23478 -0.066015 0.807752 1 0 2.03751e-06 0.480191 0.489254
0.23478 -0.756015 0.807752 1 0 6.79169e-07 0.407554 0.489254
0.23478 -0.086015 0.807752 1 0 0 0.478086 0.489254
0.23478 -0.086015 0.847752 1 0 0 0.478086 0.491886
0.23478 -0.756015 0.847752 1 0 0 0.407554 0.491886
0.32478 -0.746015 0.977753 0.8401682 0 -0.5423261 0.408607 0.500439
0.23478 -0.756015 0.847752 0.8221942 0 -0.5692071 0.407554 0.491886
0.23478 -0.086015 0.847752 0.831582 0 -0.555402 0.478086 0.491886
0.32478 -0.086015 0.977753 0.8617142 0 -0.5073941 0.478086 0.500439
0.35478 -0.736015 1.11775 0.8917787 0 -0.4524719 0.40966 0.509651
0.35478 -0.086015 1.11775 0.8984089 0 -0.4391599 0.478086 0.509651
0.32478 -0.086015 1.25775 0.9949107 -3.622649e-07 0.100761 0.478086 0.518862
0.32478 -0.736015 1.25775 0.9949107 -3.622649e-07 0.100761 0.40966 0.518862
0.244779 -0.726015 1.36775 0.8087343 -6.259093e-07 0.5881742 0.410713 0.526099
0.24478 -0.086015 1.36775 0.8087343 -6.259093e-07 0.5881742 0.478086 0.526099
-0.205219 -0.166014 0.157752 1 0 0 0.484195 0.518869
-0.205219 -0.166014 0.397752 1 0 0 0.486882 0.519101
-0.205219 -0.186015 0.307752 1 0 0 0.485856 0.51924
-0.205219 -0.236015 0.227752 1 0 0 0.484912 0.519728
-0.205219 -0.316014 0.177752 1 0 0 0.484276 0.520583
-0.205219 -0.406015 0.157752 1 0 0 0.483966 0.521581
-0.205219 -0.646014 0.157752 1 0 0 0.483737 0.524293
-0.205219 -0.406015 0.157752 1 0 0 0.483966 0.521581
-0.205219 -0.496015 0.177752 1 0 0 0.484104 0.522617
-0.205219 -0.576015 0.227752 1 0 0 0.484587 0.523569
-0.205219 -0.626015 0.307752 1 0 0 0.485435 0.524212
-0.205219 -0.646014 0.397752 1 0 0 0.486423 0.524525
-0.205219 -0.646014 0.397752 1 -1.87205e-05 4.15991e-06 0.486423 0.524525
-0.205219 -0.626015 0.487752 1 -1.43655e-06 6.46432e-06 0.48745 0.524385
-0.20522 -0.576015 0.567752 1 3.83994e-06 3.83989e-06 0.488394 0.523898
-0.20522 -0.496015 0.617752 1 0 0 0.48903 0.523042
-0.20522 -0.406015 0.637752 1 0 0 0.48934 0.522044
-0.20522 -0.406015 0.637752 1 0 0 0.48934 0.522044
-0.20522 -0.316015 0.617752 1 -1.43651e-06 1.07739e-05 0.489202 0.521008
-0.205219 -0.236015 0.567752 1 3.29136e-06 1.09712e-05 0.488719 0.520056
-0.205219 -0.186015 0.487752 1 1.22102e-05 5.02782e-06 0.487871 0.519413
-0.205219 -0.166014 0.397752 1 1.8719e-05 4.15998e-06 0.486882 0.519101
-0.005221 -0.726015 1.47775 0 -1 0 0.498437 0.52647
0.23478 -0.066015 0.807752 0 1 0 0.491568 0.518366
-0.36522 -0.066015 0.957752 0 1 0 0.493247 0.518511
-0.36522 -0.086015 0.957752 0 1 0 0.493228 0.518737
0.21478 -0.316015 1.02775 -0.8574933 0 0.5144952 0.493792 0.521403
0.18478 -0.496015 0.977752 -0.8360482 0 0.5486561 0.49306 0.523389
0.21478 -0.576015 1.02775 -0.8574933 0 0.5144952 0.493543 0.524341
0.18478 -0.316015 0.977752 -0.8137338 0 0.5812379 0.493232 0.521355
0.16478 -0.406015 0.957752 -0.7071068 0 0.7071068 0.492922 0.522353
0.08478 -0.576015 1.33775 0 1 0 0.497014 0.524641
0.16478 -0.576015 1.28775 0 1 0 0.496454 0.524592
0.21478 -0.576015 1.20775 0 1 0 0.495558 0.524515
0.10478 -0.316015 1.06775 0 -1 0 0.494239 0.521442
0.07478 -0.316015 1.03775 0 -1 0 0.493904 0.521413
0.04478 -0.316015 1.00775 0 -1 0 0.493568 0.521384
-0.00522 -0.316015 0.997752 0 -1 0 0.493456 0.521374
-0.00522 -0.316015 0.997752 0 -1 0 0.493456 0.521374
-0.05522 -0.316015 1.00775 0 -1 0 0.493568 0.521384
-0.08522 -0.316015 1.03775 0 -1 0 0.493904 0.521413
-0.11522 -0.316015 1.06775 0 -1 0 0.494239 0.521442
-0.12522 -0.316015 1.11775 0 -1 0 0.494799 0.52149
-0.12522 -0.316015 1.23775 0 1 0 0.496143 0.521606
-0.11522 -0.316015 1.16775 0 1 0 0.495359 0.521538
-0.12522 -0.316015 1.11775 0 1 0 0.494799 0.52149
-0.08522 -0.316015 1.19775 0 1 0 0.495695 0.521567
-0.05522 -0.316015 1.22775 0 1 0 0.496031 0.521596
-0.00522 -0.316015 1.23775 0 1 0 0.496143 0.521606
-0.36522 -0.626015 1.10775 0 1 0 0.494391 0.524984
-0.205221 -0.516015 1.40775 0 -0.447214 0.894427 0.497855 0.52403
-0.205221 -0.296015 1.40775 0 0.4472132 0.8944274 0.498065 0.521544
-0.36522 -0.186015 1.10775 0 -1 0 0.494812 0.520012
-0.145221 -0.086015 1.44775 -0.7071063 0 0.7071073 0.498713 0.51921
-0.155221 -0.406015 1.43775 -0.7071063 0 0.7071073 0.498296 0.522816
-0.145221 -0.726015 1.44775 -0.7071063 0 0.7071073 0.498102 0.526442
-0.155221 -0.406015 1.43775 -0.5708177 0.007819407 0.8210396 0.498296 0.522816
-0.155221 -0.406015 1.43775 -0.5708177 -0.007819407 0.8210396 0.498296 0.522816
-0.36522 -0.406015 0.957752 -1 0 0 0.492922 0.522353
-0.36522 -0.626015 1.10775 -0.975077 0.0180515 0.221131 0.494391 0.524984
-0.33522 -0.636015 1.25775 -0.8057521 -0.006696101 0.5922151 0.496061 0.525241
-0.185221 -0.496015 1.41775 -0.5812442 0 0.8137292 0.497986 0.523814
-0.25522 -0.726015 1.36775 0.5881612 -0.006892253 -0.8087143 0.497206 0.526364
-0.155221 -0.406015 1.43775 0.5881612 -0.006892253 -0.8087143 0.498296 0.522816
-0.145221 -0.726015 1.44775 0.5881612 -0.006892253 -0.8087143 0.498102 0.526442
-0.36522 -0.406015 0.957752 -1 0 0 0.492922 0.522353
-0.36522 -0.186015 1.10775 -1 0 0 0.494812 0.520012
-0.33522 -0.176015 1.25775 -0.9743509 -0.0201313 0.224132 0.4965 0.520043
-0.185221 -0.316015 1.41775 -0.8018101 0.00690805 0.5975391 0.498158 0.52178
-0.145221 -0.086015 1.44775 0.5881612 0.006892243 -0.8087143 0.498713 0.51921
-0.155221 -0.406015 1.43775 0.5881612 0.006892243 -0.8087143 0.498296 0.522816
-0.25522 -0.086015 1.36775 0.5881612 0.006892243 -0.8087143 0.497818 0.519132
-0.36522 -0.406015 0.957752 0 0 0 0.492922 0.522353
-0.36522 -0.086015 0.957752 0 0 0 0.493228 0.518737
-0.36522 -0.746015 0.957752 0 0 0 0.492597 0.526195
-0.365219 -0.186014 0.307752 -1 0 0 0.485856 0.51924
-0.365219 -0.166014 0.397752 -1 0 0 0.486882 0.519101
-0.365219 -0.236014 0.227752 -1 0 0 0.484912 0.519728
-0.365219 -0.316014 0.177752 -1 0 0 0.484276 0.520583
-0.365219 -0.406015 0.157752 -1 0 0 0.483966 0.521581
-0.365219 -0.496015 0.177752 -1 0 0 0.484104 0.522617
-0.365219 -0.406015 0.157752 -1 0 0 0.483966 0.521581
-0.365219 -0.576015 0.227752 -1 0 0 0.484587 0.523569
-0.365219 -0.626014 0.307752 -1 0 0 0.485435 0.524212
-0.365219 -0.646014 0.397752 -1 0 0 0.486423 0.524525
-0.365219 -0.626014 0.487752 -1 1.45797e-06 -6.5608e-06 0.48745 0.524385
-0.365219 -0.646014 0.397752 -1 1.8999e-05 -4.222e-06 0.486423 0.524525
-0.36522 -0.576015 0.567752 -1 -3.89727e-06 -3.89721e-06 0.488394 0.523898
-0.36522 -0.496015 0.617752 -1 0 0 0.48903 0.523042
-0.36522 -0.406015 0.637752 -1 0 0 0.48934 0.522044
-0.36522 -0.316014 0.617752 -1 1.45795e-06 -1.09347e-05 0.489202 0.521008
-0.36522 -0.406015 0.637752 -1 0 0 0.48934 0.522044
-0.365219 -0.236015 0.567752 -1 -3.34046e-06 -1.11349e-05 0.488719 0.520056
-0.365219 -0.186014 0.487752 -1 -1.23925e-05 -5.10286e-06 0.487871 0.519413
-0.365219 -0.166014 0.397752 -1 -1.8999e-05 -4.222e-06 0.486882 0.519101
3 0 1 2 
3 0 2 3 
3 4 5 6 
3 4 6 7 
3 8 9 10 
3 8 10 11 
3 12 13 14 
3 12 14 15 
3 16 17 18 
3 16 18 19 
3 20 21 22 
3 20 22 23 
3 24 25 26 
3 24 26 27 
3 28 29 30 
3 28 30 31 
3 32 33 34 
3 32 34 35 
3 36 37 38 
3 36 38 39 
3 40 41 42 
3 40 42 43 
3 41 44 45 
3 41 45 42 
3 44 46 47 
3 44 47 45 
3 46 48 49 
3 46 49 47 
3 48 50 51 
3 48 51 49 
3 50 52 53 
3 50 53 51 
3 52 54 55 
3 52 55 53 
3 54 56 57 
3 54 57 55 
3 56 58 59 
3 56 59 57 
3 58 60 61 
3 58 61 59 
3 60 62 63 
3 60 63 61 
3 62 64 65 
3 62 65 63 
3 64 66 67 
3 64 67 65 
3 66 68 69 
3 66 69 67 
3 68 70 71 
3 68 71 69 
3 70 40 43 
3 70 43 71 
3 72 73 74 
3 72 74 75 
3 75 74 76 
3 75 76 77 
3 77 76 78 
3 77 78 79 
3 79 78 73 
3 79 73 72 
3 80 81 82 
3 80 82 83 
3 83 84 85 
3 83 85 86 
3 84 87 88 
3 84 88 89 
3 90 91 92 
3 90 92 93 
3 93 92 94 
3 93 94 95 
3 95 94 96 
3 95 96 97 
3 98 99 100 
3 98 100 101 
3 102 100 103 
3 102 103 104 
3 105 106 102 
3 105 102 107 
3 108 104 109 
3 108 109 110 
3 110 109 111 
3 110 111 112 
3 113 114 115 
3 113 115 116 
3 116 115 117 
3 116 117 118 
3 118 117 119 
3 118 119 120 
3 120 119 121 
3 120 121 122 
3 122 121 123 
3 122 123 124 
3 125 126 127 
3 125 127 128 
3 129 125 128 
3 129 128 130 
3 131 129 130 
3 131 130 132 
3 133 131 132 
3 133 132 134 
3 135 136 137 
3 135 137 138 
3 139 140 136 
3 139 136 135 
3 141 142 140 
3 141 140 139 
3 143 144 142 
3 143 142 141 
3 145 146 144 
3 145 144 143 
3 147 148 146 
3 147 146 145 
3 149 150 148 
3 149 148 147 
3 151 152 150 
3 151 150 149 
3 153 154 152 
3 153 152 151 
3 155 156 154 
3 155 154 153 
3 157 158 156 
3 157 156 155 
3 159 160 158 
3 159 158 157 
3 161 162 163 
3 161 163 164 
3 165 166 167 
3 165 167 168 
3 169 170 171 
3 169 171 172 
3 173 174 175 
3 173 175 176 
3 176 175 177 
3 176 177 178 
3 179 180 181 
3 179 181 182 
3 183 184 185 
3 183 185 186 
3 187 188 189 
3 187 189 190 
3 188 191 192 
3 188 192 189 
3 193 194 195 
3 193 195 196 
3 194 197 198 
3 194 198 195 
3 199 200 201 
3 199 201 202 
3 200 203 204 
3 200 204 201 
3 205 206 207 
3 205 207 208 
3 206 209 210 
3 206 210 207 
3 211 161 164 
3 211 164 212 
3 213 214 215 
3 213 215 216 
3 216 215 217 
3 216 217 218 
3 218 217 219 
3 218 219 220 
3 220 219 221 
3 220 221 222 
3 213 223 224 
3 213 224 214 
3 222 221 225 
3 222 225 226 
3 227 228 229 
3 227 229 230 
3 227 231 232 
3 227 232 228 
3 233 234 235 
3 233 235 236 
3 234 237 238 
3 234 238 235 
3 237 239 240 
3 237 240 238 
3 239 241 242 
3 239 242 240 
3 236 243 244 
3 236 244 233 
3 245 244 243 
3 245 243 246 
3 247 245 246 
3 247 246 248 
3 242 241 247 
3 242 247 249 
3 250 251 252 
3 250 252 253 
3 254 252 251 
3 255 256 257 
3 255 257 258 
3 256 259 260 
3 256 260 257 
3 261 262 260 
3 261 260 259 
3 262 263 264 
3 262 264 260 
3 265 266 264 
3 265 264 263 
3 267 268 269 
3 267 269 270 
3 271 272 268 
3 271 268 267 
3 271 273 274 
3 271 274 272 
3 275 276 277 
3 275 277 278 
3 279 280 276 
3 279 276 275 
3 281 282 280 
3 281 280 283 
3 284 285 286 
3 287 288 285 
3 287 285 284 
3 289 290 288 
3 289 288 287 
3 291 292 293 
3 291 293 290 
3 294 295 296 
3 294 296 297 
3 295 298 299 
3 295 299 296 
3 300 270 269 
3 300 269 301 
3 302 303 304 
3 302 304 305 
3 305 304 306 
3 305 306 307 
3 308 309 310 
3 308 310 311 
3 312 313 314 
3 312 314 315 
3 316 317 318 
3 316 318 319 
3 319 318 320 
3 319 320 321 
3 321 320 322 
3 321 322 323 
3 324 325 326 
3 324 326 327 
3 325 328 329 
3 325 329 330 
3 328 331 332 
3 328 332 333 
3 334 335 336 
3 334 336 337 
3 338 334 339 
3 338 339 340 
3 341 338 342 
3 341 342 343 
3 344 345 346 
3 344 346 347 
3 348 344 349 
3 348 349 350 
3 351 347 352 
3 351 352 353 
3 348 352 354 
3 348 354 355 
3 356 357 358 
3 356 358 359 
3 360 361 362 
3 360 362 363 
3 364 365 366 
3 364 366 367 
3 367 368 369 
3 367 369 370 
3 371 372 373 
3 371 373 374 
3 375 371 374 
3 375 374 376 
3 375 376 377 
3 375 377 378 
3 379 378 377 
3 379 377 380 
3 381 382 383 
3 381 383 384 
3 381 384 385 
3 381 385 386 
3 387 388 389 
3 387 389 390 
3 387 390 391 
3 387 391 392 
3 4 393 394 
3 4 394 395 
3 4 395 396 
3 4 396 397 
3 7 398 399 
3 7 399 400 
3 7 400 401 
3 7 401 402 
3 97 96 403 
3 404 106 105 
3 112 111 405 
3 159 406 160 
3 407 408 409 
3 407 410 408 
3 410 411 408 
3 227 230 412 
3 227 412 413 
3 227 413 414 
3 227 414 231 
3 247 241 415 
3 247 415 416 
3 247 416 417 
3 247 417 418 
3 245 419 420 
3 245 420 421 
3 245 421 422 
3 245 422 423 
3 424 425 426 
3 424 427 425 
3 424 428 427 
3 424 429 428 
3 249 247 248 
3 430 278 277 
3 279 283 280 
3 431 303 302 
3 306 432 307 
3 289 291 290 
3 292 433 293 
3 434 435 436 
3 313 312 437 
3 438 311 310 
3 324 327 439 
3 325 440 326 
3 325 330 440 
3 328 441 329 
3 328 333 441 
3 331 442 332 
3 443 444 445 
3 336 335 446 
3 447 334 337 
3 339 334 447 
3 448 338 340 
3 342 338 448 
3 449 341 343 
3 450 451 452 
3 453 454 455 
3 349 456 457 
3 349 458 456 
3 349 459 458 
3 349 460 459 
3 351 461 462 
3 351 463 461 
3 351 464 463 
3 351 465 464 
3 353 466 467 
3 353 468 466 
3 353 469 468 
3 353 470 469 
3 350 471 472 
3 350 473 471 
3 350 474 473 
3 350 475 474 
