ply
format ascii 1.0
comment VCGLIB generated
element vertex 464
property float x
property float y
property float z
property float nx
property float ny
property float nz
property float texture_u
property float texture_v
element face 910
property list uchar int vertex_indices
end_header
0.001061503 -0.6712109 0.1475708 -0.07792763 0.991855 0.1007528 0.5 0.25
-0.002859551 -0.6712002 0.148362 0.03947254 0.9953613 0.08773685 0.5 0.25
-0.02212999 -0.6662688 0.1010863 0.1737927 0.7914258 0.5860387 0.5 0.25
0.001397737 -0.6663333 0.1012169 -0.05754567 0.8155279 0.5758497 0.5 0.25
-0.02537555 -0.6504036 0.09320711 0.2287794 0.6376171 0.735598 0.5 0.25
0.00141773 -0.6504771 0.09267882 -0.06517938 0.6229178 0.7795672 0.5 0.25
-0.05178386 -0.588126 0.02792099 0.3249106 0.3305462 0.8860995 0.5 0.25
0.002066791 -0.5882737 0.02193324 -0.03860643 0.3371851 0.9406465 0.5 0.25
-0.05079397 -0.5698329 0.03017201 0.3386017 0.1441517 0.9298221 0.5 0.25
0.002123655 -0.5699781 0.02437253 -0.04531827 0.1412104 0.9889418 0.5 0.25
-0.05402949 -0.5503086 0.02229278 0.3442894 -0.1310547 0.9296718 0.5 0.25
0.002153661 -0.5504627 0.0158344 -0.0436875 -0.1326957 0.9901935 0.5 0.25
-0.04929073 -0.5356849 0.03354849 0.3227607 -0.3171681 0.8917567 0.5 0.25
0.002227354 -0.5358261 0.0280314 -0.03962887 -0.2298447 0.9724202 0.5 0.25
-0.04972381 -0.5222667 0.0324228 0.2817822 0.6030092 0.7463102 0.5 0.25
0.002254067 -0.5224093 0.0243706 -0.01742604 0.6574995 0.7532535 0.5 0.25
-0.05346934 -0.5173777 0.0234181 0.3543007 0.2646335 0.8969059 0.5 0.25
0.002240593 -0.5175305 0.01461285 -0.02103568 0.2695954 0.9627439 0.5 0.25
-0.04966362 -0.5003119 0.03242263 0.3448387 -0.3144119 0.8844385 0.5 0.25
0.002314257 -0.5004545 0.02437041 -0.01616928 -0.2231305 0.9746545 0.5 0.25
-0.04916032 -0.4881161 0.03354812 0.3054819 0.5753581 0.7587121 0.5 0.25
0.002344347 -0.4882573 0.02315574 0.001379562 0.6491707 0.7606416 0.5 0.25
-0.05431541 -0.4832231 0.02116667 0.3751664 0.2309125 0.8977358 0.5 0.25
0.002320828 -0.4833785 0.009738869 0.0032444 0.2319039 0.9727333 0.5 0.25
-0.04863027 -0.4661626 0.03467352 0.3671276 -0.2953714 0.8820279 0.5 0.25
0.002407916 -0.4663026 0.02437527 -0.001716475 -0.2961686 0.9551342 0.5 0.25
-0.04907672 -0.4576233 0.03354787 0.3640883 0.3309175 0.8705937 0.5 0.25
0.002427969 -0.4577646 0.0231555 -0.001812745 0.3321536 0.9432236 0.5 0.25
-0.05093275 -0.4490802 0.02904547 0.3890433 0.2059073 0.8979129 0.5 0.25
0.002437945 -0.4492266 0.01827658 0.01273876 0.2466389 0.9690238 0.5 0.25
-0.04453329 -0.4198245 0.02902786 0.3502256 0.321192 0.8798737 0.5 0.25
0.00883741 -0.4199709 0.01825897 -0.01941226 0.3524298 0.9356369 0.5 0.25
-0.05757673 -0.3868564 0.004272497 0.3103283 0.6049126 0.733333 0.5 0.25
0.006057103 -0.387031 -0.008567244 0.005560693 0.5994526 0.800391 0.5 0.75
-0.061762 -0.3709887 -0.005857873 0.3672692 0.3075817 0.8777852 0.5 0.75
0.006070375 -0.3711748 -0.01954477 0.003463451 0.30858 0.9511921 0.5 0.75
-0.06293752 -0.285605 -0.009235288 0.3807532 0.1580496 0.9110694 0.5 0.75
0.006294396 -0.285795 -0.02320456 0.003152773 0.159085 0.9872599 0.5 0.75
-0.06843207 -0.2331421 -0.0227427 0.357071 0.380931 0.8528728 0.5 0.75
0.006397932 -0.2333474 -0.03784151 0.003589967 0.3819005 0.9241965 0.5 0.75
-0.08188082 -0.1684603 -0.05538508 0.3299074 0.5215227 0.7868769 0.5 0.75
0.006477843 -0.1687027 -0.07321365 0.00377857 0.5224174 0.8526815 0.5 0.75
-0.1020845 -0.08969949 -0.1043019 0.340463 0.455089 0.8227873 0.5 0.75
0.006547793 -0.08999747 -0.1262212 -0.00737781 0.4385014 0.8987002 0.5 0.75
-0.1207783 0.001773588 -0.1345297 0.373929 0.1948003 0.906769 0.5 0.75
0.006712796 0.001423888 -0.1573562 -0.01203581 0.181849 0.9832528 0.5 0.75
-0.1213246 0.04489877 -0.1361218 0.3726878 -0.1117097 0.9212083 0.5 0.75
0.006826273 0.04454717 -0.1590815 -0.009670415 -0.1097212 0.9939154 0.5 0.75
-0.1070062 0.1776804 -0.1026948 0.339596 -0.4151257 0.8440055 0.5 0.75
0.007290092 0.1773669 -0.1228589 -0.009887656 -0.4146546 0.9099252 0.5 0.75
-0.1009644 0.2000884 -0.08836863 0.2801496 -0.6564962 0.7003778 0.5 0.75
0.007394294 0.1997911 -0.1073347 -0.01019588 -0.6558752 0.7548005 0.5 0.75
-0.0595062 0.2948474 0.01032305 0.1817617 -0.8659028 0.4660204 0.5 0.25
0.007948647 0.2946623 -0.0003896265 -0.01240804 -0.8667555 0.498579 0.5 0.75
-0.0149794 0.3270788 0.1167769 0.0550185 -0.9850835 0.1630446 0.5 0.25
0.008354723 0.3270149 0.1149667 -0.01343928 -0.9858605 0.1670288 0.5 0.25
0.000972971 0.3287603 0.1549804 0.00229293 -0.9997 0.02438866 0.5 0.25
0.008473352 0.3287398 0.1563651 -0.006745084 -0.9997585 0.02091557 0.5 0.25
-0.006179345 -0.6711911 0.1505935 0.07043474 0.9952504 0.06719831 0.5 0.25
-0.04203867 -0.6662142 0.1144683 0.4215531 0.8051928 0.4170821 0.5 0.25
-0.04804904 -0.6503414 0.1084476 0.5514876 0.6303569 0.5463621 0.5 0.25
-0.09736582 -0.5880008 0.05855981 0.6697136 0.329703 0.665417 0.5 0.25
-0.09558599 -0.5697098 0.06027985 0.7019178 0.1425048 0.6978565 0.5 0.25
-0.1015864 -0.5501779 0.05425903 0.7022237 -0.1343084 0.6991733 0.5 0.25
-0.09289784 -0.5355651 0.06285985 0.6725792 -0.3137195 0.6702368 0.5 0.25
-0.09372591 -0.5221459 0.06199966 0.5719854 0.5921407 0.5676285 0.5 0.25
-0.1006312 -0.5172481 0.05511888 0.6837226 0.2656551 0.6796697 0.5 0.25
-0.09366572 -0.500191 0.06199948 0.6727475 -0.3130027 0.6704029 0.5 0.25
-0.09281209 -0.4879962 0.0628596 0.5839041 0.5690648 0.578983 0.5 0.25
-0.1023119 -0.4830914 0.05339853 0.6902169 0.2300092 0.6860732 0.5 0.25
-0.09188707 -0.4660438 0.06371952 0.6766517 -0.2962635 0.6740701 0.5 0.25
-0.0927285 -0.4575034 0.06285936 0.6695959 0.3301002 0.6653384 0.5 0.25
-0.09616444 -0.448956 0.05941893 0.7052749 0.1726429 0.6875913 0.5 0.25
-0.089765 -0.4197003 0.0594013 0.6688504 0.2942021 0.6827037 0.5 0.25
-0.1114532 -0.3867084 0.04048657 0.5639908 0.6097745 0.5568569 0.5 0.25
-0.1191932 -0.370831 0.0327456 0.6752902 0.3067362 0.6707429 0.5 0.25
-0.1215536 -0.2854441 0.03016465 0.7004532 0.1571712 0.6961771 0.5 0.25
-0.1317879 -0.2329681 0.01984311 0.6563504 0.3801088 0.6517067 0.5 0.25
-0.1566909 -0.1682548 -0.005100112 0.5995882 0.5254097 0.6036877 0.5 0.75
-0.1940596 -0.08944686 -0.04247914 0.6191249 0.4585883 0.6374803 0.5 0.75
-0.2233663 0.002055399 -0.06557323 0.6958671 0.2056873 0.6880857 0.5 0.75
-0.2244712 0.04518205 -0.06678994 0.7043752 -0.112753 0.7008155 0.5 0.75
-0.1984227 0.1779315 -0.04124752 0.6441662 -0.4161553 0.6417668 0.5 0.75
-0.1873537 0.2003256 -0.03030049 0.5333033 -0.6575564 0.5321723 0.5 0.75
-0.1112637 0.2949895 0.04511279 0.3521565 -0.8669853 0.3525938 0.5 0.25
-0.02938149 0.3271183 0.1264575 0.1184871 -0.9856129 0.1205325 0.5 0.25
-2.327052e-05 0.3287631 0.15565 0.01386674 -0.9997671 0.01653803 0.5 0.25
-0.008392483 -0.671185 0.1539256 0.09075088 0.9952068 0.03643863 0.5 0.25
-0.05531086 -0.6661776 0.1344505 0.5459638 0.8058558 0.2291722 0.5 0.25
-0.06316441 -0.6502998 0.1312047 0.7166827 0.6291859 0.3008174 0.5 0.25
-0.1277532 -0.5879171 0.1043099 0.8699839 0.3295503 0.3667761 0.5 0.25
-0.1254468 -0.5696276 0.1052371 0.9118004 0.1423235 0.3851806 0.5 0.25
-0.1333349 -0.5500906 0.1019914 0.9130365 -0.1342842 0.385139 0.5 0.25
-0.1220133 -0.5354849 0.106628 0.874204 -0.3135704 0.3707305 0.5 0.25
-0.1231047 -0.522065 0.1061642 0.7411379 0.5917724 0.3170489 0.5 0.25
-0.1321165 -0.5171614 0.1024548 0.8826659 0.2677827 0.3862556 0.5 0.25
-0.1230445 -0.5001102 0.106164 0.8685377 -0.3135075 0.383869 0.5 0.25
-0.1218829 -0.4879162 0.1066276 0.7567751 0.5622987 0.3333342 0.5 0.25
-0.1342791 -0.4830033 0.1015272 0.8912655 0.2322262 0.3895085 0.5 0.25
-0.1206946 -0.4659644 0.1070911 0.8738146 -0.2946587 0.3868129 0.5 0.25
-0.1217993 -0.4574234 0.1066273 0.8643779 0.3282498 0.380924 0.5 0.25
-0.1262885 -0.448873 0.1047726 0.8958277 0.1699833 0.4106073 0.5 0.25
-0.119889 -0.4196173 0.104755 0.8615482 0.2650126 0.4330163 0.5 0.25
-0.1473701 -0.3866096 0.09456172 0.7171976 0.6125932 0.3322005 0.5 0.25
-0.1574799 -0.3707255 0.09038861 0.863852 0.3079515 0.3986548 0.5 0.25
-0.1606303 -0.2853365 0.08899695 0.8970188 0.1551342 0.4138727 0.5 0.25
-0.1740243 -0.2328518 0.08343258 0.842671 0.3769513 0.384465 0.5 0.25
-0.2065632 -0.1681175 0.06998584 0.7729746 0.5353622 0.3404376 0.5 0.25
-0.2616943 -0.0892607 0.04985247 0.8159003 0.4590178 0.3515813 0.5 0.25
-0.291757 0.00224369 0.0373931 0.9059899 0.1904054 0.3780583 0.5 0.25
-0.2932342 0.04537135 0.03673703 0.9189238 -0.113344 0.3777993 0.5 0.25
-0.2593658 0.1780993 0.05050607 0.8406366 -0.4166966 0.3459683 0.5 0.25
-0.2449454 0.2004841 0.05640736 0.6962215 -0.6580052 0.2868884 0.5 0.25
-0.145768 0.2950846 0.09706114 0.4600978 -0.8672827 0.1900811 0.5 0.25
-0.03898273 0.3271448 0.1409127 0.1553844 -0.9857146 0.06497984 0.5 0.25
-0.0006874508 0.3287649 0.1566499 0.01901631 -0.999779 0.00896861 0.5 0.25
-0.009162029 -0.6711828 0.157851 0.09753878 0.9952317 -0.000272646 0.5 0.25
-0.06037633 -0.6661636 0.1579919 0.5951228 0.8036245 0.004071802 0.5 0.25
-0.0688708 -0.6502839 0.1580153 0.7752208 0.6316744 0.004489702 0.5 0.25
-0.1393986 -0.5878848 0.1582093 0.9441899 0.3293476 0.005976023 0.5 0.25
-0.136909 -0.5695958 0.1582024 0.9897248 0.1428028 0.007222966 0.5 0.25
-0.1454381 -0.5500569 0.1582259 0.9910034 -0.1336995 0.006062867 0.5 0.25
-0.1332009 -0.5354538 0.1581922 0.9489042 -0.3154854 0.007065662 0.5 0.25
-0.1343838 -0.5220336 0.1581955 0.7847813 0.6197442 0.005955866 0.5 0.25
-0.145763 -0.5171235 0.1582268 0.9579726 0.2864651 0.01504474 0.5 0.25
-0.1359585 -0.5000744 0.1581998 0.9484413 -0.3162551 0.02101834 0.5 0.25
-0.1347053 -0.4878806 0.1581963 0.819715 0.572447 0.01928202 0.5 0.25
-0.1481088 -0.482965 0.1582332 0.9736592 0.2272953 0.01801609 0.5 0.25
-0.1334255 -0.4659292 0.1581928 0.9544773 -0.297471 0.02200667 0.5 0.25
-0.1346601 -0.4573877 0.1581962 0.9429536 0.3321994 0.0219561 0.5 0.25
-0.1395156 -0.4488364 0.1582095 0.9691191 0.2457207 0.02072861 0.5 0.25
-0.1394353 -0.4195633 0.1582093 0.9402733 0.3356303 0.05690625 0.5 0.25
-0.1661786 -0.3865575 0.1582829 0.7987701 0.600216 0.04131625 0.5 0.25
-0.1771125 -0.3706712 0.158313 0.9517731 0.3043452 0.03875518 0.5 0.25
-0.1805375 -0.2852813 0.1583223 0.9867707 0.1569277 0.04070849 0.5 0.25
-0.1950302 -0.2327936 0.1583622 0.9239303 0.380877 0.03585539 0.5 0.25
-0.2302245 -0.168052 0.158459 0.8528716 0.5213617 0.02814382 0.5 0.25
-0.2830154 -0.08920139 0.1586042 0.8936561 0.4487405 0.003296218 0.5 0.25
-0.3155383 0.002309851 0.1586937 0.9827744 0.1847896 -0.002703952 0.5 0.25
-0.317145 0.0454379 0.1586981 0.9935284 -0.1135514 -0.002733477 0.5 0.25
-0.2805575 0.1781583 0.1585974 0.9089547 -0.4168874 -0.00250072 0.5 0.25
-0.2649716 0.2005399 0.1585545 0.7528718 -0.658164 -0.002071022 0.5 0.25
-0.1577662 0.2951179 0.1582595 0.4976326 -0.8673869 -0.001368817 0.5 0.25
-0.04232135 0.327154 0.1579418 0.1682158 -0.9857501 -0.0004624444 0.5 0.25
-0.0009184093 0.3287656 0.1578279 0.0206889 -0.999786 -6.179632e-05 0.5 0.25
-0.00837081 -0.671185 0.1617721 0.09022331 0.9952516 -0.03652454 0.5 0.25
-0.05563171 -0.6661764 0.1815063 0.5478179 0.8049953 -0.2277677 0.5 0.25
-0.06346727 -0.6502985 0.1847952 0.7160066 0.6312403 -0.298111 0.5 0.25
-0.1285356 -0.5879142 0.2120467 0.8722864 0.333962 -0.3571916 0.5 0.25
-0.1262343 -0.5696247 0.2111068 0.9184338 0.1420541 -0.3691882 0.5 0.25
-0.1341045 -0.5500876 0.2143959 0.9188538 -0.134277 -0.3710491 0.5 0.25
-0.1228086 -0.5354819 0.2096971 0.8811592 -0.3133223 -0.3541009 0.5 0.25
-0.1238974 -0.522062 0.2101668 0.7316892 0.6126813 -0.2987519 0.5 0.25
-0.1345235 -0.517154 0.2139302 0.8841859 0.2889366 -0.3670573 0.5 0.25
-0.125472 -0.5001027 0.2101712 0.8758157 -0.3146755 -0.365959 0.5 0.25
-0.124313 -0.4879087 0.2097012 0.7600346 0.5675359 -0.3166235 0.5 0.25
-0.136681 -0.4829959 0.2148697 0.8988611 0.2302696 -0.3728602 0.5 0.25
-0.1231272 -0.4659569 0.2092312 0.8833909 -0.2944913 -0.3645483 0.5 0.25
-0.1242678 -0.4574158 0.2097011 0.872135 0.3300787 -0.3611489 0.5 0.25
-0.1287467 -0.4488655 0.2115805 0.8944145 0.2466389 -0.3730844 0.5 0.25
-0.1286665 -0.4195924 0.2115802 0.8656968 0.346787 -0.3609819 0.5 0.25
-0.1533389 -0.3865922 0.221917 0.7408821 0.5965421 -0.3085957 0.5 0.25
-0.1634256 -0.3707081 0.2261456 0.8786308 0.3061682 -0.3664274 0.5 0.25
-0.1665683 -0.2853191 0.2275545 0.9115036 0.1565838 -0.3803194 0.5 0.25
-0.1799314 -0.2328344 0.2331925 0.8539195 0.3795594 -0.3560283 0.5 0.25
-0.212396 -0.1681001 0.246818 0.7883103 0.5202572 -0.3284803 0.5 0.25
-0.2610961 -0.08926065 0.267237 0.8274415 0.4431506 -0.344903 0.5 0.25
-0.2910899 0.00224375 0.2798615 0.90697 0.1849954 -0.3783942 0.5 0.25
-0.2925635 0.04537141 0.2805257 0.9168311 -0.113344 -0.3828497 0.5 0.25
-0.2587714 0.1780993 0.2665704 0.8387203 -0.4166969 -0.3505882 0.5 0.25
-0.2443836 0.2004842 0.2605898 0.6946319 -0.6580057 -0.2907147 0.5 0.25
-0.1454315 0.2950846 0.2193908 0.4590453 -0.8672826 -0.1926094 0.5 0.25
-0.03888911 0.3271448 0.1749523 0.1550241 -0.9857147 -0.06583373 0.5 0.25
-0.00068101 0.3287649 0.1590046 0.01897257 -0.9997789 -0.009065513 0.5 0.25
-0.006139311 -0.6711911 0.1650919 0.06958243 0.995308 -0.06723438 0.5 0.25
-0.04224971 -0.6662129 0.2014151 0.4191267 0.8053464 -0.4192255 0.5 0.25
-0.04822686 -0.6503401 0.2074688 0.5474681 0.6317846 -0.5487505 0.5 0.25
-0.09794155 -0.5879977 0.257629 0.6554597 0.3597828 -0.6640248 0.5 0.25
-0.09780605 -0.5697023 0.2559037 0.703721 0.1701296 -0.6898062 0.5 0.25
-0.1037732 -0.5501703 0.2619574 0.7068676 -0.1335843 -0.6946175 0.5 0.25
-0.09513216 -0.5355574 0.2533089 0.6765775 -0.3160357 -0.6651047 0.5 0.25
-0.09595545 -0.5221382 0.2541736 0.5736012 0.5948464 -0.5631514 0.5 0.25
-0.1028228 -0.5172405 0.2610923 0.6809402 0.2674398 -0.6817598 0.5 0.25
-0.09589527 -0.5001835 0.2541734 0.6685348 -0.3141384 -0.6740758 0.5 0.25
-0.09500174 -0.4879887 0.2533085 0.5806386 0.5681822 -0.583119 0.5 0.25
-0.1044494 -0.4830838 0.2628217 0.6833465 0.2349063 -0.6912717 0.5 0.25
-0.09468219 -0.4660363 0.2523489 0.6762532 -0.2890514 -0.677592 0.5 0.25
-0.09555728 -0.4574958 0.2532138 0.675612 0.3158416 -0.6661776 0.5 0.25
-0.09837351 -0.4489484 0.2567676 0.6868052 0.2336867 -0.6882507 0.5 0.25
-0.09829324 -0.4196753 0.2567674 0.6630327 0.346627 -0.6635039 0.5 0.25
-0.1171249 -0.3866911 0.2757936 0.5668398 0.5974117 -0.5672672 0.5 0.25
-0.1248223 -0.3708135 0.283577 0.6727819 0.3068087 -0.6732258 0.5 0.25
-0.1271685 -0.2854266 0.2861709 0.6975509 0.1566432 -0.6992036 0.5 0.25
-0.1373458 -0.2329507 0.2965485 0.6527545 0.3801083 -0.6553086 0.5 0.25
-0.1621112 -0.1682374 0.3216284 0.6027107 0.5207641 -0.6046029 0.5 0.25
-0.1992737 -0.08942942 0.3592124 0.6325627 0.4436825 -0.6348309 0.5 0.25
-0.2221337 0.002055489 0.38245 0.692234 0.184467 -0.6976991 0.5 0.25
-0.2232319 0.04518216 0.3836727 0.6978734 -0.1128087 -0.7072815 0.5 0.25
-0.1973244 0.1779316 0.3579873 0.6392096 -0.4150492 -0.6474143 0.5 0.25
-0.1863157 0.2003257 0.3469794 0.5303659 -0.6575584 -0.5350971 0.5 0.25
-0.1106419 0.2949896 0.2711485 0.3502115 -0.8669855 -0.3545251 0.5 0.25
-0.02920853 0.3271183 0.1893544 0.1178222 -0.985613 -0.1211818 0.5 0.25
-1.139388e-05 0.3287631 0.1600008 0.01377712 -0.9997669 -0.0166209 0.5 0.25
-0.002807237 -0.6712002 0.167305 0.04044623 0.9956815 -0.0835609 0.5 0.25
-0.02226763 -0.6662676 0.2146873 0.2708088 0.8169382 -0.5091902 0.5 0.25
-0.02546978 -0.6504024 0.2225842 0.3573307 0.6213255 -0.6973302 0.5 0.25
-0.0521916 -0.5881229 0.2880165 0.3882058 0.3525636 -0.8514665 0.5 0.25
-0.05284895 -0.5698253 0.2857645 0.4186622 0.160207 -0.8938991 0.5 0.25
-0.05604108 -0.550301 0.2936615 0.4057813 -0.1394871 -0.9032635 0.5 0.25
-0.05136434 -0.5356773 0.2823798 0.381356 -0.3194531 -0.8674775 0.5 0.25
-0.05119955 -0.5222607 0.2835062 0.3239527 0.582437 -0.7455347 0.5 0.25
-0.05489545 -0.5173717 0.2925314 0.3801803 0.2721804 -0.8839574 0.5 0.25
-0.05174008 -0.5003059 0.2834116 0.3714839 -0.3163255 -0.8728906 0.5 0.25
-0.05124298 -0.4881101 0.2822833 0.3206072 0.5724047 -0.7546946 0.5 0.25
-0.05632989 -0.4832172 0.2946929 0.4040048 0.2353179 -0.8839716 0.5 0.25
-0.05071914 -0.4661565 0.281155 0.3751447 -0.2928212 -0.8795011 0.5 0.25
-0.05178947 -0.4576156 0.2822848 0.3728153 0.3540257 -0.8577148 0.5 0.25
-0.05362071 -0.4490725 0.2867973 0.4035939 0.2482895 -0.8806045 0.5 0.25
-0.05354046 -0.4197994 0.2867971 0.3853884 0.3359597 -0.8594224 0.5 0.25
-0.06304999 -0.386839 0.3117107 0.3015777 0.5968792 -0.7434959 0.5 0.25
-0.0677802 -0.3709713 0.3217693 0.3560294 0.3092422 -0.8818233 0.5 0.25
-0.06893712 -0.2855876 0.3251531 0.3691444 0.1571538 -0.9159886 0.5 0.25
-0.07375655 -0.2331247 0.3387851 0.3469116 0.3832286 -0.8560305 0.5 0.25
-0.08702549 -0.1684429 0.3715009 0.3270561 0.5214218 -0.788133 0.5 0.25
-0.1069598 -0.08968201 0.4205281 0.3428393 0.4444852 -0.8275833 0.5 0.25
-0.1191677 0.001773737 0.4508408 0.3787993 0.1798315 -0.907839 0.5 0.25
-0.118032 0.04489433 0.4524315 0.3770734 -0.1180459 -0.9186299 0.5 0.25
-0.1038978 0.177676 0.4189261 0.3332259 -0.4156032 -0.8463064 0.5 0.25
-0.09960817 0.2000884 0.4045714 0.2675399 -0.6503763 -0.7109382 0.5 0.25
-0.05869374 0.2948475 0.305653 0.1670623 -0.8629285 -0.4769116 0.5 0.25
-0.0147534 0.3270788 0.1989557 0.06348515 -0.9855515 -0.1570285 0.5 0.25
0.0009884986 0.3287603 0.160665 0.006642245 -0.9997532 -0.02120116 0.5 0.25
0.001118126 -0.6712109 0.1680746 0.03757924 0.9943888 -0.09888812 0.5 0.25
0.001286664 -0.6663321 0.2244683 0.06602833 0.7943473 -0.6038648 0.5 0.25
0.001353628 -0.6504758 0.2330062 0.0733598 0.6378109 -0.7666913 0.5 0.25
0.001718001 -0.5882706 0.3034583 0.03277492 0.3320644 -0.9426872 0.5 0.25
0.0001265909 -0.5699704 0.3010232 0.04898151 0.1474931 -0.9878495 0.5 0.25
0.0002035875 -0.5504551 0.309561 0.04304174 -0.1671756 -0.9849872 0.5 0.25
0.0007951277 -0.5358201 0.294925 0.04443912 -0.354333 -0.9340628 0.5 0.25
0.0008352689 -0.5224033 0.2961447 0.02955126 0.5905223 -0.8064802 0.5 0.25
0.0008754872 -0.5175245 0.3059022 0.01446716 0.2641541 -0.964372 0.5 0.25
0.000294725 -0.5004485 0.2960499 0.01955384 -0.4021086 -0.9153832 0.5 0.25
0.000318093 -0.4882513 0.292392 0.01291622 0.5364492 -0.8438337 0.5 0.25
0.0003817945 -0.4833725 0.310684 0.03275261 0.2626176 -0.964344 0.5 0.25
0.001431492 -0.4662994 0.2960445 0.04782492 -0.5277433 -0.8480565 0.5 0.25
0.001444838 -0.4577615 0.2923889 0.04989292 0.2394221 -0.9696328 0.5 0.25
0.0014951 -0.4492235 0.3021429 0.0419399 0.4027029 -0.9143695 0.5 0.25
0.007899068 -0.4199677 0.3037647 0.01989172 0.3287673 -0.9442015 0.5 0.25
0.006977244 -0.3870309 0.325822 0.0214347 0.5389655 -0.8420551 0.5 0.25
0.008118914 -0.3711792 0.3350607 0.007411812 0.2775278 -0.9606891 0.5 0.25
0.008363036 -0.2857995 0.3387192 0.005507598 0.1587973 -0.9872959 0.5 0.25
0.009147814 -0.2333519 0.3534499 -0.0009236302 0.3885595 -0.9214232 0.5 0.25
0.007753625 -0.1687026 0.390465 0.002786506 0.5278592 -0.8493273 0.5 0.25
0.008115234 -0.08999734 0.4434713 0.003059475 0.445433 -0.89531 0.5 0.25
0.008456038 0.001424067 0.4762443 0.003419162 0.1949409 -0.980809 0.5 0.25
0.01025428 0.04454273 0.4787019 -0.002497981 -0.1031285 -0.9946649 0.5 0.25
0.01051872 0.1773624 0.4424773 -0.001816891 -0.4939636 -0.8694807 0.5 0.25
0.008843506 0.1997912 0.4194199 -0.009303273 -0.7261185 -0.6875066 0.5 0.25
0.008809329 0.2946624 0.3124733 -0.02697995 -0.8650545 -0.5009521 0.5 0.25
0.008599339 0.3270149 0.2039163 -0.04821071 -0.9806861 -0.1895533 0.5 0.25
0.008490158 0.3287398 0.162518 -0.002311607 -0.9997191 -0.02358598 0.5 0.25
0.005053392 -0.6712217 0.1724493 0.0895755 0.9869943 -0.1334863 0.5 0.25
0.02480097 -0.6663966 0.2197237 -0.228375 0.808537 -0.5423218 0.5 0.25
0.02813345 -0.6505493 0.2276026 -0.2963959 0.6340972 -0.714192 0.5 0.25
0.05555598 -0.5884183 0.2928859 -0.3684205 0.3108959 -0.8761336 0.5 0.25
0.05299237 -0.5701154 0.2903485 -0.3764139 0.1222154 -0.918355 0.5 0.25
0.0563349 -0.5506091 0.2982275 -0.3822535 -0.1313407 -0.9146759 0.5 0.25
0.05167643 -0.5359597 0.2869715 -0.3535559 -0.3182103 -0.8796251 0.5 0.25
0.05218306 -0.5225441 0.288097 -0.3043301 0.5422286 -0.7831803 0.5 0.25
0.05594862 -0.5176755 0.2946644 -0.3893636 0.2212736 -0.8941107 0.5 0.25
0.05223654 -0.5005893 0.2856597 -0.3618531 -0.388345 -0.8474967 0.5 0.25
0.0517934 -0.4883909 0.2820959 -0.332099 0.5347421 -0.7770208 0.5 0.25
0.05698868 -0.4835262 0.2993525 -0.3611279 0.2786111 -0.8899227 0.5 0.25
0.05307037 -0.4664394 0.2858408 -0.37277 -0.2821035 -0.8840024 0.5 0.25
0.05356364 -0.4579028 0.2869663 -0.3388403 0.3202963 -0.8846455 0.5 0.25
0.0554665 -0.4493699 0.2914686 -0.3484471 0.3165433 -0.8822613 0.5 0.25
0.06187048 -0.4201141 0.2930904 -0.3852518 0.3759818 -0.8427448 0.5 0.25
0.07061106 -0.3872055 0.3129823 -0.3075192 0.585172 -0.7503371 0.5 0.25
0.07655856 -0.3713653 0.3238454 -0.3550698 0.3285675 -0.8751965 0.5 0.25
0.07820221 -0.2859894 0.3272214 -0.3630926 0.1603417 -0.9178531 0.5 0.25
0.08398431 -0.2335571 0.340728 -0.342742 0.3801751 -0.8590662 0.5 0.25
0.09611431 -0.168945 0.373374 -0.3210784 0.5224479 -0.7899095 0.5 0.25
0.1167496 -0.09029534 0.4222895 -0.3408582 0.446378 -0.8273829 0.5 0.25
0.1296254 0.001091711 0.4525333 -0.3724555 0.1957048 -0.9071805 0.5 0.25
0.1320814 0.04420852 0.4541203 -0.3844991 -0.1015433 -0.9175235 0.5 0.25
0.1184913 0.1770663 0.4206913 -0.3346917 -0.4938633 -0.8025463 0.5 0.25
0.1108784 0.1995113 0.3988318 -0.2666411 -0.7310322 -0.628088 0.5 0.25
0.06994045 0.2944947 0.3001386 -0.1949887 -0.8654917 -0.4614148 0.5 0.25
0.02559102 0.3269681 0.1936843 -0.08843961 -0.9849338 -0.1486064 0.5 0.25
0.009666824 0.3287365 0.1622806 -0.01398062 -0.9996305 -0.02331258 0.5 0.25
0.006699943 -0.6712262 0.1702224 -0.07623378 0.9955697 -0.05504048 0.5 0.25
0.04303643 -0.6664466 0.2063462 -0.4031276 0.8272531 -0.3913319 0.5 0.25
0.05080695 -0.6506115 0.2123621 -0.5417106 0.6518212 -0.5307343 0.5 0.25
0.101138 -0.5885435 0.2622471 -0.6784416 0.3005058 -0.6703829 0.5 0.25
0.09778443 -0.5702385 0.2602407 -0.7022546 0.1090846 -0.7035191 0.5 0.25
0.1038918 -0.5507396 0.2662612 -0.7031696 -0.1304605 -0.6989511 0.5 0.25
0.09528355 -0.5360795 0.2576602 -0.6745299 -0.3100625 -0.6699781 0.5 0.25
0.09618518 -0.522665 0.2585202 -0.5995047 0.4969164 -0.6274298 0.5 0.25
0.1031038 -0.517805 0.2605256 -0.7148334 0.1926786 -0.6722262 0.5 0.25
0.09623195 -0.5007102 0.2536447 -0.6870365 -0.3092625 -0.6575239 0.5 0.25
0.09540055 -0.4885107 0.2527846 -0.5842573 0.593501 -0.5535342 0.5 0.25
0.1049405 -0.4836578 0.2671208 -0.6922175 0.2767396 -0.6665209 0.5 0.25
0.09628256 -0.4665581 0.256795 -0.7114567 -0.2720416 -0.6479374 0.5 0.25
0.0971708 -0.4580225 0.2576551 -0.6918522 0.335359 -0.6394333 0.5 0.25
0.1006535 -0.449494 0.2610953 -0.6840991 0.2900463 -0.6692396 0.5 0.25
0.1070441 -0.4202382 0.2578418 -0.6829776 0.3902805 -0.6174325 0.5 0.25
0.1244875 -0.3873535 0.2767682 -0.5641531 0.6128439 -0.5533114 0.5 0.25
0.1339898 -0.3715231 0.2852419 -0.6737905 0.340432 -0.6558295 0.5 0.25
0.1368184 -0.2861504 0.2878215 -0.7085206 0.158999 -0.6875448 0.5 0.25
0.1473402 -0.2337312 0.2981423 -0.663682 0.3812963 -0.6435366 0.5 0.25
0.1709244 -0.1691505 0.3230891 -0.6050918 0.5183851 -0.6042688 0.5 0.25
0.2087247 -0.09054798 0.3604669 -0.6341025 0.4467622 -0.631124 0.5 0.25
0.2322135 0.0008098111 0.3835768 -0.6951964 0.2016819 -0.6899467 0.5 0.25
0.235228 0.04392528 0.3847884 -0.711156 -0.09534971 -0.6965383 0.5 0.25
0.2099079 0.1768152 0.359244 -0.6187006 -0.4790495 -0.6226726 0.5 0.25
0.1972678 0.199274 0.3407637 -0.4854785 -0.7208922 -0.4945959 0.5 0.25
0.121698 0.2943526 0.2653489 -0.3407305 -0.8664448 -0.3649332 0.5 0.25
0.03999314 0.3269287 0.1840036 -0.09970613 -0.9860833 -0.1330357 0.5 0.25
0.01066307 0.3287338 0.161611 -0.02120348 -0.9995922 -0.019125 0.5 0.25
0.00891309 -0.6712323 0.1668903 -0.08496324 0.9957319 -0.03604578 0.5 0.25
0.05630861 -0.6664832 0.186364 -0.524118 0.8259754 -0.207521 0.5 0.25
0.06592233 -0.6506532 0.189605 -0.6994572 0.6642849 -0.2636006 0.5 0.25
0.1315254 -0.5886272 0.2164969 -0.8860806 0.2974865 -0.3554758 0.5 0.25
0.1276452 -0.5703207 0.2152835 -0.9195336 0.1023735 -0.3794439 0.5 0.25
0.1355957 -0.550827 0.2185289 -0.9171487 -0.1298678 -0.3767926 0.5 0.25
0.1243544 -0.5361595 0.2138921 -0.8799527 -0.3108672 -0.3592282 0.5 0.25
0.1255193 -0.5227457 0.2143557 -0.7658836 0.5477921 -0.3366693 0.5 0.25
0.1345444 -0.5178916 0.2131897 -0.903574 0.2357225 -0.3577554 0.5 0.25
0.1255661 -0.500791 0.2094803 -0.8781447 -0.3111188 -0.3634103 0.5 0.25
0.1244714 -0.4885907 0.2090165 -0.7586415 0.5717015 -0.3124429 0.5 0.25
0.1368944 -0.4837459 0.2141168 -0.9037136 0.2386763 -0.3554367 0.5 0.25
0.1234034 -0.4666328 0.2085527 -0.898066 -0.285282 -0.3348008 0.5 0.25
0.124555 -0.458098 0.2090163 -0.8850084 0.3326425 -0.3257441 0.5 0.25
0.129091 -0.4495724 0.2108709 -0.8752991 0.3573355 -0.3258264 0.5 0.25
0.1354949 -0.4203166 0.2124927 -0.8358604 0.4455082 -0.3207176 0.5 0.25
0.1604065 -0.3874523 0.2234306 -0.7397071 0.5998694 -0.3049428 0.5 0.25
0.1706032 -0.3716239 0.2276034 -0.879864 0.3145821 -0.3561985 0.5 0.25
0.1742218 -0.2862534 0.2289938 -0.9163158 0.1541114 -0.3696148 0.5 0.25
0.1878968 -0.2338429 0.2321803 -0.8603856 0.3827079 -0.336558 0.5 0.25
0.2207968 -0.1692878 0.2480031 -0.7874459 0.5255887 -0.3220023 0.5 0.25
0.2700402 -0.0907169 0.2681526 -0.8272984 0.4464094 -0.3410221 0.5 0.25
0.3006021 0.0006215498 0.279873 -0.908576 0.1922929 -0.3708279 0.5 0.25
0.3023178 0.04374057 0.2812659 -0.9210719 -0.1039212 -0.3752693 0.5 0.25
0.2691777 0.176652 0.2674948 -0.8449755 -0.4121596 -0.3407945 0.5 0.25
0.2548803 0.1991155 0.2615932 -0.6942252 -0.6588976 -0.2896641 0.5 0.25
0.1562231 0.2942576 0.220938 -0.4594428 -0.8638615 -0.2065325 0.5 0.25
0.04961308 0.3269022 0.1763483 -0.1535661 -0.9839928 -0.09041947 0.5 0.25
0.01132725 0.328732 0.160611 -0.02495508 -0.9996374 -0.0101166 0.5 0.25
0.009682623 -0.6712344 0.1629649 -0.09229855 0.9957314 -0.0002515854 0.5 0.25
0.06092368 -0.666496 0.1628239 -0.5890233 0.8081145 0.001621834 0.5 0.25
0.0695051 -0.6506632 0.1628003 -0.7688885 0.6390991 0.01905374 0.5 0.25
0.1404186 -0.5886519 0.1626052 -0.9417791 0.3358482 0.01606621 0.5 0.25
0.1380286 -0.5703495 0.1623211 -0.9897633 0.1423804 0.00982385 0.5 0.25
0.14662 -0.5508575 0.1622974 -0.9915541 -0.1296653 0.002728649 0.5 0.25
0.1344631 -0.5361876 0.1623309 -0.9502844 -0.3112503 -0.009107953 0.5 0.25
0.1357129 -0.5227741 0.1598903 -0.8013793 0.5979565 0.01546758 0.5 0.25
0.1454839 -0.517922 0.1598596 -0.9632499 0.2686056 0.0008916901 0.5 0.25
0.135773 -0.5008193 0.1598863 -0.9497802 -0.3126153 -0.01375979 0.5 0.25
0.1345801 -0.4886189 0.1574553 -0.8181104 0.5748693 0.01485431 0.5 0.25
0.1480102 -0.4837768 0.1574183 -0.9720941 0.2345764 0.002675824 0.5 0.25
0.1334206 -0.4666607 0.1574585 -0.9564862 -0.291766 0.00263289 0.5 0.25
0.1346637 -0.4581261 0.1574551 -0.9423913 0.3345025 0.00259314 0.5 0.25
0.1395659 -0.4496015 0.1574416 -0.9349222 0.354816 0.005121755 0.5 0.25
0.1459699 -0.4203458 0.1590634 -0.8941891 0.4476831 -0.002408686 0.5 0.25
0.1728957 -0.3874871 0.1597268 -0.7999232 0.6001025 0.0001073571 0.5 0.25
0.1839166 -0.3716609 0.1596965 -0.9503453 0.3111866 0.002614892 0.5 0.25
0.1878098 -0.2862912 0.1596858 -0.9868214 0.161791 0.002715786 0.5 0.25
0.20259 -0.2338837 0.1596452 -0.9234326 0.3837605 0.0003952005 0.5 0.25
0.2381387 -0.169336 0.1595473 -0.8509051 0.5253166 0.001753238 0.5 0.25
0.2913611 -0.09077613 0.1594009 -0.8940966 0.4478699 0.001957784 0.5 0.25
0.3243834 0.0005553886 0.1585725 -0.9817439 0.1901609 0.004220153 0.5 0.25
0.3262286 0.04367405 0.1593049 -0.9941403 -0.1080845 0.001656104 0.5 0.25
0.2903693 0.1765931 0.1594036 -0.9112269 -0.4118972 0.002507325 0.5 0.25
0.2749064 0.1990598 0.1594462 -0.7564696 -0.6540256 0.002081557 0.5 0.25
0.1682212 0.2942242 0.1597396 -0.5023811 -0.8646453 0.001301903 0.5 0.25
0.05295168 0.326893 0.1593192 -0.1736167 -0.9848131 0.0006198644 0.5 0.25
0.0115582 0.3287314 0.1594331 -0.02615752 -0.9996579 7.253025e-05 0.5 0.25
0.008890614 -0.6712323 0.1587532 -0.08452892 0.9958255 0.0344463 0.5 0.25
0.05617905 -0.6664832 0.1393095 -0.5459215 0.8123232 0.2051848 0.5 0.25
0.06410157 -0.6506486 0.1360203 -0.7243834 0.6314858 0.2765762 0.5 0.25
0.1295556 -0.5886226 0.1087678 -0.8729394 0.3347792 0.3548236 0.5 0.25
0.1273538 -0.5703207 0.1094167 -0.9119824 0.1498468 0.3818825 0.5 0.25
0.1352864 -0.5508269 0.1061275 -0.9150603 -0.1298703 0.3818355 0.5 0.25
0.1240707 -0.5361595 0.110826 -0.8907526 -0.2779751 0.3595688 0.5 0.25
0.1252263 -0.5227458 0.1079151 -0.7172023 0.6235354 0.3111663 0.5 0.25
0.1342444 -0.5178916 0.1041561 -0.8884614 0.269924 0.3711838 0.5 0.25
0.1252865 -0.500791 0.1079149 -0.8913962 -0.2758171 0.3596355 0.5 0.25
0.1241877 -0.4885908 0.1059504 -0.7300189 0.6040941 0.3195979 0.5 0.25
0.1365824 -0.4837459 0.1007818 -0.8970251 0.2343719 0.3747209 0.5 0.25
0.1231223 -0.4666329 0.1064201 -0.8827326 -0.2919662 0.3681562 0.5 0.25
0.1242713 -0.458098 0.1059502 -0.8695924 0.3343089 0.3633821 0.5 0.25
0.128797 -0.4495724 0.1040706 -0.8635933 0.3459977 0.3667319 0.5 0.25
0.1351965 -0.4203166 0.104053 -0.830852 0.4402402 0.3404021 0.5 0.25
0.1600495 -0.3874524 0.09371577 -0.7478686 0.5827588 0.3179383 0.5 0.25
0.1702297 -0.371624 0.09186386 -0.8842712 0.2947793 0.3621735 0.5 0.25
0.1738405 -0.2862534 0.09045362 -0.9106311 0.1615854 0.3803173 0.5 0.25
0.1874912 -0.2338429 0.08481485 -0.8518257 0.384241 0.3560224 0.5 0.25
0.2203102 -0.1692878 0.07118829 -0.7854456 0.5245771 0.3284724 0.5 0.25
0.269442 -0.09071687 0.0507681 -0.8245755 0.4485643 0.3447686 0.5 0.25
0.2999349 0.0006214902 0.03740456 -0.9053026 0.1884991 0.3806513 0.5 0.25
0.301647 0.04374048 0.0374773 -0.9174959 -0.1115256 0.3817897 0.5 0.25
0.2685832 0.1766519 0.05143053 -0.8414071 -0.4116417 0.3501219 0.5 0.25
0.2543184 0.1991154 0.05741075 -0.6988604 -0.6541552 0.2892667 0.5 0.25
0.1558865 0.2942576 0.09860831 -0.4643409 -0.8648275 0.1909474 0.5 0.25
0.04951944 0.3269022 0.1423088 -0.1607014 -0.9847869 0.06610548 0.5 0.25
0.0113208 0.328732 0.1582565 -0.02432535 -0.9996632 0.00904209 0.5 0.25
0.006659114 -0.6712262 0.1554334 -0.07459559 0.9953868 0.06033737 0.5 0.25
0.04492067 -0.6664525 0.1193949 -0.4362962 0.8030142 0.4059729 0.5 0.25
0.05098477 -0.6506128 0.1133409 -0.5616166 0.6379556 0.526877 0.5 0.25
0.1010397 -0.5885447 0.0628891 -0.6890513 0.2971668 0.6609844 0.5 0.25
0.09724607 -0.5702385 0.06462447 -0.7018428 0.1113669 0.7035725 0.5 0.25
0.1033202 -0.5507396 0.05857046 -0.6993123 -0.1304612 0.7028103 0.5 0.25
0.09475943 -0.5360795 0.06721874 -0.6891745 -0.2497519 0.680193 0.5 0.25
0.09564959 -0.522665 0.06391282 -0.5333152 0.6438768 0.5486324 0.5 0.25
0.1025437 -0.5178051 0.05699406 -0.678727 0.2693551 0.6832112 0.5 0.25
0.09570978 -0.5007102 0.06391263 -0.6951858 -0.2404495 0.6774222 0.5 0.25
0.09487644 -0.4885107 0.06234309 -0.5521273 0.6242744 0.5526635 0.5 0.25
0.1043508 -0.4836579 0.05282981 -0.6898741 0.2325098 0.6855749 0.5 0.25
0.09407655 -0.4665536 0.06320775 -0.6747146 -0.2925345 0.677631 0.5 0.25
0.09496004 -0.458018 0.06234285 -0.6642686 0.3337477 0.6688496 0.5 0.25
0.09842382 -0.4494895 0.05888342 -0.6598769 0.3226443 0.6785743 0.5 0.25
0.1048233 -0.4202337 0.05886582 -0.6451994 0.4211643 0.6374468 0.5 0.25
0.1238355 -0.3873535 0.03983909 -0.5785519 0.5708642 0.5825735 0.5 0.25
0.1316264 -0.3715185 0.03443241 -0.6891384 0.2779798 0.6691902 0.5 0.25
0.1344407 -0.2861459 0.03183723 -0.7052473 0.1605718 0.6905382 0.5 0.25
0.1449056 -0.2337267 0.02145878 -0.6589253 0.3829125 0.6474531 0.5 0.25
0.1700254 -0.1691505 -0.003622062 -0.6053944 0.5217499 0.6010613 0.5 0.75
0.2076194 -0.09054808 -0.04120734 -0.63012 0.4471546 0.6348241 0.5 0.75
0.2309808 0.0008096918 -0.06444633 -0.6918316 0.1905452 0.6964636 0.5 0.75
0.2323153 0.04392975 -0.06566976 -0.7023542 -0.1093591 0.703377 0.5 0.75
0.2071361 0.1768197 -0.03998635 -0.6465816 -0.4066091 0.6454467 0.5 0.75
0.1962485 0.1992739 -0.02971648 -0.5372972 -0.6484972 0.5392246 0.5 0.75
0.1210948 0.2943525 0.04611297 -0.3561247 -0.8649526 0.3535991 0.5 0.25
0.03983887 0.3269287 0.1279066 -0.123486 -0.9849181 0.1211923 0.5 0.25
0.01065119 0.3287338 0.1572602 -0.01926036 -0.999676 0.01664197 0.5 0.25
0.005000292 -0.6712217 0.1532156 -0.0854038 0.9933943 0.07664227 0.5 0.25
0.02493863 -0.6663978 0.1061227 -0.2255013 0.8079767 0.5443555 0.5 0.25
0.0282277 -0.6505505 0.09822548 -0.2957814 0.6341614 0.7143897 0.5 0.25
0.05528982 -0.5884196 0.03250165 -0.3693494 0.3150953 0.8742402 0.5 0.25
0.05228903 -0.5701154 0.03476363 -0.375729 0.1236419 0.9184446 0.5 0.25
0.05558815 -0.5506091 0.02686644 -0.3816096 -0.1314138 0.9149342 0.5 0.25
0.05099168 -0.5359597 0.03814784 -0.3797293 -0.2310756 0.8957733 0.5 0.25
0.05148541 -0.5225442 0.0345786 -0.2858136 0.6554545 0.6990637 0.5 0.25
0.05520806 -0.5176756 0.02555335 -0.3698354 0.2691006 0.8892731 0.5 0.25
0.0515456 -0.5005894 0.03457842 -0.3692062 -0.1833427 0.911083 0.5 0.25
0.05386081 -0.4883986 0.0332646 -0.2915694 0.6736532 0.6791013 0.5 0.25
0.05897448 -0.4835338 0.0208549 -0.3922552 0.2163204 0.8940589 0.5 0.25
0.05070522 -0.4664349 0.03440015 -0.3658201 -0.3077837 0.8783193 0.5 0.25
0.05119228 -0.4578982 0.03327194 -0.3625197 0.3326499 0.8705881 0.5 0.25
0.05307033 -0.4493653 0.02875927 -0.3561447 0.2882929 0.8888466 0.5 0.25
0.0594698 -0.4201096 0.02874166 -0.3631355 0.3891772 0.8465658 0.5 0.25
0.06976064 -0.3872055 0.003922096 -0.3028753 0.5994136 0.7409251 0.5 0.25
0.07397706 -0.3713608 -0.006231399 -0.3692505 0.3056814 0.8776178 0.5 0.75
0.07560212 -0.2859849 -0.009616501 -0.3876056 0.1603635 0.9077696 0.5 0.75
0.08130985 -0.2335526 -0.02315473 -0.3614702 0.383445 0.8498878 0.5 0.75
0.09493327 -0.1689451 -0.05587159 -0.3352605 0.5171134 0.7875241 0.5 0.75
0.1153056 -0.09029549 -0.102523 -0.3492919 0.4386765 0.8279844 0.5 0.75
0.1280149 0.001091532 -0.1328372 -0.3742454 0.1954603 0.9064964 0.5 0.75
0.1287868 0.04421305 -0.1351706 -0.3793024 -0.1027087 0.9195546 0.5 0.75
0.115381 0.1770707 -0.1016672 -0.349346 -0.4133917 0.8408714 0.5 0.75
0.109541 0.1995112 -0.08730836 -0.2899313 -0.6547486 0.6980287 0.5 0.75
0.06914671 0.2944947 0.01160854 -0.1924476 -0.8654913 0.462481 0.5 0.25
0.02538375 0.3269682 0.1183053 -0.06767352 -0.9851024 0.158094 0.5 0.25
0.009651296 0.3287365 0.156596 -0.01168259 -0.9996956 0.02173105 0.5 0.25
3 1 0 2 
3 3 2 0 
3 2 3 4 
3 5 4 3 
3 4 5 6 
3 7 6 5 
3 6 7 8 
3 9 8 7 
3 8 9 10 
3 11 10 9 
3 10 11 12 
3 13 12 11 
3 12 13 14 
3 15 14 13 
3 14 15 16 
3 17 16 15 
3 16 17 18 
3 19 18 17 
3 18 19 20 
3 21 20 19 
3 20 21 22 
3 23 22 21 
3 22 23 24 
3 25 24 23 
3 24 25 26 
3 27 26 25 
3 26 27 28 
3 29 28 27 
3 28 29 30 
3 31 30 29 
3 30 31 32 
3 33 32 31 
3 32 33 34 
3 35 34 33 
3 34 35 36 
3 37 36 35 
3 36 37 38 
3 39 38 37 
3 38 39 40 
3 41 40 39 
3 40 41 42 
3 43 42 41 
3 42 43 44 
3 45 44 43 
3 44 45 46 
3 47 46 45 
3 46 47 48 
3 49 48 47 
3 48 49 50 
3 51 50 49 
3 50 51 52 
3 53 52 51 
3 52 53 54 
3 55 54 53 
3 54 55 56 
3 57 56 55 
3 58 1 59 
3 2 59 1 
3 59 2 60 
3 4 60 2 
3 60 4 61 
3 6 61 4 
3 61 6 62 
3 8 62 6 
3 62 8 63 
3 10 63 8 
3 63 10 64 
3 12 64 10 
3 64 12 65 
3 14 65 12 
3 65 14 66 
3 16 66 14 
3 66 16 67 
3 18 67 16 
3 67 18 68 
3 20 68 18 
3 68 20 69 
3 22 69 20 
3 69 22 70 
3 24 70 22 
3 70 24 71 
3 26 71 24 
3 71 26 72 
3 28 72 26 
3 72 28 73 
3 30 73 28 
3 73 30 74 
3 32 74 30 
3 74 32 75 
3 34 75 32 
3 75 34 76 
3 36 76 34 
3 76 36 77 
3 38 77 36 
3 77 38 78 
3 40 78 38 
3 78 40 79 
3 42 79 40 
3 79 42 80 
3 44 80 42 
3 80 44 81 
3 46 81 44 
3 81 46 82 
3 48 82 46 
3 82 48 83 
3 50 83 48 
3 83 50 84 
3 52 84 50 
3 84 52 85 
3 54 85 52 
3 85 54 86 
3 56 86 54 
3 87 58 88 
3 59 88 58 
3 88 59 89 
3 60 89 59 
3 89 60 90 
3 61 90 60 
3 90 61 91 
3 62 91 61 
3 91 62 92 
3 63 92 62 
3 92 63 93 
3 64 93 63 
3 93 64 94 
3 65 94 64 
3 94 65 95 
3 66 95 65 
3 95 66 96 
3 67 96 66 
3 96 67 97 
3 68 97 67 
3 97 68 98 
3 69 98 68 
3 98 69 99 
3 70 99 69 
3 99 70 100 
3 71 100 70 
3 100 71 101 
3 72 101 71 
3 101 72 102 
3 73 102 72 
3 102 73 103 
3 74 103 73 
3 103 74 104 
3 75 104 74 
3 104 75 105 
3 76 105 75 
3 105 76 106 
3 77 106 76 
3 106 77 107 
3 78 107 77 
3 107 78 108 
3 79 108 78 
3 108 79 109 
3 80 109 79 
3 109 80 110 
3 81 110 80 
3 110 81 111 
3 82 111 81 
3 111 82 112 
3 83 112 82 
3 112 83 113 
3 84 113 83 
3 113 84 114 
3 85 114 84 
3 114 85 115 
3 86 115 85 
3 116 87 117 
3 88 117 87 
3 117 88 118 
3 89 118 88 
3 118 89 119 
3 90 119 89 
3 119 90 120 
3 91 120 90 
3 120 91 121 
3 92 121 91 
3 121 92 122 
3 93 122 92 
3 122 93 123 
3 94 123 93 
3 123 94 124 
3 95 124 94 
3 124 95 125 
3 96 125 95 
3 125 96 126 
3 97 126 96 
3 126 97 127 
3 98 127 97 
3 127 98 128 
3 99 128 98 
3 128 99 129 
3 100 129 99 
3 129 100 130 
3 101 130 100 
3 130 101 131 
3 102 131 101 
3 131 102 132 
3 103 132 102 
3 132 103 133 
3 104 133 103 
3 133 104 134 
3 105 134 104 
3 134 105 135 
3 106 135 105 
3 135 106 136 
3 107 136 106 
3 136 107 137 
3 108 137 107 
3 137 108 138 
3 109 138 108 
3 138 109 139 
3 110 139 109 
3 139 110 140 
3 111 140 110 
3 140 111 141 
3 112 141 111 
3 141 112 142 
3 113 142 112 
3 142 113 143 
3 114 143 113 
3 143 114 144 
3 115 144 114 
3 145 116 146 
3 117 146 116 
3 146 117 147 
3 118 147 117 
3 147 118 148 
3 119 148 118 
3 148 119 149 
3 120 149 119 
3 149 120 150 
3 121 150 120 
3 150 121 151 
3 122 151 121 
3 151 122 152 
3 123 152 122 
3 152 123 153 
3 124 153 123 
3 153 124 154 
3 125 154 124 
3 154 125 155 
3 126 155 125 
3 155 126 156 
3 127 156 126 
3 156 127 157 
3 128 157 127 
3 157 128 158 
3 129 158 128 
3 158 129 159 
3 130 159 129 
3 159 130 160 
3 131 160 130 
3 160 131 161 
3 132 161 131 
3 161 132 162 
3 133 162 132 
3 162 133 163 
3 134 163 133 
3 163 134 164 
3 135 164 134 
3 164 135 165 
3 136 165 135 
3 165 136 166 
3 137 166 136 
3 166 137 167 
3 138 167 137 
3 167 138 168 
3 139 168 138 
3 168 139 169 
3 140 169 139 
3 169 140 170 
3 141 170 140 
3 170 141 171 
3 142 171 141 
3 171 142 172 
3 143 172 142 
3 172 143 173 
3 144 173 143 
3 174 145 175 
3 146 175 145 
3 175 146 176 
3 147 176 146 
3 176 147 177 
3 148 177 147 
3 177 148 178 
3 149 178 148 
3 178 149 179 
3 150 179 149 
3 179 150 180 
3 151 180 150 
3 180 151 181 
3 152 181 151 
3 181 152 182 
3 153 182 152 
3 182 153 183 
3 154 183 153 
3 183 154 184 
3 155 184 154 
3 184 155 185 
3 156 185 155 
3 185 156 186 
3 157 186 156 
3 186 157 187 
3 158 187 157 
3 187 158 188 
3 159 188 158 
3 188 159 189 
3 160 189 159 
3 189 160 190 
3 161 190 160 
3 190 161 191 
3 162 191 161 
3 191 162 192 
3 163 192 162 
3 192 163 193 
3 164 193 163 
3 193 164 194 
3 165 194 164 
3 194 165 195 
3 166 195 165 
3 195 166 196 
3 167 196 166 
3 196 167 197 
3 168 197 167 
3 197 168 198 
3 169 198 168 
3 198 169 199 
3 170 199 169 
3 199 170 200 
3 171 200 170 
3 200 171 201 
3 172 201 171 
3 201 172 202 
3 173 202 172 
3 203 174 204 
3 175 204 174 
3 204 175 205 
3 176 205 175 
3 205 176 206 
3 177 206 176 
3 206 177 207 
3 178 207 177 
3 207 178 208 
3 179 208 178 
3 208 179 209 
3 180 209 179 
3 209 180 210 
3 181 210 180 
3 210 181 211 
3 182 211 181 
3 211 182 212 
3 183 212 182 
3 212 183 213 
3 184 213 183 
3 213 184 214 
3 185 214 184 
3 214 185 215 
3 186 215 185 
3 215 186 216 
3 187 216 186 
3 216 187 217 
3 188 217 187 
3 217 188 218 
3 189 218 188 
3 218 189 219 
3 190 219 189 
3 219 190 220 
3 191 220 190 
3 220 191 221 
3 192 221 191 
3 221 192 222 
3 193 222 192 
3 222 193 223 
3 194 223 193 
3 223 194 224 
3 195 224 194 
3 224 195 225 
3 196 225 195 
3 225 196 226 
3 197 226 196 
3 226 197 227 
3 198 227 197 
3 227 198 228 
3 199 228 198 
3 228 199 229 
3 200 229 199 
3 229 200 230 
3 201 230 200 
3 230 201 231 
3 202 231 201 
3 232 203 233 
3 204 233 203 
3 233 204 234 
3 205 234 204 
3 234 205 235 
3 206 235 205 
3 235 206 236 
3 207 236 206 
3 236 207 237 
3 208 237 207 
3 237 208 238 
3 209 238 208 
3 238 209 239 
3 210 239 209 
3 239 210 240 
3 211 240 210 
3 240 211 241 
3 212 241 211 
3 241 212 242 
3 213 242 212 
3 242 213 243 
3 214 243 213 
3 243 214 244 
3 215 244 214 
3 244 215 245 
3 216 245 215 
3 245 216 246 
3 217 246 216 
3 246 217 247 
3 218 247 217 
3 247 218 248 
3 219 248 218 
3 248 219 249 
3 220 249 219 
3 249 220 250 
3 221 250 220 
3 250 221 251 
3 222 251 221 
3 251 222 252 
3 223 252 222 
3 252 223 253 
3 224 253 223 
3 253 224 254 
3 225 254 224 
3 254 225 255 
3 226 255 225 
3 255 226 256 
3 227 256 226 
3 256 227 257 
3 228 257 227 
3 257 228 258 
3 229 258 228 
3 258 229 259 
3 230 259 229 
3 259 230 260 
3 231 260 230 
3 261 232 262 
3 233 262 232 
3 262 233 263 
3 234 263 233 
3 263 234 264 
3 235 264 234 
3 264 235 265 
3 236 265 235 
3 265 236 266 
3 237 266 236 
3 266 237 267 
3 238 267 237 
3 267 238 268 
3 239 268 238 
3 268 239 269 
3 240 269 239 
3 269 240 270 
3 241 270 240 
3 270 241 271 
3 242 271 241 
3 271 242 272 
3 243 272 242 
3 272 243 273 
3 244 273 243 
3 273 244 274 
3 245 274 244 
3 274 245 275 
3 246 275 245 
3 275 246 276 
3 247 276 246 
3 276 247 277 
3 248 277 247 
3 277 248 278 
3 249 278 248 
3 278 249 279 
3 250 279 249 
3 279 250 280 
3 251 280 250 
3 280 251 281 
3 252 281 251 
3 281 252 282 
3 253 282 252 
3 282 253 283 
3 254 283 253 
3 283 254 284 
3 255 284 254 
3 284 255 285 
3 256 285 255 
3 285 256 286 
3 257 286 256 
3 286 257 287 
3 258 287 257 
3 287 258 288 
3 259 288 258 
3 288 259 289 
3 260 289 259 
3 290 261 291 
3 262 291 261 
3 291 262 292 
3 263 292 262 
3 292 263 293 
3 264 293 263 
3 293 264 294 
3 265 294 264 
3 294 265 295 
3 266 295 265 
3 295 266 296 
3 267 296 266 
3 296 267 297 
3 268 297 267 
3 297 268 298 
3 269 298 268 
3 298 269 299 
3 270 299 269 
3 299 270 300 
3 271 300 270 
3 300 271 301 
3 272 301 271 
3 301 272 302 
3 273 302 272 
3 302 273 303 
3 274 303 273 
3 303 274 304 
3 275 304 274 
3 304 275 305 
3 276 305 275 
3 305 276 306 
3 277 306 276 
3 306 277 307 
3 278 307 277 
3 307 278 308 
3 279 308 278 
3 308 279 309 
3 280 309 279 
3 309 280 310 
3 281 310 280 
3 310 281 311 
3 282 311 281 
3 311 282 312 
3 283 312 282 
3 312 283 313 
3 284 313 283 
3 313 284 314 
3 285 314 284 
3 314 285 315 
3 286 315 285 
3 315 286 316 
3 287 316 286 
3 316 287 317 
3 288 317 287 
3 317 288 318 
3 289 318 288 
3 319 290 320 
3 291 320 290 
3 320 291 321 
3 292 321 291 
3 321 292 322 
3 293 322 292 
3 322 293 323 
3 294 323 293 
3 323 294 324 
3 295 324 294 
3 324 295 325 
3 296 325 295 
3 325 296 326 
3 297 326 296 
3 326 297 327 
3 298 327 297 
3 327 298 328 
3 299 328 298 
3 328 299 329 
3 300 329 299 
3 329 300 330 
3 301 330 300 
3 330 301 331 
3 302 331 301 
3 331 302 332 
3 303 332 302 
3 332 303 333 
3 304 333 303 
3 333 304 334 
3 305 334 304 
3 334 305 335 
3 306 335 305 
3 335 306 336 
3 307 336 306 
3 336 307 337 
3 308 337 307 
3 337 308 338 
3 309 338 308 
3 338 309 339 
3 310 339 309 
3 339 310 340 
3 311 340 310 
3 340 311 341 
3 312 341 311 
3 341 312 342 
3 313 342 312 
3 342 313 343 
3 314 343 313 
3 343 314 344 
3 315 344 314 
3 344 315 345 
3 316 345 315 
3 345 316 346 
3 317 346 316 
3 346 317 347 
3 318 347 317 
3 348 319 349 
3 320 349 319 
3 349 320 350 
3 321 350 320 
3 350 321 351 
3 322 351 321 
3 351 322 352 
3 323 352 322 
3 352 323 353 
3 324 353 323 
3 353 324 354 
3 325 354 324 
3 354 325 355 
3 326 355 325 
3 355 326 356 
3 327 356 326 
3 356 327 357 
3 328 357 327 
3 357 328 358 
3 329 358 328 
3 358 329 359 
3 330 359 329 
3 359 330 360 
3 331 360 330 
3 360 331 361 
3 332 361 331 
3 361 332 362 
3 333 362 332 
3 362 333 363 
3 334 363 333 
3 363 334 364 
3 335 364 334 
3 364 335 365 
3 336 365 335 
3 365 336 366 
3 337 366 336 
3 366 337 367 
3 338 367 337 
3 367 338 368 
3 339 368 338 
3 368 339 369 
3 340 369 339 
3 369 340 370 
3 341 370 340 
3 370 341 371 
3 342 371 341 
3 371 342 372 
3 343 372 342 
3 372 343 373 
3 344 373 343 
3 373 344 374 
3 345 374 344 
3 374 345 375 
3 346 375 345 
3 375 346 376 
3 347 376 346 
3 377 348 378 
3 349 378 348 
3 378 349 379 
3 350 379 349 
3 379 350 380 
3 351 380 350 
3 380 351 381 
3 352 381 351 
3 381 352 382 
3 353 382 352 
3 382 353 383 
3 354 383 353 
3 383 354 384 
3 355 384 354 
3 384 355 385 
3 356 385 355 
3 385 356 386 
3 357 386 356 
3 386 357 387 
3 358 387 357 
3 387 358 388 
3 359 388 358 
3 388 359 389 
3 360 389 359 
3 389 360 390 
3 361 390 360 
3 390 361 391 
3 362 391 361 
3 391 362 392 
3 363 392 362 
3 392 363 393 
3 364 393 363 
3 393 364 394 
3 365 394 364 
3 394 365 395 
3 366 395 365 
3 395 366 396 
3 367 396 366 
3 396 367 397 
3 368 397 367 
3 397 368 398 
3 369 398 368 
3 398 369 399 
3 370 399 369 
3 399 370 400 
3 371 400 370 
3 400 371 401 
3 372 401 371 
3 401 372 402 
3 373 402 372 
3 402 373 403 
3 374 403 373 
3 403 374 404 
3 375 404 374 
3 404 375 405 
3 376 405 375 
3 406 377 407 
3 378 407 377 
3 407 378 408 
3 379 408 378 
3 408 379 409 
3 380 409 379 
3 409 380 410 
3 381 410 380 
3 410 381 411 
3 382 411 381 
3 411 382 412 
3 383 412 382 
3 412 383 413 
3 384 413 383 
3 413 384 414 
3 385 414 384 
3 414 385 415 
3 386 415 385 
3 415 386 416 
3 387 416 386 
3 416 387 417 
3 388 417 387 
3 417 388 418 
3 389 418 388 
3 418 389 419 
3 390 419 389 
3 419 390 420 
3 391 420 390 
3 420 391 421 
3 392 421 391 
3 421 392 422 
3 393 422 392 
3 422 393 423 
3 394 423 393 
3 423 394 424 
3 395 424 394 
3 424 395 425 
3 396 425 395 
3 425 396 426 
3 397 426 396 
3 426 397 427 
3 398 427 397 
3 427 398 428 
3 399 428 398 
3 428 399 429 
3 400 429 399 
3 429 400 430 
3 401 430 400 
3 430 401 431 
3 402 431 401 
3 431 402 432 
3 403 432 402 
3 432 403 433 
3 404 433 403 
3 433 404 434 
3 405 434 404 
3 435 406 436 
3 407 436 406 
3 436 407 437 
3 408 437 407 
3 437 408 438 
3 409 438 408 
3 438 409 439 
3 410 439 409 
3 439 410 440 
3 411 440 410 
3 440 411 441 
3 412 441 411 
3 441 412 442 
3 413 442 412 
3 442 413 443 
3 414 443 413 
3 443 414 444 
3 415 444 414 
3 444 415 445 
3 416 445 415 
3 445 416 446 
3 417 446 416 
3 446 417 447 
3 418 447 417 
3 447 418 448 
3 419 448 418 
3 448 419 449 
3 420 449 419 
3 449 420 450 
3 421 450 420 
3 450 421 451 
3 422 451 421 
3 451 422 452 
3 423 452 422 
3 452 423 453 
3 424 453 423 
3 453 424 454 
3 425 454 424 
3 454 425 455 
3 426 455 425 
3 455 426 456 
3 427 456 426 
3 456 427 457 
3 428 457 427 
3 457 428 458 
3 429 458 428 
3 458 429 459 
3 430 459 429 
3 459 430 460 
3 431 460 430 
3 460 431 461 
3 432 461 431 
3 461 432 462 
3 433 462 432 
3 462 433 463 
3 434 463 433 
3 0 435 3 
3 436 3 435 
3 3 436 5 
3 437 5 436 
3 5 437 7 
3 438 7 437 
3 7 438 9 
3 439 9 438 
3 9 439 11 
3 440 11 439 
3 11 440 13 
3 441 13 440 
3 13 441 15 
3 442 15 441 
3 15 442 17 
3 443 17 442 
3 17 443 19 
3 444 19 443 
3 19 444 21 
3 445 21 444 
3 21 445 23 
3 446 23 445 
3 23 446 25 
3 447 25 446 
3 25 447 27 
3 448 27 447 
3 27 448 29 
3 449 29 448 
3 29 449 31 
3 450 31 449 
3 31 450 33 
3 451 33 450 
3 33 451 35 
3 452 35 451 
3 35 452 37 
3 453 37 452 
3 37 453 39 
3 454 39 453 
3 39 454 41 
3 455 41 454 
3 41 455 43 
3 456 43 455 
3 43 456 45 
3 457 45 456 
3 45 457 47 
3 458 47 457 
3 47 458 49 
3 459 49 458 
3 49 459 51 
3 460 51 459 
3 51 460 53 
3 461 53 460 
3 53 461 55 
3 462 55 461 
3 55 462 57 
3 463 57 462 
3 115 86 144 
3 173 144 202 
3 231 202 260 
3 202 144 260 
3 289 260 318 
3 347 318 376 
3 318 260 376 
3 405 376 434 
3 463 434 57 
3 434 376 57 
3 376 260 57 
3 260 144 57 
3 144 86 57 
3 86 56 57 
