ply
format ascii 1.0
comment VCGLIB generated
element vertex 464
property float x
property float y
property float z
property float nx
property float ny
property float nz
property float texture_u
property float texture_v
element face 910
property list uchar int vertex_indices
end_header
0.001061503 -0.6712109 0.1475708 0.07793111 -0.9918549 -0.1007505 0.5 0.25
-0.002859551 -0.6712002 0.148362 -0.03947497 -0.9953614 -0.08773481 0.5 0.25
-0.02212999 -0.6662688 0.1010863 -0.1737952 -0.791423 -0.5860418 0.5 0.25
0.001397737 -0.6663333 0.1012169 0.05754353 -0.8155271 -0.5758509 0.5 0.25
-0.02537555 -0.6504036 0.09320711 -0.2287769 -0.6376144 -0.7356011 0.5 0.25
0.00141773 -0.6504771 0.09267882 0.06517921 -0.6229158 -0.7795689 0.5 0.25
-0.05178386 -0.588126 0.02792099 -0.3249092 -0.3305458 -0.8861002 0.5 0.25
0.002066791 -0.5882737 0.02193324 0.03860709 -0.3371865 -0.9406459 0.5 0.25
-0.05079397 -0.5698329 0.03017201 -0.3386026 -0.1441515 -0.9298218 0.5 0.25
0.002123655 -0.5699781 0.02437253 0.04531723 -0.1412102 -0.9889419 0.5 0.25
-0.05402949 -0.5503086 0.02229278 -0.3442913 0.1310502 -0.9296716 0.5 0.25
0.002153661 -0.5504627 0.0158344 0.04368752 0.1326957 -0.9901936 0.5 0.25
-0.04929073 -0.5356849 0.03354849 -0.3227594 0.3171695 -0.8917567 0.5 0.25
0.002227354 -0.5358261 0.0280314 0.03962975 0.2298476 -0.9724195 0.5 0.25
-0.04972381 -0.5222667 0.0324228 -0.2817848 -0.6030098 -0.7463086 0.5 0.25
0.002254067 -0.5224093 0.0243706 0.01742286 -0.6575009 -0.7532523 0.5 0.25
-0.05346934 -0.5173777 0.0234181 -0.3542985 -0.2646261 -0.8969089 0.5 0.25
0.002240593 -0.5175305 0.01461285 0.02103854 -0.2695911 -0.9627451 0.5 0.25
-0.04966362 -0.5003119 0.03242263 -0.344837 0.3144104 -0.8844396 0.5 0.25
0.002314257 -0.5004545 0.02437041 0.01616954 0.2231281 -0.974655 0.5 0.25
-0.04916032 -0.4881161 0.03354812 -0.3054829 -0.5753639 -0.7587072 0.5 0.25
0.002344347 -0.4882573 0.02315574 -0.001381546 -0.6491717 -0.7606407 0.5 0.25
-0.05431541 -0.4832231 0.02116667 -0.3751666 -0.2309007 -0.8977388 0.5 0.25
0.002320828 -0.4833785 0.009738869 -0.003241396 -0.2318894 -0.9727368 0.5 0.25
-0.04863027 -0.4661626 0.03467352 -0.3671292 0.2953669 -0.8820286 0.5 0.25
0.002407916 -0.4663026 0.02437527 0.001714863 0.2961639 -0.9551356 0.5 0.25
-0.04907672 -0.4576233 0.03354787 -0.3640915 -0.3309161 -0.8705928 0.5 0.25
0.002427969 -0.4577646 0.0231555 0.001808895 -0.3321535 -0.9432237 0.5 0.25
-0.05093275 -0.4490802 0.02904547 -0.389045 -0.2059082 -0.897912 0.5 0.25
0.002437945 -0.4492266 0.01827658 -0.0127416 -0.2466397 -0.9690235 0.5 0.25
-0.04453329 -0.4198245 0.02902786 -0.3502274 -0.3211938 -0.8798724 0.5 0.25
0.00883741 -0.4199709 0.01825897 0.01941081 -0.3524318 -0.9356362 0.5 0.25
-0.05757673 -0.3868564 0.004272497 -0.3103279 -0.6049134 -0.7333324 0.5 0.25
0.006057103 -0.387031 -0.008567244 -0.005560415 -0.5994528 -0.8003908 0.5 0.75
-0.061762 -0.3709887 -0.005857873 -0.3672757 -0.3075761 -0.8777844 0.5 0.75
0.006070375 -0.3711748 -0.01954477 -0.0034699 -0.3085741 -0.951194 0.5 0.75
-0.06293752 -0.285605 -0.009235288 -0.3807535 -0.1580479 -0.9110696 0.5 0.75
0.006294396 -0.285795 -0.02320456 -0.003153101 -0.1590836 -0.9872601 0.5 0.75
-0.06843207 -0.2331421 -0.0227427 -0.3570732 -0.3809294 -0.8528726 0.5 0.75
0.006397932 -0.2333474 -0.03784151 -0.003592229 -0.3818991 -0.9241971 0.5 0.75
-0.08188082 -0.1684603 -0.05538508 -0.3299088 -0.5215219 -0.7868769 0.5 0.75
0.006477843 -0.1687027 -0.07321365 -0.003780044 -0.5224165 -0.8526821 0.5 0.75
-0.1020845 -0.08969949 -0.1043019 -0.3404642 -0.4550907 -0.8227859 0.5 0.75
0.006547793 -0.08999747 -0.1262212 0.007375912 -0.4385041 -0.8986989 0.5 0.75
-0.1207783 0.001773588 -0.1345297 -0.3739244 -0.1948053 -0.9067698 0.5 0.75
0.006712796 0.001423888 -0.1573562 0.01203934 -0.1818541 -0.9832519 0.5 0.75
-0.1213246 0.04489877 -0.1361218 -0.3726911 0.1117137 -0.9212065 0.5 0.75
0.006826273 0.04454717 -0.1590815 0.009666631 0.1097259 -0.9939149 0.5 0.75
-0.1070062 0.1776804 -0.1026948 -0.3395891 0.4151241 -0.844009 0.5 0.75
0.007290092 0.1773669 -0.1228589 0.009894044 0.4146522 -0.9099262 0.5 0.75
-0.1009644 0.2000884 -0.08836863 -0.2801466 0.6564971 -0.7003781 0.5 0.75
0.007394294 0.1997911 -0.1073347 0.01019746 0.6558761 -0.7547997 0.5 0.75
-0.0595062 0.2948474 0.01032305 -0.1817613 0.8659008 -0.4660243 0.5 0.25
0.007948647 0.2946623 -0.0003896265 0.01240977 0.8667542 -0.4985811 0.5 0.75
-0.0149794 0.3270788 0.1167769 -0.05501975 0.9850832 -0.1630456 0.5 0.25
0.008354723 0.3270149 0.1149667 0.01344135 0.9858603 -0.1670292 0.5 0.25
0.000972971 0.3287603 0.1549804 -0.002303491 0.9997008 -0.02435176 0.5 0.25
0.008473352 0.3287398 0.1563651 0.006730292 0.9997587 -0.02091154 0.5 0.25
-0.006179345 -0.6711911 0.1505935 -0.07042821 -0.9952509 -0.06719785 0.5 0.25
-0.04203867 -0.6662142 0.1144683 -0.4215552 -0.8051925 -0.4170806 0.5 0.25
-0.04804904 -0.6503414 0.1084476 -0.5514894 -0.6303545 -0.5463631 0.5 0.25
-0.09736582 -0.5880008 0.05855981 -0.6697128 -0.3297023 -0.665418 0.5 0.25
-0.09558599 -0.5697098 0.06027985 -0.7019187 -0.1425034 -0.6978559 0.5 0.25
-0.1015864 -0.5501779 0.05425903 -0.7022243 0.1343059 -0.6991732 0.5 0.25
-0.09289784 -0.5355651 0.06285985 -0.6725788 0.3137176 -0.670238 0.5 0.25
-0.09372591 -0.5221459 0.06199966 -0.5719855 -0.5921459 -0.5676231 0.5 0.25
-0.1006312 -0.5172481 0.05511888 -0.6837218 -0.2656502 -0.6796724 0.5 0.25
-0.09366572 -0.500191 0.06199948 -0.6727452 0.3130025 -0.6704054 0.5 0.25
-0.09281209 -0.4879962 0.0628596 -0.5839019 -0.5690685 -0.5789816 0.5 0.25
-0.1023119 -0.4830914 0.05339853 -0.6902176 -0.2299914 -0.6860784 0.5 0.25
-0.09188707 -0.4660438 0.06371952 -0.6766533 0.2962604 -0.6740698 0.5 0.25
-0.0927285 -0.4575034 0.06285936 -0.669599 -0.3300986 -0.6653361 0.5 0.25
-0.09616444 -0.448956 0.05941893 -0.7052762 -0.1726425 -0.6875901 0.5 0.25
-0.089765 -0.4197003 0.0594013 -0.6688529 -0.2942018 -0.6827014 0.5 0.25
-0.1114532 -0.3867084 0.04048657 -0.5639899 -0.6097758 -0.5568563 0.5 0.25
-0.1191932 -0.370831 0.0327456 -0.675296 -0.3067306 -0.6707396 0.5 0.25
-0.1215536 -0.2854441 0.03016465 -0.7004538 -0.1571696 -0.6961769 0.5 0.25
-0.1317879 -0.2329681 0.01984311 -0.6563525 -0.3801073 -0.6517055 0.5 0.25
-0.1566909 -0.1682548 -0.005100112 -0.5995896 -0.5254091 -0.6036868 0.5 0.75
-0.1940596 -0.08944686 -0.04247914 -0.6191257 -0.45859 -0.6374783 0.5 0.75
-0.2233663 0.002055399 -0.06557323 -0.6958635 -0.2056926 -0.6880876 0.5 0.75
-0.2244712 0.04518205 -0.06678994 -0.7043775 0.1127577 -0.7008124 0.5 0.75
-0.1984227 0.1779315 -0.04124752 -0.6441622 0.416153 -0.6417724 0.5 0.75
-0.1873537 0.2003256 -0.03030049 -0.5333015 0.657557 -0.5321733 0.5 0.75
-0.1112637 0.2949895 0.04511279 -0.3521571 0.8669839 -0.3525966 0.5 0.25
-0.02938149 0.3271183 0.1264575 -0.1184877 0.985613 -0.1205308 0.5 0.25
-2.327052e-05 0.3287631 0.15565 -0.01386645 0.9997674 -0.01652335 0.5 0.25
-0.008392483 -0.671185 0.1539256 -0.0907554 -0.9952064 -0.03643757 0.5 0.25
-0.05531086 -0.6661776 0.1344505 -0.5459643 -0.8058558 -0.2291712 0.5 0.25
-0.06316441 -0.6502998 0.1312047 -0.7166856 -0.6291816 -0.3008194 0.5 0.25
-0.1277532 -0.5879171 0.1043099 -0.8699837 -0.32955 -0.3667768 0.5 0.25
-0.1254468 -0.5696276 0.1052371 -0.9118008 -0.1423217 -0.3851803 0.5 0.25
-0.1333349 -0.5500906 0.1019914 -0.9130369 0.1342836 -0.3851384 0.5 0.25
-0.1220133 -0.5354849 0.106628 -0.8742029 0.313571 -0.3707324 0.5 0.25
-0.1231047 -0.522065 0.1061642 -0.741138 -0.5917731 -0.3170474 0.5 0.25
-0.1321165 -0.5171614 0.1024548 -0.8826655 -0.2677799 -0.3862585 0.5 0.25
-0.1230445 -0.5001102 0.106164 -0.8685381 0.3135039 -0.3838709 0.5 0.25
-0.1218829 -0.4879162 0.1066276 -0.7567703 -0.5623072 -0.3333306 0.5 0.25
-0.1342791 -0.4830033 0.1015272 -0.8912662 -0.232222 -0.3895094 0.5 0.25
-0.1206946 -0.4659644 0.1070911 -0.8738155 0.2946555 -0.3868133 0.5 0.25
-0.1217993 -0.4574234 0.1066273 -0.8643797 -0.3282479 -0.3809214 0.5 0.25
-0.1262885 -0.448873 0.1047726 -0.8958284 -0.1699824 -0.4106062 0.5 0.25
-0.119889 -0.4196173 0.104755 -0.8615496 -0.2650104 -0.4330148 0.5 0.25
-0.1473701 -0.3866096 0.09456172 -0.7171958 -0.6125957 -0.3322 0.5 0.25
-0.1574799 -0.3707255 0.09038861 -0.8638554 -0.307948 -0.3986501 0.5 0.25
-0.1606303 -0.2853365 0.08899695 -0.8970192 -0.1551325 -0.4138725 0.5 0.25
-0.1740243 -0.2328518 0.08343258 -0.8426722 -0.3769499 -0.3844638 0.5 0.25
-0.2065632 -0.1681175 0.06998584 -0.7729757 -0.5353612 -0.3404365 0.5 0.25
-0.2616943 -0.0892607 0.04985247 -0.8159001 -0.4590203 -0.3515784 0.5 0.25
-0.291757 0.00224369 0.0373931 -0.9059874 -0.1904116 -0.3780611 0.5 0.25
-0.2932342 0.04537135 0.03673703 -0.9189249 0.1133482 -0.3777952 0.5 0.25
-0.2593658 0.1780993 0.05050607 -0.8406342 0.416695 -0.3459761 0.5 0.25
-0.2449454 0.2004841 0.05640736 -0.6962191 0.6580065 -0.286891 0.5 0.25
-0.145768 0.2950846 0.09706114 -0.4600998 0.8672811 -0.1900836 0.5 0.25
-0.03898273 0.3271448 0.1409127 -0.1553828 0.9857149 -0.06498021 0.5 0.25
-0.0006874508 0.3287649 0.1566499 -0.01898772 0.99978 -0.008911313 0.5 0.25
-0.009162029 -0.6711828 0.157851 -0.09753788 -0.9952318 0.0002695 0.5 0.25
-0.06037633 -0.6661636 0.1579919 -0.5951235 -0.803624 -0.004069124 0.5 0.25
-0.0688708 -0.6502839 0.1580153 -0.7752235 -0.6316711 -0.004491004 0.5 0.25
-0.1393986 -0.5878848 0.1582093 -0.9441897 -0.329348 -0.005977199 0.5 0.25
-0.136909 -0.5695958 0.1582024 -0.9897248 -0.1428033 -0.007221477 0.5 0.25
-0.1454381 -0.5500569 0.1582259 -0.9910038 0.1336969 -0.006061425 0.5 0.25
-0.1332009 -0.5354538 0.1581922 -0.9489043 0.315485 -0.007065778 0.5 0.25
-0.1343838 -0.5220336 0.1581955 -0.7847803 -0.6197456 -0.005952586 0.5 0.25
-0.145763 -0.5171235 0.1582268 -0.9579744 -0.2864588 -0.01504849 0.5 0.25
-0.1359585 -0.5000744 0.1581998 -0.9484428 0.3162506 -0.02102125 0.5 0.25
-0.1347053 -0.4878806 0.1581963 -0.8197108 -0.572453 -0.01928105 0.5 0.25
-0.1481088 -0.482965 0.1582332 -0.9736617 -0.2272845 -0.01801793 0.5 0.25
-0.1334255 -0.4659292 0.1581928 -0.95448 0.2974623 -0.02200485 0.5 0.25
-0.1346601 -0.4573877 0.1581962 -0.942954 -0.3321987 -0.02195293 0.5 0.25
-0.1395156 -0.4488364 0.1582095 -0.96912 -0.2457169 -0.02072547 0.5 0.25
-0.1394353 -0.4195633 0.1582093 -0.9402726 -0.3356329 -0.05690487 0.5 0.25
-0.1661786 -0.3865575 0.1582829 -0.79877 -0.600216 -0.04131815 0.5 0.25
-0.1771125 -0.3706712 0.158313 -0.9517751 -0.3043398 -0.03874781 0.5 0.25
-0.1805375 -0.2852813 0.1583223 -0.986771 -0.1569262 -0.04070777 0.5 0.25
-0.1950302 -0.2327936 0.1583622 -0.9239311 -0.3808753 -0.03585347 0.5 0.25
-0.2302245 -0.168052 0.158459 -0.852872 -0.5213613 -0.02814225 0.5 0.25
-0.2830154 -0.08920139 0.1586042 -0.8936548 -0.448743 -0.003294794 0.5 0.25
-0.3155383 0.002309851 0.1586937 -0.9827733 -0.1847954 0.002700474 0.5 0.25
-0.317145 0.0454379 0.1586981 -0.9935279 0.1135559 0.002737508 0.5 0.25
-0.2805575 0.1781583 0.1585974 -0.9089565 0.4168838 0.002493473 0.5 0.25
-0.2649716 0.2005399 0.1585545 -0.7528726 0.658163 0.002068884 0.5 0.25
-0.1577662 0.2951179 0.1582595 -0.4976349 0.8673856 0.001366993 0.5 0.25
-0.04232135 0.327154 0.1579418 -0.1682147 0.9857503 0.0004625902 0.5 0.25
-0.0009184093 0.3287656 0.1578279 -0.02067867 0.9997862 5.623664e-05 0.5 0.25
-0.00837081 -0.671185 0.1617721 -0.09022471 -0.9952513 0.03652871 0.5 0.25
-0.05563171 -0.6661764 0.1815063 -0.5478168 -0.8049959 0.2277683 0.5 0.25
-0.06346727 -0.6502985 0.1847952 -0.7160096 -0.631237 0.2981111 0.5 0.25
-0.1285356 -0.5879142 0.2120467 -0.8722875 -0.3339604 0.3571906 0.5 0.25
-0.1262343 -0.5696247 0.2111068 -0.9184335 -0.1420533 0.3691894 0.5 0.25
-0.1341045 -0.5500876 0.2143959 -0.9188536 0.1342759 0.3710501 0.5 0.25
-0.1228086 -0.5354819 0.2096971 -0.8811597 0.3133221 0.3541003 0.5 0.25
-0.1238974 -0.522062 0.2101668 -0.7316897 -0.6126785 0.2987565 0.5 0.25
-0.1345235 -0.517154 0.2139302 -0.8841909 -0.2889233 0.3670558 0.5 0.25
-0.125472 -0.5001027 0.2101712 -0.8758173 0.3146742 0.3659568 0.5 0.25
-0.124313 -0.4879087 0.2097012 -0.7600314 -0.5675398 0.3166241 0.5 0.25
-0.136681 -0.4829959 0.2148697 -0.8988657 -0.2302531 0.3728593 0.5 0.25
-0.1231272 -0.4659569 0.2092312 -0.8833906 0.2944911 0.3645491 0.5 0.25
-0.1242678 -0.4574158 0.2097011 -0.872135 -0.3300755 0.3611522 0.5 0.25
-0.1287467 -0.4488655 0.2115805 -0.8944144 -0.2466378 0.3730856 0.5 0.25
-0.1286665 -0.4195924 0.2115802 -0.8656961 -0.3467867 0.3609838 0.5 0.25
-0.1533389 -0.3865922 0.221917 -0.740881 -0.596544 0.3085946 0.5 0.25
-0.1634256 -0.3707081 0.2261456 -0.8786295 -0.3061644 0.3664335 0.5 0.25
-0.1665683 -0.2853191 0.2275545 -0.9115036 -0.1565825 0.38032 0.5 0.25
-0.1799314 -0.2328344 0.2331925 -0.8539194 -0.3795576 0.3560306 0.5 0.25
-0.212396 -0.1681001 0.246818 -0.7883101 -0.5202565 0.328482 0.5 0.25
-0.2610961 -0.08926065 0.267237 -0.82744 -0.4431528 0.344904 0.5 0.25
-0.2910899 0.00224375 0.2798615 -0.9069704 -0.1850006 0.3783906 0.5 0.25
-0.2925635 0.04537141 0.2805257 -0.9168292 0.1133484 0.3828531 0.5 0.25
-0.2587714 0.1780993 0.2665704 -0.8387244 0.4166941 0.3505818 0.5 0.25
-0.2443836 0.2004842 0.2605898 -0.6946333 0.6580054 0.2907122 0.5 0.25
-0.1454315 0.2950846 0.2193908 -0.4590482 0.8672813 0.1926082 0.5 0.25
-0.03888911 0.3271448 0.1749523 -0.1550242 0.9857147 0.06583376 0.5 0.25
-0.00068101 0.3287649 0.1590046 -0.01887752 0.9997812 0.00901414 0.5 0.25
-0.006139311 -0.6711911 0.1650919 -0.06959242 -0.9953075 0.0672307 0.5 0.25
-0.04224971 -0.6662129 0.2014151 -0.4191238 -0.8053471 0.419227 0.5 0.25
-0.04822686 -0.6503401 0.2074688 -0.5474688 -0.6317818 0.5487528 0.5 0.25
-0.09794155 -0.5879977 0.257629 -0.6554615 -0.3597808 0.6640241 0.5 0.25
-0.09780605 -0.5697023 0.2559037 -0.7037201 -0.1701269 0.6898078 0.5 0.25
-0.1037732 -0.5501703 0.2619574 -0.7068675 0.1335816 0.6946181 0.5 0.25
-0.09513216 -0.5355574 0.2533089 -0.6765793 0.3160364 0.6651026 0.5 0.25
-0.09595545 -0.5221382 0.2541736 -0.5736018 -0.5948433 0.5631539 0.5 0.25
-0.1028228 -0.5172405 0.2610923 -0.6809453 -0.2674284 0.6817592 0.5 0.25
-0.09589527 -0.5001835 0.2541734 -0.6685366 0.3141361 0.6740751 0.5 0.25
-0.09500174 -0.4879887 0.2533085 -0.5806354 -0.5681875 0.5831171 0.5 0.25
-0.1044494 -0.4830838 0.2628217 -0.6833485 -0.2348979 0.6912725 0.5 0.25
-0.09468219 -0.4660363 0.2523489 -0.6762533 0.2890454 0.6775945 0.5 0.25
-0.09555728 -0.4574958 0.2532138 -0.6756101 -0.3158412 0.6661797 0.5 0.25
-0.09837351 -0.4489484 0.2567676 -0.6868037 -0.2336858 0.6882526 0.5 0.25
-0.09829324 -0.4196753 0.2567674 -0.6630314 -0.3466265 0.6635054 0.5 0.25
-0.1171249 -0.3866911 0.2757936 -0.5668398 -0.597413 0.5672657 0.5 0.25
-0.1248223 -0.3708135 0.283577 -0.6727782 -0.306805 0.6732312 0.5 0.25
-0.1271685 -0.2854266 0.2861709 -0.697551 -0.1566416 0.6992039 0.5 0.25
-0.1373458 -0.2329507 0.2965485 -0.6527532 -0.380107 0.6553107 0.5 0.25
-0.1621112 -0.1682374 0.3216284 -0.60271 -0.5207632 0.6046043 0.5 0.25
-0.1992737 -0.08942942 0.3592124 -0.6325607 -0.4436849 0.6348313 0.5 0.25
-0.2221337 0.002055489 0.38245 -0.6922362 -0.1844723 0.6976955 0.5 0.25
-0.2232319 0.04518216 0.3836727 -0.6978701 0.1128131 0.7072839 0.5 0.25
-0.1973244 0.1779316 0.3579873 -0.6392157 0.4150461 0.6474103 0.5 0.25
-0.1863157 0.2003257 0.3469794 -0.5303676 0.6575578 0.5350963 0.5 0.25
-0.1106419 0.2949896 0.2711485 -0.3502143 0.8669842 0.3545255 0.5 0.25
-0.02920853 0.3271183 0.1893544 -0.1178224 0.9856132 0.1211801 0.5 0.25
-1.139388e-05 0.3287631 0.1600008 -0.01377352 0.9997674 0.01659901 0.5 0.25
-0.002807237 -0.6712002 0.167305 -0.04045927 -0.9956809 0.08356287 0.5 0.25
-0.02226763 -0.6662676 0.2146873 -0.2708078 -0.8169379 0.5091912 0.5 0.25
-0.02546978 -0.6504024 0.2225842 -0.3573313 -0.6213236 0.6973316 0.5 0.25
-0.0521916 -0.5881229 0.2880165 -0.3882058 -0.3525634 0.8514666 0.5 0.25
-0.05284895 -0.5698253 0.2857645 -0.4186617 -0.1602016 0.8939003 0.5 0.25
-0.05604108 -0.550301 0.2936615 -0.4057817 0.1394877 0.9032632 0.5 0.25
-0.05136434 -0.5356773 0.2823798 -0.3813567 0.3194532 0.8674772 0.5 0.25
-0.05119955 -0.5222607 0.2835062 -0.3239478 -0.5824436 0.7455316 0.5 0.25
-0.05489545 -0.5173717 0.2925314 -0.3801824 -0.2721763 0.8839579 0.5 0.25
-0.05174008 -0.5003059 0.2834116 -0.3714864 0.3163244 0.8728899 0.5 0.25
-0.05124298 -0.4881101 0.2822833 -0.320606 -0.5724089 0.754692 0.5 0.25
-0.05632989 -0.4832172 0.2946929 -0.4040082 -0.2353127 0.8839713 0.5 0.25
-0.05071914 -0.4661565 0.281155 -0.3751463 0.2928111 0.8795038 0.5 0.25
-0.05178947 -0.4576156 0.2822848 -0.3728138 -0.3540224 0.8577167 0.5 0.25
-0.05362071 -0.4490725 0.2867973 -0.4035932 -0.2482921 0.8806041 0.5 0.25
-0.05354046 -0.4197994 0.2867971 -0.3853881 -0.3359576 0.8594233 0.5 0.25
-0.06304999 -0.386839 0.3117107 -0.3015771 -0.596881 0.7434947 0.5 0.25
-0.0677802 -0.3709713 0.3217693 -0.356024 -0.3092361 0.8818277 0.5 0.25
-0.06893712 -0.2855876 0.3251531 -0.3691448 -0.1571511 0.9159889 0.5 0.25
-0.07375655 -0.2331247 0.3387851 -0.3469101 -0.3832271 0.8560318 0.5 0.25
-0.08702549 -0.1684429 0.3715009 -0.3270551 -0.5214212 0.7881338 0.5 0.25
-0.1069598 -0.08968201 0.4205281 -0.3428372 -0.4444881 0.8275827 0.5 0.25
-0.1191677 0.001773737 0.4508408 -0.3788017 -0.1798375 0.9078369 0.5 0.25
-0.118032 0.04489433 0.4524315 -0.3770705 0.1180516 0.9186303 0.5 0.25
-0.1038978 0.177676 0.4189261 -0.3332331 0.4155992 0.8463055 0.5 0.25
-0.09960817 0.2000884 0.4045714 -0.2675427 0.650377 0.7109364 0.5 0.25
-0.05869374 0.2948475 0.305653 -0.1670647 0.8629267 0.476914 0.5 0.25
-0.0147534 0.3270788 0.1989557 -0.06348531 0.9855512 0.15703 0.5 0.25
0.0009884986 0.3287603 0.160665 -0.006651512 0.9997549 0.02111617 0.5 0.25
0.001118126 -0.6712109 0.1680746 -0.03758816 -0.9943885 0.09888773 0.5 0.25
0.001286664 -0.6663321 0.2244683 -0.06602705 -0.7943443 0.6038688 0.5 0.25
0.001353628 -0.6504758 0.2330062 -0.07336287 -0.6378081 0.7666933 0.5 0.25
0.001718001 -0.5882706 0.3034583 -0.03277574 -0.3320645 0.9426871 0.5 0.25
0.0001265909 -0.5699704 0.3010232 -0.04897884 -0.1474889 0.9878502 0.5 0.25
0.0002035875 -0.5504551 0.309561 -0.04303911 0.1671745 0.9849875 0.5 0.25
0.0007951277 -0.5358201 0.294925 -0.04444033 0.3543388 0.9340606 0.5 0.25
0.0008352689 -0.5224033 0.2961447 -0.02954852 -0.5905229 0.8064798 0.5 0.25
0.0008754872 -0.5175245 0.3059022 -0.01446976 -0.2641503 0.964373 0.5 0.25
0.000294725 -0.5004485 0.2960499 -0.01955853 0.4021104 0.9153823 0.5 0.25
0.000318093 -0.4882513 0.292392 -0.01291841 -0.5364503 0.8438331 0.5 0.25
0.0003817945 -0.4833725 0.310684 -0.03275636 -0.2626039 0.9643476 0.5 0.25
0.001431492 -0.4662994 0.2960445 -0.04782764 0.5277446 0.8480555 0.5 0.25
0.001444838 -0.4577615 0.2923889 -0.04989452 -0.2394237 0.9696323 0.5 0.25
0.0014951 -0.4492235 0.3021429 -0.04193722 -0.4027023 0.9143698 0.5 0.25
0.007899068 -0.4199677 0.3037647 -0.01989147 -0.3287653 0.9442022 0.5 0.25
0.006977244 -0.3870309 0.325822 -0.02143538 -0.5389671 0.8420541 0.5 0.25
0.008118914 -0.3711792 0.3350607 -0.007406385 -0.277524 0.9606902 0.5 0.25
0.008363036 -0.2857995 0.3387192 -0.005507692 -0.1587947 0.9872963 0.5 0.25
0.009147814 -0.2333519 0.3534499 0.0009259406 -0.3885585 0.9214236 0.5 0.25
0.007753625 -0.1687026 0.390465 -0.002784803 -0.527859 0.8493275 0.5 0.25
0.008115234 -0.08999734 0.4434713 -0.003057668 -0.4454351 0.895309 0.5 0.25
0.008456038 0.001424067 0.4762443 -0.003421245 -0.1949463 0.980808 0.5 0.25
0.01025428 0.04454273 0.4787019 0.002501175 0.1031345 0.9946643 0.5 0.25
0.01051872 0.1773624 0.4424773 0.00181087 0.4939582 0.8694838 0.5 0.25
0.008843506 0.1997912 0.4194199 0.009300752 0.7261195 0.6875057 0.5 0.25
0.008809329 0.2946624 0.3124733 0.02697696 0.8650534 0.5009539 0.5 0.25
0.008599339 0.3270149 0.2039163 0.04821315 0.9806857 0.1895547 0.5 0.25
0.008490158 0.3287398 0.162518 0.002305447 0.9997194 0.02357828 0.5 0.25
0.005053392 -0.6712217 0.1724493 -0.0895667 -0.9869956 0.1334823 0.5 0.25
0.02480097 -0.6663966 0.2197237 0.2283769 -0.8085372 0.5423204 0.5 0.25
0.02813345 -0.6505493 0.2276026 0.2963961 -0.6340941 0.7141948 0.5 0.25
0.05555598 -0.5884183 0.2928859 0.3684191 -0.3108945 0.8761348 0.5 0.25
0.05299237 -0.5701154 0.2903485 0.3764154 -0.1222085 0.9183554 0.5 0.25
0.0563349 -0.5506091 0.2982275 0.3822542 0.1313427 0.9146753 0.5 0.25
0.05167643 -0.5359597 0.2869715 0.3535552 0.3182106 0.8796253 0.5 0.25
0.05218306 -0.5225441 0.288097 0.3043312 -0.5422348 0.7831756 0.5 0.25
0.05594862 -0.5176755 0.2946644 0.3893609 -0.2212714 0.8941124 0.5 0.25
0.05223654 -0.5005893 0.2856597 0.3618511 0.3883469 0.8474966 0.5 0.25
0.0517934 -0.4883909 0.2820959 0.3320989 -0.5347479 0.7770168 0.5 0.25
0.05698868 -0.4835262 0.2993525 0.3611282 -0.2785767 0.8899334 0.5 0.25
0.05307037 -0.4664394 0.2858408 0.372773 0.2821005 0.8840021 0.5 0.25
0.05356364 -0.4579028 0.2869663 0.3388429 -0.3202982 0.8846437 0.5 0.25
0.0554665 -0.4493699 0.2914686 0.3484503 -0.3165391 0.8822615 0.5 0.25
0.06187048 -0.4201141 0.2930904 0.3852516 -0.3759811 0.8427452 0.5 0.25
0.07061106 -0.3872055 0.3129823 0.3075185 -0.5851712 0.750338 0.5 0.25
0.07655856 -0.3713653 0.3238454 0.3550773 -0.3285652 0.8751943 0.5 0.25
0.07820221 -0.2859894 0.3272214 0.3630933 -0.1603397 0.9178532 0.5 0.25
0.08398431 -0.2335571 0.340728 0.3427443 -0.3801728 0.8590664 0.5 0.25
0.09611431 -0.168945 0.373374 0.3210801 -0.5224472 0.7899092 0.5 0.25
0.1167496 -0.09029534 0.4222895 0.3408594 -0.44638 0.8273813 0.5 0.25
0.1296254 0.001091711 0.4525333 0.3724524 -0.1957109 0.9071805 0.5 0.25
0.1320814 0.04420852 0.4541203 0.3845016 0.1015489 0.9175219 0.5 0.25
0.1184913 0.1770663 0.4206913 0.3346867 0.4938598 0.8025505 0.5 0.25
0.1108784 0.1995113 0.3988318 0.266641 0.7310317 0.6280887 0.5 0.25
0.06994045 0.2944947 0.3001386 0.1949884 0.8654903 0.4614176 0.5 0.25
0.02559102 0.3269681 0.1936843 0.08844103 0.9849337 0.1486063 0.5 0.25
0.009666824 0.3287365 0.1622806 0.01395452 0.9996324 0.02324696 0.5 0.25
0.006699943 -0.6712262 0.1702224 0.07622774 -0.9955701 0.05504137 0.5 0.25
0.04303643 -0.6664466 0.2063462 0.4031275 -0.8272536 0.3913307 0.5 0.25
0.05080695 -0.6506115 0.2123621 0.5417112 -0.6518191 0.5307362 0.5 0.25
0.101138 -0.5885435 0.2622471 0.6784407 -0.3005037 0.6703848 0.5 0.25
0.09778443 -0.5702385 0.2602407 0.702256 -0.1090819 0.7035181 0.5 0.25
0.1038918 -0.5507396 0.2662612 0.7031705 0.1304572 0.6989509 0.5 0.25
0.09528355 -0.5360795 0.2576602 0.6745294 0.310061 0.6699793 0.5 0.25
0.09618518 -0.522665 0.2585202 0.5995046 -0.4969181 0.6274286 0.5 0.25
0.1031038 -0.517805 0.2605256 0.7148296 -0.1926891 0.6722274 0.5 0.25
0.09623195 -0.5007102 0.2536447 0.6870353 0.3092625 0.6575251 0.5 0.25
0.09540055 -0.4885107 0.2527846 0.5842585 -0.5935014 0.5535324 0.5 0.25
0.1049405 -0.4836578 0.2671208 0.6922221 -0.2767094 0.6665287 0.5 0.25
0.09628256 -0.4665581 0.256795 0.7114578 0.2720443 0.647935 0.5 0.25
0.0971708 -0.4580225 0.2576551 0.6918563 -0.3353569 0.63943 0.5 0.25
0.1006535 -0.449494 0.2610953 0.684101 -0.2900465 0.6692375 0.5 0.25
0.1070441 -0.4202382 0.2578418 0.6829785 -0.3902766 0.6174338 0.5 0.25
0.1244875 -0.3873535 0.2767682 0.5641532 -0.6128429 0.5533125 0.5 0.25
0.1339898 -0.3715231 0.2852419 0.6737964 -0.3404262 0.6558266 0.5 0.25
0.1368184 -0.2861504 0.2878215 0.7085212 -0.1589974 0.6875445 0.5 0.25
0.1473402 -0.2337312 0.2981423 0.6636844 -0.3812947 0.643535 0.5 0.25
0.1709244 -0.1691505 0.3230891 0.6050934 -0.5183843 0.6042679 0.5 0.25
0.2087247 -0.09054798 0.3604669 0.6341031 -0.4467648 0.6311217 0.5 0.25
0.2322135 0.0008098111 0.3835768 0.6951934 -0.2016867 0.6899483 0.5 0.25
0.235228 0.04392528 0.3847884 0.7111577 0.09535609 0.6965356 0.5 0.25
0.2099079 0.1768152 0.359244 0.6186974 0.4790462 0.6226784 0.5 0.25
0.1972678 0.199274 0.3407637 0.4854791 0.7208913 0.4945967 0.5 0.25
0.121698 0.2943526 0.2653489 0.3407305 0.8664446 0.3649338 0.5 0.25
0.03999314 0.3269287 0.1840036 0.09970719 0.9860829 0.1330374 0.5 0.25
0.01066307 0.3287338 0.161611 0.02119968 0.9995928 0.01909748 0.5 0.25
0.00891309 -0.6712323 0.1668903 0.08495922 -0.9957319 0.03605255 0.5 0.25
0.05630861 -0.6664832 0.186364 0.5241221 -0.8259726 0.2075215 0.5 0.25
0.06592233 -0.6506532 0.189605 0.69946 -0.6642817 0.2636014 0.5 0.25
0.1315254 -0.5886272 0.2164969 0.886081 -0.2974823 0.3554782 0.5 0.25
0.1276452 -0.5703207 0.2152835 0.9195342 -0.1023737 0.3794424 0.5 0.25
0.1355957 -0.550827 0.2185289 0.9171489 0.1298686 0.3767917 0.5 0.25
0.1243544 -0.5361595 0.2138921 0.8799518 0.3108681 0.3592295 0.5 0.25
0.1255193 -0.5227457 0.2143557 0.7658842 -0.5477925 0.3366672 0.5 0.25
0.1345444 -0.5178916 0.2131897 0.903569 -0.2357377 0.357758 0.5 0.25
0.1255661 -0.500791 0.2094803 0.8781444 0.3111168 0.3634127 0.5 0.25
0.1244714 -0.4885907 0.2090165 0.7586401 -0.5717036 0.3124424 0.5 0.25
0.1368944 -0.4837459 0.2141168 0.9037171 -0.2386576 0.3554406 0.5 0.25
0.1234034 -0.4666328 0.2085527 0.8980671 0.2852802 0.3347996 0.5 0.25
0.124555 -0.458098 0.2090163 0.8850107 -0.3326375 0.3257429 0.5 0.25
0.129091 -0.4495724 0.2108709 0.8752996 -0.3573371 0.3258233 0.5 0.25
0.1354949 -0.4203166 0.2124927 0.8358614 -0.4455087 0.3207144 0.5 0.25
0.1604065 -0.3874523 0.2234306 0.7397065 -0.5998702 0.3049426 0.5 0.25
0.1706032 -0.3716239 0.2276034 0.8798681 -0.3145767 0.3561933 0.5 0.25
0.1742218 -0.2862534 0.2289938 0.9163163 -0.1541104 0.3696139 0.5 0.25
0.1878968 -0.2338429 0.2321803 0.8603863 -0.3827066 0.3365578 0.5 0.25
0.2207968 -0.1692878 0.2480031 0.7874469 -0.525588 0.322001 0.5 0.25
0.2700402 -0.0907169 0.2681526 0.8272979 -0.4464118 0.3410202 0.5 0.25
0.3006021 0.0006215498 0.279873 0.9085734 -0.1922985 0.370831 0.5 0.25
0.3023178 0.04374057 0.2812659 0.9210731 0.1039253 0.3752652 0.5 0.25
0.2691777 0.176652 0.2674948 0.8449735 0.412158 0.3408013 0.5 0.25
0.2548803 0.1991155 0.2615932 0.6942245 0.6588976 0.2896659 0.5 0.25
0.1562231 0.2942576 0.220938 0.459445 0.8638599 0.2065345 0.5 0.25
0.04961308 0.3269022 0.1763483 0.1535667 0.9839928 0.09041882 0.5 0.25
0.01132725 0.328732 0.160611 0.02499503 0.9996365 0.01010589 0.5 0.25
0.009682623 -0.6712344 0.1629649 0.09229881 -0.9957314 0.0002513476 0.5 0.25
0.06092368 -0.666496 0.1628239 0.5890241 -0.8081139 -0.001623358 0.5 0.25
0.0695051 -0.6506632 0.1628003 0.768892 -0.6390947 -0.01905353 0.5 0.25
0.1404186 -0.5886519 0.1626052 0.9417791 -0.3358485 -0.01606492 0.5 0.25
0.1380286 -0.5703495 0.1623211 0.9897633 -0.1423806 -0.009824449 0.5 0.25
0.14662 -0.5508575 0.1622974 0.9915545 0.129662 -0.002729725 0.5 0.25
0.1344631 -0.5361876 0.1623309 0.9502836 0.3112526 0.009110591 0.5 0.25
0.1357129 -0.5227741 0.1598903 0.8013747 -0.5979626 -0.0154692 0.5 0.25
0.1454839 -0.517922 0.1598596 0.9632504 -0.2686037 -0.00088895 0.5 0.25
0.135773 -0.5008193 0.1598863 0.9497796 0.3126167 0.01376259 0.5 0.25
0.1345801 -0.4886189 0.1574553 0.8181051 -0.5748767 -0.01485825 0.5 0.25
0.1480102 -0.4837768 0.1574183 0.9720975 -0.2345622 -0.002673224 0.5 0.25
0.1334206 -0.4666607 0.1574585 0.9564871 0.2917631 -0.002633563 0.5 0.25
0.1346637 -0.4581261 0.1574551 0.9423912 -0.3345028 -0.002596496 0.5 0.25
0.1395659 -0.4496015 0.1574416 0.934922 -0.3548164 -0.005122793 0.5 0.25
0.1459699 -0.4203458 0.1590634 0.89419 -0.4476813 0.002405371 0.5 0.25
0.1728957 -0.3874871 0.1597268 0.7999226 -0.6001031 -0.0001067975 0.5 0.25
0.1839166 -0.3716609 0.1596965 0.9503471 -0.311181 -0.00262124 0.5 0.25
0.1878098 -0.2862912 0.1596858 0.9868215 -0.16179 -0.002715578 0.5 0.25
0.20259 -0.2338837 0.1596452 0.9234331 -0.3837592 -0.0003972494 0.5 0.25
0.2381387 -0.169336 0.1595473 0.8509056 -0.5253157 -0.001754361 0.5 0.25
0.2913611 -0.09077613 0.1594009 0.8940954 -0.4478723 -0.001959272 0.5 0.25
0.3243834 0.0005553886 0.1585725 0.9817429 -0.1901661 -0.004216026 0.5 0.25
0.3262286 0.04367405 0.1593049 0.9941399 0.1080884 -0.001660321 0.5 0.25
0.2903693 0.1765931 0.1594036 0.9112283 0.4118941 -0.002500077 0.5 0.25
0.2749064 0.1990598 0.1594462 0.7564698 0.6540253 -0.002078927 0.5 0.25
0.1682212 0.2942242 0.1597396 0.5023832 0.8646442 -0.001299959 0.5 0.25
0.05295168 0.326893 0.1593192 0.173617 0.9848131 -0.0006198167 0.5 0.25
0.0115582 0.3287314 0.1594331 0.02615351 0.9996579 -7.183477e-05 0.5 0.25
0.008890614 -0.6712323 0.1587532 0.08451762 -0.9958264 -0.03444912 0.5 0.25
0.05617905 -0.6664832 0.1393095 0.5459207 -0.8123232 -0.2051872 0.5 0.25
0.06410157 -0.6506486 0.1360203 0.724387 -0.6314814 -0.2765766 0.5 0.25
0.1295556 -0.5886226 0.1087678 0.872939 -0.3347811 -0.3548227 0.5 0.25
0.1273538 -0.5703207 0.1094167 0.9119824 -0.1498466 -0.3818823 0.5 0.25
0.1352864 -0.5508269 0.1061275 0.9150602 0.1298691 -0.3818364 0.5 0.25
0.1240707 -0.5361595 0.110826 0.890754 0.2779748 -0.3595656 0.5 0.25
0.1252263 -0.5227458 0.1079151 0.717195 -0.6235443 -0.3111653 0.5 0.25
0.1342444 -0.5178916 0.1041561 0.8884628 -0.2699224 -0.3711814 0.5 0.25
0.1252865 -0.500791 0.1079149 0.8913977 0.2758151 -0.3596336 0.5 0.25
0.1241877 -0.4885908 0.1059504 0.7300114 -0.6041031 -0.3195978 0.5 0.25
0.1365824 -0.4837459 0.1007818 0.8970288 -0.2343597 -0.3747197 0.5 0.25
0.1231223 -0.4666329 0.1064201 0.8827332 0.2919628 -0.3681575 0.5 0.25
0.1242713 -0.458098 0.1059502 0.8695917 -0.3343063 -0.3633862 0.5 0.25
0.128797 -0.4495724 0.1040706 0.8635935 -0.3459962 -0.3667327 0.5 0.25
0.1351965 -0.4203166 0.104053 0.8308519 -0.4402383 -0.3404049 0.5 0.25
0.1600495 -0.3874524 0.09371577 0.7478685 -0.5827596 -0.317937 0.5 0.25
0.1702297 -0.371624 0.09186386 0.8842712 -0.2947731 -0.3621785 0.5 0.25
0.1738405 -0.2862534 0.09045362 0.9106312 -0.1615838 -0.3803176 0.5 0.25
0.1874912 -0.2338429 0.08481485 0.8518252 -0.3842396 -0.3560248 0.5 0.25
0.2203102 -0.1692878 0.07118829 0.7854457 -0.5245762 -0.3284737 0.5 0.25
0.269442 -0.09071687 0.0507681 0.8245738 -0.4485665 -0.3447698 0.5 0.25
0.2999349 0.0006214902 0.03740456 0.9053032 -0.1885042 -0.3806472 0.5 0.25
0.301647 0.04374048 0.0374773 0.9174938 0.1115297 -0.3817935 0.5 0.25
0.2685832 0.1766519 0.05143053 0.8414111 0.4116392 -0.3501153 0.5 0.25
0.2543184 0.1991154 0.05741075 0.6988616 0.654155 -0.2892642 0.5 0.25
0.1558865 0.2942576 0.09860831 0.4643436 0.8648264 -0.190946 0.5 0.25
0.04951944 0.3269022 0.1423088 0.1607019 0.9847867 -0.06610575 0.5 0.25
0.0113208 0.328732 0.1582565 0.02435064 0.9996627 -0.009029207 0.5 0.25
0.006659114 -0.6712262 0.1554334 0.07457553 -0.9953881 -0.06034053 0.5 0.25
0.04492067 -0.6664525 0.1193949 0.4362987 -0.8030117 -0.4059751 0.5 0.25
0.05098477 -0.6506128 0.1133409 0.5616212 -0.637952 -0.5268766 0.5 0.25
0.1010397 -0.5885447 0.0628891 0.6890493 -0.2971714 -0.6609843 0.5 0.25
0.09724607 -0.5702385 0.06462447 0.701842 -0.1113674 -0.7035731 0.5 0.25
0.1033202 -0.5507396 0.05857046 0.6993119 0.1304576 -0.7028112 0.5 0.25
0.09475943 -0.5360795 0.06721874 0.6891762 0.2497523 -0.6801911 0.5 0.25
0.09564959 -0.522665 0.06391282 0.5333095 -0.643884 -0.5486296 0.5 0.25
0.1025437 -0.5178051 0.05699406 0.67873 -0.2693485 -0.6832109 0.5 0.25
0.09570978 -0.5007102 0.06391263 0.6951862 0.2404516 -0.677421 0.5 0.25
0.09487644 -0.4885107 0.06234309 0.5521206 -0.6242825 -0.5526611 0.5 0.25
0.1043508 -0.4836579 0.05282981 0.6898772 -0.2324979 -0.6855758 0.5 0.25
0.09407655 -0.4665536 0.06320775 0.6747142 0.292531 -0.677633 0.5 0.25
0.09496004 -0.458018 0.06234285 0.6642674 -0.3337452 -0.668852 0.5 0.25
0.09842382 -0.4494895 0.05888342 0.6598771 -0.3226427 -0.6785749 0.5 0.25
0.1048233 -0.4202337 0.05886582 0.6451975 -0.4211642 -0.6374487 0.5 0.25
0.1238355 -0.3873535 0.03983909 0.5785525 -0.5708645 -0.5825726 0.5 0.25
0.1316264 -0.3715185 0.03443241 0.6891361 -0.2779742 -0.6691949 0.5 0.25
0.1344407 -0.2861459 0.03183723 0.7052474 -0.1605702 -0.6905384 0.5 0.25
0.1449056 -0.2337267 0.02145878 0.6589241 -0.3829111 -0.6474552 0.5 0.25
0.1700254 -0.1691505 -0.003622062 0.6053934 -0.5217495 -0.6010628 0.5 0.75
0.2076194 -0.09054808 -0.04120734 0.6301183 -0.4471566 -0.6348245 0.5 0.75
0.2309808 0.0008096918 -0.06444633 0.6918334 -0.1905508 -0.6964603 0.5 0.75
0.2323153 0.04392975 -0.06566976 0.7023514 0.1093631 -0.7033792 0.5 0.75
0.2071361 0.1768197 -0.03998635 0.6465875 0.4066073 -0.6454419 0.5 0.75
0.1962485 0.1992739 -0.02971648 0.5372981 0.6484979 -0.5392228 0.5 0.75
0.1210948 0.2943525 0.04611297 0.3561274 0.8649514 -0.3535992 0.5 0.25
0.03983887 0.3269287 0.1279066 0.1234872 0.9849178 -0.1211933 0.5 0.25
0.01065119 0.3287338 0.1572602 0.01927063 0.9996763 -0.01661347 0.5 0.25
0.005000292 -0.6712217 0.1532156 0.08540232 -0.9933947 -0.07663863 0.5 0.25
0.02493863 -0.6663978 0.1061227 0.2254999 -0.8079776 -0.5443547 0.5 0.25
0.0282277 -0.6505505 0.09822548 0.2957835 -0.6341574 -0.7143924 0.5 0.25
0.05528982 -0.5884196 0.03250165 0.3693482 -0.315098 -0.8742398 0.5 0.25
0.05228903 -0.5701154 0.03476363 0.3757284 -0.1236399 -0.9184451 0.5 0.25
0.05558815 -0.5506091 0.02686644 0.3816089 0.1314151 -0.9149343 0.5 0.25
0.05099168 -0.5359597 0.03814784 0.3797303 0.2310796 -0.8957719 0.5 0.25
0.05148541 -0.5225442 0.0345786 0.2858089 -0.6554602 -0.6990603 0.5 0.25
0.05520806 -0.5176756 0.02555335 0.3698383 -0.2690943 -0.8892738 0.5 0.25
0.0515456 -0.5005894 0.03457842 0.3692081 0.1833358 -0.9110836 0.5 0.25
0.05386081 -0.4883986 0.0332646 0.2915677 -0.6736541 -0.6791012 0.5 0.25
0.05897448 -0.4835338 0.0208549 0.3922582 -0.2162983 -0.894063 0.5 0.25
0.05070522 -0.4664349 0.03440015 0.3658183 0.3077819 -0.8783208 0.5 0.25
0.05119228 -0.4578982 0.03327194 0.3625172 -0.3326506 -0.8705888 0.5 0.25
0.05307033 -0.4493653 0.02875927 0.356143 -0.2882942 -0.8888468 0.5 0.25
0.0594698 -0.4201096 0.02874166 0.3631339 -0.3891771 -0.8465666 0.5 0.25
0.06976064 -0.3872055 0.003922096 0.302875 -0.5994146 -0.7409244 0.5 0.25
0.07397706 -0.3713608 -0.006231399 0.3692447 -0.305677 -0.8776218 0.5 0.75
0.07560212 -0.2859849 -0.009616501 0.3876054 -0.160362 -0.9077699 0.5 0.75
0.08130985 -0.2335526 -0.02315473 0.3614686 -0.3834434 -0.8498893 0.5 0.75
0.09493327 -0.1689451 -0.05587159 0.3352589 -0.517113 -0.7875251 0.5 0.75
0.1153056 -0.09029549 -0.102523 0.34929 -0.4386784 -0.8279842 0.5 0.75
0.1280149 0.001091532 -0.1328372 0.3742478 -0.1954657 -0.9064942 0.5 0.75
0.1287868 0.04421305 -0.1351706 0.3792986 0.102713 -0.9195557 0.5 0.75
0.115381 0.1770707 -0.1016672 0.3493528 0.4133895 -0.8408696 0.5 0.75
0.109541 0.1995112 -0.08730836 0.2899332 0.6547493 -0.6980273 0.5 0.75
0.06914671 0.2944947 0.01160854 0.1924498 0.86549 -0.4624825 0.5 0.25
0.02538375 0.3269682 0.1183053 0.06767385 0.9851023 -0.158094 0.5 0.25
0.009651296 0.3287365 0.156596 0.01162058 0.9996977 -0.02166971 0.5 0.25
3 0 1 2 
3 2 3 0 
3 3 2 4 
3 4 5 3 
3 5 4 6 
3 6 7 5 
3 7 6 8 
3 8 9 7 
3 9 8 10 
3 10 11 9 
3 11 10 12 
3 12 13 11 
3 13 12 14 
3 14 15 13 
3 15 14 16 
3 16 17 15 
3 17 16 18 
3 18 19 17 
3 19 18 20 
3 20 21 19 
3 21 20 22 
3 22 23 21 
3 23 22 24 
3 24 25 23 
3 25 24 26 
3 26 27 25 
3 27 26 28 
3 28 29 27 
3 29 28 30 
3 30 31 29 
3 31 30 32 
3 32 33 31 
3 33 32 34 
3 34 35 33 
3 35 34 36 
3 36 37 35 
3 37 36 38 
3 38 39 37 
3 39 38 40 
3 40 41 39 
3 41 40 42 
3 42 43 41 
3 43 42 44 
3 44 45 43 
3 45 44 46 
3 46 47 45 
3 47 46 48 
3 48 49 47 
3 49 48 50 
3 50 51 49 
3 51 50 52 
3 52 53 51 
3 53 52 54 
3 54 55 53 
3 55 54 56 
3 56 57 55 
3 1 58 59 
3 59 2 1 
3 2 59 60 
3 60 4 2 
3 4 60 61 
3 61 6 4 
3 6 61 62 
3 62 8 6 
3 8 62 63 
3 63 10 8 
3 10 63 64 
3 64 12 10 
3 12 64 65 
3 65 14 12 
3 14 65 66 
3 66 16 14 
3 16 66 67 
3 67 18 16 
3 18 67 68 
3 68 20 18 
3 20 68 69 
3 69 22 20 
3 22 69 70 
3 70 24 22 
3 24 70 71 
3 71 26 24 
3 26 71 72 
3 72 28 26 
3 28 72 73 
3 73 30 28 
3 30 73 74 
3 74 32 30 
3 32 74 75 
3 75 34 32 
3 34 75 76 
3 76 36 34 
3 36 76 77 
3 77 38 36 
3 38 77 78 
3 78 40 38 
3 40 78 79 
3 79 42 40 
3 42 79 80 
3 80 44 42 
3 44 80 81 
3 81 46 44 
3 46 81 82 
3 82 48 46 
3 48 82 83 
3 83 50 48 
3 50 83 84 
3 84 52 50 
3 52 84 85 
3 85 54 52 
3 54 85 86 
3 86 56 54 
3 58 87 88 
3 88 59 58 
3 59 88 89 
3 89 60 59 
3 60 89 90 
3 90 61 60 
3 61 90 91 
3 91 62 61 
3 62 91 92 
3 92 63 62 
3 63 92 93 
3 93 64 63 
3 64 93 94 
3 94 65 64 
3 65 94 95 
3 95 66 65 
3 66 95 96 
3 96 67 66 
3 67 96 97 
3 97 68 67 
3 68 97 98 
3 98 69 68 
3 69 98 99 
3 99 70 69 
3 70 99 100 
3 100 71 70 
3 71 100 101 
3 101 72 71 
3 72 101 102 
3 102 73 72 
3 73 102 103 
3 103 74 73 
3 74 103 104 
3 104 75 74 
3 75 104 105 
3 105 76 75 
3 76 105 106 
3 106 77 76 
3 77 106 107 
3 107 78 77 
3 78 107 108 
3 108 79 78 
3 79 108 109 
3 109 80 79 
3 80 109 110 
3 110 81 80 
3 81 110 111 
3 111 82 81 
3 82 111 112 
3 112 83 82 
3 83 112 113 
3 113 84 83 
3 84 113 114 
3 114 85 84 
3 85 114 115 
3 115 86 85 
3 87 116 117 
3 117 88 87 
3 88 117 118 
3 118 89 88 
3 89 118 119 
3 119 90 89 
3 90 119 120 
3 120 91 90 
3 91 120 121 
3 121 92 91 
3 92 121 122 
3 122 93 92 
3 93 122 123 
3 123 94 93 
3 94 123 124 
3 124 95 94 
3 95 124 125 
3 125 96 95 
3 96 125 126 
3 126 97 96 
3 97 126 127 
3 127 98 97 
3 98 127 128 
3 128 99 98 
3 99 128 129 
3 129 100 99 
3 100 129 130 
3 130 101 100 
3 101 130 131 
3 131 102 101 
3 102 131 132 
3 132 103 102 
3 103 132 133 
3 133 104 103 
3 104 133 134 
3 134 105 104 
3 105 134 135 
3 135 106 105 
3 106 135 136 
3 136 107 106 
3 107 136 137 
3 137 108 107 
3 108 137 138 
3 138 109 108 
3 109 138 139 
3 139 110 109 
3 110 139 140 
3 140 111 110 
3 111 140 141 
3 141 112 111 
3 112 141 142 
3 142 113 112 
3 113 142 143 
3 143 114 113 
3 114 143 144 
3 144 115 114 
3 116 145 146 
3 146 117 116 
3 117 146 147 
3 147 118 117 
3 118 147 148 
3 148 119 118 
3 119 148 149 
3 149 120 119 
3 120 149 150 
3 150 121 120 
3 121 150 151 
3 151 122 121 
3 122 151 152 
3 152 123 122 
3 123 152 153 
3 153 124 123 
3 124 153 154 
3 154 125 124 
3 125 154 155 
3 155 126 125 
3 126 155 156 
3 156 127 126 
3 127 156 157 
3 157 128 127 
3 128 157 158 
3 158 129 128 
3 129 158 159 
3 159 130 129 
3 130 159 160 
3 160 131 130 
3 131 160 161 
3 161 132 131 
3 132 161 162 
3 162 133 132 
3 133 162 163 
3 163 134 133 
3 134 163 164 
3 164 135 134 
3 135 164 165 
3 165 136 135 
3 136 165 166 
3 166 137 136 
3 137 166 167 
3 167 138 137 
3 138 167 168 
3 168 139 138 
3 139 168 169 
3 169 140 139 
3 140 169 170 
3 170 141 140 
3 141 170 171 
3 171 142 141 
3 142 171 172 
3 172 143 142 
3 143 172 173 
3 173 144 143 
3 145 174 175 
3 175 146 145 
3 146 175 176 
3 176 147 146 
3 147 176 177 
3 177 148 147 
3 148 177 178 
3 178 149 148 
3 149 178 179 
3 179 150 149 
3 150 179 180 
3 180 151 150 
3 151 180 181 
3 181 152 151 
3 152 181 182 
3 182 153 152 
3 153 182 183 
3 183 154 153 
3 154 183 184 
3 184 155 154 
3 155 184 185 
3 185 156 155 
3 156 185 186 
3 186 157 156 
3 157 186 187 
3 187 158 157 
3 158 187 188 
3 188 159 158 
3 159 188 189 
3 189 160 159 
3 160 189 190 
3 190 161 160 
3 161 190 191 
3 191 162 161 
3 162 191 192 
3 192 163 162 
3 163 192 193 
3 193 164 163 
3 164 193 194 
3 194 165 164 
3 165 194 195 
3 195 166 165 
3 166 195 196 
3 196 167 166 
3 167 196 197 
3 197 168 167 
3 168 197 198 
3 198 169 168 
3 169 198 199 
3 199 170 169 
3 170 199 200 
3 200 171 170 
3 171 200 201 
3 201 172 171 
3 172 201 202 
3 202 173 172 
3 174 203 204 
3 204 175 174 
3 175 204 205 
3 205 176 175 
3 176 205 206 
3 206 177 176 
3 177 206 207 
3 207 178 177 
3 178 207 208 
3 208 179 178 
3 179 208 209 
3 209 180 179 
3 180 209 210 
3 210 181 180 
3 181 210 211 
3 211 182 181 
3 182 211 212 
3 212 183 182 
3 183 212 213 
3 213 184 183 
3 184 213 214 
3 214 185 184 
3 185 214 215 
3 215 186 185 
3 186 215 216 
3 216 187 186 
3 187 216 217 
3 217 188 187 
3 188 217 218 
3 218 189 188 
3 189 218 219 
3 219 190 189 
3 190 219 220 
3 220 191 190 
3 191 220 221 
3 221 192 191 
3 192 221 222 
3 222 193 192 
3 193 222 223 
3 223 194 193 
3 194 223 224 
3 224 195 194 
3 195 224 225 
3 225 196 195 
3 196 225 226 
3 226 197 196 
3 197 226 227 
3 227 198 197 
3 198 227 228 
3 228 199 198 
3 199 228 229 
3 229 200 199 
3 200 229 230 
3 230 201 200 
3 201 230 231 
3 231 202 201 
3 203 232 233 
3 233 204 203 
3 204 233 234 
3 234 205 204 
3 205 234 235 
3 235 206 205 
3 206 235 236 
3 236 207 206 
3 207 236 237 
3 237 208 207 
3 208 237 238 
3 238 209 208 
3 209 238 239 
3 239 210 209 
3 210 239 240 
3 240 211 210 
3 211 240 241 
3 241 212 211 
3 212 241 242 
3 242 213 212 
3 213 242 243 
3 243 214 213 
3 214 243 244 
3 244 215 214 
3 215 244 245 
3 245 216 215 
3 216 245 246 
3 246 217 216 
3 217 246 247 
3 247 218 217 
3 218 247 248 
3 248 219 218 
3 219 248 249 
3 249 220 219 
3 220 249 250 
3 250 221 220 
3 221 250 251 
3 251 222 221 
3 222 251 252 
3 252 223 222 
3 223 252 253 
3 253 224 223 
3 224 253 254 
3 254 225 224 
3 225 254 255 
3 255 226 225 
3 226 255 256 
3 256 227 226 
3 227 256 257 
3 257 228 227 
3 228 257 258 
3 258 229 228 
3 229 258 259 
3 259 230 229 
3 230 259 260 
3 260 231 230 
3 232 261 262 
3 262 233 232 
3 233 262 263 
3 263 234 233 
3 234 263 264 
3 264 235 234 
3 235 264 265 
3 265 236 235 
3 236 265 266 
3 266 237 236 
3 237 266 267 
3 267 238 237 
3 238 267 268 
3 268 239 238 
3 239 268 269 
3 269 240 239 
3 240 269 270 
3 270 241 240 
3 241 270 271 
3 271 242 241 
3 242 271 272 
3 272 243 242 
3 243 272 273 
3 273 244 243 
3 244 273 274 
3 274 245 244 
3 245 274 275 
3 275 246 245 
3 246 275 276 
3 276 247 246 
3 247 276 277 
3 277 248 247 
3 248 277 278 
3 278 249 248 
3 249 278 279 
3 279 250 249 
3 250 279 280 
3 280 251 250 
3 251 280 281 
3 281 252 251 
3 252 281 282 
3 282 253 252 
3 253 282 283 
3 283 254 253 
3 254 283 284 
3 284 255 254 
3 255 284 285 
3 285 256 255 
3 256 285 286 
3 286 257 256 
3 257 286 287 
3 287 258 257 
3 258 287 288 
3 288 259 258 
3 259 288 289 
3 289 260 259 
3 261 290 291 
3 291 262 261 
3 262 291 292 
3 292 263 262 
3 263 292 293 
3 293 264 263 
3 264 293 294 
3 294 265 264 
3 265 294 295 
3 295 266 265 
3 266 295 296 
3 296 267 266 
3 267 296 297 
3 297 268 267 
3 268 297 298 
3 298 269 268 
3 269 298 299 
3 299 270 269 
3 270 299 300 
3 300 271 270 
3 271 300 301 
3 301 272 271 
3 272 301 302 
3 302 273 272 
3 273 302 303 
3 303 274 273 
3 274 303 304 
3 304 275 274 
3 275 304 305 
3 305 276 275 
3 276 305 306 
3 306 277 276 
3 277 306 307 
3 307 278 277 
3 278 307 308 
3 308 279 278 
3 279 308 309 
3 309 280 279 
3 280 309 310 
3 310 281 280 
3 281 310 311 
3 311 282 281 
3 282 311 312 
3 312 283 282 
3 283 312 313 
3 313 284 283 
3 284 313 314 
3 314 285 284 
3 285 314 315 
3 315 286 285 
3 286 315 316 
3 316 287 286 
3 287 316 317 
3 317 288 287 
3 288 317 318 
3 318 289 288 
3 290 319 320 
3 320 291 290 
3 291 320 321 
3 321 292 291 
3 292 321 322 
3 322 293 292 
3 293 322 323 
3 323 294 293 
3 294 323 324 
3 324 295 294 
3 295 324 325 
3 325 296 295 
3 296 325 326 
3 326 297 296 
3 297 326 327 
3 327 298 297 
3 298 327 328 
3 328 299 298 
3 299 328 329 
3 329 300 299 
3 300 329 330 
3 330 301 300 
3 301 330 331 
3 331 302 301 
3 302 331 332 
3 332 303 302 
3 303 332 333 
3 333 304 303 
3 304 333 334 
3 334 305 304 
3 305 334 335 
3 335 306 305 
3 306 335 336 
3 336 307 306 
3 307 336 337 
3 337 308 307 
3 308 337 338 
3 338 309 308 
3 309 338 339 
3 339 310 309 
3 310 339 340 
3 340 311 310 
3 311 340 341 
3 341 312 311 
3 312 341 342 
3 342 313 312 
3 313 342 343 
3 343 314 313 
3 314 343 344 
3 344 315 314 
3 315 344 345 
3 345 316 315 
3 316 345 346 
3 346 317 316 
3 317 346 347 
3 347 318 317 
3 319 348 349 
3 349 320 319 
3 320 349 350 
3 350 321 320 
3 321 350 351 
3 351 322 321 
3 322 351 352 
3 352 323 322 
3 323 352 353 
3 353 324 323 
3 324 353 354 
3 354 325 324 
3 325 354 355 
3 355 326 325 
3 326 355 356 
3 356 327 326 
3 327 356 357 
3 357 328 327 
3 328 357 358 
3 358 329 328 
3 329 358 359 
3 359 330 329 
3 330 359 360 
3 360 331 330 
3 331 360 361 
3 361 332 331 
3 332 361 362 
3 362 333 332 
3 333 362 363 
3 363 334 333 
3 334 363 364 
3 364 335 334 
3 335 364 365 
3 365 336 335 
3 336 365 366 
3 366 337 336 
3 337 366 367 
3 367 338 337 
3 338 367 368 
3 368 339 338 
3 339 368 369 
3 369 340 339 
3 340 369 370 
3 370 341 340 
3 341 370 371 
3 371 342 341 
3 342 371 372 
3 372 343 342 
3 343 372 373 
3 373 344 343 
3 344 373 374 
3 374 345 344 
3 345 374 375 
3 375 346 345 
3 346 375 376 
3 376 347 346 
3 348 377 378 
3 378 349 348 
3 349 378 379 
3 379 350 349 
3 350 379 380 
3 380 351 350 
3 351 380 381 
3 381 352 351 
3 352 381 382 
3 382 353 352 
3 353 382 383 
3 383 354 353 
3 354 383 384 
3 384 355 354 
3 355 384 385 
3 385 356 355 
3 356 385 386 
3 386 357 356 
3 357 386 387 
3 387 358 357 
3 358 387 388 
3 388 359 358 
3 359 388 389 
3 389 360 359 
3 360 389 390 
3 390 361 360 
3 361 390 391 
3 391 362 361 
3 362 391 392 
3 392 363 362 
3 363 392 393 
3 393 364 363 
3 364 393 394 
3 394 365 364 
3 365 394 395 
3 395 366 365 
3 366 395 396 
3 396 367 366 
3 367 396 397 
3 397 368 367 
3 368 397 398 
3 398 369 368 
3 369 398 399 
3 399 370 369 
3 370 399 400 
3 400 371 370 
3 371 400 401 
3 401 372 371 
3 372 401 402 
3 402 373 372 
3 373 402 403 
3 403 374 373 
3 374 403 404 
3 404 375 374 
3 375 404 405 
3 405 376 375 
3 377 406 407 
3 407 378 377 
3 378 407 408 
3 408 379 378 
3 379 408 409 
3 409 380 379 
3 380 409 410 
3 410 381 380 
3 381 410 411 
3 411 382 381 
3 382 411 412 
3 412 383 382 
3 383 412 413 
3 413 384 383 
3 384 413 414 
3 414 385 384 
3 385 414 415 
3 415 386 385 
3 386 415 416 
3 416 387 386 
3 387 416 417 
3 417 388 387 
3 388 417 418 
3 418 389 388 
3 389 418 419 
3 419 390 389 
3 390 419 420 
3 420 391 390 
3 391 420 421 
3 421 392 391 
3 392 421 422 
3 422 393 392 
3 393 422 423 
3 423 394 393 
3 394 423 424 
3 424 395 394 
3 395 424 425 
3 425 396 395 
3 396 425 426 
3 426 397 396 
3 397 426 427 
3 427 398 397 
3 398 427 428 
3 428 399 398 
3 399 428 429 
3 429 400 399 
3 400 429 430 
3 430 401 400 
3 401 430 431 
3 431 402 401 
3 402 431 432 
3 432 403 402 
3 403 432 433 
3 433 404 403 
3 404 433 434 
3 434 405 404 
3 406 435 436 
3 436 407 406 
3 407 436 437 
3 437 408 407 
3 408 437 438 
3 438 409 408 
3 409 438 439 
3 439 410 409 
3 410 439 440 
3 440 411 410 
3 411 440 441 
3 441 412 411 
3 412 441 442 
3 442 413 412 
3 413 442 443 
3 443 414 413 
3 414 443 444 
3 444 415 414 
3 415 444 445 
3 445 416 415 
3 416 445 446 
3 446 417 416 
3 417 446 447 
3 447 418 417 
3 418 447 448 
3 448 419 418 
3 419 448 449 
3 449 420 419 
3 420 449 450 
3 450 421 420 
3 421 450 451 
3 451 422 421 
3 422 451 452 
3 452 423 422 
3 423 452 453 
3 453 424 423 
3 424 453 454 
3 454 425 424 
3 425 454 455 
3 455 426 425 
3 426 455 456 
3 456 427 426 
3 427 456 457 
3 457 428 427 
3 428 457 458 
3 458 429 428 
3 429 458 459 
3 459 430 429 
3 430 459 460 
3 460 431 430 
3 431 460 461 
3 461 432 431 
3 432 461 462 
3 462 433 432 
3 433 462 463 
3 463 434 433 
3 435 0 3 
3 3 436 435 
3 436 3 5 
3 5 437 436 
3 437 5 7 
3 7 438 437 
3 438 7 9 
3 9 439 438 
3 439 9 11 
3 11 440 439 
3 440 11 13 
3 13 441 440 
3 441 13 15 
3 15 442 441 
3 442 15 17 
3 17 443 442 
3 443 17 19 
3 19 444 443 
3 444 19 21 
3 21 445 444 
3 445 21 23 
3 23 446 445 
3 446 23 25 
3 25 447 446 
3 447 25 27 
3 27 448 447 
3 448 27 29 
3 29 449 448 
3 449 29 31 
3 31 450 449 
3 450 31 33 
3 33 451 450 
3 451 33 35 
3 35 452 451 
3 452 35 37 
3 37 453 452 
3 453 37 39 
3 39 454 453 
3 454 39 41 
3 41 455 454 
3 455 41 43 
3 43 456 455 
3 456 43 45 
3 45 457 456 
3 457 45 47 
3 47 458 457 
3 458 47 49 
3 49 459 458 
3 459 49 51 
3 51 460 459 
3 460 51 53 
3 53 461 460 
3 461 53 55 
3 55 462 461 
3 462 55 57 
3 57 463 462 
3 86 115 144 
3 144 173 202 
3 202 231 260 
3 144 202 260 
3 260 289 318 
3 318 347 376 
3 260 318 376 
3 376 405 434 
3 434 463 57 
3 376 434 57 
3 260 376 57 
3 144 260 57 
3 86 144 57 
3 56 86 57 
