ply
format ascii 1.0
comment VCGLIB generated
element vertex 100
property float x
property float y
property float z
property float nx
property float ny
property float nz
property float texture_u
property float texture_v
element face 162
property list uchar int vertex_indices
end_header
-4.999999 -1.092785e-06 -5 -8.742276e-08 1 -1.311342e-07 1 0
-3.888888 -9.956483e-07 -5 -8.742276e-08 1 -1.311342e-07 0.8888889 0
-2.777777 -8.98512e-07 -5 -8.742276e-08 1 -1.311342e-07 0.7777778 0
-1.666667 -8.013756e-07 -5 -8.742276e-08 1 -1.311342e-07 0.6666666 0
-0.5555553 -7.04239e-07 -5 -8.742276e-08 1 -1.311342e-07 0.5555555 0
0.5555553 -6.071026e-07 -5 -8.742276e-08 1 -1.311342e-07 0.4444444 0
1.666667 -5.099662e-07 -5 -8.742276e-08 1 -1.311342e-07 0.3333333 0
2.777777 -4.128297e-07 -5 -8.742276e-08 1 -1.311342e-07 0.2222222 0
3.888888 -3.156933e-07 -5 -8.742276e-08 1 -1.311342e-07 0.1111111 0
4.999999 -2.185569e-07 -5 -8.742276e-08 1 -1.311342e-07 0 0
-4.999999 -9.470801e-07 -3.888889 -8.742276e-08 1 -1.311342e-07 1 0.1111111
-3.888888 -8.499437e-07 -3.888889 -8.742276e-08 1 -1.311342e-07 0.8888889 0.1111111
-2.777777 -7.528073e-07 -3.888889 -8.742276e-08 1 -1.311342e-07 0.7777778 0.1111111
-1.666667 -6.55671e-07 -3.888889 -8.742276e-08 1 -1.311342e-07 0.6666666 0.1111111
-0.5555553 -5.585345e-07 -3.888889 -8.742276e-08 1 -1.311342e-07 0.5555555 0.1111111
0.5555553 -4.61398e-07 -3.888889 -8.742276e-08 1 -1.311342e-07 0.4444444 0.1111111
1.666667 -3.642615e-07 -3.888889 -8.742276e-08 1 -1.311342e-07 0.3333333 0.1111111
2.777777 -2.671251e-07 -3.888889 -8.742276e-08 1 -1.311342e-07 0.2222222 0.1111111
3.888888 -1.699887e-07 -3.888889 -8.742276e-08 1 -1.311342e-07 0.1111111 0.1111111
4.999999 -7.285232e-08 -3.888889 -8.742276e-08 1 -1.311342e-07 0 0.1111111
-4.999999 -8.013754e-07 -2.777778 -8.742276e-08 1 -1.311342e-07 1 0.2222222
-3.888888 -7.04239e-07 -2.777778 -8.742276e-08 1 -1.311342e-07 0.8888889 0.2222222
-2.777777 -6.071027e-07 -2.777778 -8.742276e-08 1 -1.311342e-07 0.7777778 0.2222222
-1.666667 -5.099663e-07 -2.777778 -8.742276e-08 1 -1.311342e-07 0.6666666 0.2222222
-0.5555553 -4.128298e-07 -2.777778 -8.742276e-08 1 -1.311342e-07 0.5555555 0.2222222
0.5555553 -3.156934e-07 -2.777778 -8.742276e-08 1 -1.311342e-07 0.4444444 0.2222222
1.666667 -2.185569e-07 -2.777778 -8.742276e-08 1 -1.311342e-07 0.3333333 0.2222222
2.777777 -1.214205e-07 -2.777778 -8.742276e-08 1 -1.311342e-07 0.2222222 0.2222222
3.888888 -2.428408e-08 -2.777778 -8.742276e-08 1 -1.311342e-07 0.1111111 0.2222222
4.999999 7.285232e-08 -2.777778 -8.742276e-08 1 -1.311342e-07 0 0.2222222
-4.999999 -6.556709e-07 -1.666667 -8.742276e-08 1 -1.311342e-07 1 0.3333333
-3.888888 -5.585345e-07 -1.666667 -8.742276e-08 1 -1.311342e-07 0.8888889 0.3333333
-2.777777 -4.613981e-07 -1.666667 -8.742276e-08 1 -1.311342e-07 0.7777778 0.3333333
-1.666667 -3.642617e-07 -1.666667 -8.742276e-08 1 -1.311342e-07 0.6666666 0.3333333
-0.5555553 -2.671252e-07 -1.666667 -8.742276e-08 1 -1.311342e-07 0.5555555 0.3333333
0.5555553 -1.699888e-07 -1.666667 -8.742276e-08 1 -1.311342e-07 0.4444444 0.3333333
1.666667 -7.285229e-08 -1.666667 -8.742276e-08 1 -1.311342e-07 0.3333333 0.3333333
2.777777 2.428412e-08 -1.666667 -8.742276e-08 1 -1.311342e-07 0.2222222 0.3333333
3.888888 1.214205e-07 -1.666667 -8.742276e-08 1 -1.311342e-07 0.1111111 0.3333333
4.999999 2.185569e-07 -1.666667 -8.742276e-08 1 -1.311342e-07 0 0.3333333
-4.999999 -5.099662e-07 -0.5555555 -8.742276e-08 1 -1.311342e-07 1 0.4444444
-3.888888 -4.128298e-07 -0.5555555 -8.742276e-08 1 -1.311342e-07 0.8888889 0.4444444
-2.777777 -3.156934e-07 -0.5555555 -8.742276e-08 1 -1.311342e-07 0.7777778 0.4444444
-1.666667 -2.18557e-07 -0.5555555 -8.742276e-08 1 -1.311342e-07 0.6666666 0.4444444
-0.5555553 -1.214205e-07 -0.5555555 -8.742276e-08 1 -1.311342e-07 0.5555555 0.4444444
0.5555553 -2.42841e-08 -0.5555555 -8.742276e-08 1 -1.311342e-07 0.4444444 0.4444444
1.666667 7.285239e-08 -0.5555555 -8.742276e-08 1 -1.311342e-07 0.3333333 0.4444444
2.777777 1.699888e-07 -0.5555555 -8.742276e-08 1 -1.311342e-07 0.2222222 0.4444444
3.888888 2.671252e-07 -0.5555555 -8.742276e-08 1 -1.311342e-07 0.1111111 0.4444444
4.999999 3.642616e-07 -0.5555555 -8.742276e-08 1 -1.311342e-07 0 0.4444444
-4.999999 -3.642616e-07 0.5555555 -8.742276e-08 1 -1.311342e-07 1 0.5555555
-3.888888 -2.671252e-07 0.5555555 -8.742276e-08 1 -1.311342e-07 0.8888889 0.5555555
-2.777777 -1.699888e-07 0.5555555 -8.742276e-08 1 -1.311342e-07 0.7777778 0.5555555
-1.666667 -7.285239e-08 0.5555555 -8.742276e-08 1 -1.311342e-07 0.6666666 0.5555555
-0.5555553 2.42841e-08 0.5555555 -8.742276e-08 1 -1.311342e-07 0.5555555 0.5555555
0.5555553 1.214205e-07 0.5555555 -8.742276e-08 1 -1.311342e-07 0.4444444 0.5555555
1.666667 2.18557e-07 0.5555555 -8.742276e-08 1 -1.311342e-07 0.3333333 0.5555555
2.777777 3.156934e-07 0.5555555 -8.742276e-08 1 -1.311342e-07 0.2222222 0.5555555
3.888888 4.128298e-07 0.5555555 -8.742276e-08 1 -1.311342e-07 0.1111111 0.5555555
4.999999 5.099662e-07 0.5555555 -8.742276e-08 1 -1.311342e-07 0 0.5555555
-4.999999 -2.185569e-07 1.666667 -8.742276e-08 1 -1.311342e-07 1 0.6666667
-3.888888 -1.214205e-07 1.666667 -8.742276e-08 1 -1.311342e-07 0.8888889 0.6666667
-2.777777 -2.428412e-08 1.666667 -8.742276e-08 1 -1.311342e-07 0.7777778 0.6666667
-1.666667 7.285229e-08 1.666667 -8.742276e-08 1 -1.311342e-07 0.6666666 0.6666667
-0.5555553 1.699888e-07 1.666667 -8.742276e-08 1 -1.311342e-07 0.5555555 0.6666667
0.5555553 2.671252e-07 1.666667 -8.742276e-08 1 -1.311342e-07 0.4444444 0.6666667
1.666667 3.642617e-07 1.666667 -8.742276e-08 1 -1.311342e-07 0.3333333 0.6666667
2.777777 4.613981e-07 1.666667 -8.742276e-08 1 -1.311342e-07 0.2222222 0.6666667
3.888888 5.585345e-07 1.666667 -8.742276e-08 1 -1.311342e-07 0.1111111 0.6666667
4.999999 6.556709e-07 1.666667 -8.742276e-08 1 -1.311342e-07 0 0.6666667
-4.999999 -7.285232e-08 2.777778 -8.742276e-08 1 -1.311342e-07 1 0.7777778
-3.888888 2.428408e-08 2.777778 -8.742276e-08 1 -1.311342e-07 0.8888889 0.7777778
-2.777777 1.214205e-07 2.777778 -8.742276e-08 1 -1.311342e-07 0.7777778 0.7777778
-1.666667 2.185569e-07 2.777778 -8.742276e-08 1 -1.311342e-07 0.6666666 0.7777778
-0.5555553 3.156934e-07 2.777778 -8.742276e-08 1 -1.311342e-07 0.5555555 0.7777778
0.5555553 4.128298e-07 2.777778 -8.742276e-08 1 -1.311342e-07 0.4444444 0.7777778
1.666667 5.099663e-07 2.777778 -8.742276e-08 1 -1.311342e-07 0.3333333 0.7777778
2.777777 6.071027e-07 2.777778 -8.742276e-08 1 -1.311342e-07 0.2222222 0.7777778
3.888888 7.04239e-07 2.777778 -8.742276e-08 1 -1.311342e-07 0.1111111 0.7777778
4.999999 8.013754e-07 2.777778 -8.742276e-08 1 -1.311342e-07 0 0.7777778
-4.999999 7.285232e-08 3.888889 -8.742276e-08 1 -1.311342e-07 1 0.8888889
-3.888888 1.699887e-07 3.888889 -8.742276e-08 1 -1.311342e-07 0.8888889 0.8888889
-2.777777 2.671251e-07 3.888889 -8.742276e-08 1 -1.311342e-07 0.7777778 0.8888889
-1.666667 3.642615e-07 3.888889 -8.742276e-08 1 -1.311342e-07 0.6666666 0.8888889
-0.5555553 4.61398e-07 3.888889 -8.742276e-08 1 -1.311342e-07 0.5555555 0.8888889
0.5555553 5.585345e-07 3.888889 -8.742276e-08 1 -1.311342e-07 0.4444444 0.8888889
1.666667 6.55671e-07 3.888889 -8.742276e-08 1 -1.311342e-07 0.3333333 0.8888889
2.777777 7.528073e-07 3.888889 -8.742276e-08 1 -1.311342e-07 0.2222222 0.8888889
3.888888 8.499437e-07 3.888889 -8.742276e-08 1 -1.311342e-07 0.1111111 0.8888889
4.999999 9.470801e-07 3.888889 -8.742276e-08 1 -1.311342e-07 0 0.8888889
-4.999999 2.185569e-07 5 -8.742276e-08 1 -1.311342e-07 1 1
-3.888888 3.156933e-07 5 -8.742276e-08 1 -1.311342e-07 0.8888889 1
-2.777777 4.128297e-07 5 -8.742276e-08 1 -1.311342e-07 0.7777778 1
-1.666667 5.099662e-07 5 -8.742276e-08 1 -1.311342e-07 0.6666666 1
-0.5555553 6.071026e-07 5 -8.742276e-08 1 -1.311342e-07 0.5555555 1
0.5555553 7.04239e-07 5 -8.742276e-08 1 -1.311342e-07 0.4444444 1
1.666667 8.013756e-07 5 -8.742276e-08 1 -1.311342e-07 0.3333333 1
2.777777 8.98512e-07 5 -8.742276e-08 1 -1.311342e-07 0.2222222 1
3.888888 9.956483e-07 5 -8.742276e-08 1 -1.311342e-07 0.1111111 1
4.999999 1.092785e-06 5 -8.742276e-08 1 -1.311342e-07 0 1
3 11 1 0 
3 0 10 11 
3 12 2 1 
3 1 11 12 
3 13 3 2 
3 2 12 13 
3 14 4 3 
3 3 13 14 
3 15 5 4 
3 4 14 15 
3 16 6 5 
3 5 15 16 
3 17 7 6 
3 6 16 17 
3 18 8 7 
3 7 17 18 
3 19 9 8 
3 8 18 19 
3 21 11 10 
3 10 20 21 
3 22 12 11 
3 11 21 22 
3 23 13 12 
3 12 22 23 
3 24 14 13 
3 13 23 24 
3 25 15 14 
3 14 24 25 
3 26 16 15 
3 15 25 26 
3 27 17 16 
3 16 26 27 
3 28 18 17 
3 17 27 28 
3 29 19 18 
3 18 28 29 
3 31 21 20 
3 20 30 31 
3 32 22 21 
3 21 31 32 
3 33 23 22 
3 22 32 33 
3 34 24 23 
3 23 33 34 
3 35 25 24 
3 24 34 35 
3 36 26 25 
3 25 35 36 
3 37 27 26 
3 26 36 37 
3 38 28 27 
3 27 37 38 
3 39 29 28 
3 28 38 39 
3 41 31 30 
3 30 40 41 
3 42 32 31 
3 31 41 42 
3 43 33 32 
3 32 42 43 
3 44 34 33 
3 33 43 44 
3 45 35 34 
3 34 44 45 
3 46 36 35 
3 35 45 46 
3 47 37 36 
3 36 46 47 
3 48 38 37 
3 37 47 48 
3 49 39 38 
3 38 48 49 
3 51 41 40 
3 40 50 51 
3 52 42 41 
3 41 51 52 
3 53 43 42 
3 42 52 53 
3 54 44 43 
3 43 53 54 
3 55 45 44 
3 44 54 55 
3 56 46 45 
3 45 55 56 
3 57 47 46 
3 46 56 57 
3 58 48 47 
3 47 57 58 
3 59 49 48 
3 48 58 59 
3 61 51 50 
3 50 60 61 
3 62 52 51 
3 51 61 62 
3 63 53 52 
3 52 62 63 
3 64 54 53 
3 53 63 64 
3 65 55 54 
3 54 64 65 
3 66 56 55 
3 55 65 66 
3 67 57 56 
3 56 66 67 
3 68 58 57 
3 57 67 68 
3 69 59 58 
3 58 68 69 
3 71 61 60 
3 60 70 71 
3 72 62 61 
3 61 71 72 
3 73 63 62 
3 62 72 73 
3 74 64 63 
3 63 73 74 
3 75 65 64 
3 64 74 75 
3 76 66 65 
3 65 75 76 
3 77 67 66 
3 66 76 77 
3 78 68 67 
3 67 77 78 
3 79 69 68 
3 68 78 79 
3 81 71 70 
3 70 80 81 
3 82 72 71 
3 71 81 82 
3 83 73 72 
3 72 82 83 
3 84 74 73 
3 73 83 84 
3 85 75 74 
3 74 84 85 
3 86 76 75 
3 75 85 86 
3 87 77 76 
3 76 86 87 
3 88 78 77 
3 77 87 88 
3 89 79 78 
3 78 88 89 
3 91 81 80 
3 80 90 91 
3 92 82 81 
3 81 91 92 
3 93 83 82 
3 82 92 93 
3 94 84 83 
3 83 93 94 
3 95 85 84 
3 84 94 95 
3 96 86 85 
3 85 95 96 
3 97 87 86 
3 86 96 97 
3 98 88 87 
3 87 97 98 
3 99 89 88 
3 88 98 99 
