ply
format ascii 1.0
comment VCGLIB generated
comment TextureFile Canadian_Flag_Texture.bmp
element vertex 14
property float x
property float y
property float z
property float nx
property float ny
property float nz
property float texture_u
property float texture_v
element face 12
property list uchar int vertex_indices
end_header
-2 -2 2 -1 0 0 0 0
-2 2 -2 -0.7071068 0.7071068 0 0 1
-2 -2 -2 -1 0 0 0 0
-2 2 2 -0.7071068 0.7071068 0 0 1
2 2 -2 0.5773503 0.5773503 -0.5773503 1 1
2 2 2 0.5773503 0.5773503 0.5773503 1 1
2 -2 -2 0.5773503 -0.5773503 -0.5773503 1 0
2 -2 2 0.5773503 -0.5773503 0.5773503 1 0
-2 -2 -2 0 -1 0 0 0
-2 -2 -2 0 0 -1 0 0
-2 2 -2 0 0 -1 0 1
-2 2 2 0 0 1 0 1
-2 -2 2 0 -1 0 0 0
-2 -2 2 0 0 1 0 0
3 0 1 2 
3 3 4 1 
3 5 6 4 
3 7 8 6 
3 4 9 10 
3 11 7 5 
3 0 3 1 
3 3 5 4 
3 5 7 6 
3 7 12 8 
3 4 6 9 
3 11 13 7 
