ply
format ascii 1.0
comment VCGLIB generated
element vertex 34
property float x
property float y
property float z
property float nx
property float ny
property float nz
property float texture_u
property float texture_v
element face 64
property list uchar int vertex_indices
end_header
0.2705382 0.6932517 0.7168975 0.27539 0.7088612 0.649366 0.7284116 0.9990234
-0.5304552 0.8748019 -0.2118874 -0.5643947 0.8097143 -0.1606908 0.2668732 0.9605619
-0.1767034 0.956707 0.3610347 -0.07696704 0.9639986 0.2545247 0.6163612 0.9254345
-0.9153025 0.4985104 -0.0310416 -0.8892484 0.4573868 0.005881563 0.1562038 0.8855919
0.4575793 -0.9236407 -0.001463804 0.4230857 -0.9028039 0.0770951 0.462515 0.886973
0.2975274 -0.8458486 -0.5596699 0.1746148 -0.8637643 -0.4726742 0.1899501 0.8836388
-0.6782741 -0.7313648 -0.3373939 -0.6283101 -0.6927413 -0.3540282 0.7284116 0.8836388
-0.1817162 -1.029079 0.1214609 -0.2239978 -0.9670933 0.1206469 0.7297927 0.8471304
-0.805283 -0.622888 0.159328 -0.7996117 -0.5751141 0.1728148 0.8822578 0.8836388
0.8335907 0.5934923 0.2561755 0.8166724 0.5158105 0.2588163 0.2331269 0.7702073
0.9966435 -0.06814449 0.2297102 0.9705711 -0.06715008 0.2312632 0.4207193 0.8067157
0.9598446 0.1474539 -0.3699569 0.9143661 0.1562519 -0.3735238 0.8471304 0.7715884
0.7053847 0.1193502 0.740311 0.6780998 0.1077882 0.7270231 0.07789964 0.6946653
-0.9816194 0.006384911 0.3209348 -0.9288664 0.0284639 0.3693197 0.5745655 0.7297927
-0.6307724 0.1502275 0.7983943 -0.5678242 0.08654134 0.818588 0.385592 0.6562037
-0.7688003 0.2980829 -0.6234707 -0.795863 0.3122689 -0.5187391 0.8053347 0.6913311
-1.001737 -0.08622567 -0.1769985 -0.9646643 -0.1270896 -0.2308052 0.9240535 0.6562037
-0.07881197 -0.2764743 0.9923947 -0.1308709 -0.3016667 0.9443887 0.8471304 0.6177422
0.4345338 -0.3734376 0.8626942 0.3858993 -0.3300737 0.8614714 0.2317458 0.5792807
0.01721936 0.1838961 1.014542 0.04643455 0.2017851 0.9783285 0.113027 0.5759465
-0.1810767 0.300724 -0.962848 -0.1699556 0.3286936 -0.9290186 0.2668732 0.4990234
0.01721936 -0.1838961 -1.014542 -0.03611684 -0.1834696 -0.9823617 0.5745655 0.4990234
-0.4652266 0.6166773 0.6912763 -0.5175476 0.6111115 0.5989051 0.0009765625 0.3836388
0.559488 0.8577503 -0.2273679 0.5215636 0.8406166 -0.1460655 0.3067158 0.3086689
0.3969499 0.3651007 -0.8957122 0.4112388 0.3560613 -0.8391085 0.462515 0.31005
0.0602676 0.9410435 -0.4571371 0.0003047602 0.8645913 -0.5024756 0.5394381 0.31005
-0.5269452 0.5085785 -0.7318435 -0.4571415 0.5008435 -0.7349676 0.5745655 0.3067157
0.06626221 -0.8320244 0.5956454 0.1008592 -0.7873268 0.6082302 0.0009765625 0.1946653
0.7100034 -0.5863796 0.4791365 0.6978111 -0.5482724 0.4609307 0.3086689 0.2297927
-0.5774153 -0.5045741 0.6997065 -0.5533838 -0.5192976 0.6512268 0.03610391 0.1913311
0.5130106 -0.4195129 -0.8206331 0.4702317 -0.3750291 -0.7988964 0.1913311 0.1163611
0.8674158 -0.5628172 -0.1530494 0.8308301 -0.5260784 -0.1815568 0.3437962 0.1528696
-0.4652266 -0.6166773 -0.6912763 -0.2667111 -0.5910886 -0.7612355 0.385592 0.07928073
-0.6307724 -0.1502275 -0.7983943 -0.6192319 -0.118226 -0.7762568 0.5745655 0.1144081
3 2 23 25 
3 23 2 0 
3 23 0 9 
3 25 1 2 
3 7 4 27 
3 27 4 28 
3 4 7 5 
3 6 7 8 
3 6 5 7 
3 31 30 11 
3 9 10 11 
3 10 31 11 
3 11 30 24 
3 12 10 9 
3 28 10 12 
3 10 28 31 
3 3 16 13 
3 8 29 13 
3 29 14 13 
3 3 15 16 
3 6 16 33 
3 15 33 16 
3 16 6 8 
3 13 16 8 
3 26 33 15 
3 19 17 18 
3 29 17 14 
3 17 27 18 
3 27 17 29 
3 0 22 19 
3 17 19 14 
3 22 14 19 
3 12 19 18 
3 12 0 19 
3 22 0 2 
3 21 20 24 
3 26 20 33 
3 20 25 24 
3 25 20 26 
3 30 32 21 
3 20 21 33 
3 32 33 21 
3 30 21 24 
3 32 30 5 
3 12 9 0 
3 13 14 22 
3 22 3 13 
3 1 3 22 
3 2 1 22 
3 11 24 23 
3 23 24 25 
3 9 11 23 
3 1 26 15 
3 25 26 1 
3 1 15 3 
3 28 18 27 
3 4 31 28 
3 12 18 28 
3 7 29 8 
3 27 29 7 
3 30 31 5 
3 4 5 31 
3 6 33 32 
3 6 32 5 
