ply
format ascii 1.0
comment VCGLIB generated
element vertex 10
property float x
property float y
property float z
property float nx
property float ny
property float nz
property float texture_u
property float texture_v
element face 16
property list uchar int vertex_indices
end_header
-0.1945136 0.6619366 0.9927393 -0.272675 0.5801073 0.7675442 0.7284116 0.9990234
-0.8597494 0.6037884 -0.5957538 -0.7519907 0.5008594 -0.428544 0.2668732 0.9605619
0.6059487 0.9324988 -0.2354355 0.5221417 0.8497181 -0.07312488 0.2331269 0.7702073
1.072985 0.0778126 -0.1752554 0.9747552 0.04455844 -0.2187849 0.4207193 0.8067157
0.632337 -0.1222374 0.8547377 0.6235452 -0.06678256 0.7789298 0.07789964 0.6946653
0.2698185 0.1670779 -1.068807 0.2323694 0.1355168 -0.9631405 0.462515 0.31005
-0.8318836 -0.8031012 0.345692 -0.4880492 -0.7872019 0.3769895 0.0009765625 0.1946653
0.4658387 -0.7112855 -0.733827 0.3714932 -0.7339185 -0.5686443 0.1913311 0.1163611
0.8317727 -0.7395501 0.0588301 0.6327394 -0.7539288 0.1767267 0.3437962 0.1528696
-0.5928651 -0.6755405 -0.6008014 -0.4842135 -0.5184586 -0.7047964 0.385592 0.07928073
3 2 1 0 
3 8 6 7 
3 9 7 6 
3 8 7 3 
3 3 7 5 
3 4 3 2 
3 8 3 4 
3 9 6 1 
3 0 6 4 
3 1 2 5 
3 7 9 5 
3 9 1 5 
3 4 2 0 
3 0 1 6 
3 3 5 2 
3 8 4 6 
